<svg xmlns="http://www.w3.org/2000/svg" width="101" height="100" viewBox="0 0 101 100" fill="none">
  <circle cx="50.7305" cy="50" r="50" fill="#1F133E"/>
  <circle cx="50.7305" cy="50" r="45" fill="#352B51"/>
  <path d="M69.2455 35H33.7545C32.4939 35.0015 31.2854 35.503 30.394 36.3944C29.5027 37.2858 29.0014 38.4944 29 39.7551V59.7999C29.0014 61.0605 29.5027 62.2691 30.394 63.1605C31.2854 64.052 32.4939 64.5534 33.7545 64.5549H69.2455C70.5061 64.5534 71.7146 64.052 72.606 63.1605C73.4973 62.2691 73.9986 61.0605 74 59.7999V39.7551C73.9986 38.4944 73.4973 37.2858 72.606 36.3944C71.7146 35.503 70.5061 35.0015 69.2455 35ZM33.7545 37.8125H69.2455C69.7603 37.8137 70.2536 38.0188 70.6176 38.3828C70.9815 38.7469 71.1865 39.2403 71.1876 39.7551V42.5465H31.8124V39.7551C31.8135 39.2403 32.0185 38.7469 32.3824 38.3828C32.7464 38.0188 33.2397 37.8137 33.7545 37.8125ZM69.2455 61.7425H33.7545C33.2397 61.7412 32.7464 61.5362 32.3824 61.1721C32.0185 60.808 31.8135 60.3146 31.8124 59.7999V45.359H71.1876V59.7999C71.1865 60.3146 70.9815 60.808 70.6176 61.1721C70.2536 61.5362 69.7603 61.7412 69.2455 61.7425ZM46.1871 56.9172C46.1871 57.2902 46.039 57.6479 45.7752 57.9116C45.5115 58.1753 45.1538 58.3234 44.7809 58.3234H36.1315C35.7585 58.3234 35.4009 58.1753 35.1372 57.9116C34.8734 57.6479 34.7253 57.2902 34.7253 56.9172C34.7253 56.5443 34.8734 56.1866 35.1372 55.9229C35.4009 55.6591 35.7585 55.511 36.1315 55.511H44.7809C45.1538 55.511 45.5115 55.6591 45.7752 55.9229C46.039 56.1866 46.1871 56.5443 46.1871 56.9172ZM51.4257 51.0285C51.4257 51.4014 51.2776 51.7591 51.0138 52.0228C50.7501 52.2865 50.3925 52.4347 50.0195 52.4347H36.1315C35.7585 52.4347 35.4009 52.2865 35.1372 52.0228C34.8734 51.7591 34.7253 51.4014 34.7253 51.0285C34.7253 50.6555 34.8734 50.2978 35.1372 50.0341C35.4009 49.7704 35.7585 49.6222 36.1315 49.6222H50.0195C50.2042 49.6222 50.387 49.6586 50.5576 49.7293C50.7282 49.7999 50.8833 49.9035 51.0138 50.0341C51.1444 50.1647 51.248 50.3197 51.3187 50.4903C51.3893 50.6609 51.4257 50.8438 51.4257 51.0285Z" fill="white"/>
</svg>