<svg
    xmlns="http://www.w3.org/2000/svg"
    width="auto"
    height="auto"
    viewBox="0 0 100 100"
    fill="none"
    >
    <circle cx="50" cy="50" r="50" fill="#1F133E" />
    <circle cx="50" cy="50" r="45" fill="#352B51" />
    <path
        fillRule="evenodd"
        clipRule="evenodd"
        d="M32.8214 30.2144C30.1782 30.2144 28 32.3925 28 35.0358V68.7858C28 71.4291 30.1782 73.6072 32.8214 73.6072H68.1786C70.8218 73.6072 73 71.4291 73 68.7858V35.0358C73 32.3925 70.8218 30.2144 68.1786 30.2144H32.8214ZM32.8214 33.4286H68.1786C69.0967 33.4286 69.7857 34.1176 69.7857 35.0358V68.7858C69.7857 69.7039 69.0967 70.3929 68.1786 70.3929H32.8214C31.9033 70.3929 31.2143 69.7039 31.2143 68.7858V35.0358C31.2143 34.1176 31.9033 33.4286 32.8214 33.4286Z"
        fill="white"
    />
    <path
        fillRule="evenodd"
        clipRule="evenodd"
        d="M29.6071 41.4644C29.1809 41.4644 28.7721 41.6337 28.4707 41.9351C28.1693 42.2365 28 42.6453 28 43.0715C28 43.4977 28.1693 43.9065 28.4707 44.2079C28.7721 44.5093 29.1809 44.6786 29.6071 44.6786H71.3929C71.8191 44.6786 72.2279 44.5093 72.5293 44.2079C72.8307 43.9065 73 43.4977 73 43.0715C73 42.6453 72.8307 42.2365 72.5293 41.9351C72.2279 41.6337 71.8191 41.4644 71.3929 41.4644H29.6071Z"
        fill="white"
    />
    <path
        fillRule="evenodd"
        clipRule="evenodd"
        d="M36.0349 27C35.6086 27 35.1999 27.1693 34.8985 27.4707C34.5971 27.7721 34.4277 28.1809 34.4277 28.6071V36.6429C34.4277 37.0691 34.5971 37.4779 34.8985 37.7793C35.1999 38.0807 35.6086 38.25 36.0349 38.25C36.4611 38.25 36.8699 38.0807 37.1713 37.7793C37.4727 37.4779 37.642 37.0691 37.642 36.6429V28.6071C37.642 28.1809 37.4727 27.7721 37.1713 27.4707C36.8699 27.1693 36.4611 27 36.0349 27Z"
        fill="white"
    />
    <path
        fillRule="evenodd"
        clipRule="evenodd"
        d="M50.4997 27C50.0735 27 49.6647 27.1693 49.3633 27.4707C49.0619 27.7721 48.8926 28.1809 48.8926 28.6071V36.6429C48.8926 37.0691 49.0619 37.4779 49.3633 37.7793C49.6647 38.0807 50.0735 38.25 50.4997 38.25C50.926 38.25 51.3347 38.0807 51.6361 37.7793C51.9375 37.4779 52.1069 37.0691 52.1069 36.6429V28.6071C52.1069 28.1809 51.9375 27.7721 51.6361 27.4707C51.3347 27.1693 50.926 27 50.4997 27Z"
        fill="white"
    />
    <path
        fillRule="evenodd"
        clipRule="evenodd"
        d="M64.9646 27C64.5383 27 64.1296 27.1693 63.8282 27.4707C63.5268 27.7721 63.3574 28.1809 63.3574 28.6071V36.6429C63.3574 37.0691 63.5268 37.4779 63.8282 37.7793C64.1296 38.0807 64.5383 38.25 64.9646 38.25C65.3908 38.25 65.7996 38.0807 66.101 37.7793C66.4024 37.4779 66.5717 37.0691 66.5717 36.6429V28.6071C66.5717 28.1809 66.4024 27.7721 66.101 27.4707C65.7996 27.1693 65.3908 27 64.9646 27Z"
        fill="white"
    />
    <path
        fillRule="evenodd"
        clipRule="evenodd"
        d="M39.2492 59.1431C36.6054 59.1431 34.4277 61.3207 34.4277 63.9645C34.4277 66.6083 36.6054 68.7859 39.2492 68.7859C41.8929 68.7859 44.0706 66.6083 44.0706 63.9645C44.0706 61.3207 41.8929 59.1431 39.2492 59.1431ZM39.2492 62.3574C40.1558 62.3574 40.8563 63.0579 40.8563 63.9645C40.8563 64.8711 40.1558 65.5716 39.2492 65.5716C38.3425 65.5716 37.642 64.8711 37.642 63.9645C37.642 63.0579 38.3425 62.3574 39.2492 62.3574Z"
        fill="white"
    />
    <path
        fillRule="evenodd"
        clipRule="evenodd"
        d="M50.4992 59.1431C47.8554 59.1431 45.6777 61.3207 45.6777 63.9645C45.6777 66.6083 47.8554 68.7859 50.4992 68.7859C53.1429 68.7859 55.3206 66.6083 55.3206 63.9645C55.3206 61.3207 53.1429 59.1431 50.4992 59.1431ZM50.4992 62.3574C51.4058 62.3574 52.1063 63.0579 52.1063 63.9645C52.1063 64.8711 51.4058 65.5716 50.4992 65.5716C49.5925 65.5716 48.892 64.8711 48.892 63.9645C48.892 63.0579 49.5925 62.3574 50.4992 62.3574Z"
        fill="white"
    />
    <path
        fillRule="evenodd"
        clipRule="evenodd"
        d="M61.7492 47.8931C59.1054 47.8931 56.9277 50.0707 56.9277 52.7145C56.9277 55.3583 59.1054 57.5359 61.7492 57.5359C64.3929 57.5359 66.5706 55.3583 66.5706 52.7145C66.5706 50.0707 64.3929 47.8931 61.7492 47.8931ZM61.7492 51.1074C62.6558 51.1074 63.3563 51.8079 63.3563 52.7145C63.3563 53.6211 62.6558 54.3216 61.7492 54.3216C60.8425 54.3216 60.142 53.6211 60.142 52.7145C60.142 51.8079 60.8425 51.1074 61.7492 51.1074Z"
        fill="white"
    />
    <path
        fillRule="evenodd"
        clipRule="evenodd"
        d="M61.7492 59.1431C59.1054 59.1431 56.9277 61.3207 56.9277 63.9645C56.9277 66.6083 59.1054 68.7859 61.7492 68.7859C64.3929 68.7859 66.5706 66.6083 66.5706 63.9645C66.5706 61.3207 64.3929 59.1431 61.7492 59.1431ZM61.7492 62.3574C62.6558 62.3574 63.3563 63.0579 63.3563 63.9645C63.3563 64.8711 62.6558 65.5716 61.7492 65.5716C60.8425 65.5716 60.142 64.8711 60.142 63.9645C60.142 63.0579 60.8425 62.3574 61.7492 62.3574Z"
        fill="white"
    />
    <path
        fillRule="evenodd"
        clipRule="evenodd"
        d="M40.8566 47.8931C38.2133 47.8931 36.0352 50.0712 36.0352 52.7145C36.0352 55.3578 38.2133 57.5359 40.8566 57.5359H50.4994C53.1427 57.5359 55.3209 55.3578 55.3209 52.7145C55.3209 50.0712 53.1427 47.8931 50.4994 47.8931H40.8566ZM40.8566 51.1074H50.4994C51.4176 51.1074 52.1066 51.7963 52.1066 52.7145C52.1066 53.6327 51.4176 54.3216 50.4994 54.3216H40.8566C39.9384 54.3216 39.2494 53.6327 39.2494 52.7145C39.2494 51.7963 39.9384 51.1074 40.8566 51.1074Z"
        fill="white"
    />
    </svg>