<svg width="300" height="126" viewBox="0 0 300 126" fill="none" xmlns="http://www.w3.org/2000/svg">
<path d="M12.4716 97.56L12.0556 96.344L11.6396 97.56L8.11963 106.36H16.0236L12.4716 97.56ZM10.5836 92.6H13.5916L22.5836 115H19.3836L17.0156 109.08H7.12763L4.79163 115H1.59163L10.5836 92.6ZM37.9576 91.352C38.8216 91.352 39.5256 91.48 40.1336 91.736V94.232C39.5256 93.976 38.8536 93.848 38.1816 93.848C36.6776 93.848 35.9096 94.712 35.9096 96.472V98.872H39.9096V101.4H35.9096V115H33.1256V101.4H30.2136V98.872H33.1256V96.408C33.1256 93.208 34.8856 91.352 37.9576 91.352ZM50.5026 98.712V101.464C49.1906 101.464 48.1026 101.848 47.2386 102.648C46.2786 103.512 45.7986 104.792 45.7666 106.456V115H43.0146V98.872H45.4786L45.6706 101.688C46.2786 100.024 47.9426 98.712 50.5026 98.712ZM57.0896 93.912C57.0896 94.936 56.2256 95.768 55.1696 95.768C54.1136 95.768 53.2816 94.936 53.2816 93.912C53.2816 92.856 54.1136 92.024 55.1696 92.024C56.2256 92.024 57.0896 92.856 57.0896 93.912ZM53.7936 98.872H56.5456V115H53.7936V98.872ZM67.9741 98.52C72.3581 98.52 75.3021 101.432 75.3021 106.712V108.024H63.0461C63.2701 110.968 65.2541 112.792 68.0381 112.792C70.2781 112.792 71.7181 111.928 72.3901 110.168H75.1421C74.1501 113.4 71.6541 115.352 67.9741 115.352C65.7021 115.352 63.8141 114.584 62.3741 113.048C60.9341 111.512 60.1981 109.496 60.1981 106.968C60.1981 104.504 60.9021 102.488 62.3421 100.92C63.7821 99.32 65.6381 98.52 67.9741 98.52ZM67.9741 101.08C65.2541 101.08 63.4301 102.904 63.0781 105.56H72.5181C72.4861 102.84 70.6621 101.08 67.9741 101.08ZM86.3656 98.52C89.7256 98.52 91.6136 100.888 91.6136 104.568V115H88.8296V105.016C88.8296 102.552 87.6456 101.208 85.6936 101.208C83.5176 101.208 81.9496 103.16 81.9496 106.36V115H79.1976V98.872H81.6616L81.8216 101.08C82.7176 99.384 84.2216 98.52 86.3656 98.52ZM107.845 91.64H110.597V115H108.133L107.973 112.632C106.725 114.456 104.869 115.352 102.437 115.352C100.197 115.352 98.3729 114.552 96.9969 112.984C95.6209 111.384 94.9169 109.368 94.9169 106.936C94.9169 104.536 95.6209 102.52 96.9969 100.92C98.4049 99.32 100.229 98.52 102.469 98.52C104.933 98.52 106.725 99.384 107.845 101.08V91.64ZM102.885 101.144C101.381 101.144 100.165 101.688 99.2049 102.776C98.2449 103.832 97.7649 105.24 97.7649 106.936C97.7649 110.392 99.7809 112.76 102.853 112.76C104.229 112.76 105.381 112.248 106.373 111.192C107.365 110.136 107.877 108.792 107.877 107.096V106.936C107.877 105.208 107.365 103.8 106.373 102.744C105.381 101.688 104.229 101.144 102.885 101.144ZM125.433 93.912C125.433 94.936 124.569 95.768 123.513 95.768C122.457 95.768 121.625 94.936 121.625 93.912C121.625 92.856 122.457 92.024 123.513 92.024C124.569 92.024 125.433 92.856 125.433 93.912ZM122.137 98.872H124.889V115H122.137V98.872ZM137.022 98.52C140.382 98.52 142.27 100.888 142.27 104.568V115H139.486V105.016C139.486 102.552 138.302 101.208 136.35 101.208C134.174 101.208 132.606 103.16 132.606 106.36V115H129.854V98.872H132.318L132.478 101.08C133.374 99.384 134.878 98.52 137.022 98.52ZM159.943 98.52C164.327 98.52 167.271 101.432 167.271 106.712V108.024H155.015C155.239 110.968 157.223 112.792 160.007 112.792C162.247 112.792 163.687 111.928 164.359 110.168H167.111C166.119 113.4 163.623 115.352 159.943 115.352C157.671 115.352 155.783 114.584 154.343 113.048C152.903 111.512 152.167 109.496 152.167 106.968C152.167 104.504 152.871 102.488 154.311 100.92C155.751 99.32 157.607 98.52 159.943 98.52ZM159.943 101.08C157.223 101.08 155.399 102.904 155.047 105.56H164.487C164.455 102.84 162.631 101.08 159.943 101.08ZM181.217 98.872H184.193L178.017 115H175.265L169.121 98.872H172.065L176.321 110.456L176.641 111.672L176.961 110.456L181.217 98.872ZM193.255 98.52C197.639 98.52 200.583 101.432 200.583 106.712V108.024H188.327C188.551 110.968 190.535 112.792 193.319 112.792C195.559 112.792 196.999 111.928 197.671 110.168H200.423C199.431 113.4 196.935 115.352 193.255 115.352C190.983 115.352 189.095 114.584 187.655 113.048C186.215 111.512 185.479 109.496 185.479 106.968C185.479 104.504 186.183 102.488 187.623 100.92C189.063 99.32 190.919 98.52 193.255 98.52ZM193.255 101.08C190.535 101.08 188.711 102.904 188.359 105.56H197.799C197.767 102.84 195.943 101.08 193.255 101.08ZM212.159 98.712V101.464C210.847 101.464 209.759 101.848 208.895 102.648C207.935 103.512 207.455 104.792 207.423 106.456V115H204.671V98.872H207.135L207.327 101.688C207.935 100.024 209.599 98.712 212.159 98.712ZM225.717 98.872H228.693L219.893 121.88H216.981L219.669 114.776L213.621 98.872H216.565L220.821 110.456L221.141 111.672L221.461 110.456L225.717 98.872ZM244.788 98.52C248.404 98.52 251.188 100.44 251.956 103.896H249.204C248.564 102.104 246.9 101.08 244.82 101.08C243.38 101.08 242.164 101.624 241.204 102.744C240.276 103.864 239.796 105.272 239.796 106.968C239.796 108.632 240.276 110.008 241.236 111.128C242.196 112.248 243.412 112.792 244.884 112.792C246.932 112.792 248.66 111.672 249.204 109.976H251.988C251.124 113.432 248.372 115.352 244.788 115.352C242.516 115.352 240.628 114.552 239.156 112.984C237.684 111.416 236.948 109.4 236.948 106.968C236.948 104.536 237.684 102.52 239.156 100.92C240.66 99.32 242.516 98.52 244.788 98.52ZM259.058 93.912C259.058 94.936 258.194 95.768 257.138 95.768C256.082 95.768 255.25 94.936 255.25 93.912C255.25 92.856 256.082 92.024 257.138 92.024C258.194 92.024 259.058 92.856 259.058 93.912ZM255.762 98.872H258.514V115H255.762V98.872ZM264.375 94.84H267.159L267.127 98.872H271.255V101.432H267.095L267.031 110.072C267.031 111.96 267.543 112.696 269.335 112.696C270.039 112.696 270.679 112.6 271.255 112.408V114.872C270.679 115.096 269.879 115.224 268.855 115.224C265.751 115.224 264.247 113.816 264.279 110.584L264.343 101.432H261.335V98.872H264.343L264.375 94.84ZM284.842 98.872H287.818L279.018 121.88H276.106L278.794 114.776L272.746 98.872H275.69L279.946 110.456L280.266 111.672L280.586 110.456L284.842 98.872Z" fill="white"/>
<path d="M158.55 64.4999V38.5926C158.55 35.3031 157.951 32.6156 156.729 30.5301C155.508 28.4446 153.879 26.8966 151.822 25.8861C149.765 24.8756 147.408 24.3596 144.75 24.3596C142.329 24.3596 140.122 24.8541 138.15 25.8431C136.179 26.8321 134.615 28.1436 133.458 29.7776L133.436 29.7991C132.472 31.1966 131.979 32.8736 131.979 34.5506V59.3186C131.979 62.1784 129.686 64.4785 126.836 64.4785H123.193V16.985H131.979V21.93C133.2 20.7691 134.594 19.7801 136.136 18.92C139.2 17.2431 142.629 16.4045 146.443 16.4045C150.429 16.4045 153.986 17.2646 157.136 18.963C160.287 20.6616 162.772 23.1771 164.594 26.4666C166.415 29.7561 167.315 33.7981 167.315 38.5926V59.34C167.315 62.1998 165.022 64.4999 162.172 64.4999H158.55Z" fill="white"/>
<path d="M209.337 64.4999V38.5926C209.337 35.3031 208.737 32.6156 207.515 30.5301C206.293 28.4446 204.665 26.8966 202.608 25.8861C200.551 24.8756 198.193 24.3596 195.537 24.3596C193.115 24.3596 190.908 24.8541 188.937 25.8431C186.965 26.8321 185.401 28.1436 184.244 29.7776L184.222 29.7991C183.258 31.1966 182.765 32.8736 182.765 34.5506V59.34C182.765 62.1998 180.472 64.4999 177.622 64.4999H173.979V16.985H182.765V21.93C183.986 20.7691 185.379 19.7801 186.922 18.92C189.987 17.2431 193.415 16.4045 197.229 16.4045C201.215 16.4045 204.772 17.2646 207.922 18.963C211.072 20.6616 213.558 23.1771 215.379 26.4666C217.201 29.7561 218.101 33.7981 218.101 38.5926V59.34C218.101 62.1998 215.808 64.4999 212.958 64.4999H209.337Z" fill="white"/>
<path d="M62.5508 0H53.9795V64.5004H62.5508V0Z" fill="white"/>
<path d="M299.979 16.3399V25.155H290.121V59.3399C290.121 62.1997 287.829 64.5003 284.978 64.5003H281.55V25.155H271.907V16.3399H281.55V1.28992H290.121V16.3399H299.979Z" fill="white"/>
<path d="M44.3141 27.993C42.2141 24.338 39.3856 21.4355 35.8284 19.307C32.2502 17.2 28.2002 16.125 23.6784 16.125C19.1999 16.125 15.1713 17.1785 11.6145 19.307C10.6072 19.909 9.66406 20.5755 8.78556 21.285V16.34H0V86H3.64279C6.49259 86 8.78556 83.6999 8.78556 80.8401V56.5879C10.8001 59.0392 13.2213 60.9527 16.0711 62.3933C18.9214 63.812 22.0288 64.5218 25.414 64.5218C29.6142 64.5218 33.3644 63.4683 36.7074 61.3398C40.0285 59.2113 42.6645 56.3515 44.593 52.6965C46.5216 49.0631 47.4856 44.9566 47.4856 40.3556C47.4428 35.7761 46.3928 31.648 44.3141 27.993ZM36.9858 48.6761C35.6359 51.1272 33.7929 53.0836 31.5 54.4813C29.1856 55.9 26.5715 56.6093 23.6357 56.6093C20.7645 56.6093 18.1498 55.9 15.8141 54.4813C13.4784 53.0622 11.6572 51.1272 10.3283 48.6761C9.55718 47.2356 8.99985 45.7091 8.67868 44.0751C8.50715 43.1506 8.37838 42.2045 8.357 41.2156C8.357 41.1296 8.357 41.0221 8.357 40.9361C8.357 40.7641 8.357 40.5921 8.357 40.3986C8.357 39.0871 8.46439 37.8401 8.70005 36.6575C8.70005 36.636 8.70006 36.5931 8.72143 36.5716C9.0426 34.9376 9.57856 33.4326 10.3502 32.0135C11.6786 29.5625 13.4998 27.6276 15.8355 26.2085C18.1712 24.7896 20.7859 24.08 23.657 24.08C26.5928 24.08 29.2284 24.7896 31.5213 26.2085C33.8357 27.6276 35.6573 29.5625 37.0071 32.0135C38.357 34.4645 39.0431 37.2595 39.0431 40.3771C39.0212 43.4516 38.357 46.2036 36.9858 48.6761Z" fill="white"/>
<path d="M116.765 64.5003V40.5275H116.743C116.743 35.9695 115.693 31.8629 113.615 28.2079C111.536 24.5745 108.707 21.6934 105.172 19.5864C101.636 17.4794 97.6288 16.4259 93.1717 16.4259C88.7145 16.4259 84.7078 17.4794 81.1291 19.5864C77.5505 21.6934 74.7221 24.5745 72.6434 28.2079C70.5647 31.8414 69.5146 35.948 69.5146 40.5275C69.5146 45.0855 70.4792 49.192 72.3863 52.8042C74.293 56.4162 76.9076 59.2755 80.2287 61.3826C83.5504 63.4896 87.2792 64.5432 91.4574 64.5432C95.6362 64.5432 99.3645 63.4896 102.686 61.3826C104.722 60.0926 106.479 58.5228 107.979 56.6741V64.5217H116.765V64.5003ZM106.222 48.848C104.893 51.2992 103.072 53.2342 100.779 54.6528C98.4646 56.072 95.8505 56.7814 92.9146 56.7814C90.0221 56.7814 87.4288 56.072 85.0931 54.6528C82.7574 53.2342 80.9149 51.2992 79.5645 48.848C78.2147 46.397 77.5291 43.6235 77.5291 40.5705C77.5291 37.453 78.2147 34.658 79.5645 32.207C80.9149 29.756 82.7574 27.821 85.0931 26.4019C87.4288 24.983 90.0221 24.2734 92.9146 24.2734C95.8505 24.2734 98.486 24.983 100.779 26.4019C103.093 27.821 104.893 29.756 106.222 32.207C107.55 34.658 108.215 37.453 108.215 40.5705C108.215 43.6235 107.55 46.3755 106.222 48.848Z" fill="white"/>
<path d="M269.594 39.8396C269.594 35.2817 268.737 31.2396 267.044 27.7351C265.351 24.2306 262.887 21.5001 259.651 19.5006C256.416 17.5011 252.558 16.5121 248.058 16.5121C243.515 16.5121 239.465 17.5441 235.951 19.5866C232.437 21.6291 229.694 24.4671 227.701 28.0791C225.708 31.6911 224.723 35.8622 224.723 40.6137C224.723 45.3006 225.772 49.4502 227.872 53.0623C229.972 56.6743 232.887 59.5121 236.594 61.5549C240.301 63.5971 244.565 64.6292 249.344 64.6292C251.98 64.6292 254.765 64.1348 257.68 63.1456C261.151 61.9634 264.408 60.1357 267.001 57.4914C266.937 57.5557 261.815 52.8473 261.28 52.3529C260.572 52.9545 259.63 53.7073 258.558 54.4166C258.537 54.4166 258.537 54.438 258.516 54.438C257.487 55.083 256.265 55.6422 254.808 56.158C252.944 56.8244 251.101 57.1472 249.322 57.1472C246.044 57.1472 243.13 56.4164 240.601 54.9758C238.072 53.5352 236.08 51.5573 234.644 49.0847C233.68 47.4077 233.037 45.6017 232.715 43.6237H269.551V39.8826C269.594 39.8826 269.594 39.8611 269.594 39.8396ZM264.301 59.7915C264.28 59.8134 264.237 59.8349 264.215 59.8563C264.172 59.8778 264.151 59.8992 264.108 59.9207C264.172 59.8778 264.237 59.8349 264.301 59.7915ZM232.844 36.7651C233.144 35.1097 233.637 33.5616 234.323 32.1211C235.544 29.6056 237.301 27.6276 239.637 26.1871C241.973 24.7466 244.78 24.0156 248.058 24.0156C250.93 24.0156 253.394 24.6821 255.408 26.0151C257.422 27.3482 258.987 29.1541 260.08 31.4331C260.851 33.0672 261.365 34.8301 261.622 36.7651H232.844Z" fill="white"/>
</svg>
