<svg width="335" height="108" viewBox="0 0 335 108" fill="none" xmlns="http://www.w3.org/2000/svg">
<path d="M19.1736 107.214L19.1807 107.214C20.0335 107.233 20.8713 107.244 21.7291 107.244L310.193 107.25H310.195L313.268 107.244H313.27C314.108 107.244 314.972 107.233 315.798 107.214L315.806 107.214C317.545 107.193 319.28 107.043 320.996 106.764C322.567 106.498 324.089 105.999 325.511 105.282C326.909 104.575 328.184 103.647 329.286 102.536L329.292 102.53C330.396 101.441 331.321 100.186 332.032 98.8106C332.747 97.3961 333.239 95.8807 333.491 94.3176L333.492 94.3132C333.776 92.6194 333.934 90.9071 333.967 89.1902C333.967 89.19 333.967 89.1899 333.967 89.1898L334.717 89.2039C334.728 88.3383 334.728 87.4972 334.728 86.579L19.1736 107.214ZM19.1736 107.214C17.4352 107.192 15.7008 107.041 13.9847 106.764C12.4241 106.496 10.9123 105.998 9.49918 105.287C8.10385 104.584 6.83136 103.662 5.73037 102.557L5.73041 102.557L5.72338 102.55C4.60731 101.459 3.67826 100.194 2.97295 98.8041L2.97234 98.8029C2.25663 97.3993 1.76136 95.8948 1.50373 94.342L1.50363 94.3414C1.21807 92.6288 1.06358 90.8971 1.04158 89.1613L1.04119 89.1482C1.03242 88.8578 1.02211 88.22 1.01394 87.6479C1.00988 87.3633 1.00638 87.0973 1.0039 86.9024L1.00099 86.67L1.00021 86.6062L1.00001 86.5896L1 86.5884M19.1736 107.214L1 86.5884M1 86.5884V21.376L1.00001 21.3752L1.00022 21.3588L1.00104 21.296L1.00411 21.0674C1.00672 20.8756 1.01036 20.614 1.01453 20.3346C1.0229 19.773 1.03325 19.1475 1.04136 18.8672L1.04146 18.8672L1.04162 18.8547C1.06278 17.1217 1.21637 15.3929 1.50105 13.6831L1.50114 13.6826C1.75932 12.125 2.25511 10.6158 2.97141 9.20714L2.97206 9.20586C3.67513 7.81663 4.5995 6.54962 5.70942 5.45401L5.70942 5.45402L5.71223 5.45121C6.8224 4.3437 8.10031 3.41617 9.49944 2.70251C10.9085 1.99413 12.4166 1.50029 13.9732 1.23759C15.695 0.957412 17.4355 0.805931 19.1801 0.784417L19.181 0.784406L21.7355 0.75H313.25H313.256L315.835 0.785787L315.837 0.785805C317.565 0.806242 319.289 0.956304 320.994 1.23471C322.568 1.50091 324.093 1.99856 325.52 2.7113C328.322 4.14994 330.602 6.42436 332.04 9.2157C332.744 10.6135 333.232 12.1091 333.486 13.6518L333.487 13.6532C333.775 15.3779 333.936 17.1212 333.969 18.8692C333.969 18.8702 333.97 18.8712 333.97 18.8721L334.719 18.8579M1 86.5884L334.728 21.3711C334.728 20.5164 334.728 19.6575 334.719 18.8579M334.719 18.8579C334.686 17.0723 334.521 15.2914 334.226 13.5296M334.719 18.8579L334.226 13.5296M334.226 13.5296C333.959 11.9105 333.447 10.3409 332.708 8.87409C331.197 5.94086 328.801 3.55178 325.857 2.0417C324.363 1.29485 322.766 0.773536 321.118 0.494911C319.374 0.210201 317.612 0.0567478 315.846 0.035857L334.226 13.5296Z" fill="black" stroke="white" stroke-width="1.5"/>
<path d="M65.3475 56.0004C65.3784 53.5854 66.0166 51.2176 67.2027 49.1172C68.3888 47.0168 70.0842 45.252 72.1312 43.9871C70.8308 42.1205 69.1153 40.5843 67.1209 39.5006C65.1264 38.4169 62.9081 37.8155 60.642 37.7443C55.808 37.2343 51.1217 40.6516 48.6584 40.6516C46.1474 40.6516 42.3548 37.7949 38.2708 37.8794C35.6291 37.9651 33.0546 38.7372 30.798 40.1204C28.5415 41.5036 26.6799 43.4507 25.3947 45.772C19.8274 55.46 23.9801 69.6982 29.3132 77.5292C31.9814 81.3639 35.0998 85.6473 39.1802 85.4954C43.173 85.329 44.6643 82.9363 49.484 82.9363C54.2591 82.9363 55.6582 85.4954 59.8213 85.3988C64.1059 85.3289 66.8053 81.5471 69.38 77.6762C71.2971 74.9438 72.7723 71.924 73.751 68.7286C71.2618 67.6704 69.1376 65.8992 67.6432 63.6357C66.1488 61.3723 65.3504 58.7168 65.3475 56.0004Z" fill="white"/>
<path d="M57.4913 32.5985C59.8274 29.7798 60.9783 26.1569 60.6996 22.499C57.1305 22.8758 53.8337 24.5903 51.466 27.3008C50.3084 28.625 49.4218 30.1655 48.8569 31.8343C48.2919 33.503 48.0598 35.2674 48.1737 37.0264C49.9589 37.0448 51.7249 36.6559 53.3389 35.889C54.9528 35.122 56.3726 33.9969 57.4913 32.5985Z" fill="white"/>
<path d="M121.597 71.7064H108.166L104.94 81.3766H99.251L111.973 45.5996H117.884L130.606 81.3766H124.82L121.597 71.7064ZM109.557 67.2442H120.204L114.955 51.5503H114.808L109.557 67.2442Z" fill="white"/>
<path d="M158.08 68.3281C158.08 76.4339 153.807 81.6417 147.359 81.6417C145.725 81.7285 144.101 81.3464 142.671 80.5393C141.241 79.7323 140.064 78.5327 139.275 77.0781H139.153V89.9979H133.88V55.2846H138.984V59.623H139.081C139.907 58.1754 141.104 56.9821 142.544 56.1701C143.984 55.3581 145.615 54.9577 147.262 55.0116C153.782 55.0117 158.08 60.2448 158.08 68.3281ZM152.66 68.3281C152.66 63.0471 149.972 59.5752 145.87 59.5752C141.841 59.5752 139.131 63.1203 139.131 68.3281C139.131 73.5838 141.841 77.1035 145.87 77.1035C149.972 77.1035 152.66 73.6569 152.66 68.3281Z" fill="white"/>
<path d="M186.346 68.3281C186.346 76.4339 182.073 81.6417 175.624 81.6417C173.991 81.7285 172.366 81.3464 170.937 80.5393C169.507 79.7322 168.33 78.5327 167.541 77.0781H167.419V89.9979H162.146V55.2845H167.25V59.623H167.347C168.173 58.1754 169.369 56.9821 170.81 56.1701C172.25 55.3581 173.881 54.9577 175.527 55.0116C182.048 55.0116 186.346 60.2448 186.346 68.3281ZM180.926 68.3281C180.926 63.0471 178.238 59.5752 174.136 59.5752C170.107 59.5752 167.397 63.1202 167.397 68.3281C167.397 73.5838 170.107 77.1035 174.136 77.1035C178.238 77.1035 180.926 73.6569 180.926 68.3281H180.926Z" fill="white"/>
<path d="M205.009 71.4042C205.399 74.952 208.794 77.2815 213.433 77.2815C217.878 77.2815 221.076 74.9519 221.076 71.7529C221.076 68.9759 219.147 67.3132 214.58 66.1737L210.013 65.0567C203.543 63.4699 200.539 60.3975 200.539 55.4119C200.539 49.239 205.837 44.999 213.361 44.999C220.807 44.999 225.911 49.239 226.083 55.4119H220.76C220.441 51.8415 217.534 49.6864 213.286 49.6864C209.038 49.6864 206.131 51.8669 206.131 55.0405C206.131 57.5699 207.988 59.0583 212.529 60.1976L216.412 61.1655C223.642 62.9014 226.646 65.8501 226.646 71.0832C226.646 77.7766 221.394 81.9687 213.042 81.9687C205.227 81.9687 199.951 77.875 199.61 71.4039L205.009 71.4042Z" fill="white"/>
<path d="M238.082 49.1123V55.2852H242.967V59.5252H238.082V73.9051C238.082 76.1391 239.06 77.1801 241.208 77.1801C241.788 77.1698 242.367 77.1285 242.942 77.0562V81.2709C241.977 81.454 240.995 81.537 240.013 81.5185C234.812 81.5185 232.783 79.5349 232.783 74.4762V59.5252H229.048V55.2852H232.783V49.1123H238.082Z" fill="white"/>
<path d="M245.782 68.3272C245.782 60.1201 250.543 54.9629 257.967 54.9629C265.416 54.9629 270.154 60.12 270.154 68.3272C270.154 76.5567 265.441 81.6914 257.967 81.6914C250.496 81.6914 245.782 76.5567 245.782 68.3272ZM264.781 68.3272C264.781 62.6973 262.24 59.3745 257.967 59.3745C253.694 59.3745 251.155 62.7226 251.155 68.3272C251.155 73.9795 253.694 77.277 257.967 77.277C262.24 77.277 264.781 73.9795 264.781 68.3272H264.781Z" fill="white"/>
<path d="M274.481 55.2843H279.511V59.724H279.633C279.973 58.3374 280.773 57.112 281.899 56.2538C283.024 55.3956 284.406 54.9568 285.813 55.0114C286.42 55.0092 287.027 55.0762 287.62 55.2111V60.2192C286.852 59.9812 286.052 59.8719 285.25 59.8957C284.484 59.8641 283.72 60.0013 283.011 60.2977C282.302 60.5941 281.665 61.0428 281.143 61.6129C280.621 62.1831 280.226 62.8611 279.987 63.6006C279.747 64.3401 279.668 65.1235 279.755 65.8969V81.3685H274.481L274.481 55.2843Z" fill="white"/>
<path d="M311.953 73.7066C311.244 78.4418 306.702 81.6914 300.891 81.6914C293.417 81.6914 288.778 76.6074 288.778 68.451C288.778 60.2692 293.442 54.9629 300.669 54.9629C307.777 54.9629 312.247 59.9203 312.247 67.8292V69.6636H294.102V69.9871C294.018 70.9471 294.136 71.9142 294.449 72.8241C294.762 73.7341 295.261 74.5661 295.915 75.2649C296.569 75.9637 297.361 76.5133 298.24 76.8772C299.119 77.241 300.064 77.4109 301.013 77.3755C302.259 77.494 303.51 77.201 304.579 76.5399C305.648 75.8789 306.478 74.8852 306.946 73.7066L311.953 73.7066ZM294.127 65.9216H306.971C307.018 65.0584 306.889 64.1947 306.592 63.3845C306.295 62.5743 305.836 61.8352 305.245 61.2136C304.653 60.5919 303.941 60.1012 303.154 59.7721C302.366 59.4431 301.521 59.2828 300.669 59.3014C299.811 59.2962 298.959 59.4637 298.165 59.7943C297.37 60.1248 296.648 60.6119 296.039 61.2274C295.431 61.8429 294.949 62.5746 294.621 63.3803C294.292 64.186 294.124 65.0497 294.127 65.9216V65.9216Z" fill="white"/>
<path d="M108.374 18.8278C109.481 18.7486 110.592 18.9152 111.627 19.3156C112.662 19.716 113.594 20.3401 114.357 21.143C115.121 21.9459 115.695 22.9075 116.04 23.9585C116.385 25.0095 116.492 26.1237 116.352 27.2207C116.352 32.617 113.425 35.7188 108.374 35.7188H102.25V18.8278H108.374ZM104.883 33.3301H108.08C108.871 33.3772 109.663 33.248 110.398 32.9518C111.132 32.6557 111.791 32.2001 112.327 31.6181C112.863 31.0362 113.261 30.3426 113.494 29.5879C113.726 28.8331 113.787 28.0362 113.672 27.2551C113.779 26.4771 113.712 25.6851 113.476 24.9359C113.24 24.1867 112.84 23.4988 112.306 22.9215C111.771 22.3442 111.115 21.8918 110.385 21.5968C109.654 21.3017 108.867 21.1712 108.08 21.2147H104.883V33.3301Z" fill="white"/>
<path d="M119.323 29.3453C119.243 28.5076 119.339 27.6624 119.606 26.864C119.872 26.0655 120.303 25.3313 120.872 24.7086C121.44 24.0858 122.132 23.5883 122.905 23.2478C123.677 22.9073 124.513 22.7314 125.357 22.7314C126.202 22.7314 127.037 22.9073 127.81 23.2478C128.582 23.5883 129.275 24.0858 129.843 24.7086C130.411 25.3313 130.842 26.0655 131.109 26.864C131.376 27.6624 131.472 28.5076 131.391 29.3453C131.473 30.1839 131.378 31.0302 131.112 31.83C130.847 32.6298 130.416 33.3653 129.847 33.9893C129.279 34.6132 128.586 35.1118 127.813 35.453C127.039 35.7942 126.203 35.9705 125.357 35.9705C124.512 35.9705 123.675 35.7942 122.902 35.453C122.129 35.1118 121.436 34.6132 120.867 33.9893C120.299 33.3653 119.868 32.6298 119.602 31.83C119.336 31.0302 119.241 30.1839 119.323 29.3453ZM128.794 29.3453C128.794 26.5822 127.548 24.9664 125.362 24.9664C123.167 24.9664 121.932 26.5822 121.932 29.3454C121.932 32.1306 123.167 33.734 125.362 33.734C127.548 33.7339 128.794 32.1195 128.794 29.3453H128.794Z" fill="white"/>
<path d="M147.447 35.7246H144.828L142.183 26.3364H141.984L139.35 35.7246H136.755L133.229 22.9775H135.79L138.082 32.7043H138.271L140.901 22.9775H143.324L145.954 32.7043H146.154L148.435 22.9775H150.96L147.447 35.7246Z" fill="white"/>
<path d="M153.936 22.9754H156.366V25.0004H156.555C156.875 24.2731 157.415 23.6634 158.1 23.2563C158.784 22.8492 159.579 22.665 160.373 22.7293C160.996 22.6827 161.621 22.7762 162.203 23.003C162.784 23.2297 163.307 23.5839 163.732 24.0392C164.157 24.4945 164.474 25.0393 164.66 25.6333C164.845 26.2272 164.894 26.8551 164.802 27.4704V35.7223H162.277V28.1021C162.277 26.0537 161.384 25.0349 159.516 25.0349C159.093 25.0153 158.671 25.087 158.279 25.245C157.887 25.4031 157.533 25.6438 157.243 25.9506C156.953 26.2574 156.733 26.6231 156.598 27.0226C156.463 27.4221 156.416 27.846 156.461 28.2652V35.7224H153.936L153.936 22.9754Z" fill="white"/>
<path d="M168.844 18H171.369V35.7231H168.844V18Z" fill="white"/>
<path d="M174.847 29.3456C174.767 28.5078 174.863 27.6626 175.13 26.8641C175.397 26.0655 175.828 25.3314 176.396 24.7086C176.964 24.0859 177.657 23.5883 178.429 23.2478C179.202 22.9073 180.037 22.7314 180.882 22.7314C181.727 22.7314 182.562 22.9073 183.335 23.2478C184.107 23.5883 184.8 24.0859 185.368 24.7086C185.936 25.3314 186.368 26.0655 186.634 26.8641C186.901 27.6626 186.997 28.5078 186.917 29.3456C186.999 30.1842 186.904 31.0305 186.638 31.8303C186.372 32.6301 185.941 33.3656 185.372 33.9895C184.804 34.6134 184.111 35.112 183.338 35.4532C182.564 35.7944 181.728 35.9707 180.882 35.9707C180.036 35.9707 179.2 35.7944 178.427 35.4532C177.653 35.112 176.96 34.6134 176.392 33.9895C175.824 33.3656 175.393 32.6301 175.127 31.8303C174.861 31.0305 174.765 30.1842 174.847 29.3456ZM184.318 29.3456C184.318 26.5825 183.072 24.9666 180.886 24.9666C178.691 24.9666 177.456 26.5825 177.456 29.3456C177.456 32.1308 178.691 33.7342 180.886 33.7342C183.072 33.7342 184.318 32.1197 184.318 29.3456H184.318Z" fill="white"/>
<path d="M189.574 32.1196C189.574 29.8251 191.289 28.5023 194.333 28.3143L197.799 28.1153V27.015C197.799 25.6687 196.906 24.9085 195.18 24.9085C193.77 24.9085 192.793 25.424 192.513 26.3253H190.068C190.326 24.1358 192.394 22.7314 195.296 22.7314C198.504 22.7314 200.313 24.3224 200.313 27.015V35.7245H197.882V33.9331H197.683C197.277 34.5757 196.708 35.0995 196.032 35.4512C195.357 35.8028 194.6 35.9696 193.839 35.9345C193.302 35.9902 192.759 35.9331 192.246 35.7669C191.732 35.6007 191.259 35.3292 190.857 34.9698C190.455 34.6103 190.134 34.171 189.913 33.6801C189.692 33.1892 189.576 32.6576 189.574 32.1196ZM197.799 31.0304V29.9647L194.675 30.1637C192.912 30.2812 192.113 30.8783 192.113 32.0021C192.113 33.1493 193.112 33.817 194.486 33.817C194.888 33.8576 195.295 33.8171 195.681 33.6979C196.068 33.5788 196.426 33.3834 196.736 33.1234C197.045 32.8634 197.298 32.5441 197.481 32.1846C197.664 31.825 197.772 31.4325 197.799 31.0304Z" fill="white"/>
<path d="M203.625 29.3441C203.625 25.3162 205.704 22.7646 208.937 22.7646C209.736 22.7279 210.53 22.9187 211.225 23.3147C211.92 23.7108 212.487 24.2956 212.861 25.001H213.049V18H215.574V35.7231H213.155V33.7091H212.955C212.553 34.4097 211.965 34.9873 211.257 35.3793C210.549 35.7714 209.746 35.9629 208.937 35.9331C205.682 35.9333 203.625 33.3816 203.625 29.3441ZM206.234 29.3441C206.234 32.0478 207.513 33.6747 209.653 33.6747C211.781 33.6747 213.096 32.0243 213.096 29.3552C213.096 26.6985 211.767 25.0246 209.653 25.0246C207.527 25.0246 206.234 26.6625 206.234 29.3441H206.234Z" fill="white"/>
<path d="M226.028 29.3453C225.948 28.5076 226.044 27.6624 226.31 26.864C226.577 26.0655 227.008 25.3313 227.576 24.7086C228.145 24.0858 228.837 23.5883 229.61 23.2478C230.382 22.9073 231.217 22.7314 232.062 22.7314C232.907 22.7314 233.742 22.9073 234.515 23.2478C235.287 23.5883 235.98 24.0858 236.548 24.7086C237.116 25.3313 237.547 26.0655 237.814 26.864C238.081 27.6624 238.177 28.5076 238.096 29.3453C238.178 30.1839 238.083 31.0302 237.817 31.83C237.551 32.6298 237.12 33.3653 236.552 33.9893C235.984 34.6132 235.291 35.1118 234.517 35.453C233.744 35.7942 232.908 35.9705 232.062 35.9705C231.216 35.9705 230.38 35.7942 229.607 35.453C228.834 35.1118 228.141 34.6132 227.572 33.9893C227.004 33.3653 226.573 32.6298 226.307 31.83C226.041 31.0302 225.946 30.1839 226.028 29.3453ZM235.499 29.3453C235.499 26.5822 234.253 24.9664 232.066 24.9664C229.871 24.9664 228.637 26.5822 228.637 29.3454C228.637 32.1306 229.871 33.734 232.066 33.734C234.253 33.7339 235.499 32.1195 235.499 29.3453Z" fill="white"/>
<path d="M241.459 22.9754H243.89V25.0004H244.079C244.399 24.2731 244.939 23.6634 245.624 23.2563C246.308 22.8492 247.103 22.665 247.897 22.7293C248.52 22.6827 249.145 22.7762 249.726 23.003C250.308 23.2297 250.831 23.5839 251.256 24.0392C251.681 24.4945 251.998 25.0393 252.184 25.6333C252.369 26.2272 252.418 26.8551 252.326 27.4704V35.7223H249.801V28.1021C249.801 26.0537 248.907 25.0349 247.04 25.0349C246.617 25.0153 246.195 25.087 245.803 25.245C245.411 25.4031 245.057 25.6438 244.767 25.9506C244.477 26.2574 244.257 26.6231 244.122 27.0226C243.987 27.4221 243.94 27.846 243.985 28.2652V35.7224H241.459V22.9754Z" fill="white"/>
<path d="M266.632 19.8047V23.0364H269.404V25.1553H266.632V31.7099C266.632 33.0452 267.184 33.6299 268.441 33.6299C268.763 33.6288 269.085 33.6094 269.404 33.5718V35.6673C268.951 35.7481 268.491 35.7911 268.031 35.7958C265.222 35.7958 264.104 34.8116 264.104 32.354V25.1552H262.073V23.0362H264.104V19.8047H266.632Z" fill="white"/>
<path d="M272.837 18H275.34V25.0246H275.54C275.875 24.2905 276.43 23.6773 277.128 23.2687C277.826 22.8601 278.634 22.6758 279.441 22.7411C280.06 22.7075 280.68 22.8105 281.254 23.0428C281.829 23.275 282.345 23.6308 282.766 24.0847C283.187 24.5386 283.502 25.0794 283.689 25.6686C283.876 26.2578 283.93 26.8808 283.848 27.4932V35.7231H281.32V28.1138C281.32 26.0778 280.368 25.0466 278.584 25.0466C278.15 25.0112 277.713 25.0706 277.305 25.2208C276.896 25.371 276.526 25.6083 276.219 25.9161C275.912 26.2239 275.676 26.5948 275.528 27.0029C275.38 27.4109 275.324 27.8462 275.362 28.2783V35.723H272.837L272.837 18Z" fill="white"/>
<path d="M298.597 32.2829C298.254 33.4479 297.511 34.4557 296.497 35.1298C295.484 35.804 294.265 36.1016 293.053 35.9707C292.21 35.9929 291.372 35.832 290.598 35.4993C289.824 35.1666 289.131 34.6701 288.569 34.0441C288.007 33.4181 287.588 32.6776 287.341 31.8742C287.095 31.0707 287.027 30.2235 287.142 29.3913C287.03 28.5565 287.099 27.7075 287.345 26.9016C287.591 26.0958 288.007 25.3519 288.567 24.7204C289.126 24.0889 289.815 23.5846 290.587 23.2414C291.36 22.8983 292.197 22.7245 293.042 22.7317C296.602 22.7317 298.75 25.1548 298.75 29.1576V30.0354H289.715V30.1764C289.675 30.6442 289.734 31.1151 289.888 31.5588C290.042 32.0025 290.287 32.4093 290.608 32.7532C290.929 33.097 291.318 33.3702 291.751 33.5553C292.184 33.7405 292.651 33.8334 293.122 33.8282C293.726 33.9004 294.338 33.7921 294.881 33.5169C295.423 33.2417 295.87 32.8122 296.167 32.2828L298.597 32.2829ZM289.715 28.1749H296.178C296.209 27.7471 296.151 27.3174 296.006 26.9134C295.861 26.5094 295.633 26.14 295.337 25.829C295.04 25.518 294.682 25.2723 294.284 25.1076C293.886 24.9429 293.459 24.8629 293.028 24.8728C292.591 24.8673 292.158 24.949 291.753 25.113C291.349 25.277 290.981 25.5201 290.672 25.8278C290.364 26.1356 290.12 26.5018 289.955 26.9049C289.791 27.308 289.709 27.7398 289.715 28.1749H289.715Z" fill="white"/>
</svg>
