<svg xmlns="http://www.w3.org/2000/svg" width="200" height="200" viewBox="0 0 200 200" fill="none">
  <path d="M100.356 156.912C93.4999 159.437 84.7937 162.637 73.7812 166.718C54.975 164.093 35.2125 157.975 26.6687 143.931C29.7812 135.55 32.4937 128.206 34.8937 121.725C50.9937 140.325 79.1249 152.137 100.356 156.912Z" fill="white" fill-opacity="0.6"/>
  <path d="M105.819 94.1816C87.5188 75.8879 63.9563 62.3754 54.35 72.0004C52.3 74.0504 52.9188 72.8254 38.675 111.482C53.8626 133.4 92.2376 148.707 118.969 150.05C126.963 147.044 126.775 146.894 128.006 145.657C139.788 133.875 117.594 105.95 105.819 94.1816ZM121.369 139.019C120.475 139.925 116.319 139.969 108.938 136.325C100.913 132.357 91.7563 125.438 83.1563 116.838C63.2313 96.9129 58.575 81.0254 60.975 78.6254C61.35 78.2504 62.05 78.0504 63.0438 78.0504C68.425 78.0504 82.3688 83.9941 99.1938 100.813C107.794 109.413 114.719 118.569 118.688 126.594C122.331 133.963 122.269 138.125 121.369 139.019Z" fill="white"/>
  <path d="M56.6188 173.087C45.7938 177.112 33.3126 181.775 18.8188 187.206C15.0501 188.593 11.4001 184.931 12.7938 181.181C16.4438 171.406 19.7376 162.568 22.7376 154.506C30.9751 163.968 43.3626 169.706 56.6188 173.087Z" fill="white"/>
  <path d="M122.931 24.3433C120.013 24.8558 117.194 25.3183 115.281 26.2808C118.156 30.6933 124.163 36.3121 120.494 43.6496C117.213 50.2121 110.394 49.8246 104.475 50.0308C108.106 54.9933 112.306 60.0246 109.069 66.5058C105.713 73.2246 96.9125 74.6183 91.7188 75.4621C90.0375 75.7371 88.475 74.6121 88.1625 72.9433L87.025 66.8058C86.7063 65.0996 87.8563 63.4558 89.5625 63.1558C92.5188 62.6371 95.2875 62.1871 97.2125 61.2183C94.325 56.8371 88.3438 51.1621 91.9938 43.8558C95.2688 37.3121 102.081 37.6808 108.013 37.4746C104.375 32.5121 100.181 27.4808 103.419 20.9996C106.775 14.2871 115.581 12.8871 120.763 12.0433C122.444 11.7683 124.006 12.8933 124.313 14.5621L125.45 20.6996C125.781 22.4058 124.644 24.0433 122.931 24.3433Z" fill="white"/>
  <path d="M179.306 74.5312L185.444 75.6687C187.119 75.9812 188.237 77.5437 187.962 79.2187C187.119 84.3999 185.719 93.2062 179.006 96.5624C172.525 99.7999 167.494 95.6062 162.531 91.9687C162.325 97.8999 162.694 104.719 156.15 107.987C148.844 111.637 143.169 105.656 138.787 102.769C137.819 104.694 137.369 107.462 136.85 110.419C136.55 112.131 134.906 113.275 133.2 112.956L127.062 111.819C125.387 111.506 124.269 109.944 124.544 108.262C125.387 103.075 126.787 94.2749 133.5 90.9124C139.975 87.6749 145.012 91.8749 149.975 95.5062C150.181 89.5874 149.794 82.7624 156.356 79.4874C163.694 75.8187 169.312 81.8249 173.725 84.6999C174.687 82.7874 175.15 79.9687 175.662 77.0499C175.956 75.3562 177.594 74.2187 179.306 74.5312Z" fill="white"/>
  <path d="M160.625 131.25H148.75C147.712 131.25 146.875 130.413 146.875 129.375V123.75C146.875 122.712 147.712 121.875 148.75 121.875H160.625C161.663 121.875 162.5 122.712 162.5 123.75V129.375C162.5 130.413 161.663 131.25 160.625 131.25Z" fill="white"/>
  <path d="M173.675 20.4561L165.275 28.8561C164.544 29.5873 163.356 29.5873 162.625 28.8561L158.65 24.8748C157.919 24.1436 157.919 22.9561 158.65 22.2248L167.05 13.8248C167.781 13.0936 168.969 13.0936 169.7 13.8248L173.675 17.7998C174.406 18.5311 174.406 19.7186 173.675 20.4561Z" fill="white"/>
  <path d="M76.25 40.625H70.625C69.5875 40.625 68.75 39.7875 68.75 38.75V26.875C68.75 25.8375 69.5875 25 70.625 25H76.25C77.2875 25 78.125 25.8375 78.125 26.875V38.75C78.125 39.7875 77.2875 40.625 76.25 40.625Z" fill="white"/>
  <path d="M121.144 82.8436L116.456 79.7186C115.575 79.1311 115.319 77.9436 115.925 77.0748C128.681 58.9248 153.275 40.0061 179.294 39.0936C180.362 39.0623 181.25 39.9498 181.25 41.0123V46.6436C181.25 47.6436 180.462 48.4248 179.462 48.4686C157.694 49.3311 135.394 65.7248 123.662 82.3686C123.081 83.1998 121.981 83.4061 121.144 82.8436Z" fill="white" fill-opacity="0.6"/>
</svg>