<svg xmlns="http://www.w3.org/2000/svg" width="40" height="26" viewBox="0 0 40 26" fill="none">
  <g clip-path="url(#clip0_14191_22635)">
    <path d="M25.4114 22.3801H14.5942V2.67871H25.4116L25.4114 22.3801Z" fill="#FF5F00"/>
    <path d="M15.28 12.5297C15.28 8.53323 17.1264 4.9732 20.0016 2.67896C17.8252 0.939777 15.1334 -0.00413663 12.3618 1.36278e-05C5.5344 1.36278e-05 0 5.60964 0 12.5297C0 19.4497 5.5344 25.0593 12.3618 25.0593C15.1334 25.0635 17.8254 24.1196 20.0018 22.3804C17.1268 20.0865 15.28 16.5263 15.28 12.5297Z" fill="#EB001B"/>
    <path d="M40.0052 12.5297C40.0052 19.4497 34.4708 25.0593 27.6434 25.0593C24.8715 25.0634 22.1793 24.1195 20.0024 22.3804C22.8784 20.0861 24.7248 16.5263 24.7248 12.5297C24.7248 8.53303 22.8784 4.9732 20.0024 2.67896C22.1792 0.939829 24.8714 -0.00406388 27.6432 1.31524e-05C34.4706 1.31524e-05 40.005 5.60964 40.005 12.5297" fill="#F79E1B"/>
  </g>
  <defs>
    <clipPath id="clip0_14191_22635">
      <rect width="40" height="25.2308" fill="white"/>
    </clipPath>
  </defs>
</svg>