<svg xmlns="http://www.w3.org/2000/svg" width="101" height="100" viewBox="0 0 101 100" fill="none">
  <circle cx="50.8672" cy="50" r="50" fill="#1F133E"/>
  <circle cx="50.5938" cy="50.0615" r="45" fill="#352B51"/>
  <path d="M33.0859 62.9687C37.1878 68.4888 43.7322 72.0615 51.1052 72.0615C63.5268 72.0615 73.5966 61.9208 73.5966 49.4118C73.5966 38.5701 66.0326 29.5075 55.9289 27.2842" stroke="white" stroke-width="3.74982" stroke-linecap="round" stroke-linejoin="round"/>
  <path d="M28.5938 49.4487C28.5938 51.9395 28.9934 54.3364 29.7317 56.578" stroke="white" stroke-width="3.74982" stroke-linecap="round" stroke-linejoin="round"/>
  <path d="M30.0234 41.501C30.9143 39.1109 32.1949 36.9127 33.7874 34.9849" stroke="white" stroke-width="3.74982" stroke-linecap="round" stroke-linejoin="round"/>
  <path d="M39.8281 29.8175C42.1703 28.4528 44.7796 27.5011 47.5576 27.0615" stroke="white" stroke-width="3.74982" stroke-linecap="round" stroke-linejoin="round"/>
  <path d="M60.0038 59.09C60.0038 54.9134 56.5077 51.7456 51.0918 51.7456C45.6759 51.7456 42.1797 54.9134 42.1797 59.09" stroke="white" stroke-width="3.74982" stroke-linecap="round"/>
  <path d="M51.0798 51.7456C55.046 51.7456 58.2612 48.5077 58.2612 44.5137C58.2612 40.5196 55.046 37.2817 51.0798 37.2817C47.1137 37.2817 43.8984 40.5196 43.8984 44.5137C43.8984 48.5077 47.1137 51.7456 51.0798 51.7456Z" stroke="white" stroke-width="3.74982" stroke-linecap="round" stroke-linejoin="round"/>
</svg>