<svg xmlns="http://www.w3.org/2000/svg" width="31" height="21" viewBox="0 0 31 21" fill="none">
  <path d="M23.8692 20.2001V15.677H19.3462V13.4155H23.8692V8.89241H26.1308V13.4155H30.6538V15.677H26.1308V20.2001H23.8692ZM14.4462 15.677H8.03846C5.95282 15.677 4.175 14.942 2.705 13.472C1.235 12.002 0.5 10.2242 0.5 8.13856C0.5 6.05292 1.235 4.2751 2.705 2.8051C4.175 1.3351 5.95282 0.600098 8.03846 0.600098H14.4462V2.86164H8.03846C6.57266 2.86164 5.32671 3.37381 4.30063 4.39816C3.27457 5.42249 2.76154 6.66634 2.76154 8.1297C2.76154 9.59304 3.27457 10.8398 4.30063 11.8701C5.32671 12.9004 6.57266 13.4155 8.03846 13.4155H14.4462V15.677ZM9.73461 9.26933V7.00779H21.4192V9.26933H9.73461ZM30.6538 8.13856H28.3923C28.3923 6.68112 27.8793 5.43728 26.8532 4.40702C25.8271 3.37676 24.5812 2.86164 23.1154 2.86164H16.7077V0.600098H23.1154C25.201 0.600098 26.9788 1.3351 28.4488 2.8051C29.9188 4.2751 30.6538 6.05292 30.6538 8.13856Z" fill="white"/>
</svg>