<svg xmlns="http://www.w3.org/2000/svg" width="25" height="25" viewBox="0 0 25 25" fill="none">
  <path d="M12.65 12.5751C11.5363 12.5751 10.625 12.2251 9.9163 11.5251C9.20755 10.8251 8.85317 9.92507 8.85317 8.82507C8.85317 7.72507 9.20755 6.82507 9.9163 6.12507C10.625 5.42507 11.5363 5.07507 12.65 5.07507C13.7638 5.07507 14.675 5.42507 15.3838 6.12507C16.0925 6.82507 16.4469 7.72507 16.4469 8.82507C16.4469 9.92507 16.0925 10.8251 15.3838 11.5251C14.675 12.2251 13.7638 12.5751 12.65 12.5751ZM4.55005 20.6001V18.2501C4.55005 17.6167 4.71036 17.0751 5.03099 16.6251C5.35161 16.1751 5.76505 15.8334 6.2713 15.6001C7.40192 15.1001 8.48614 14.7251 9.52396 14.4751C10.5618 14.2251 11.6038 14.1001 12.65 14.1001C13.6963 14.1001 14.7341 14.2292 15.7635 14.4876C16.7929 14.7459 17.8722 15.1184 19.0015 15.6049C19.5297 15.8404 19.9532 16.1817 20.2719 16.6291C20.5907 17.0764 20.75 17.6167 20.75 18.2501V20.6001H4.55005ZM6.0688 19.1001H19.2313V18.2501C19.2313 17.9834 19.1511 17.7292 18.9908 17.4876C18.8305 17.2459 18.6322 17.0667 18.396 16.9501C17.316 16.4334 16.3288 16.0792 15.4344 15.8876C14.54 15.6959 13.6119 15.6001 12.65 15.6001C11.6882 15.6001 10.7516 15.6959 9.84036 15.8876C8.92911 16.0792 7.94192 16.4334 6.8788 16.9501C6.64255 17.0667 6.44849 17.2459 6.29661 17.4876C6.14474 17.7292 6.0688 17.9834 6.0688 18.2501V19.1001ZM12.65 11.0751C13.3082 11.0751 13.8524 10.8626 14.2827 10.4376C14.713 10.0126 14.9282 9.47507 14.9282 8.82507C14.9282 8.17507 14.713 7.63757 14.2827 7.21257C13.8524 6.78757 13.3082 6.57507 12.65 6.57507C11.9919 6.57507 11.4477 6.78757 11.0174 7.21257C10.5871 7.63757 10.3719 8.17507 10.3719 8.82507C10.3719 9.47507 10.5871 10.0126 11.0174 10.4376C11.4477 10.8626 11.9919 11.0751 12.65 11.0751Z" fill="white"/>
</svg>