<svg xmlns="http://www.w3.org/2000/svg" width="27" height="27" viewBox="0 0 27 27" fill="none">
  <path d="M3.8938 20.7506C6.08167 23.6947 9.57234 25.6001 13.505 25.6001C20.1305 25.6001 25.5015 20.1918 25.5015 13.5203C25.5015 7.73804 21.467 2.90467 16.0779 1.71887" stroke="#1F133E" stroke-width="2" stroke-linecap="round" stroke-linejoin="round"/>
  <path d="M1.5 13.5399C1.5 14.8684 1.71316 16.1467 2.10695 17.3422" stroke="#1F133E" stroke-width="2" stroke-linecap="round" stroke-linejoin="round"/>
  <path d="M2.26245 9.30119C2.73762 8.02646 3.4207 6.85409 4.27009 5.82593" stroke="#1F133E" stroke-width="2" stroke-linecap="round" stroke-linejoin="round"/>
  <path d="M7.49377 3.06995C8.74305 2.34209 10.1348 1.83454 11.6166 1.6001" stroke="#1F133E" stroke-width="2" stroke-linecap="round" stroke-linejoin="round"/>
  <path d="M18.2539 18.6819C18.2539 16.4544 16.3891 14.7649 13.5004 14.7649C10.6116 14.7649 8.74683 16.4544 8.74683 18.6819" stroke="#1F133E" stroke-width="2" stroke-linecap="round"/>
  <path d="M13.4929 14.7649C15.6084 14.7649 17.3233 13.0381 17.3233 10.9079C17.3233 8.77775 15.6084 7.0509 13.4929 7.0509C11.3774 7.0509 9.66248 8.77775 9.66248 10.9079C9.66248 13.0381 11.3774 14.7649 13.4929 14.7649Z" stroke="#1F133E" stroke-width="2" stroke-linecap="round" stroke-linejoin="round"/>
</svg>