<svg xmlns="http://www.w3.org/2000/svg" width="236" height="76" viewBox="0 0 236 76" fill="none">
    <path d="M13.3508 75.4748L13.3555 75.4749C13.9574 75.4883 14.5487 75.496 15.1542 75.496L218.674 75.5H218.675L220.844 75.496H220.845C221.437 75.496 222.047 75.4883 222.629 75.4749L222.635 75.4748C223.863 75.46 225.088 75.3539 226.301 75.1574C227.412 74.97 228.489 74.6176 229.495 74.112C230.485 73.6126 231.387 72.9583 232.166 72.1742L232.17 72.1704C232.951 71.402 233.605 70.5163 234.108 69.546C234.614 68.5479 234.962 67.4787 235.141 66.3758L235.141 66.3729C235.341 65.1799 235.454 63.9739 235.476 62.7647C235.476 62.7643 235.476 62.764 235.476 62.7637L235.976 62.7731C235.984 62.164 235.984 61.5721 235.984 60.926L13.3508 75.4748ZM13.3508 75.4748C12.1229 75.4589 10.8978 75.3529 9.68564 75.1575C8.5814 74.9685 7.51177 74.6172 6.512 74.1153C5.52472 73.6192 4.6244 72.9687 3.84549 72.1889L3.8408 72.1843C3.05115 71.4143 2.39387 70.5214 1.8949 69.5409L1.89449 69.5401C1.38826 68.5499 1.03797 67.4886 0.855755 66.3931L0.855688 66.3927C0.653996 65.1863 0.544874 63.9663 0.52926 62.7435L0.529336 62.7435L0.529071 62.7347C0.522874 62.5301 0.515599 62.081 0.509841 61.6785C0.506976 61.4782 0.504506 61.291 0.502753 61.1539L0.500701 60.9903L0.500153 60.9454L0.500012 60.9337L0.5 60.9327M13.3508 75.4748L0.5 60.9327M0.5 60.9327V15.0422L0.500009 15.0415L0.500159 15.0299L0.500739 14.9857L0.502901 14.8248C0.504741 14.6899 0.507315 14.5058 0.510254 14.3091C0.516159 13.914 0.523461 13.4737 0.52919 13.2762L0.52926 13.2762L0.529363 13.2678C0.544312 12.0469 0.652792 10.829 0.853866 9.62451L0.853926 9.62415C1.03653 8.52542 1.38718 7.46074 1.89382 6.46698L1.89425 6.46612C2.39163 5.48589 3.04558 4.59184 3.83085 3.81869L3.83085 3.8187L3.83273 3.81683C4.61811 3.03535 5.5222 2.38084 6.5121 1.87724C7.50897 1.37737 8.57589 1.0289 9.67718 0.843524C10.8935 0.646114 12.123 0.53938 13.3554 0.524222L13.356 0.524214L15.1585 0.5H220.832H220.835L222.656 0.525186L222.657 0.525198C223.877 0.539599 225.095 0.645347 226.3 0.84154C227.413 1.02932 228.492 1.38031 229.5 1.88295C231.484 2.8981 233.097 4.50316 234.114 6.47282C234.612 7.45902 234.957 8.51416 235.137 9.60249L235.137 9.60346C235.341 10.8184 235.455 12.0465 235.478 13.278C235.478 13.2786 235.478 13.2793 235.478 13.2799L235.978 13.2704M0.5 60.9327L235.984 15.0389C235.984 14.4375 235.984 13.8331 235.978 13.2704M235.978 13.2704C235.955 12.0138 235.838 10.7606 235.631 9.52084L235.978 13.2704ZM222.663 0.0252327L220.835 0L222.663 0.0252327ZM222.663 0.0252327C223.909 0.0399336 225.152 0.147919 226.382 0.34827L222.663 0.0252327Z" fill="#160E2C" stroke="white"/>
    <path d="M48.4322 39.4893C48.4536 37.8167 48.8947 36.1766 49.7146 34.7218C50.5344 33.267 51.7063 32.0447 53.1213 31.1686C52.2224 29.8756 51.0366 28.8116 49.658 28.061C48.2794 27.3104 46.746 26.8939 45.1796 26.8445C41.8382 26.4913 38.5989 28.8582 36.8962 28.8582C35.1606 28.8582 32.539 26.8796 29.716 26.9381C27.89 26.9975 26.1104 27.5323 24.5506 28.4903C22.9909 29.4484 21.7041 30.797 20.8157 32.4048C16.9674 39.1151 19.8379 48.9769 23.5242 54.401C25.3686 57.057 27.5241 60.0238 30.3446 59.9186C33.1046 59.8033 34.1354 58.1461 37.4669 58.1461C40.7675 58.1461 41.7346 59.9186 44.6123 59.8517C47.5739 59.8033 49.4399 57.1839 51.2195 54.5028C52.5447 52.6102 53.5644 50.5186 54.2409 48.3053C52.5203 47.5724 51.052 46.3456 50.019 44.7779C48.9861 43.2101 48.4342 41.3708 48.4322 39.4893Z" fill="white"/>
    <path d="M42.9986 23.2806C44.6134 21.3283 45.4089 18.8189 45.2163 16.2854C42.7493 16.5464 40.4704 17.7339 38.8338 19.6113C38.0336 20.5284 37.4208 21.5955 37.0303 22.7513C36.6398 23.9072 36.4793 25.1292 36.558 26.3475C37.792 26.3603 39.0128 26.091 40.1284 25.5597C41.244 25.0285 42.2254 24.2492 42.9986 23.2806Z" fill="white"/>
    <path d="M83.4683 49.7024H74.0605L71.8012 56.4288H67.8164L76.7273 31.543H80.8674L89.7783 56.4288H85.7256L83.4683 49.7024ZM75.0348 46.5986H82.4921L78.8159 35.6822H78.713L75.0348 46.5986Z" fill="white"/>
    <path d="M109.027 47.3615C109.027 52.9998 106.034 56.6222 101.517 56.6222C100.373 56.6826 99.235 56.4168 98.2337 55.8554C97.2324 55.294 96.4081 54.4597 95.8553 53.4479H95.7698V62.4346H92.0762V38.2886H95.6515V41.3064H95.7194C96.2977 40.2995 97.1359 39.4694 98.1448 38.9046C99.1538 38.3398 100.296 38.0613 101.449 38.0988C106.016 38.0988 109.027 41.7389 109.027 47.3615ZM105.23 47.3615C105.23 43.6882 103.347 41.2731 100.475 41.2731C97.6526 41.2731 95.7543 43.739 95.7543 47.3615C95.7543 51.0173 97.6526 53.4655 100.475 53.4655C103.347 53.4655 105.23 51.0682 105.23 47.3615Z" fill="white"/>
    <path d="M128.82 47.3615C128.82 52.9997 125.827 56.6222 121.311 56.6222C120.166 56.6826 119.029 56.4168 118.027 55.8554C117.026 55.294 116.202 54.4597 115.649 53.4479H115.563V62.4346H111.87V38.2886H115.445V41.3064H115.513C116.091 40.2994 116.929 39.4694 117.938 38.9046C118.947 38.3398 120.089 38.0613 121.243 38.0988C125.81 38.0988 128.82 41.7389 128.82 47.3615ZM125.024 47.3615C125.024 43.6881 123.141 41.2731 120.268 41.2731C117.446 41.2731 115.548 43.739 115.548 47.3615C115.548 51.0173 117.446 53.4655 120.268 53.4655C123.141 53.4655 125.024 51.0681 125.024 47.3615H125.024Z" fill="white"/>
    <path d="M141.896 49.4965C142.169 51.9643 144.547 53.5847 147.796 53.5847C150.91 53.5847 153.149 51.9642 153.149 49.7391C153.149 47.8074 151.799 46.6509 148.6 45.8582L145.401 45.0813C140.869 43.9775 138.765 41.8404 138.765 38.3725C138.765 34.0788 142.476 31.1295 147.746 31.1295C152.961 31.1295 156.536 34.0788 156.657 38.3725H152.928C152.705 35.889 150.669 34.39 147.693 34.39C144.718 34.39 142.682 35.9067 142.682 38.1142C142.682 39.8736 143.982 40.9089 147.164 41.7014L149.883 42.3746C154.947 43.5821 157.051 45.6332 157.051 49.2732C157.051 53.929 153.373 56.845 147.523 56.845C142.049 56.845 138.353 53.9975 138.115 49.4963L141.896 49.4965Z" fill="white"/>
    <path d="M165.049 33.9922V38.2859H168.471V41.2352H165.049V51.2377C165.049 52.7915 165.734 53.5157 167.238 53.5157C167.644 53.5085 168.05 53.4798 168.453 53.4295V56.3611C167.777 56.4886 167.089 56.5463 166.402 56.5334C162.758 56.5334 161.338 55.1536 161.338 51.6349V41.2352H158.721V38.2859H161.338V33.9922H165.049Z" fill="white"/>
    <path d="M170.452 47.3543C170.452 41.6456 173.786 38.0583 178.986 38.0583C184.203 38.0583 187.522 41.6455 187.522 47.3543C187.522 53.0787 184.221 56.6503 178.986 56.6503C173.753 56.6503 170.452 53.0786 170.452 47.3543ZM183.759 47.3543C183.759 43.4383 181.979 41.127 178.986 41.127C175.993 41.127 174.215 43.4559 174.215 47.3543C174.215 51.286 175.993 53.5797 178.986 53.5797C181.979 53.5797 183.759 51.286 183.759 47.3543H183.759Z" fill="white"/>
    <path d="M190.542 38.2885H194.065V41.3767H194.15C194.389 40.4122 194.949 39.5598 195.737 38.9628C196.526 38.3659 197.494 38.0607 198.479 38.0986C198.904 38.0971 199.329 38.1437 199.744 38.2376V41.7211C199.207 41.5555 198.646 41.4795 198.085 41.4961C197.548 41.4741 197.013 41.5695 196.516 41.7757C196.02 41.9819 195.573 42.294 195.208 42.6905C194.842 43.0871 194.566 43.5588 194.398 44.0731C194.23 44.5875 194.175 45.1324 194.236 45.6704V56.4322H190.542L190.542 38.2885Z" fill="white"/>
    <path d="M216.806 51.0962C216.309 54.3899 213.128 56.6503 209.058 56.6503C203.823 56.6503 200.574 53.1139 200.574 47.4404C200.574 41.7493 203.84 38.0583 208.902 38.0583C213.881 38.0583 217.012 41.5067 217.012 47.0079V48.2839H204.302V48.509C204.244 49.1767 204.327 49.8494 204.546 50.4823C204.765 51.1153 205.115 51.694 205.572 52.1801C206.03 52.6661 206.585 53.0484 207.201 53.3015C207.817 53.5547 208.479 53.6728 209.143 53.6481C210.016 53.7306 210.892 53.5268 211.641 53.067C212.389 52.6072 212.971 51.916 213.299 51.0962L216.806 51.0962ZM204.32 45.681H213.316C213.349 45.0806 213.259 44.4798 213.051 43.9163C212.843 43.3527 212.522 42.8386 212.107 42.4062C211.693 41.9738 211.194 41.6325 210.643 41.4036C210.091 41.1747 209.499 41.0632 208.902 41.0761C208.301 41.0725 207.705 41.189 207.148 41.419C206.591 41.6489 206.086 41.9877 205.659 42.4158C205.233 42.844 204.896 43.3529 204.666 43.9134C204.436 44.4738 204.318 45.0746 204.32 45.6811V45.681Z" fill="white"/>
    <path d="M72.1001 14.1575C72.8745 14.1015 73.6515 14.2194 74.3752 14.5028C75.0989 14.7863 75.7512 15.2281 76.285 15.7965C76.8188 16.3649 77.2209 17.0457 77.4622 17.7897C77.7035 18.5337 77.778 19.3225 77.6803 20.0991C77.6803 23.9192 75.6326 26.1151 72.1001 26.1151H67.8164V14.1575H72.1001ZM69.6584 24.424H71.8943C72.4477 24.4574 73.0014 24.3659 73.5153 24.1563C74.0291 23.9466 74.4902 23.6241 74.8648 23.2121C75.2395 22.8002 75.5183 22.3092 75.681 21.7749C75.8437 21.2406 75.8862 20.6764 75.8054 20.1234C75.8803 19.5727 75.8335 19.012 75.6683 18.4816C75.5031 17.9512 75.2236 17.4642 74.8498 17.0556C74.476 16.6469 74.0172 16.3266 73.5063 16.1177C72.9953 15.9088 72.4449 15.8165 71.8943 15.8473H69.6584V24.424Z" fill="white"/>
    <path d="M79.7539 21.604C79.6976 21.011 79.7649 20.4126 79.9514 19.8474C80.1379 19.2821 80.4395 18.7624 80.8369 18.3215C81.2343 17.8807 81.7187 17.5285 82.259 17.2874C82.7993 17.0464 83.3836 16.9219 83.9745 16.9219C84.5653 16.9219 85.1496 17.0464 85.6899 17.2874C86.2302 17.5285 86.7146 17.8807 87.112 18.3215C87.5094 18.7624 87.811 19.2821 87.9976 19.8474C88.1841 20.4126 88.2513 21.011 88.1951 21.604C88.2524 22.1976 88.1859 22.7968 87.9999 23.363C87.8139 23.9292 87.5125 24.4498 87.115 24.8916C86.7175 25.3333 86.2327 25.6862 85.6919 25.9278C85.151 26.1694 84.566 26.2941 83.9745 26.2941C83.3829 26.2941 82.7979 26.1694 82.2571 25.9278C81.7162 25.6862 81.2315 25.3333 80.834 24.8916C80.4365 24.4498 80.135 23.9292 79.949 23.363C79.763 22.7968 79.6965 22.1976 79.7539 21.604ZM86.3783 21.604C86.3783 19.6479 85.5068 18.5041 83.9774 18.5041C82.4421 18.5041 81.5784 19.648 81.5784 21.604C81.5784 23.5758 82.4421 24.7108 83.9774 24.7108C85.5069 24.7108 86.3784 23.5679 86.3784 21.604H86.3783Z" fill="white"/>
    <path d="M99.4254 26.1155H97.5932L95.7435 19.4694H95.6037L93.7617 26.1155H91.9469L89.48 17.0916H91.2715L92.8747 23.9773H93.0067L94.8467 17.0916H96.5412L98.3812 23.9773H98.521L100.116 17.0916H101.883L99.4254 26.1155Z" fill="white"/>
    <path d="M103.97 17.0943H105.67V18.5279H105.802C106.026 18.013 106.404 17.5814 106.883 17.2932C107.362 17.005 107.918 16.8746 108.473 16.9201C108.909 16.8871 109.346 16.9533 109.753 17.1138C110.159 17.2744 110.525 17.5251 110.822 17.8474C111.12 18.1697 111.342 18.5554 111.471 18.9759C111.601 19.3964 111.635 19.8409 111.571 20.2765V26.1182H109.805V20.7237C109.805 19.2735 109.18 18.5523 107.873 18.5523C107.578 18.5384 107.283 18.5892 107.008 18.7011C106.734 18.8129 106.487 18.9833 106.284 19.2005C106.081 19.4177 105.927 19.6766 105.832 19.9595C105.738 20.2423 105.705 20.5424 105.736 20.8391V26.1183H103.97L103.97 17.0943Z" fill="white"/>
    <path d="M114.392 13.5714H116.158V26.118H114.392V13.5714Z" fill="white"/>
    <path d="M118.6 21.6042C118.544 21.0111 118.612 20.4127 118.798 19.8475C118.985 19.2822 119.286 18.7624 119.684 18.3216C120.081 17.8807 120.566 17.5285 121.106 17.2874C121.646 17.0464 122.231 16.9219 122.822 16.9219C123.412 16.9219 123.997 17.0464 124.537 17.2874C125.077 17.5285 125.562 17.8807 125.959 18.3216C126.357 18.7624 126.658 19.2822 126.845 19.8475C127.032 20.4127 127.099 21.0111 127.043 21.6042C127.1 22.1978 127.033 22.797 126.847 23.3632C126.661 23.9294 126.36 24.45 125.962 24.8917C125.565 25.3334 125.08 25.6864 124.539 25.9279C123.998 26.1695 123.413 26.2943 122.822 26.2943C122.23 26.2943 121.645 26.1695 121.104 25.9279C120.563 25.6864 120.078 25.3334 119.681 24.8917C119.283 24.45 118.982 23.9294 118.796 23.3632C118.61 22.797 118.543 22.1978 118.6 21.6042ZM125.225 21.6042C125.225 19.6481 124.353 18.5042 122.824 18.5042C121.289 18.5042 120.425 19.6481 120.425 21.6042C120.425 23.5759 121.289 24.711 122.824 24.711C124.353 24.711 125.225 23.5681 125.225 21.6042H125.225Z" fill="white"/>
    <path d="M128.896 23.568C128.896 21.9436 130.095 21.0072 132.224 20.8741L134.649 20.7332V19.9543C134.649 19.0012 134.024 18.463 132.816 18.463C131.83 18.463 131.147 18.828 130.951 19.466H129.241C129.422 17.916 130.868 16.9219 132.898 16.9219C135.142 16.9219 136.407 18.0481 136.407 19.9543V26.12H134.707V24.8518H134.567C134.283 25.3067 133.885 25.6775 133.413 25.9265C132.94 26.1754 132.411 26.2935 131.879 26.2687C131.503 26.3081 131.123 26.2676 130.764 26.15C130.405 26.0324 130.074 25.8401 129.793 25.5857C129.512 25.3312 129.287 25.0202 129.132 24.6727C128.978 24.3252 128.897 23.9488 128.896 23.568ZM134.649 22.7969V22.0425L132.463 22.1834C131.23 22.2665 130.671 22.6893 130.671 23.4848C130.671 24.297 131.37 24.7696 132.331 24.7696C132.613 24.7983 132.897 24.7697 133.167 24.6853C133.438 24.601 133.688 24.4626 133.905 24.2786C134.121 24.0945 134.298 23.8685 134.426 23.614C134.554 23.3594 134.629 23.0816 134.649 22.7969Z" fill="white"/>
    <path d="M138.727 21.6022C138.727 18.7508 140.18 16.9444 142.442 16.9444C143.001 16.9184 143.556 17.0535 144.042 17.3338C144.528 17.6142 144.925 18.0282 145.186 18.5276H145.318V13.5714H147.084V26.118H145.392V24.6923H145.252C144.971 25.1883 144.56 25.5972 144.065 25.8747C143.569 26.1522 143.008 26.2878 142.442 26.2667C140.165 26.2668 138.727 24.4604 138.727 21.6022ZM140.551 21.6022C140.551 23.5162 141.446 24.6679 142.942 24.6679C144.431 24.6679 145.351 23.4995 145.351 21.61C145.351 19.7293 144.421 18.5443 142.942 18.5443C141.456 18.5443 140.551 19.7038 140.551 21.6022H140.551Z" fill="white"/>
    <path d="M154.387 21.604C154.33 21.011 154.398 20.4126 154.584 19.8474C154.771 19.2821 155.072 18.7624 155.47 18.3215C155.867 17.8807 156.351 17.5285 156.892 17.2874C157.432 17.0464 158.016 16.9219 158.607 16.9219C159.198 16.9219 159.782 17.0464 160.323 17.2874C160.863 17.5285 161.347 17.8807 161.745 18.3215C162.142 18.7624 162.444 19.2821 162.63 19.8474C162.817 20.4126 162.884 21.011 162.828 21.604C162.885 22.1976 162.819 22.7968 162.633 23.363C162.447 23.9292 162.145 24.4498 161.748 24.8916C161.35 25.3333 160.866 25.6862 160.325 25.9278C159.784 26.1694 159.199 26.2941 158.607 26.2941C158.016 26.2941 157.431 26.1694 156.89 25.9278C156.349 25.6862 155.864 25.3333 155.467 24.8916C155.069 24.4498 154.768 23.9292 154.582 23.363C154.396 22.7968 154.329 22.1976 154.387 21.604ZM161.011 21.604C161.011 19.6479 160.14 18.5041 158.61 18.5041C157.075 18.5041 156.211 19.648 156.211 21.604C156.211 23.5758 157.075 24.7108 158.61 24.7108C160.14 24.7108 161.011 23.5679 161.011 21.604Z" fill="white"/>
    <path d="M165.188 17.0943H166.888V18.5279H167.02C167.244 18.013 167.622 17.5814 168.101 17.2932C168.579 17.005 169.135 16.8746 169.691 16.9201C170.127 16.8871 170.564 16.9533 170.97 17.1138C171.377 17.2744 171.743 17.5251 172.04 17.8474C172.338 18.1697 172.559 18.5554 172.689 18.9759C172.819 19.3964 172.853 19.8409 172.789 20.2765V26.1182H171.023V20.7237C171.023 19.2735 170.398 18.5523 169.091 18.5523C168.796 18.5384 168.5 18.5892 168.226 18.7011C167.952 18.8129 167.705 18.9833 167.502 19.2005C167.299 19.4177 167.145 19.6766 167.05 19.9595C166.956 20.2423 166.923 20.5424 166.954 20.8391V26.1183H165.188V17.0943Z" fill="white"/>
    <path d="M182.796 14.8438V17.1315H184.735V18.6316H182.796V23.2718C182.796 24.217 183.182 24.6309 184.061 24.6309C184.287 24.6302 184.511 24.6165 184.735 24.5898V26.0733C184.418 26.1305 184.096 26.1609 183.774 26.1643C181.81 26.1643 181.028 25.4675 181.028 23.7277V18.6315H179.607V17.1315H181.028V14.8438H182.796Z" fill="white"/>
    <path d="M187.136 13.5714H188.886V18.5443H189.026C189.261 18.0246 189.649 17.5905 190.137 17.3013C190.626 17.012 191.191 16.8816 191.755 16.9278C192.188 16.904 192.621 16.9769 193.023 17.1413C193.425 17.3057 193.787 17.5576 194.081 17.8789C194.375 18.2002 194.596 18.5831 194.727 19.0002C194.857 19.4173 194.895 19.8584 194.837 20.2919V26.118H193.069V20.7312C193.069 19.2899 192.403 18.5599 191.156 18.5599C190.852 18.5348 190.547 18.5769 190.261 18.6832C189.975 18.7895 189.716 18.9575 189.501 19.1754C189.287 19.3933 189.122 19.6559 189.018 19.9448C188.915 20.2336 188.875 20.5418 188.902 20.8477V26.118H187.136L187.136 13.5714Z" fill="white"/>
    <path d="M205.154 23.6836C204.914 24.5083 204.394 25.2217 203.685 25.699C202.976 26.1762 202.123 26.387 201.276 26.2943C200.686 26.31 200.1 26.1961 199.559 25.9606C199.017 25.7251 198.533 25.3735 198.139 24.9304C197.746 24.4872 197.453 23.963 197.281 23.3942C197.109 22.8255 197.061 22.2257 197.142 21.6365C197.063 21.0456 197.111 20.4445 197.283 19.874C197.455 19.3036 197.747 18.777 198.138 18.3299C198.529 17.8829 199.011 17.5258 199.551 17.2829C200.091 17.04 200.677 16.9169 201.268 16.922C203.758 16.922 205.261 18.6375 205.261 21.4711V22.0926H198.941V22.1924C198.913 22.5235 198.955 22.8568 199.062 23.171C199.17 23.4851 199.341 23.7731 199.566 24.0165C199.79 24.2599 200.062 24.4533 200.365 24.5844C200.668 24.7154 200.995 24.7812 201.324 24.7775C201.747 24.8287 202.175 24.752 202.554 24.5572C202.933 24.3624 203.246 24.0583 203.454 23.6835L205.154 23.6836ZM198.941 20.7754H203.461C203.484 20.4726 203.443 20.1684 203.342 19.8824C203.24 19.5964 203.081 19.3349 202.873 19.1147C202.666 18.8946 202.415 18.7206 202.137 18.604C201.859 18.4874 201.56 18.4308 201.258 18.4378C200.953 18.4339 200.65 18.4917 200.367 18.6078C200.084 18.724 199.827 18.896 199.611 19.1139C199.395 19.3318 199.224 19.591 199.109 19.8764C198.994 20.1617 198.937 20.4674 198.941 20.7754H198.941Z" fill="white"/>
</svg>
