<svg width="38" height="44" viewBox="0 0 38 44" fill="none" xmlns="http://www.w3.org/2000/svg">
<path d="M3.77051 17.4206C3.77051 21.0367 5.20644 24.5048 7.76243 27.0618C10.3184 29.6188 13.7851 31.0553 17.3998 31.0553C21.0145 31.0553 24.4811 29.6188 27.0371 27.0618C29.5931 24.5048 31.029 21.0367 31.029 17.4206C31.029 13.8044 29.5931 10.3364 27.0371 7.7794C24.4811 5.2224 21.0145 3.78589 17.3998 3.78589C13.7851 3.78589 10.3184 5.2224 7.76243 7.7794C5.20644 10.3364 3.77051 13.8044 3.77051 17.4206V17.4206Z" stroke="white" stroke-width="3" stroke-linecap="round" stroke-linejoin="round"/>
<path d="M30.8917 3.90564C34.47 7.48563 36.4802 12.341 36.48 17.4037C36.4799 22.4664 34.4694 27.3217 30.8908 30.9015C27.3122 34.4812 22.4588 36.4922 17.3981 36.492C12.3374 36.4918 7.48408 34.4805 3.90576 30.9005" stroke="white" stroke-width="3" stroke-linecap="round" stroke-linejoin="round"/>
<path d="M32.8303 2L30.9041 3.92886" stroke="white" stroke-width="3" stroke-linecap="round" stroke-linejoin="round"/>
<path d="M3.92627 30.9294L2 32.8583" stroke="white" stroke-width="3" stroke-linecap="round" stroke-linejoin="round"/>
<path d="M17.4197 36.5461V42" stroke="white" stroke-width="3" stroke-linecap="round" stroke-linejoin="round"/>
<path d="M6.52026 41.9871H28.3271" stroke="white" stroke-width="3" stroke-linecap="round" stroke-linejoin="round"/>
<path d="M4.93237 11.9891H7.8872C8.61014 11.9891 9.30347 12.2764 9.81467 12.7878C10.3259 13.2992 10.6131 13.9928 10.6131 14.7161V17.6775C10.6129 18.0357 10.6833 18.3904 10.8201 18.7214C10.957 19.0523 11.1577 19.353 11.4108 19.6064L13.5097 21.7061C13.8679 22.0641 14.1193 22.5148 14.2358 23.0077C14.3523 23.5006 14.3293 24.0162 14.1694 24.4967L13.6079 26.1801C13.4323 26.7059 13.1008 27.1657 12.6574 27.4982L10.4477 29.1561" stroke="white" stroke-width="3" stroke-linecap="round" stroke-linejoin="round"/>
<path d="M21.7881 4.50012C21.0484 5.09096 20.2598 5.70361 19.5601 6.24355C18.9923 6.68107 18.6195 7.32474 18.5226 8.03519C18.4257 8.74563 18.6124 9.46569 19.0422 10.0394L20.6977 12.2374C20.9516 12.576 21.2809 12.8509 21.6594 13.0402C22.0379 13.2296 22.4552 13.3281 22.8784 13.3281H24.4758C25.1984 13.3288 25.8913 13.6165 26.402 14.128L28.5009 16.2278C28.8284 16.5551 29.2338 16.7937 29.6789 16.9209C30.124 17.0481 30.5942 17.0599 31.0451 16.955" stroke="white" stroke-width="3" stroke-linecap="round" stroke-linejoin="round"/>
</svg>
