<svg width="34" height="26" viewBox="0 0 34 26" fill="none" xmlns="http://www.w3.org/2000/svg">
<path d="M2 11.25C1.0335 11.25 0.25 12.0335 0.25 13C0.25 13.9665 1.0335 14.75 2 14.75L2 11.25ZM33.2374 14.2374C33.9209 13.554 33.9209 12.446 33.2374 11.7626L22.1005 0.625633C21.4171 -0.0577843 20.3091 -0.0577844 19.6256 0.625633C18.9422 1.30905 18.9422 2.41709 19.6256 3.10051L29.5251 13L19.6256 22.8995C18.9422 23.5829 18.9422 24.691 19.6256 25.3744C20.309 26.0578 21.4171 26.0578 22.1005 25.3744L33.2374 14.2374ZM2 14.75L32 14.75L32 11.25L2 11.25L2 14.75Z" fill="white"/>
</svg>
