<svg width="34" height="34" viewBox="0 0 34 34" fill="none" xmlns="http://www.w3.org/2000/svg">
<circle cx="17" cy="17" r="17" fill="#656469"/>
<g clip-path="url(#clip0_3482_117443)">
<path d="M9.2358 17C9.2358 16.5398 9.6089 16.1667 10.0691 16.1667L16.3069 16.1667L16.3069 9.92893C16.3069 9.46869 16.68 9.0956 17.1402 9.0956C17.6004 9.0956 17.9735 9.46869 17.9735 9.92893L17.9735 16.1667L24.2113 16.1667C24.6715 16.1667 25.0446 16.5398 25.0446 17C25.0446 17.4602 24.6715 17.8333 24.2113 17.8333L17.9735 17.8333L17.9735 24.0711C17.9735 24.5313 17.6004 24.9044 17.1402 24.9044C16.68 24.9044 16.3069 24.5313 16.3069 24.0711L16.3069 17.8333L10.0691 17.8333C9.6089 17.8333 9.2358 17.4602 9.2358 17Z" fill="#B7B6BC"/>
</g>
<defs>
<clipPath id="clip0_3482_117443">
<rect width="20" height="20" fill="white" transform="translate(3 17) rotate(-45)"/>
</clipPath>
</defs>
</svg>
