<svg width="54" height="34" viewBox="0 0 54 34" fill="none" xmlns="http://www.w3.org/2000/svg">
<g clip-path="url(#clip0_3482_117448)">
<path d="M48.3529 0H4.75615C4.57458 0 4.39268 0 4.21143 0.00105884C4.05822 0.00214976 3.90536 0.00385031 3.75251 0.00802148C3.41913 0.0170376 3.0829 0.0367063 2.7537 0.0958728C2.41924 0.156066 2.10801 0.254249 1.80438 0.408839C1.50588 0.560637 1.23261 0.759185 0.995782 0.996108C0.758857 1.23303 0.560309 1.50586 0.408542 1.80467C0.25392 2.1083 0.155673 2.41963 0.0958971 2.75435C0.036413 3.08365 0.0166128 3.41981 0.00762875 3.75283C0.00352175 3.90569 0.00176023 4.05855 0.000762362 4.21137C-0.000296474 4.39301 5.64712e-05 4.57452 5.64712e-05 4.75648V29.2438C5.64712e-05 29.4257 -0.000296474 29.6069 0.000762362 29.7889C0.00176023 29.9417 0.00352175 30.0946 0.00762875 30.2474C0.0166128 30.5802 0.036413 30.9163 0.0958971 31.2455C0.155673 31.5804 0.25392 31.8916 0.408542 32.1952C0.560309 32.4941 0.758857 32.7672 0.995782 33.0038C1.23261 33.2411 1.50588 33.4396 1.80438 33.591C2.10801 33.7461 2.41924 33.8443 2.7537 33.9044C3.0829 33.9632 3.41913 33.9832 3.75251 33.9922C3.90536 33.9957 4.05822 33.9978 4.21143 33.9985C4.39268 33.9999 4.57458 33.9999 4.75615 33.9999H48.3529C48.5341 33.9999 48.716 33.9999 48.8972 33.9985C49.0501 33.9978 49.203 33.9957 49.3565 33.9922C49.6892 33.9832 50.0254 33.9632 50.3554 33.9044C50.6894 33.8443 51.0007 33.7461 51.3043 33.591C51.6031 33.4396 51.8756 33.2411 52.1129 33.0038C52.3495 32.7672 52.548 32.4941 52.7002 32.1952C52.8551 31.8916 52.9533 31.5804 53.0128 31.2455C53.0723 30.9163 53.0916 30.5802 53.1006 30.2474C53.1048 30.0946 53.1069 29.9417 53.1076 29.7889C53.109 29.6069 53.109 29.4257 53.109 29.2438V4.75648C53.109 4.57452 53.109 4.39301 53.1076 4.21137C53.1069 4.05855 53.1048 3.90569 53.1006 3.75283C53.0916 3.41981 53.0723 3.08365 53.0128 2.75435C52.9533 2.41963 52.8551 2.1083 52.7002 1.80467C52.548 1.50586 52.3495 1.23303 52.1129 0.996108C51.8756 0.759185 51.6031 0.560637 51.3043 0.408839C51.0007 0.254249 50.6894 0.156066 50.3554 0.0958728C50.0254 0.0367063 49.6892 0.0170376 49.3565 0.00802148C49.203 0.00385031 49.0501 0.00214976 48.8972 0.00105884C48.716 0 48.5341 0 48.3529 0Z" fill="black"/>
<path d="M48.3524 1.13379L48.8887 1.13482C49.034 1.13584 49.1793 1.13741 49.3254 1.14139C49.5795 1.14826 49.8768 1.16202 50.1539 1.21169C50.3947 1.25507 50.5967 1.32104 50.7906 1.41974C50.982 1.51699 51.1573 1.64444 51.3104 1.79733C51.4641 1.95124 51.5917 2.12688 51.6903 2.32039C51.7884 2.51275 51.854 2.7138 51.8971 2.95643C51.9466 3.23051 51.9604 3.52859 51.9673 3.78428C51.9712 3.9286 51.9731 4.07292 51.9739 4.22068C51.9752 4.39937 51.9752 4.57796 51.9752 4.757V29.2443C51.9752 29.4233 51.9752 29.6016 51.9738 29.7841C51.9731 29.9284 51.9712 30.0727 51.9673 30.2173C51.9603 30.4726 51.9467 30.7705 51.8965 31.0478C51.854 31.2871 51.7885 31.4882 51.6898 31.6815C51.5915 31.8745 51.4641 32.05 51.3111 32.2029C51.1571 32.357 50.9823 32.484 50.7887 32.5822C50.5963 32.6804 50.3946 32.7463 50.1561 32.7892C49.8734 32.8396 49.5637 32.8535 49.3304 32.8598C49.1836 32.8631 49.0376 32.8651 48.888 32.8658C48.7097 32.8672 48.5307 32.8671 48.3524 32.8671H4.75567C4.75329 32.8671 4.75098 32.8671 4.74858 32.8671C4.5723 32.8671 4.39566 32.8671 4.21617 32.8657C4.06983 32.8651 3.92381 32.8631 3.78263 32.8599C3.54404 32.8535 3.23412 32.8396 2.95372 32.7895C2.71318 32.7463 2.51151 32.6804 2.31656 32.5809C2.12472 32.4836 1.95007 32.3567 1.79603 32.2024C1.64317 32.0498 1.51614 31.8749 1.41793 31.6816C1.31962 31.4884 1.25384 31.2867 1.21059 31.0446C1.1606 30.7678 1.14687 30.4711 1.14 30.2175C1.13609 30.0723 1.13445 29.9272 1.13352 29.7828L1.13281 29.3568L1.13284 29.2443V4.757L1.13281 4.6445L1.13349 4.21933C1.13445 4.07414 1.13609 3.92899 1.14 3.78393C1.14687 3.53009 1.1606 3.23324 1.21101 2.95415C1.25387 2.71418 1.31962 2.51249 1.41844 2.3184C1.51589 2.12656 1.64314 1.95143 1.7968 1.79781C1.94985 1.64469 2.12507 1.51741 2.31813 1.41923C2.511 1.32101 2.71304 1.25507 2.95359 1.21179C3.23075 1.16199 3.52822 1.14826 3.78298 1.14136C3.9282 1.13741 4.07342 1.13584 4.21755 1.13485L4.75567 1.13379H48.3524Z" fill="white"/>
<path d="M14.4962 11.4361C14.9509 10.8673 15.2595 10.1036 15.1781 9.32324C14.5124 9.35634 13.7001 9.76241 13.2298 10.3316C12.8075 10.8191 12.4338 11.6147 12.5312 12.3624C13.2785 12.4273 14.025 11.9889 14.4962 11.4361Z" fill="black"/>
<path d="M15.1686 12.5082C14.0834 12.4436 13.1607 13.1241 12.6425 13.1241C12.124 13.1241 11.3304 12.5408 10.4721 12.5565C9.3549 12.5729 8.3183 13.2046 7.75139 14.2092C6.58536 16.2189 7.44368 19.2001 8.57759 20.8369C9.12824 21.6467 9.79187 22.5383 10.6663 22.5063C11.4925 22.4739 11.8163 21.9713 12.8206 21.9713C13.8241 21.9713 14.1158 22.5063 14.9904 22.4901C15.8974 22.4739 16.4644 21.6799 17.015 20.8693C17.6467 19.9462 17.9053 19.0549 17.9216 19.0059C17.9053 18.9897 16.1727 18.3251 16.1567 16.332C16.1403 14.6632 17.5169 13.8695 17.5817 13.8202C16.8043 12.6705 15.5897 12.5408 15.1686 12.5082Z" fill="black"/>
<path d="M24.6199 10.249C26.9785 10.249 28.6209 11.8748 28.6209 14.2419C28.6209 16.6174 26.9447 18.2517 24.5607 18.2517H21.9493V22.4046H20.0625V10.249H24.6199V10.249ZM21.9493 16.668H24.1142C25.7569 16.668 26.6919 15.7836 26.6919 14.2504C26.6919 12.7173 25.7569 11.8412 24.1227 11.8412H21.9493V16.668Z" fill="black"/>
<path d="M29.1172 19.8861C29.1172 18.336 30.305 17.3842 32.4111 17.2662L34.837 17.123V16.4408C34.837 15.4551 34.1714 14.8655 33.0597 14.8655C32.0065 14.8655 31.3494 15.3708 31.1895 16.1628H29.4711C29.5721 14.5621 30.9367 13.3828 33.127 13.3828C35.275 13.3828 36.648 14.52 36.648 16.2975V22.4048H34.9042V20.9474H34.8623C34.3485 21.9331 33.228 22.5564 32.0656 22.5564C30.3303 22.5564 29.1172 21.4781 29.1172 19.8861ZM34.837 19.0859V18.3867L32.6551 18.5214C31.5684 18.5973 30.9536 19.0774 30.9536 19.8356C30.9536 20.6104 31.5938 21.1159 32.571 21.1159C33.8429 21.1159 34.837 20.2398 34.837 19.0859Z" fill="black"/>
<path d="M38.2902 25.665V24.1907C38.4247 24.2244 38.7279 24.2244 38.8797 24.2244C39.722 24.2244 40.177 23.8706 40.4548 22.9609C40.4548 22.944 40.615 22.4218 40.615 22.4133L37.4141 13.543H39.385L41.626 20.7539H41.6595L43.9004 13.543H45.821L42.5018 22.8681C41.7439 25.0163 40.8678 25.707 39.0314 25.707C38.8797 25.707 38.4247 25.6901 38.2902 25.665Z" fill="black"/>
</g>
<defs>
<clipPath id="clip0_3482_117448">
<rect width="53.109" height="33.9999" fill="white"/>
</clipPath>
</defs>
</svg>
