<svg width="24" height="24" viewBox="0 0 24 24" fill="none" xmlns="http://www.w3.org/2000/svg">
<path d="M7.66022 12.6547L6.96808 15.1922C6.82526 15.7181 6.96954 16.2619 7.3548 16.6472C7.64264 16.9346 8.01764 17.0877 8.40802 17.0877C8.54132 17.0877 8.67682 17.0698 8.81012 17.0335L11.3472 16.3417C11.9749 16.1703 12.5513 15.836 13.012 15.3753L21.5931 6.79462C22.8016 5.58575 22.8016 3.61847 21.5931 2.40887C20.3831 1.19965 18.4158 1.19965 17.2073 2.40887L8.62628 10.9899C8.16632 11.4503 7.83234 12.0259 7.66022 12.6547ZM20.5325 3.46942C21.1566 4.09381 21.1566 5.10968 20.5325 5.73407L11.9515 14.3148C11.6746 14.5912 11.3297 14.7916 10.9532 14.8945L8.41535 15.5866L9.10748 13.0499C9.21076 12.6719 9.41071 12.3262 9.68683 12.0501L18.2679 3.46942C18.5799 3.15741 18.9901 3.0014 19.4002 3.0014C19.8104 3.0014 20.2205 3.15741 20.5325 3.46942Z" fill="white"/>
<path d="M5.25 22.4998H17.0251C19.0928 22.4998 20.7751 20.8174 20.7751 18.7498V11.5424C20.7751 11.1282 20.4397 10.7924 20.0251 10.7924C19.6106 10.7924 19.2751 11.1282 19.2751 11.5424V18.7498C19.2751 19.9905 18.2659 20.9998 17.0251 20.9998H5.25C4.00928 20.9998 3 19.9905 3 18.7498V6.97461C3 5.73389 4.00928 4.72461 5.25 4.72461H12.4578C12.8723 4.72461 13.2078 4.38879 13.2078 3.97461C13.2078 3.56042 12.8723 3.22461 12.4578 3.22461H5.25C3.18237 3.22461 1.5 4.90698 1.5 6.97461V18.7498C1.5 20.8174 3.18237 22.4998 5.25 22.4998Z" fill="white"/>
</svg>
