<svg width="96" height="96" viewBox="0 0 96 96" fill="none" xmlns="http://www.w3.org/2000/svg">
<circle cx="48" cy="48" r="48" fill="#7440F5"/>
<path d="M48.1882 15.9844C47.0345 15.9844 45.8807 16.7603 45.9025 18.3058V25.4576L41.7018 21.2523C40.8035 20.3281 39.3166 20.3278 38.4295 21.2431C37.5429 22.1588 37.566 23.605 38.4697 24.4842C40.9474 26.9619 43.4249 29.4395 45.9026 31.9172V44.0289L35.4118 37.9753C34.5047 34.5899 33.6002 31.2044 32.6931 27.819C32.3835 26.5969 31.1438 25.8573 29.9075 26.1672C28.6713 26.4778 27.9269 27.7621 28.278 29.0021L29.8182 34.7432L23.6219 31.1673C22.5388 30.522 21.1387 30.8728 20.4836 31.9664C19.8291 33.0602 20.2112 34.4942 21.3362 35.1226L27.5281 38.6985L21.7916 40.2342C20.5422 40.5501 19.7997 41.8387 20.1488 43.0646C20.4985 44.2903 21.7614 44.9924 22.9746 44.6494C26.3581 43.7428 29.7426 42.8373 33.1261 41.9307L43.6169 47.9887L33.1261 54.0423C29.7426 53.1357 26.3581 52.2302 22.9746 51.3236C21.7614 50.9806 20.4985 51.6827 20.1488 52.9084C19.7997 54.1343 20.5422 55.4229 21.7916 55.7388L27.5325 57.2745L21.3362 60.8504C20.2112 61.4789 19.8291 62.9128 20.4836 64.0067C21.1387 65.1002 22.5388 65.451 23.6219 64.8057L29.8182 61.2298L28.278 66.9709C27.9269 68.2109 28.6713 69.4952 29.9075 69.8058C31.1438 70.1157 32.3835 69.3761 32.6931 68.154C33.6002 64.7686 34.5047 61.3831 35.4118 57.9977L45.9026 51.9441V64.0558C43.4249 66.5335 40.9474 69.0111 38.4697 71.4888C37.5661 72.368 37.543 73.8142 38.4295 74.7299C39.3166 75.6454 40.8035 75.6451 41.7018 74.7207L45.9025 70.5198V77.6672C45.8843 78.9558 46.9315 80.0041 48.206 79.9841C49.4806 79.9636 50.4911 78.9278 50.4738 77.6672V70.5288L54.6702 74.7207C55.5684 75.6449 57.0553 75.6451 57.9424 74.7299C58.829 73.8142 58.8059 72.368 57.9022 71.4888C55.426 69.0126 52.95 66.5365 50.4738 64.0602V51.9486L60.9601 58.0022C61.8669 61.3862 62.7766 64.77 63.6833 68.154C63.9929 69.3761 65.2326 70.1157 66.4689 69.8058C67.7051 69.4951 68.4495 68.2109 68.0984 66.9709L66.5627 61.2343L72.75 64.8057C75.405 66.3892 77.7344 62.3536 75.0357 60.8459L68.8483 57.2745L74.5804 55.7388C75.8298 55.4229 76.5722 54.1343 76.2232 52.9084C75.8735 51.6827 74.6105 50.9806 73.3973 51.3236C70.0152 52.2299 66.6325 53.136 63.2503 54.0423L52.7595 47.9887L63.2503 41.9307C66.6325 42.837 70.0152 43.7431 73.3973 44.6494C74.6105 44.9924 75.8735 44.2903 76.2232 43.0646C76.5722 41.8387 75.8298 40.5501 74.5804 40.2342L68.8483 38.6985L75.0357 35.1271C77.7344 33.6194 75.405 29.5838 72.75 31.1673L66.5582 34.7432L68.0984 29.0021C68.4495 27.7621 67.7051 26.4778 66.4689 26.1672C65.2326 25.8573 63.9929 26.5969 63.6833 27.819C62.7762 31.2044 61.8673 34.5899 60.9601 37.9753L50.4738 44.0289V31.9128C52.95 29.4365 55.426 26.9604 57.9022 24.4842C58.8059 23.605 58.8289 22.1588 57.9424 21.2431C57.0553 20.3276 55.5684 20.3279 54.6702 21.2523L50.4738 25.4487V18.3058C50.4967 16.7603 49.342 15.9844 48.1882 15.9844Z" fill="white"/>
</svg>
