<svg width="34" height="32" viewBox="0 0 34 32" fill="none" xmlns="http://www.w3.org/2000/svg">
<ellipse cx="16.9552" cy="16" rx="16.9552" ry="16" fill="white"/>
<path d="M16.9974 5.33203C16.5899 5.33203 16.1823 5.59067 16.1901 6.10584V8.48978L14.7062 7.08799C14.3889 6.77995 13.8637 6.77985 13.5503 7.08494C13.2372 7.39018 13.2453 7.87223 13.5646 8.1653C14.4398 8.99119 15.3149 9.81706 16.1901 10.643V14.6802L12.4844 12.6623C12.164 11.5339 11.8445 10.4054 11.5241 9.27691C11.4147 8.86953 10.9768 8.623 10.5401 8.72632C10.1034 8.82985 9.84046 9.25793 9.9645 9.67126L10.5085 11.585L8.3198 10.393C7.93722 10.1779 7.44265 10.2948 7.21125 10.6594C6.98005 11.024 7.11501 11.502 7.51243 11.7114L9.69959 12.9034L7.67328 13.4153C7.23194 13.5206 6.96967 13.9501 7.09298 14.3588C7.2165 14.7673 7.66262 15.0014 8.09115 14.887C9.28633 14.5848 10.4818 14.283 11.677 13.9808L15.3827 16.0001L11.677 18.018C10.4818 17.7158 9.28633 17.414 8.09115 17.1118C7.66262 16.9974 7.2165 17.2315 7.09298 17.64C6.96967 18.0487 7.23194 18.4782 7.67328 18.5835L9.70116 19.0954L7.51243 20.2874C7.11501 20.4969 6.98005 20.9748 7.21125 21.3394C7.44265 21.704 7.93722 21.8209 8.3198 21.6058L10.5085 20.4138L9.9645 22.3275C9.84046 22.7409 10.1034 23.1689 10.5401 23.2725C10.9768 23.3758 11.4147 23.1293 11.5241 22.7219C11.8445 21.5934 12.164 20.4649 12.4844 19.3365L16.1901 17.3186V21.3558C15.3149 22.1817 14.4398 23.0076 13.5646 23.8335C13.2453 24.1266 13.2372 24.6086 13.5503 24.9139C13.8637 25.219 14.3889 25.2189 14.7062 24.9108L16.1901 23.5105V25.8929C16.1836 26.3225 16.5535 26.6719 17.0037 26.6653C17.454 26.6584 17.8109 26.3132 17.8048 25.8929V23.5135L19.2871 24.9108C19.6044 25.2188 20.1296 25.2189 20.443 24.9139C20.7561 24.6086 20.748 24.1266 20.4288 23.8335C19.5541 23.0081 18.6795 22.1827 17.8048 21.3573V17.3201L21.5089 19.3379C21.8292 20.466 22.1506 21.5939 22.4708 22.7219C22.5802 23.1293 23.0181 23.3758 23.4548 23.2725C23.8915 23.1689 24.1544 22.7409 24.0304 22.3275L23.4879 20.4153L25.6735 21.6058C26.6113 22.1336 27.4341 20.7884 26.4809 20.2859L24.2953 19.0954L26.32 18.5835C26.7614 18.4782 27.0236 18.0487 26.9003 17.64C26.7768 17.2315 26.3307 16.9974 25.9022 17.1118C24.7075 17.4139 23.5126 17.7159 22.3179 18.018L18.6122 16.0001L22.3179 13.9808C23.5126 14.2829 24.7075 14.5849 25.9022 14.887C26.3307 15.0013 26.7768 14.7673 26.9003 14.3588C27.0236 13.9501 26.7614 13.5206 26.32 13.4153L24.2953 12.9034L26.4809 11.7129C27.4341 11.2104 26.6113 9.86519 25.6735 10.393L23.4863 11.585L24.0304 9.67126C24.1544 9.25793 23.8915 8.82985 23.4548 8.72632C23.0181 8.623 22.5802 8.86953 22.4708 9.27691C22.1504 10.4054 21.8293 11.5339 21.5089 12.6623L17.8048 14.6802V10.6415C18.6795 9.81607 19.5541 8.9907 20.4288 8.1653C20.748 7.87223 20.7561 7.39018 20.443 7.08494C20.1296 6.77978 19.6044 6.77988 19.2871 7.08799L17.8048 8.4868V6.10584C17.8129 5.59067 17.405 5.33203 16.9974 5.33203Z" fill="#6D42D8"/>
</svg>
