<svg width="60" height="48" viewBox="0 0 60 48" fill="none" xmlns="http://www.w3.org/2000/svg">
<path d="M27.3307 47.9333L20.7307 41.8667C16.553 38.0444 13.1641 34.8111 10.5641 32.1667C7.96406 29.5222 5.93073 27.2 4.46406 25.2C2.9974 23.2 1.9974 21.3556 1.46406 19.6667C0.930729 17.9778 0.664062 16.2 0.664062 14.3333C0.664062 10.2889 2.01962 6.88889 4.73073 4.13333C7.44184 1.37778 10.753 0 14.6641 0C17.1974 0 19.5418 0.588889 21.6974 1.76667C23.853 2.94444 25.7307 4.66667 27.3307 6.93333C29.153 4.57778 31.1085 2.83333 33.1974 1.7C35.2863 0.566667 37.553 0 39.9974 0C43.9085 0 47.2085 1.37778 49.8974 4.13333C52.5863 6.88889 53.9307 10.2889 53.9307 14.3333C53.9307 15.6222 53.8085 16.8333 53.5641 17.9667C53.3196 19.1 53.0196 20 52.6641 20.6667H48.3974C48.753 19.9111 49.0974 18.9222 49.4307 17.7C49.7641 16.4778 49.9307 15.3556 49.9307 14.3333C49.9307 11.4889 48.9641 9.05556 47.0307 7.03333C45.0974 5.01111 42.753 4 39.9974 4C37.7307 4 35.6196 4.68889 33.6641 6.06667C31.7085 7.44444 30.1307 9.4 28.9307 11.9333H25.6641C24.5085 9.44444 22.953 7.5 20.9974 6.1C19.0418 4.7 16.9307 4 14.6641 4C11.7752 4 9.38628 4.97778 7.4974 6.93333C5.60851 8.88889 4.66406 11.3556 4.66406 14.3333C4.66406 15.9333 4.94184 17.4889 5.4974 19C6.05295 20.5111 7.14184 22.2889 8.76406 24.3333C10.3863 26.3778 12.6863 28.8444 15.6641 31.7333C18.6418 34.6222 22.5307 38.2667 27.3307 42.6667C28.753 41.3778 30.0974 40.1778 31.3641 39.0667C32.6307 37.9556 33.8863 36.8667 35.1307 35.8L35.5641 36.2333C35.853 36.5222 36.1752 36.8333 36.5307 37.1667C36.8863 37.5 37.2085 37.8111 37.4974 38.1L37.9307 38.5333C36.7307 39.6 35.4863 40.6889 34.1974 41.8C32.9085 42.9111 31.5307 44.1333 30.0641 45.4667L27.3307 47.9333ZM37.9974 28.6667V24.6667H59.3307V28.6667H37.9974Z" fill="white"/>
</svg>
