<svg width="120" height="120" viewBox="0 0 120 120" fill="none" xmlns="http://www.w3.org/2000/svg">
<g clip-path="url(#clip0_4522_22001)">
<path d="M22.887 102.276C22.8488 102.242 22.8094 102.209 22.7684 102.178C21.545 101.163 20.3217 100.074 19.1962 98.9485C18.4811 98.2411 17.3299 98.2411 16.6149 98.9485C15.8992 99.6651 15.8992 100.825 16.6149 101.542C17.8382 102.765 19.0616 103.903 20.4318 105.004C21.185 105.682 22.3454 105.621 23.0234 104.868C23.7012 104.114 23.6403 102.954 22.887 102.276Z" fill="white"/>
<path d="M3.6799 47.8727C2.72323 47.5384 1.67664 48.0434 1.34236 49C1.29282 49.1419 1.2607 49.2896 1.24725 49.4392C0.880238 51.1152 0.598865 52.8157 0.390894 54.5161C0.259994 55.5107 0.951804 56.4261 1.94456 56.5714H2.177C3.10583 56.572 3.88848 55.8787 3.99981 54.9566C4.19554 53.3662 4.46468 51.7636 4.80722 50.2099C5.14151 49.2533 4.63656 48.2067 3.6799 47.8727Z" fill="white"/>
<path d="M13.7675 92.5506C12.8255 91.2538 11.9324 89.9081 11.1128 88.538C10.5947 87.6669 9.46859 87.3807 8.59756 87.8988C8.59603 87.8997 8.59419 87.9006 8.59266 87.9018C7.72163 88.4199 7.43537 89.546 7.95346 90.4171C7.95438 90.4186 7.95529 90.4204 7.95652 90.422C8.83734 91.89 9.79156 93.3336 10.8069 94.7159C11.433 95.513 12.5866 95.6512 13.3836 95.0251C14.1418 94.4294 14.3097 93.3482 13.7675 92.5506Z" fill="white"/>
<path d="M7.36578 80.9807C6.77857 79.5004 6.24029 77.9712 5.78765 76.4298C5.50536 75.4566 4.48722 74.8963 3.51403 75.1786C3.49691 75.1835 3.48008 75.1887 3.46326 75.1942C2.50017 75.4884 1.95425 76.5041 2.2399 77.4696C2.72925 79.1089 3.29199 80.7482 3.92814 82.363C4.30983 83.3124 5.38883 83.7724 6.33816 83.3907C7.28749 83.009 7.74747 81.93 7.36578 80.9807Z" fill="white"/>
<path d="M8.46179 35.2943C7.5565 34.8382 6.45273 35.2025 5.99672 36.1078C5.226 37.637 4.51645 39.2151 3.89254 40.8177C3.52461 41.7567 3.98368 42.8167 4.92016 43.191C5.86246 43.5642 6.92892 43.103 7.30204 42.1607C7.30327 42.1576 7.30449 42.1542 7.30571 42.1512C7.89293 40.6587 8.52907 39.1784 9.27532 37.7593C9.73133 36.854 9.36708 35.7506 8.46179 35.2943Z" fill="white"/>
<path d="M4.06341 68.214C4.06311 68.2125 4.06311 68.2106 4.0628 68.2091C3.86706 66.6187 3.7325 65.0039 3.67133 63.4135C3.63432 62.4 2.78256 61.6088 1.769 61.6458C0.755448 61.6828 -0.0357596 62.5345 0.001247 63.5481C0.001247 65.2608 0.196985 66.9857 0.417189 68.6862C0.542584 69.5756 1.29342 70.2432 2.19106 70.2643H2.47243C3.47804 70.1374 4.19034 69.2193 4.06341 68.214Z" fill="white"/>
<path d="M52.7466 6.99445C52.6488 5.98089 51.7478 5.23893 50.7342 5.33679C49.0337 5.50807 47.321 5.75274 45.6328 6.08304C44.6192 6.17755 43.8745 7.0758 43.969 8.08935C44.0635 9.10291 44.9618 9.84763 45.9753 9.75312L45.9631 9.70419H46.3179C47.896 9.39835 49.4986 9.16591 51.089 9.00687C52.1025 8.90901 52.8445 8.008 52.7466 6.99445Z" fill="white"/>
<path d="M16.4335 24.1901C15.6702 23.5145 14.5034 23.5858 13.8278 24.3491C12.7023 25.6337 11.6257 26.9916 10.6226 28.3862C10.028 29.2068 10.2112 30.3543 11.0321 30.9489C11.3437 31.1746 11.7181 31.2966 12.1028 31.2978V31.3223C12.6934 31.3244 13.2488 31.0422 13.5953 30.5638C14.5373 29.2671 15.5405 27.9948 16.5926 26.7959C17.2682 26.0325 17.1969 24.866 16.4335 24.1901Z" fill="white"/>
<path d="M64.84 5.64321C63.1518 5.3863 61.4268 5.2028 59.7141 5.10493C58.7006 5.04406 57.8299 5.81631 57.769 6.82986C57.7081 7.84342 58.4804 8.71414 59.4939 8.77501C61.1088 8.89734 62.7114 9.06861 64.2895 9.31329H64.5709C65.5844 9.3876 66.4662 8.62637 66.5405 7.61281C66.6148 6.59957 65.8536 5.71752 64.84 5.64321Z" fill="white"/>
<path d="M26.8526 15.4465C26.2785 14.6669 25.1977 14.4672 24.3829 14.9905C22.976 15.9569 21.5936 17.009 20.2724 18.0978C19.4919 18.7465 19.3852 19.9047 20.0338 20.6852C20.6825 21.4657 21.8407 21.5724 22.6213 20.9238C23.8446 19.8961 25.1414 18.9174 26.4626 18.0122C27.2789 17.4115 27.4532 16.2627 26.8526 15.4465Z" fill="white"/>
<path d="M39.4794 9.66603C39.2112 8.68887 38.2013 8.11389 37.2238 8.38242C37.1379 8.40597 37.0538 8.43594 36.9721 8.47173C35.3695 9.05894 33.7669 9.69509 32.2255 10.4658C31.3064 10.8934 30.9082 11.9849 31.3358 12.9037C31.6355 13.5481 32.2809 13.9597 32.9904 13.9634C33.2553 13.9582 33.5161 13.8967 33.7547 13.7811C35.1983 13.096 36.6908 12.4721 38.1955 11.9216C39.1733 11.6531 39.7479 10.6432 39.4794 9.66603Z" fill="white"/>
<path d="M61.6637 115.812C61.5995 114.799 60.726 114.029 59.7125 114.094C58.1099 114.216 56.495 114.253 54.8924 114.204C53.8789 114.177 53.0354 114.976 53.0085 115.99C52.9816 117.003 53.781 117.847 54.7946 117.874H56.3482C57.5716 117.874 58.795 117.874 59.9449 117.764C60.9585 117.7 61.728 116.826 61.6637 115.812Z" fill="white"/>
<path d="M109.697 73.3031C108.714 73.0533 107.715 73.6475 107.465 74.6305C107.073 76.1842 106.596 77.7256 106.058 79.2303C105.739 80.1754 106.233 81.2024 107.171 81.5425C108.125 81.8847 109.176 81.3886 109.518 80.4347C109.519 80.4329 109.519 80.4311 109.52 80.4292C110.095 78.8144 110.596 77.1628 111.025 75.5358C111.275 74.5528 110.68 73.5533 109.697 73.3031Z" fill="white"/>
<path d="M112.039 52.2903C111.758 50.6021 111.403 48.9016 110.975 47.2501C110.682 46.28 109.658 45.731 108.687 46.0243C107.768 46.302 107.218 47.2421 107.427 48.1799C107.831 49.7213 108.161 51.3117 108.43 52.8898C108.588 53.7544 109.337 54.3853 110.216 54.3945H110.522C111.522 54.2321 112.201 53.2904 112.039 52.2903Z" fill="white"/>
<path d="M119.839 31.2292C119.753 31.0417 119.635 30.8707 119.49 30.7239L116.248 27.3474C115.784 26.8838 115.102 26.7143 114.475 26.907L108.627 28.6809L101.776 21.4141L117.154 12.8506C118.05 12.438 118.442 11.3771 118.029 10.4813C117.943 10.2938 117.824 10.1228 117.68 9.97602L113.361 5.65756C112.891 5.20522 112.21 5.04557 111.587 5.24162L92.0994 11.1382L85.5421 4.17729C83.871 2.245 81.1506 1.59937 78.7892 2.57469H78.6791C76.8988 3.30749 75.4849 4.72138 74.7521 6.50168C74.5674 6.96656 74.4362 7.4507 74.3606 7.94524L73.6144 7.68834C72.6482 7.3776 71.613 7.90885 71.3022 8.875C70.9915 9.84115 71.5227 10.8764 72.4889 11.1871C73.4309 11.493 74.3729 11.8355 75.3149 12.1903C75.5984 12.6338 75.9308 13.0442 76.3058 13.4137L83.2178 19.9709L81.2359 26.5159C61.8524 12.6891 34.9302 17.1938 21.1035 36.5774C7.27678 55.9609 11.7815 82.8828 31.165 96.7095C50.5485 110.536 77.4707 106.032 91.2974 86.648C102.324 71.1905 101.939 50.3393 90.35 35.2993L93.4818 29.6473L100.749 36.4982L98.9991 42.2847C98.7884 42.9205 98.9541 43.6209 99.4273 44.0952C99.4273 44.0952 103.012 47.643 103.097 47.7653C103.945 48.2565 105.03 47.9678 105.522 47.1203C105.529 47.1071 105.537 47.0937 105.544 47.0802L110.327 38.3087L118.964 33.5988C119.86 33.1859 120.252 32.125 119.839 31.2292ZM28.4969 33.6474C35.8722 26.2755 45.8759 22.1384 56.3038 22.1478C57.1195 22.1478 57.9349 22.1723 58.7506 22.2212C65.687 28.6194 63.644 34.4548 58.9952 39.7153C56.2519 42.6248 53.3088 45.3391 50.187 47.8384C45.6728 51.6798 41.4645 55.2642 39.8741 58.8487C37.9901 63.1059 39.3725 66.9595 46.9818 70.3238C50.7865 72.012 52.854 73.321 53.6614 74.3119C53.6733 74.3263 53.6849 74.3364 53.6969 74.3453C53.6718 74.3529 53.6464 74.3612 53.6125 74.3731C51.7701 75.0747 49.809 75.4111 47.8382 75.364C38.6141 75.7555 32.0446 69.8589 26.9432 65.2958C23.2731 62.0294 20.227 59.3135 17.0585 59.2891C17.5821 49.6248 21.6555 40.4937 28.4969 33.6474ZM95.7694 61.5156H95.7817C95.7762 78.5662 84.8152 93.6826 68.6108 98.9871C68.1558 96.1198 68.6861 93.1829 70.1156 90.656C72.054 87.5429 74.5411 84.8074 77.4557 82.5818C88.7474 73.162 89.3835 67.9015 89.8728 63.8522C90.1787 61.2954 90.4111 59.3869 95.4636 56.6099C95.6664 58.2373 95.7685 59.8757 95.7694 61.5156ZM93.494 48.2788C94.0408 49.819 94.4901 51.3923 94.8397 52.9888C87.1448 56.9035 86.8022 59.6928 86.3373 63.4974C85.9214 66.9228 85.3831 71.4003 75.1803 79.9149C71.9124 82.4152 69.1338 85.4965 66.9838 89.0045C65.1093 92.3179 64.4597 96.185 65.1487 99.9291C43.9268 104.78 22.7905 91.5093 17.9393 70.2877C17.3845 67.8605 17.0609 65.3863 16.9728 62.898C18.918 62.898 21.4381 65.2101 24.5332 67.9627C30.1362 72.9662 37.3051 79.3522 47.985 78.9729C50.5014 79.0164 52.9999 78.5417 55.3252 77.5783C56.3054 77.1449 57.0473 76.3048 57.3559 75.2784C57.6165 74.1336 57.2859 72.9344 56.4751 72.0854C55.3252 70.6785 52.805 69.0148 48.4743 67.0819C43.2995 64.7942 42.174 62.5677 43.1894 60.2922C44.4128 57.4296 48.352 54.1754 52.5359 50.5053C55.7962 47.8705 58.8662 45.0091 61.7233 41.9418C66.837 36.1186 69.4672 29.7694 64.2679 22.8207C70.0462 24.0018 75.4828 26.4736 80.1716 30.0508L77.3579 39.3361C77.1502 39.9722 77.3154 40.671 77.786 41.1466C77.786 41.1466 82.3492 45.6731 82.496 45.7587C83.3435 46.2499 84.4289 45.9612 84.9204 45.1137C84.928 45.1005 84.9354 45.0871 84.9427 45.0736L88.5027 38.6387C90.6041 41.606 92.2838 44.8503 93.494 48.2788ZM109.899 34.6139L108.321 35.3968C107.968 35.5721 107.683 35.8605 107.514 36.2165L106.731 37.8069L103.685 43.312L102.792 42.3333L104.565 36.4734C104.772 35.7868 104.545 35.0436 103.99 34.5894L94.3381 25.4999C93.6393 24.8132 92.5162 24.8233 91.8296 25.5222C91.8131 25.539 91.7972 25.5558 91.7813 25.5733C91.659 25.7078 82.9731 41.3546 82.9731 41.3546L81.0769 39.4584L86.9979 19.9458C87.2102 19.2555 86.9827 18.5056 86.423 18.0496L78.7403 10.8195C77.89 10.0993 77.6074 8.90925 78.043 7.88346C78.4332 6.99469 79.1458 6.28667 80.037 5.90162H80.0982C81.1114 5.51045 82.2611 5.80528 82.9609 6.63564L90.301 14.3917C90.7619 14.8866 91.4641 15.0765 92.1116 14.8811L111.685 8.97225L113.582 10.8685L98.0449 19.4075C97.1849 19.8767 96.868 20.9545 97.3375 21.8142C97.3448 21.8276 97.3522 21.8408 97.3598 21.8542C97.4332 21.9888 106.792 31.947 106.792 31.947C107.256 32.4375 107.957 32.6226 108.602 32.4241L114.487 30.6502L115.404 31.5677L109.899 34.6139Z" fill="white"/>
<path d="M105.172 86.1994C105.146 86.1838 105.118 86.1686 105.091 86.1545C104.214 85.696 103.132 86.0153 102.644 86.8763C101.873 88.2831 101.029 89.6655 100.124 90.9868C99.5396 91.8177 99.7396 92.9652 100.571 93.5497C101.402 94.1342 102.549 93.9341 103.134 93.1032C104.088 91.6841 104.993 90.2038 105.825 88.7113C106.338 87.8372 106.046 86.7126 105.172 86.1994Z" fill="white"/>
<path d="M110.97 59.4103C109.957 59.3966 109.124 60.2067 109.11 61.22C109.11 61.2448 109.11 61.2695 109.111 61.2943V61.5023C109.111 63.1049 109.037 64.7197 108.89 66.3223C108.799 67.3316 109.542 68.2243 110.551 68.3161C110.552 68.3161 110.553 68.3164 110.554 68.3164H110.726C111.693 68.3256 112.502 67.5812 112.573 66.6159C112.732 64.9154 112.805 63.1905 112.805 61.4778V61.2331C112.798 60.2245 111.979 59.4103 110.97 59.4103Z" fill="white"/>
<path d="M46.5406 113.286C44.9502 113.017 43.3721 112.675 41.8429 112.21C40.8869 111.874 39.8394 112.376 39.5029 113.332C39.1665 114.288 39.6693 115.336 40.6254 115.672C40.6954 115.697 40.7673 115.717 40.8398 115.733C42.4791 116.198 44.1673 116.602 45.8555 116.957H46.1981C47.2116 117.051 48.1099 116.307 48.2044 115.293C48.2989 114.279 47.5542 113.381 46.5406 113.286Z" fill="white"/>
<path d="M74.9288 112.729C74.5969 111.828 73.6265 111.335 72.7032 111.598V111.647C71.1862 112.149 69.6203 112.577 68.0666 112.87C67.0769 113.093 66.4552 114.077 66.6781 115.066C66.9011 116.056 67.8843 116.678 68.874 116.455C70.5378 116.076 72.2138 115.611 73.8409 115.085C74.792 114.734 75.2789 113.679 74.9288 112.729Z" fill="white"/>
<path d="M33.9506 109.287C32.4948 108.565 31.0635 107.782 29.6811 106.999C28.806 106.486 27.6806 106.779 27.167 107.654C26.6535 108.529 26.9465 109.654 27.8215 110.168C29.3018 111.036 30.831 111.844 32.3847 112.614C33.3034 113.047 34.3989 112.652 34.8314 111.733C35.2639 110.815 34.8696 109.719 33.9506 109.287Z" fill="white"/>
<path d="M97.3703 97.4838C96.6351 96.8125 95.4983 96.8498 94.8089 97.5685H94.8211C93.7201 98.7919 92.5579 99.8685 91.3713 100.933C90.6146 101.608 90.5489 102.77 91.2245 103.526C91.9001 104.283 93.0613 104.349 93.818 103.673C95.0413 102.535 96.3381 101.324 97.4881 100.076C98.1716 99.3277 98.1187 98.1671 97.3703 97.4838Z" fill="white"/>
<path d="M87.2492 106.636C86.7293 105.766 85.6026 105.482 84.7324 106.002C84.7031 106.02 84.6743 106.038 84.6462 106.057V106.009C83.3005 106.865 81.8936 107.672 80.4745 108.455C79.5726 108.918 79.2166 110.025 79.6793 110.926C80.1421 111.828 81.2486 112.184 82.1505 111.722C83.6675 110.939 85.1722 110.07 86.6158 109.153C87.4856 108.632 87.7694 107.506 87.2492 106.636Z" fill="white"/>
</g>
<defs>
<clipPath id="clip0_4522_22001">
<rect width="120" height="120" fill="white"/>
</clipPath>
</defs>
</svg>
