<svg width="29" height="22" viewBox="0 0 29 22" fill="none" xmlns="http://www.w3.org/2000/svg">
<path d="M28.1094 16.0469V11.6875C28.1094 10.6945 27.5088 9.84688 26.6562 9.46906V2.96875C26.6562 1.63188 25.5713 0.546875 24.2344 0.546875H4.85938C3.5225 0.546875 2.4375 1.63188 2.4375 2.96875V9.46906C1.585 9.84203 0.984375 10.6945 0.984375 11.6875V16.0469C0.717969 16.0469 0.5 16.2648 0.5 16.5312V18.4688C0.5 18.7352 0.717969 18.9531 0.984375 18.9531H1.46875V20.4062C1.46875 20.6727 1.68672 20.8906 1.95312 20.8906H3.89062C4.15703 20.8906 4.375 20.6727 4.375 20.4062V18.9531H24.7188V20.4062C24.7188 20.6727 24.9367 20.8906 25.2031 20.8906H27.1406C27.407 20.8906 27.625 20.6727 27.625 20.4062V18.9531H28.1094C28.3758 18.9531 28.5938 18.7352 28.5938 18.4688V16.5312C28.5938 16.2648 28.3758 16.0469 28.1094 16.0469ZM3.40625 2.96875C3.40625 2.16953 4.06016 1.51562 4.85938 1.51562H24.2344C25.0336 1.51562 25.6875 2.16953 25.6875 2.96875V9.26562H23.658C23.7113 9.11547 23.75 8.95078 23.75 8.78125V5.875C23.75 5.07578 23.0961 4.42188 22.2969 4.42188H16.4844C15.6852 4.42188 15.0312 5.07578 15.0312 5.875V8.78125C15.0312 8.95078 15.0652 9.11547 15.1233 9.26562H13.9705C14.0237 9.11547 14.0625 8.95078 14.0625 8.78125V5.875C14.0625 5.07578 13.4086 4.42188 12.6094 4.42188H6.79688C5.99766 4.42188 5.34375 5.07578 5.34375 5.875V8.78125C5.34375 8.95078 5.37766 9.11547 5.43578 9.26562H3.40625V2.96875ZM16 8.78125V5.875C16 5.60859 16.218 5.39062 16.4844 5.39062H22.2969C22.5633 5.39062 22.7812 5.60859 22.7812 5.875V8.78125C22.7812 9.04766 22.5633 9.26562 22.2969 9.26562H16.4844C16.218 9.26562 16 9.04766 16 8.78125ZM6.3125 8.78125V5.875C6.3125 5.60859 6.53047 5.39062 6.79688 5.39062H12.6094C12.8758 5.39062 13.0938 5.60859 13.0938 5.875V8.78125C13.0938 9.04766 12.8758 9.26562 12.6094 9.26562H6.79688C6.53047 9.26562 6.3125 9.04766 6.3125 8.78125ZM1.95312 11.6875C1.95312 10.8883 2.60703 10.2344 3.40625 10.2344H25.6875C26.4867 10.2344 27.1406 10.8883 27.1406 11.6875V16.0469H1.95312V11.6875ZM3.40625 19.9219H2.4375V18.9531H3.40625V19.9219ZM26.6562 19.9219H25.6875V18.9531H26.6562V19.9219ZM27.625 17.9844H1.46875V17.0156H27.625V17.9844Z" fill="white" stroke="white" stroke-width="0.5"/>
</svg>
