<svg width="36" height="41" viewBox="0 0 36 41" fill="none" xmlns="http://www.w3.org/2000/svg">
<path d="M17.5785 0.173828C16.8575 0.173828 16.1363 0.658772 16.15 1.62472V6.0946L13.5245 3.46625C12.9631 2.88868 12.0338 2.88849 11.4794 3.46054C10.9253 4.03285 10.9397 4.9367 11.5045 5.48621C13.0531 7.03476 14.6015 8.58326 16.15 10.1319V17.7016L9.5933 13.9181C9.02637 11.8023 8.46102 9.68634 7.89412 7.57047C7.70061 6.80663 6.92578 6.34439 6.15309 6.53812C5.3805 6.73224 4.91523 7.53489 5.1347 8.30988L6.09729 11.8981L2.22462 9.66312C1.54769 9.25982 0.67262 9.47909 0.26319 10.1626C-0.145882 10.8462 0.0929177 11.7424 0.796091 12.1352L4.66597 14.3702L1.08069 15.33C0.299804 15.5274 -0.164254 16.3328 0.0539322 17.099C0.27249 17.865 1.06183 18.3038 1.82007 18.0895C3.93477 17.5228 6.05003 16.9569 8.16477 16.3903L14.7215 20.1765L8.16477 23.96C6.05003 23.3934 3.93477 22.8275 1.82007 22.2608C1.06183 22.0465 0.27249 22.4853 0.0539322 23.2513C-0.164254 24.0175 0.299804 24.8229 1.08069 25.0203L4.66876 25.9801L0.796091 28.2151C0.0929177 28.6079 -0.145882 29.5041 0.26319 30.1877C0.67262 30.8712 1.54769 31.0904 2.22462 30.6872L6.09729 28.4522L5.1347 32.0404C4.91523 32.8154 5.38049 33.618 6.15309 33.8122C6.92578 34.0059 7.70061 33.5436 7.89412 32.7798C8.46102 30.664 9.02635 28.548 9.5933 26.4321L16.15 22.6486V30.2184C14.6015 31.767 13.0531 33.3155 11.5045 34.8641C10.9397 35.4136 10.9253 36.3174 11.4794 36.8897C12.0338 37.4619 12.9631 37.4618 13.5245 36.884L16.15 34.2585V38.7256C16.1386 39.5309 16.7931 40.1861 17.5897 40.1737C18.3863 40.1608 19.0179 39.5135 19.0071 38.7256V34.264L21.6298 36.884C22.1912 37.4616 23.1205 37.4618 23.6749 36.8897C24.229 36.3174 24.2146 35.4136 23.6498 34.8641C22.1022 33.3165 20.5547 31.7689 19.007 30.2212V22.6514L25.561 26.4349C26.1277 28.5499 26.6963 30.6648 27.263 32.7798C27.4565 33.5436 28.2313 34.0059 29.004 33.8122C29.7766 33.618 30.2419 32.8154 30.0224 32.0404L29.0626 28.455L32.9297 30.6872C34.589 31.6768 36.0449 29.1546 34.3582 28.2123L30.4911 25.9801L34.0736 25.0203C34.8545 24.8229 35.3186 24.0175 35.1004 23.2513C34.8818 22.4853 34.0925 22.0465 33.3342 22.2608C31.2204 22.8272 29.1062 23.3936 26.9923 23.96L20.4356 20.1765L26.9923 16.3903C29.1062 16.9567 31.2204 17.523 33.3342 18.0895C34.0925 18.3038 34.8818 17.865 35.1004 17.099C35.3186 16.3328 34.8545 15.5274 34.0736 15.33L30.4911 14.3702L34.3582 12.138C36.0449 11.1957 34.589 8.67349 32.9297 9.66312L29.0598 11.8981L30.0224 8.30988C30.2419 7.53489 29.7766 6.73224 29.004 6.53812C28.2313 6.34439 27.4565 6.80664 27.263 7.57047C26.6961 9.68635 26.128 11.8023 25.561 13.9181L19.007 17.7016V10.1291C20.5547 8.58141 22.1022 7.03383 23.6498 5.48621C24.2146 4.9367 24.229 4.03285 23.6749 3.46054C23.1205 2.88836 22.1912 2.88855 21.6298 3.46625L19.0071 6.08901V1.62472C19.0214 0.658772 18.2996 0.173828 17.5785 0.173828Z" fill="#7440F5"/>
</svg>
