<svg width="136" height="136" viewBox="0 0 136 136" fill="none" xmlns="http://www.w3.org/2000/svg">
<circle cx="68" cy="68" r="68" fill="#7440F5"/>
<path d="M68.1885 22.6641C66.554 22.6641 64.9195 23.7633 64.9505 25.9527V36.0845L58.9994 30.1269C57.7269 28.8177 55.6204 28.8173 54.3637 30.1139C53.1077 31.4112 53.1404 33.4599 54.4207 34.7055C57.9307 38.2155 61.4405 41.7255 64.9505 45.2356V62.3938L50.0886 53.8179C48.8035 49.0219 47.5221 44.2258 46.2371 39.4298C45.7985 37.6984 44.0422 36.6507 42.2908 37.0898C40.5396 37.5298 39.4849 39.3491 39.9824 41.1058L42.1643 49.239L33.3862 44.1731C31.8519 43.259 29.8684 43.756 28.9403 45.3052C28.0131 46.8548 28.5544 48.8862 30.1482 49.7766L38.92 54.8424L30.7933 57.018C29.0233 57.4655 27.9714 59.2911 28.466 61.0277C28.9614 62.7641 30.7506 63.7587 32.4692 63.2729C37.2626 61.9885 42.0572 60.7057 46.8506 59.4213L61.7125 68.0036L46.8506 76.5795C42.0572 75.2951 37.2626 74.0124 32.4692 72.7279C30.7506 72.2421 28.9614 73.2367 28.466 74.9731C27.9714 76.7098 29.0233 78.5353 30.7933 78.9828L38.9263 81.1584L30.1482 86.2243C28.5544 87.1146 28.0131 89.146 28.9403 90.6956C29.8684 92.2448 31.8519 92.7418 33.3862 91.8277L42.1643 86.7618L39.9824 94.895C39.4849 96.6517 40.5395 98.471 42.2908 98.911C44.0422 99.3501 45.7985 98.3024 46.2371 96.571C47.5221 91.7751 48.8035 86.9789 50.0886 82.1829L64.9505 73.607V90.7652C61.4405 94.2754 57.9307 97.7853 54.4207 101.295C53.1405 102.541 53.1078 104.59 54.3637 105.887C55.6204 107.184 57.7269 107.183 58.9994 105.874L64.9505 99.9226V110.048C64.9246 111.874 66.4082 113.359 68.2138 113.33C70.0194 113.301 71.4509 111.834 71.4265 110.048V99.9353L77.3713 105.874C78.6438 107.183 80.7503 107.183 82.007 105.887C83.2629 104.59 83.2303 102.541 81.95 101.295C78.442 97.7874 74.9344 94.2796 71.4264 90.7715V73.6133L86.2821 82.1892C87.5666 86.9833 88.8554 91.777 90.1399 96.571C90.5785 98.3024 92.3348 99.3501 94.0862 98.911C95.8374 98.471 96.892 96.6517 96.3946 94.895L94.219 86.7681L102.984 91.8277C106.746 94.0709 110.046 88.3539 106.222 86.2179L97.457 81.1584L105.577 78.9828C107.347 78.5353 108.399 76.7098 107.905 74.9731C107.409 73.2367 105.62 72.2421 103.901 72.7279C99.1101 74.0118 94.3179 75.2956 89.5264 76.5795L74.6644 68.0036L89.5264 59.4213C94.3179 60.7052 99.1101 61.989 103.901 63.2729C105.62 63.7587 107.409 62.7641 107.905 61.0277C108.399 59.2911 107.347 57.4655 105.577 57.018L97.457 54.8424L106.222 49.7829C110.046 47.647 106.746 41.93 102.984 44.1731L94.2127 49.239L96.3946 41.1058C96.892 39.3491 95.8374 37.5298 94.0862 37.0898C92.3348 36.6507 90.5785 37.6985 90.1399 39.4298C88.8549 44.2258 87.5672 49.0219 86.2821 53.8179L71.4264 62.3938V45.2293C74.9344 41.7213 78.442 38.2134 81.95 34.7055C83.2302 33.4599 83.2629 31.4112 82.007 30.1139C80.7503 28.817 78.6438 28.8174 77.3713 30.1269L71.4265 36.0718V25.9527C71.4589 23.7633 69.823 22.6641 68.1885 22.6641Z" fill="white"/>
<path d="M65.2012 49.4126L49.5298 76.5542C49.2468 77.0444 49.0977 77.6004 49.0977 78.1664C49.0976 78.7324 49.2466 79.2885 49.5296 79.7787C49.8125 80.2689 50.2196 80.6759 50.7098 80.9589C51.2 81.2419 51.756 81.3909 52.322 81.3908H83.6623C84.2283 81.3909 84.7843 81.2419 85.2745 80.9589C85.7647 80.6759 86.1718 80.2689 86.4548 79.7787C86.7378 79.2885 86.8867 78.7324 86.8867 78.1664C86.8866 77.6004 86.7375 77.0444 86.4545 76.5542L70.7848 49.4126C70.5018 48.9225 70.0949 48.5156 69.6048 48.2327C69.1148 47.9497 68.5589 47.8008 67.993 47.8008C67.4271 47.8008 66.8712 47.9497 66.3812 48.2327C65.8911 48.5156 65.4842 48.9225 65.2012 49.4126Z" fill="#7440F5" stroke="white" stroke-width="4"/>
<path d="M68.196 57.7832H67.7872C66.7807 57.7832 65.9648 58.5991 65.9648 59.6055V68.316C65.9648 69.3225 66.7807 70.1384 67.7872 70.1384H68.196C69.2024 70.1384 70.0183 69.3225 70.0183 68.316V59.6055C70.0183 58.5991 69.2024 57.7832 68.196 57.7832Z" fill="white"/>
<path d="M67.9916 77.0476C69.1109 77.0476 70.0183 76.1402 70.0183 75.0209C70.0183 73.9015 69.1109 72.9941 67.9916 72.9941C66.8722 72.9941 65.9648 73.9015 65.9648 75.0209C65.9648 76.1402 66.8722 77.0476 67.9916 77.0476Z" fill="white"/>
</svg>
