<svg width="200" height="200" viewBox="0 0 200 200" fill="none" xmlns="http://www.w3.org/2000/svg">
<path d="M100.359 156.912C93.5031 159.437 84.7969 162.637 73.7844 166.718C54.9781 164.093 35.2156 157.975 26.6719 143.931C29.7844 135.55 32.4969 128.206 34.8969 121.725C50.9969 140.325 79.1281 152.137 100.359 156.912Z" fill="#7440F5" fill-opacity="0.6"/>
<path d="M105.816 94.1816C87.5156 75.8879 63.9531 62.3754 54.3469 72.0004C52.2969 74.0504 52.9156 72.8254 38.6719 111.482C53.8594 133.4 92.2344 148.707 118.966 150.05C126.959 147.044 126.772 146.894 128.003 145.657C139.784 133.875 117.591 105.95 105.816 94.1816ZM121.366 139.019C120.472 139.925 116.316 139.969 108.934 136.325C100.909 132.357 91.7531 125.438 83.1531 116.838C63.2281 96.9129 58.5719 81.0254 60.9719 78.6254C61.3469 78.2504 62.0469 78.0504 63.0406 78.0504C68.4219 78.0504 82.3656 83.9941 99.1906 100.813C107.791 109.413 114.716 118.569 118.684 126.594C122.328 133.963 122.266 138.125 121.366 139.019Z" fill="#7440F5"/>
<path d="M56.6206 173.087C45.7956 177.112 33.3143 181.775 18.8206 187.206C15.0518 188.593 11.4018 184.931 12.7956 181.181C16.4456 171.406 19.7393 162.568 22.7393 154.506C30.9768 163.968 43.3643 169.706 56.6206 173.087Z" fill="#7440F5"/>
<path d="M122.928 24.3433C120.009 24.8558 117.191 25.3183 115.278 26.2808C118.153 30.6933 124.159 36.3121 120.491 43.6496C117.209 50.2121 110.391 49.8246 104.472 50.0308C108.103 54.9933 112.303 60.0246 109.066 66.5058C105.709 73.2246 96.9094 74.6183 91.7156 75.4621C90.0344 75.7371 88.4719 74.6121 88.1594 72.9433L87.0219 66.8058C86.7031 65.0996 87.8531 63.4558 89.5594 63.1558C92.5156 62.6371 95.2844 62.1871 97.2094 61.2183C94.3219 56.8371 88.3406 51.1621 91.9906 43.8558C95.2656 37.3121 102.078 37.6808 108.009 37.4746C104.372 32.5121 100.178 27.4808 103.416 20.9996C106.772 14.2871 115.578 12.8871 120.759 12.0433C122.441 11.7683 124.003 12.8933 124.309 14.5621L125.447 20.6996C125.778 22.4058 124.641 24.0433 122.928 24.3433Z" fill="#7440F5"/>
<path d="M179.304 74.5312L185.442 75.6687C187.117 75.9812 188.235 77.5437 187.96 79.2187C187.117 84.3999 185.717 93.2062 179.004 96.5624C172.523 99.7999 167.492 95.6062 162.529 91.9687C162.323 97.8999 162.692 104.719 156.148 107.987C148.842 111.637 143.167 105.656 138.785 102.769C137.817 104.694 137.367 107.462 136.848 110.419C136.548 112.131 134.904 113.275 133.198 112.956L127.06 111.819C125.385 111.506 124.267 109.944 124.542 108.262C125.385 103.075 126.785 94.2749 133.498 90.9124C139.973 87.6749 145.01 91.8749 149.973 95.5062C150.179 89.5874 149.792 82.7624 156.354 79.4874C163.692 75.8187 169.31 81.8249 173.723 84.6999C174.685 82.7874 175.148 79.9687 175.66 77.0499C175.954 75.3562 177.592 74.2187 179.304 74.5312Z" fill="#7440F5"/>
<path d="M160.625 131.25H148.75C147.712 131.25 146.875 130.413 146.875 129.375V123.75C146.875 122.712 147.712 121.875 148.75 121.875H160.625C161.663 121.875 162.5 122.712 162.5 123.75V129.375C162.5 130.413 161.663 131.25 160.625 131.25Z" fill="white"/>
<path d="M173.675 20.4561L165.275 28.8561C164.544 29.5873 163.356 29.5873 162.625 28.8561L158.65 24.8748C157.919 24.1436 157.919 22.9561 158.65 22.2248L167.05 13.8248C167.781 13.0936 168.969 13.0936 169.7 13.8248L173.675 17.7998C174.406 18.5311 174.406 19.7186 173.675 20.4561Z" fill="white"/>
<path d="M76.25 40.625H70.625C69.5875 40.625 68.75 39.7875 68.75 38.75V26.875C68.75 25.8375 69.5875 25 70.625 25H76.25C77.2875 25 78.125 25.8375 78.125 26.875V38.75C78.125 39.7875 77.2875 40.625 76.25 40.625Z" fill="white"/>
<path d="M121.143 82.8436L116.456 79.7186C115.574 79.1311 115.318 77.9436 115.924 77.0748C128.681 58.9248 153.274 40.0061 179.293 39.0936C180.362 39.0623 181.249 39.9498 181.249 41.0123V46.6436C181.249 47.6436 180.462 48.4248 179.462 48.4686C157.693 49.3311 135.393 65.7248 123.662 82.3686C123.081 83.1998 121.981 83.4061 121.143 82.8436Z" fill="#7440F5" fill-opacity="0.6"/>
</svg>
