<svg width="28" height="28" viewBox="0 0 28 28" fill="none" xmlns="http://www.w3.org/2000/svg">
<path d="M6.41797 26.8337C5.9513 26.8337 5.54297 26.6587 5.19297 26.3087C4.84297 25.9587 4.66797 25.5503 4.66797 25.0837V10.2378C4.66797 9.77116 4.84297 9.36283 5.19297 9.01283C5.54297 8.66283 5.9513 8.48783 6.41797 8.48783H11.3471V10.2378H6.41797V25.0837H21.5846V10.2378H16.5971V8.48783H21.5846C22.0513 8.48783 22.4596 8.66283 22.8096 9.01283C23.1596 9.36283 23.3346 9.77116 23.3346 10.2378V25.0837C23.3346 25.5503 23.1596 25.9587 22.8096 26.3087C22.4596 26.6587 22.0513 26.8337 21.5846 26.8337H6.41797ZM13.0971 17.8795V4.55033L10.5305 7.11699L9.2763 5.86283L13.9721 1.16699L18.668 5.86283L17.4138 7.11699L14.8471 4.55033V17.8795H13.0971Z" fill="white"/>
</svg>
