<svg width="26" height="16" viewBox="0 0 26 16" fill="none" xmlns="http://www.w3.org/2000/svg">
<path d="M23.4176 4.65938L25.4408 2.44662H20.923C18.6648 0.893395 15.9351 0 12.9704 0C10.0057 0 7.27604 0.894856 5.01784 2.44662H0.5L2.52319 4.65809C1.25318 5.7878 0.5 7.43442 0.5 9.26932C0.5 12.7041 3.27641 15.482 6.71257 15.482C8.35914 15.482 9.81881 14.8702 10.9486 13.8353L12.9718 16L14.9482 13.8353C16.0781 14.8702 17.5364 15.482 19.1843 15.482C22.619 15.482 25.3969 12.7055 25.3969 9.26932C25.4408 7.43588 24.6409 5.7878 23.4176 4.65938ZM6.75784 13.4587C4.40483 13.4587 2.52181 11.5756 2.52181 9.22271C2.52181 6.86961 4.40483 4.98655 6.75784 4.98655C9.11095 4.98655 10.9939 6.86961 10.9939 9.22271C10.9458 11.5771 9.06425 13.4587 6.75784 13.4587ZM12.9704 9.12915C12.9704 6.35278 10.9472 3.9529 8.31103 2.96469C9.76936 2.35306 11.3225 2.02323 12.9704 2.02323C14.6184 2.02323 16.2182 2.35306 17.6298 2.96469C14.9936 3.99968 12.9704 6.35278 12.9704 9.12915ZM19.1816 13.4587C16.8285 13.4587 14.9455 11.5756 14.9455 9.22271C14.9455 6.86961 16.8285 4.98655 19.1816 4.98655C21.5347 4.98655 23.4176 6.86961 23.4176 9.22271C23.4176 11.5771 21.5347 13.4587 19.1816 13.4587ZM19.1816 7.05927C17.9583 7.05927 16.9701 8.04751 16.9701 9.27074C16.9701 10.494 17.9583 11.4822 19.1816 11.4822C20.4049 11.4822 21.3931 10.494 21.3931 9.27074C21.3931 8.04751 20.4049 7.05927 19.1816 7.05927ZM8.9694 9.27074C8.9694 10.494 7.98116 11.4822 6.75784 11.4822C5.53458 11.4822 4.54637 10.494 4.54637 9.27074C4.54637 8.04751 5.53462 7.05927 6.75784 7.05927C7.98116 7.05927 8.9694 8.04751 8.9694 9.27074Z" fill="white" fill-opacity="0.6"/>
</svg>
