<svg width="375" height="161" viewBox="0 0 375 161" fill="none" xmlns="http://www.w3.org/2000/svg">
<path d="M0 127.105C3.09823 124.241 4.50479 119.771 6.34852 115.837C8.43935 111.386 12.3929 106.803 17.2589 107.509C29.3096 109.286 30.5261 134.459 30.108 143.149C29.8609 148.459 29.3857 154.8 33.6244 157.99C34.3657 158.543 35.278 158.964 36.2094 158.906C37.844 158.792 39.0035 157.264 39.7638 155.812C42.1397 151.228 43.2612 145.384 47.785 142.939C50.37 141.545 53.5253 141.621 56.1293 140.265C61.5465 137.457 62.2687 130.161 62.896 124.069C63.4092 119.16 64.3786 114.137 67.2107 110.126C76.9996 96.3169 89.2215 111.883 93.7072 121.567C97.3757 129.512 101.785 138.756 110.339 140.552C120.622 142.71 129.004 132.759 135.239 124.26C141.492 115.779 151.547 106.707 161.127 111.043C170.023 115.073 172.836 128.996 182.53 130.047C195.493 131.441 200.796 108.197 213.759 109.534C224.099 110.584 227.368 126.628 237.632 128.271C248.486 130.009 254.72 114.614 265.478 112.437C274.07 110.699 281.635 117.88 287.736 124.221C292.564 129.245 298.114 134.115 305.185 134.459C311.325 134.745 318.472 133.523 322.615 139.406C324.421 141.965 324.877 145.212 325.238 148.325C325.618 151.438 326.018 154.685 327.728 157.302C329.458 159.919 332.936 161.657 335.768 160.339C338.677 158.983 339.532 155.297 339.931 152.107C340.691 145.976 341.015 139.788 340.9 133.599C340.824 128.939 340.52 124.126 342.288 119.829C343.562 116.715 347.268 112.552 351.051 112.953C353.598 113.22 356.658 116.658 358.73 118.167C363.462 121.605 369.374 124.852 375 125.654V0.226562H0V127.105Z" fill="white"/>
</svg>
