<svg width="46" height="16" viewBox="0 0 46 16" fill="none" xmlns="http://www.w3.org/2000/svg">
<path d="M10.1785 8.33083L10.1422 8.1606L10.1418 8.15892L8.89591 2.21883C8.89465 2.21283 8.89328 2.20685 8.8918 2.2009C8.75948 1.6684 8.4736 1.28625 8.06809 1.04754C7.6836 0.821218 7.23488 0.749588 6.8108 0.734724C6.80497 0.734519 6.79913 0.734417 6.79329 0.734417H1.05867C0.824729 0.734417 0.622063 0.896625 0.570813 1.12488L0.512146 1.38618C0.452274 1.65284 0.617602 1.91816 0.883359 1.98192C2.16387 2.28911 3.31153 2.7227 4.32223 3.25586L7.44145 14.2888C7.50233 14.5041 7.69884 14.6528 7.9226 14.6528H11.6918C11.891 14.6528 12.0712 14.5345 12.1505 14.3517L17.7529 1.43336C17.82 1.27881 17.8047 1.1009 17.7122 0.960072C17.6198 0.81924 17.4627 0.734417 17.2942 0.734417L13.5253 0.734417C13.3202 0.734417 13.1359 0.859681 13.0604 1.05039L10.1785 8.33083ZM20.0666 14.6665C20.31 14.6665 20.518 14.4912 20.5593 14.2514L22.7885 1.31935C22.8136 1.17403 22.7732 1.02507 22.6782 0.912289C22.5832 0.799509 22.4433 0.734417 22.2958 0.734417H18.7317C18.4883 0.734417 18.2803 0.909644 18.239 1.14947L16.0096 14.0815C15.9845 14.2268 16.0249 14.3758 16.1199 14.4886C16.2149 14.6014 16.3548 14.6665 16.5023 14.6665H20.0666ZM33.4802 1.63608C33.5214 1.39885 33.3876 1.16596 33.162 1.08197C32.4124 0.80301 31.2382 0.5 29.7906 0.5C27.9528 0.5 26.3449 0.959073 25.1798 1.78765C24.0063 2.62211 23.2865 3.83301 23.2769 5.27281C23.2602 6.38577 23.7993 7.23452 24.4831 7.86458C25.1591 8.48735 26.0066 8.92649 26.6921 9.24118L26.6922 9.2412C27.3764 9.5552 27.7814 9.79203 28.0128 9.99415C28.218 10.1733 28.2477 10.2884 28.2484 10.3926C28.2441 10.5727 28.1381 10.7511 27.8293 10.9098C27.5143 11.0716 27.0668 11.1625 26.608 11.1625C25.2639 11.1625 24.5669 10.9748 23.4604 10.5149L22.9958 10.3104C22.8549 10.2483 22.6934 10.2547 22.5577 10.3275C22.4221 10.4004 22.3277 10.5316 22.3016 10.6833L21.8028 13.5863C21.7636 13.8145 21.8862 14.0397 22.0991 14.1307C23.011 14.5205 24.6201 14.8449 26.2664 14.8592V14.8592H26.2708C28.2112 14.8592 29.866 14.4103 31.0542 13.5643C32.2564 12.7084 32.9581 11.4587 32.9743 9.94813L32.9743 9.94759C32.9826 9.08928 32.7045 8.3232 32.1351 7.65196C31.5769 6.99384 30.7539 6.444 29.6922 5.9669C29.0613 5.66742 28.6042 5.43944 28.3019 5.22203C28.0075 5.01028 27.9745 4.8903 27.9725 4.83126C27.9768 4.75745 28.0222 4.62243 28.2417 4.48525C28.4734 4.3404 28.8819 4.2106 29.5254 4.2106V4.21074L29.5373 4.21046C30.6053 4.18501 31.3859 4.42354 31.9886 4.66751L32.3069 4.80309C32.4474 4.86295 32.6075 4.8553 32.7417 4.78233C32.8759 4.70936 32.9693 4.57908 32.9954 4.4286L33.4802 1.63608ZM39.4897 6.46413C39.5548 6.76236 39.6418 7.16078 39.7333 7.5785C39.848 8.10272 39.9699 8.65867 40.064 9.0851H38.4593C38.6226 8.66998 38.8236 8.15886 39.0117 7.68028L39.4321 6.61055L39.4897 6.46413ZM42.6126 1.12589C42.5617 0.89715 42.3588 0.734417 42.1245 0.734417H39.3675C38.903 0.734417 38.4379 0.797054 38.0238 1.01271C37.5969 1.23504 37.2704 1.59569 37.0472 2.10527C37.047 2.1059 37.0467 2.10653 37.0464 2.10716L31.7537 13.9624C31.6846 14.1171 31.6986 14.2963 31.7908 14.4384C31.883 14.5805 32.0408 14.6663 32.2102 14.6663H35.9502C36.1569 14.6663 36.3423 14.5391 36.4167 14.3462L35.9502 14.1663L36.4167 14.3462L36.4167 14.3462L36.4168 14.3459L36.4171 14.3451L36.4184 14.3416L36.4236 14.3282L36.4434 14.277L36.5149 14.0915L36.7411 13.5052L37.0413 12.7264H40.8733C40.9231 12.9521 40.9822 13.2221 41.037 13.4733L41.1592 14.0334L41.1971 14.2078L41.2076 14.2557L41.2103 14.2682L41.211 14.2714L41.2112 14.2722L41.2112 14.2724L41.2112 14.2725L41.6998 14.1663L41.2112 14.2725C41.2612 14.5023 41.4646 14.6663 41.6998 14.6663H45C45.1517 14.6663 45.2951 14.5974 45.39 14.4791C45.4849 14.3608 45.521 14.2058 45.4881 14.0578L42.6126 1.12589Z" fill="#183BC9" stroke="white" stroke-linejoin="round"/>
</svg>
