<svg width="20" height="21" viewBox="0 0 20 21" fill="none" xmlns="http://www.w3.org/2000/svg">
<path d="M8.99518 1.81384C9.50149 1.15182 10.4985 1.15182 11.0048 1.81384C11.3838 2.30932 12.0673 2.45462 12.615 2.1561C13.3468 1.75725 14.2577 2.16277 14.4509 2.9735C14.5956 3.58027 15.1609 3.99103 15.7827 3.9411C16.6135 3.87438 17.2806 4.61531 17.1274 5.43456C17.0128 6.0477 17.3622 6.6529 17.9505 6.86019C18.7366 7.13714 19.0447 8.08536 18.5715 8.77147C18.2174 9.28498 18.2904 9.97998 18.7436 10.4086C19.3491 10.9814 19.2449 11.9729 18.5335 12.4073C18.0012 12.7323 17.7852 13.397 18.0248 13.9729C18.345 14.7424 17.8465 15.6058 17.02 15.7133C16.4015 15.7937 15.9338 16.313 15.9185 16.9366C15.898 17.7698 15.0914 18.3559 14.2927 18.1179C13.6949 17.9398 13.0565 18.224 12.7888 18.7874C12.4312 19.5403 11.456 19.7475 10.8231 19.2053C10.3494 18.7994 9.65059 18.7994 9.17691 19.2053C8.54402 19.7475 7.56879 19.5403 7.21118 18.7874C6.94354 18.224 6.30513 17.9398 5.70732 18.1179C4.90858 18.3559 4.10198 17.7698 4.08149 16.9366C4.06615 16.313 3.59855 15.7937 2.97998 15.7133C2.15349 15.6058 1.65498 14.7424 1.97516 13.9729C2.21478 13.397 1.99884 12.7323 1.46646 12.4073C0.755135 11.9729 0.650919 10.9814 1.2564 10.4086C1.70955 9.97998 1.7826 9.28498 1.42847 8.77147C0.955303 8.08536 1.2634 7.13714 2.04948 6.86019C2.63781 6.6529 2.98722 6.0477 2.87257 5.43456C2.71938 4.61531 3.38651 3.87438 4.21729 3.9411C4.83906 3.99103 5.40442 3.58027 5.54907 2.9735C5.74234 2.16277 6.65316 1.75725 7.38497 2.1561C7.93268 2.45462 8.61624 2.30932 8.99518 1.81384Z" fill="#7440f5"/>
<path d="M6.36353 10.9854L7.97101 13.0521C8.02525 13.1226 8.09475 13.1799 8.17429 13.2197C8.25384 13.2594 8.34136 13.2807 8.43029 13.2818C8.51778 13.2828 8.6044 13.2643 8.68385 13.2276C8.76329 13.191 8.83357 13.1371 8.88957 13.0698L14.0182 6.86365" stroke="white" stroke-width="2" stroke-linecap="round" stroke-linejoin="round"/>
</svg>
