<svg width="45" height="42" viewBox="0 0 45 42" fill="none" xmlns="http://www.w3.org/2000/svg">
<path d="M24.0008 35.5954C15.9535 35.5954 9.40625 29.0483 9.40625 21.0008C9.40625 12.9534 15.9534 6.40625 24.0008 6.40625C32.0483 6.40625 38.5954 12.9534 38.5954 21.0008C38.5954 29.0483 32.0483 35.5954 24.0008 35.5954ZM24.0008 7.48733C16.5496 7.48733 10.4873 13.5496 10.4873 21.0008C10.4873 28.4521 16.5496 34.5144 24.0008 34.5144C31.4521 34.5144 37.5144 28.4521 37.5144 21.0008C37.5144 13.5496 31.4521 7.48733 24.0008 7.48733ZM25.0818 32.8927H22.9199C22.3237 32.8927 21.8389 32.4079 21.8389 31.8118V30.7308H21.2982C18.2675 30.7308 15.7272 28.4617 15.3894 25.4524C15.317 24.8095 15.8215 24.2443 16.4674 24.2443H18.6524C19.1671 24.2443 19.6022 24.6047 19.7112 25.1209C19.8692 25.8656 20.5366 26.4062 21.2982 26.4062H26.6074C27.4864 26.4062 28.2379 25.7656 28.3178 24.9485C28.4132 23.9629 27.6338 23.1628 26.7036 23.1628H21.489C18.2637 23.1628 15.5739 20.7293 15.3657 17.6228C15.1307 14.109 17.9376 11.2709 21.2982 11.2709H21.8389V10.1899C21.8389 9.59382 22.3238 9.10895 22.9199 9.10895H25.0818C25.6779 9.10895 26.1628 9.59384 26.1628 10.1899V11.2709H26.7035C29.7342 11.2709 32.2745 13.54 32.6123 16.5493C32.6847 17.1922 32.1802 17.7574 31.5343 17.7574H29.3493C28.8346 17.7574 28.3995 17.3969 28.2905 16.8808C28.1325 16.1361 27.4651 15.5954 26.7035 15.5954H21.3942C20.5153 15.5954 19.7638 16.236 19.6839 17.0532C19.5885 18.0388 20.3679 18.8389 21.2981 18.8389H26.5127C29.738 18.8389 32.4278 21.2724 32.636 24.3789C32.8709 27.8926 30.0641 30.7308 26.7035 30.7308H26.1628V31.8118C26.1628 32.4079 25.6779 32.8927 25.0818 32.8927ZM16.4674 25.3254C16.7403 27.7935 18.8186 29.6498 21.2981 29.6498H22.1088C22.556 29.6498 22.9195 30.0136 22.9195 30.4604L22.9198 31.8118H25.0818V30.4604C25.0818 30.0133 25.4457 29.6498 25.8925 29.6498H26.7035C29.4515 29.6498 31.7495 27.3283 31.5569 24.451C31.3872 21.9101 29.1709 19.9201 26.5127 19.9201H21.2981C19.7122 19.9201 18.4528 18.5499 18.6082 16.9489C18.7421 15.5836 19.9653 14.5146 21.3942 14.5146H26.7035C27.9734 14.5146 29.085 15.4158 29.3478 16.6574L31.5343 16.6766C31.2613 14.2085 29.183 12.3522 26.7035 12.3522H25.8928C25.4457 12.3522 25.0822 11.9884 25.0822 11.5416L25.0818 10.1902H22.9198V11.5416C22.9198 11.9887 22.556 12.3522 22.1092 12.3522H21.2981C18.5502 12.3522 16.2521 14.6737 16.4448 17.551C16.6152 20.0915 18.8308 22.0817 21.4897 22.0817L26.7036 22.082C28.2896 22.082 29.5489 23.4522 29.3935 25.0532C29.2597 26.4185 28.0365 27.4874 26.6075 27.4874H21.2982C20.0284 27.4874 18.9168 26.5863 18.6539 25.3447L16.4674 25.3254Z" fill="white" stroke="white"/>
<path d="M24.0003 1.00046C15.1392 1.00046 7.23682 6.94052 4.78219 15.4445C4.58311 16.1341 5.62377 16.4271 5.82099 15.7446C8.14252 7.69944 15.6183 2.08149 24.0005 2.08149C34.432 2.08149 42.9194 10.5686 42.9194 21.0004C42.9194 31.4323 34.4324 39.9193 24.0005 39.9193C15.7156 39.9193 8.66076 34.5641 6.10671 27.1346L8.98132 26.3907C9.82667 26.1716 10.0774 25.0895 9.41267 24.522L4.87406 20.6452C4.3066 20.1603 3.42204 20.3847 3.15958 21.089L1.07001 26.6807C0.76497 27.4974 1.50512 28.3238 2.35389 28.1056L5.05881 27.4054C7.73584 35.3005 15.2133 41 24.0009 41C35.0289 41 44.0009 32.0281 44.0009 21C44.0009 9.97191 35.029 1 24.0009 1L24.0003 1.00046ZM2.08238 27.0584L4.17167 21.4674L8.71028 25.3435L2.08238 27.0584Z" fill="white" stroke="white"/>
</svg>
