<svg width="22" height="22" viewBox="0 0 22 22" fill="none" xmlns="http://www.w3.org/2000/svg">
<path d="M7.32031 1V5.06272" stroke="#8E91A5" stroke-width="2" stroke-linecap="round"/>
<path d="M14.668 1V5.06272" stroke="#8E91A5" stroke-width="2" stroke-linecap="round"/>
<path d="M1.32393 16.6396C1.58816 18.9425 3.50426 20.7711 5.87365 20.8826C7.51134 20.9596 9.1843 20.9996 11 20.9996C12.8157 20.9996 14.4886 20.9596 16.1263 20.8826C18.4957 20.7711 20.4119 18.9425 20.6761 16.6396C20.8541 15.0886 21 13.4985 21 11.8787C21 10.259 20.8541 8.66892 20.6761 7.11799C20.4119 4.81497 18.4957 2.98639 16.1263 2.87492C14.4887 2.79786 12.8157 2.75781 11 2.75781C9.1843 2.75781 7.51134 2.79786 5.87365 2.87492C3.50426 2.98639 1.58816 4.81497 1.32393 7.11799C1.14599 8.66892 1 10.259 1 11.8787C1 13.4985 1.14599 15.0886 1.32393 16.6396Z" stroke="#8E91A5" stroke-width="2"/>
<path d="M6.08789 9.47656H6.90678" stroke="#8E91A5" stroke-width="2" stroke-linecap="round" stroke-linejoin="round"/>
<path d="M6.08789 14.2812H6.90678" stroke="#8E91A5" stroke-width="2" stroke-linecap="round" stroke-linejoin="round"/>
<path d="M10.5898 9.47656H11.4087" stroke="#8E91A5" stroke-width="2" stroke-linecap="round" stroke-linejoin="round"/>
<path d="M15.0938 9.47656H15.9126" stroke="#8E91A5" stroke-width="2" stroke-linecap="round" stroke-linejoin="round"/>
<path d="M10.5898 14.2812H11.4087" stroke="#8E91A5" stroke-width="2" stroke-linecap="round" stroke-linejoin="round"/>
</svg>
