<svg width="21" height="28" viewBox="0 0 21 28" fill="none" xmlns="http://www.w3.org/2000/svg">
<path d="M19.5714 10.6429C19.5714 15.9786 10.2857 26.7143 10.2857 26.7143C10.2857 26.7143 1 15.9786 1 10.6429C1 8.08541 1.97831 5.63271 3.71972 3.82433C5.46113 2.01594 7.82299 1 10.2857 1C12.7484 1 15.1103 2.01594 16.8517 3.82433C18.5931 5.63271 19.5714 8.08541 19.5714 10.6429Z" stroke="#8E91A5" stroke-width="2" stroke-linecap="round" stroke-linejoin="round"/>
<path d="M10.2906 13.8622C12 13.8622 13.3858 12.4231 13.3858 10.6479C13.3858 8.87268 12 7.43359 10.2906 7.43359C8.5811 7.43359 7.19531 8.87268 7.19531 10.6479C7.19531 12.4231 8.5811 13.8622 10.2906 13.8622Z" stroke="#8E91A5" stroke-width="2" stroke-linecap="round" stroke-linejoin="round"/>
</svg>
