<svg width="42" height="42" viewBox="0 0 42 42" fill="none" xmlns="http://www.w3.org/2000/svg">
<path d="M37.2325 17.2282C36.0453 17.2282 34.9874 17.7829 34.2949 18.6434C33.6283 17.1208 32.3379 16.308 31.1249 15.938C31.1636 15.4175 31.1162 14.8412 30.8969 14.2435C30.9785 14.2477 31.0604 14.2564 31.142 14.2564C32.015 14.2564 32.884 13.9252 33.5506 13.2627C34.8752 11.9335 34.8752 9.77458 33.5506 8.44966C32.2214 7.12504 30.0625 7.12504 28.7375 8.44966C28.0106 9.17662 27.688 10.1487 27.7526 11.1034C27.1504 10.8883 26.5783 10.8367 26.058 10.8754C25.6839 9.65816 24.8708 8.37194 23.3527 7.70534C24.2128 7.01287 24.7679 5.95467 24.7679 4.76777C24.7679 2.69037 23.0775 1 21.0001 1C18.9227 1 17.2324 2.69037 17.2324 4.76777C17.2324 5.95498 17.7871 7.01284 18.6476 7.70534C17.125 8.372 16.3122 9.65823 15.9422 10.8754C15.4217 10.8367 14.8454 10.8841 14.2477 11.1034C14.3164 10.1529 13.9897 9.17633 13.2627 8.45388C11.9336 7.12927 9.77463 7.12927 8.4497 8.45388C7.12509 9.7785 7.12509 11.942 8.4497 13.2669C9.11217 13.9294 9.98523 14.2607 10.8583 14.2607C10.9399 14.2607 11.0218 14.2565 11.1034 14.2477C10.8883 14.8499 10.8367 15.4221 10.8754 15.9423C9.65816 16.3164 8.37194 17.1295 7.70534 18.6476C7.01287 17.7875 5.95467 17.2324 4.76777 17.2324C2.69037 17.2324 1 18.9228 1 21.0002C1 23.0776 2.69037 24.7679 4.76777 24.7679C5.95498 24.7679 7.01284 24.2132 7.70534 23.3527C8.372 24.8753 9.66238 25.6881 10.8754 26.0581C10.8367 26.5786 10.8841 27.155 11.1034 27.7526C10.1529 27.6839 9.17633 28.0106 8.44966 28.7376C7.12504 30.0667 7.12504 32.2257 8.44966 33.5506C9.11212 34.2131 9.98519 34.5443 10.8583 34.5443C11.7313 34.5443 12.6002 34.2131 13.2668 33.5506C13.9938 32.8236 14.3206 31.8473 14.2518 30.8924C14.7292 31.0643 15.1939 31.1375 15.6238 31.1375C15.7357 31.1375 15.8431 31.1288 15.9464 31.1246C16.3205 32.3418 17.1336 33.6281 18.6517 34.2947C17.7916 34.9871 17.2365 36.0453 17.2365 37.2322C17.2365 39.3096 18.9269 41 21.0043 41C23.0817 41 24.772 39.3096 24.772 37.2322C24.772 36.045 24.2173 34.9872 23.3568 34.2947C24.8794 33.628 25.6922 32.3376 26.0622 31.1246C26.1696 31.1333 26.2773 31.1417 26.3847 31.1417C26.8149 31.1417 27.2793 31.0685 27.7567 30.8966C27.688 31.8516 28.0147 32.8279 28.7417 33.5548C29.4041 34.2173 30.2772 34.5485 31.1503 34.5485C32.0233 34.5485 32.8922 34.2173 33.5588 33.5548C34.8835 32.2302 34.8835 30.0667 33.5588 28.7418C32.8319 28.0148 31.8598 27.6923 30.9051 27.7568C31.1202 27.1546 31.1718 26.5825 31.1331 26.0623C32.3503 25.6881 33.6366 24.8751 34.3032 23.3569C34.9956 24.2171 36.0538 24.7721 37.2407 24.7721C39.3181 24.7721 41.0085 23.0818 41.0085 21.0044C41.0085 18.927 39.3181 17.2366 37.2407 17.2366L37.2325 17.2282ZM4.76691 23.4735C3.40328 23.4735 2.28927 22.3637 2.28927 20.9959C2.28927 19.628 3.39905 18.5182 4.76691 18.5182C6.13477 18.5182 7.24455 19.628 7.24455 20.9959C7.24455 22.3637 6.13477 23.4735 4.76691 23.4735ZM29.6493 9.35714C30.0622 8.9443 30.6044 8.73788 31.142 8.73788C31.6797 8.73788 32.226 8.9443 32.6347 9.35714C33.4607 10.1831 33.4607 11.5206 32.6347 12.3466C31.8087 13.1726 30.4712 13.1726 29.6452 12.3466C28.8192 11.5206 28.8192 10.1831 29.6452 9.35714H29.6493ZM26.3244 14.9055V12.5656C26.3244 12.4366 26.3157 12.2989 26.3073 12.1528C26.3289 12.1528 26.3502 12.1486 26.3676 12.1486C27.202 12.1486 27.9977 12.5185 28.7375 13.2583C29.5893 14.1101 29.8602 14.9487 29.8515 15.6886C29.7054 15.6757 29.5632 15.667 29.43 15.667H27.0901C26.4921 15.667 25.6707 15.9982 25.1372 17.5683C25.0382 17.8608 24.9565 18.1833 24.8878 18.5274C24.6514 18.3297 24.4018 18.1059 24.1438 17.8479C23.8857 17.5899 23.6619 17.3447 23.4642 17.1038C25.0471 16.7813 26.3289 16.1017 26.3289 14.9016L26.3244 14.9055ZM17.305 20.0066C17.791 19.6625 18.29 19.2409 18.7673 18.7635C19.2233 18.3075 19.6533 17.8085 20.0145 17.3054C20.3457 17.327 20.6725 17.3399 20.9995 17.3399C21.3265 17.3399 21.6574 17.327 21.9887 17.3054C22.3328 17.7915 22.7543 18.2863 23.2317 18.7635C23.7091 19.2408 24.208 19.6624 24.6898 20.0066C24.6682 20.3291 24.6553 20.6604 24.6553 20.9958C24.6553 21.3312 24.6682 21.6538 24.6898 21.985C24.2038 22.3291 23.7049 22.7507 23.2275 23.228C22.7715 23.6841 22.3415 24.1831 21.9803 24.6861C21.6491 24.6645 21.3223 24.6516 20.9953 24.6516C20.6683 24.6516 20.3374 24.6645 20.0061 24.6861C19.662 24.2001 19.2405 23.7053 18.7631 23.228C18.2857 22.7508 17.7868 22.3292 17.3008 21.985C17.3224 21.6538 17.3353 21.3225 17.3353 20.9958C17.3353 20.6688 17.3224 20.3378 17.3008 20.0066H17.305ZM18.5222 4.75885C18.5222 3.39522 19.632 2.28121 20.9999 2.28121C22.3677 2.28121 23.4775 3.39099 23.4775 4.75885C23.4775 6.12671 22.3677 7.23649 20.9999 7.23649C19.632 7.23649 18.5222 6.12671 18.5222 4.75885ZM16.9609 12.5655C16.9609 12.1527 17.0986 8.52654 20.9953 8.52654C24.8921 8.52654 25.0298 12.1524 25.0298 12.5655V14.9054C25.0298 15.3828 23.4942 16.0495 20.9953 16.0495C18.4964 16.0495 16.9609 15.3828 16.9609 14.9054V12.5655ZM15.6534 12.1398H15.6879C15.675 12.2859 15.6663 12.4281 15.6663 12.5613V14.9012C15.6663 16.1014 16.9481 16.7809 18.531 17.1035C18.3333 17.3399 18.1094 17.5895 17.8514 17.8475C17.6063 18.0927 17.3567 18.3207 17.1073 18.5271C16.7848 16.9442 16.1052 15.667 14.9051 15.667H12.5652C12.432 15.667 12.2898 15.6757 12.1437 15.6886C12.135 14.9487 12.4059 14.1101 13.2577 13.2583C14.1095 12.4065 14.9222 12.1401 15.6534 12.1401L15.6534 12.1398ZM9.35644 12.3462C8.53046 11.5202 8.53046 10.1827 9.35644 9.35671C9.76928 8.94388 10.3115 8.73746 10.8491 8.73746C11.3868 8.73746 11.9331 8.94388 12.3418 9.35671C13.1678 10.1827 13.1678 11.5202 12.3418 12.3462C11.5158 13.1677 10.1783 13.1722 9.35229 12.3462H9.35644ZM8.52623 20.9962C8.52623 17.095 12.1521 16.9618 12.5652 16.9618H14.9051C15.3825 16.9618 16.0492 18.4973 16.0492 20.9962C16.0492 22.136 15.8986 23.2329 15.6363 24.007C15.4257 24.6307 15.1374 25.0307 14.9052 25.0307H12.5653C12.1524 25.0307 8.52623 24.8929 8.52623 20.9962ZM12.3456 32.6356C11.5196 33.457 10.1821 33.4615 9.35613 32.6356C8.53015 31.8096 8.53015 30.4721 9.35613 29.6461C10.1821 28.8201 11.5196 28.8201 12.3456 29.6461C13.1716 30.4721 13.1716 31.8096 12.3456 32.6356ZM15.6705 27.0872V29.4271C15.6705 29.5561 15.6792 29.698 15.6876 29.8399C14.8275 29.857 14.0144 29.4916 13.2574 28.7346C12.4056 27.8828 12.1347 27.0442 12.1434 26.3044C12.2895 26.3173 12.4317 26.326 12.5649 26.326H14.9048C16.1049 26.326 16.7845 25.0442 17.107 23.4613C17.348 23.659 17.5931 23.8828 17.8511 24.1408C18.1091 24.3989 18.333 24.644 18.5307 24.8849C16.9478 25.2074 15.666 25.887 15.666 27.0871L15.6705 27.0872ZM23.4734 37.2295C23.4734 38.5932 22.3636 39.7072 20.9957 39.7072C19.6279 39.7072 18.5181 38.5974 18.5181 37.2295C18.5181 35.8617 19.6279 34.7519 20.9957 34.7519C22.3636 34.7519 23.4734 35.8617 23.4734 37.2295ZM25.0347 29.4229C25.0347 29.8357 24.897 33.4618 21.0002 33.4618C17.1035 33.4618 16.9658 29.836 16.9658 29.4229V27.0829C16.9658 26.6056 18.5013 25.9389 21.0002 25.9389C22.1401 25.9389 23.2369 26.0895 24.011 26.3517C24.6348 26.5624 25.0347 26.8507 25.0347 27.0829V29.4229ZM26.3035 29.8486C26.3164 29.7025 26.3251 29.5603 26.3251 29.4271V27.0871C26.3251 25.887 25.0434 25.2074 23.4605 24.8849C23.6582 24.6485 23.882 24.3989 24.14 24.1409C24.3852 23.8957 24.6348 23.6677 24.8841 23.4613C25.2066 25.0442 25.8862 26.3214 27.0863 26.3214H29.4262C29.5595 26.3214 29.7017 26.3127 29.8478 26.2998C29.8565 27.0397 29.5856 27.8783 28.7338 28.7301C27.882 29.5819 27.0434 29.857 26.3035 29.8441L26.3035 29.8486ZM32.6351 29.6464C33.461 30.4724 33.461 31.8099 32.6351 32.6359C31.8091 33.4619 30.4716 33.4619 29.6456 32.6359C28.8196 31.8099 28.8196 30.4724 29.6456 29.6464C30.4716 28.8249 31.8091 28.8204 32.6351 29.6464ZM29.4263 25.0311H27.0864C26.609 25.0311 25.9423 23.4955 25.9423 20.9966C25.9423 19.8568 26.0929 18.7599 26.3552 17.9859C26.5658 17.3621 26.8541 16.9622 27.0863 16.9622H29.4263C29.8391 16.9622 33.4652 17.0999 33.4652 20.9966C33.4652 24.8933 29.8394 25.0311 29.4263 25.0311ZM37.233 23.4697C35.8693 23.4697 34.7553 22.3599 34.7553 20.9921C34.7553 19.6242 35.8651 18.5144 37.233 18.5144C38.6008 18.5144 39.7106 19.6242 39.7106 20.9921C39.7106 22.3599 38.6008 23.4697 37.233 23.4697Z" fill="white" stroke="white"/>
</svg>
