<svg width="24" height="25" viewBox="0 0 24 25" fill="none" xmlns="http://www.w3.org/2000/svg">
<path d="M6.63422 7.13471C6.94664 6.82229 7.45317 6.82229 7.76559 7.13471L11.9999 11.369L16.2342 7.13471C16.5466 6.82229 17.0532 6.82229 17.3656 7.13471C17.678 7.44712 17.678 7.95366 17.3656 8.26608L13.1313 12.5004L17.3656 16.7347C17.678 17.0471 17.678 17.5537 17.3656 17.8661C17.0532 18.1785 16.5466 18.1785 16.2342 17.8661L11.9999 13.6318L7.76559 17.8661C7.45317 18.1785 6.94664 18.1785 6.63422 17.8661C6.3218 17.5537 6.3218 17.0471 6.63422 16.7347L10.8685 12.5004L6.63422 8.26608C6.3218 7.95366 6.3218 7.44712 6.63422 7.13471Z" fill="#FF4D42"/>
<circle cx="12" cy="12.5" r="11.25" stroke="#FF4D42" stroke-width="1.5"/>
</svg>
