<svg width="42" height="42" viewBox="0 0 42 42" fill="none" xmlns="http://www.w3.org/2000/svg">
<path d="M22.6571 21.1815C22.7162 16.8342 19.9997 12.7144 15.9812 11.0157C13.4668 9.89782 10.918 9.80037 8.33307 10.7501C6.52779 11.2106 5.09997 12.2921 3.88946 13.6412C1.79253 15.9801 0.625865 18.7375 1.10816 21.8942C1.85734 26.7956 4.59861 30.816 7.21597 34.869C8.34832 36.8448 9.70942 38.6658 11.0667 40.4869C11.5852 41.1824 12.0637 41.1652 12.5956 40.462C13.7374 38.9525 14.8431 37.4161 15.8039 35.7785C18.0285 32.5855 19.973 29.2338 21.498 25.6452C22.1042 24.2178 22.6361 22.7579 22.659 21.1815H22.6571ZM19.5021 26.1554C18.2859 28.7695 16.7647 31.2077 15.3025 33.6823C15.2492 33.7587 15.1977 33.8371 15.1443 33.9154C14.0691 35.4995 12.9921 37.0894 11.8426 38.7862C10.7236 37.1696 9.6732 35.6505 8.62283 34.1352C8.60376 34.1084 8.58661 34.0817 8.56754 34.0568C6.6212 30.7625 4.60052 27.5198 3.21844 23.914C1.55614 19.5763 3.82656 15.1412 6.87474 13.2227C7.06156 13.1062 7.23885 12.9743 7.42185 12.8501C7.45045 12.8348 7.47904 12.8233 7.50764 12.8081C10.0754 11.5259 12.6928 11.4131 15.354 12.4125C15.4379 12.445 15.5218 12.4737 15.6075 12.5081C17.9542 13.8036 19.7118 15.5979 20.5811 18.2082C21.5285 21.0515 20.684 23.614 19.5002 26.1554H19.5021Z" fill="white" stroke="white" stroke-width="0.5"/>
<path d="M38.3363 33.6655C37.1257 33.3044 35.8828 33.5318 34.6514 33.5203C31.4469 33.5088 28.2423 33.4859 25.0378 33.4955C24.1743 33.4974 23.4842 33.2337 23.0076 32.5037C22.5711 31.8387 22.5272 31.1203 22.9047 30.4285C23.3355 29.6393 24.0237 29.2839 24.9425 29.2839C29.3842 29.2877 33.8278 29.2667 38.2695 29.2553C40.0881 29.0259 41.0871 27.8794 40.9822 26.1405C40.8907 24.5908 39.6783 23.5303 37.9683 23.5074C37.4613 23.4997 36.9542 23.5074 36.449 23.5055C35.8581 23.5016 35.2175 23.4902 35.2442 24.3214C35.2671 25.0533 35.8371 25.1087 36.4147 25.0972C37.0152 25.0858 37.6214 25.0552 38.2181 25.1106C38.8529 25.1698 39.2608 25.5826 39.3714 26.2036C39.4705 26.7558 39.1941 27.1896 38.727 27.4743C38.3858 27.6826 37.9874 27.6138 37.6119 27.6138C33.559 27.6176 29.5043 27.6138 25.4496 27.6196C25.076 27.6196 24.6871 27.5317 24.3344 27.7457C22.5044 27.845 21.0479 29.4215 21.0136 31.34C20.9774 33.2642 22.4357 34.8808 24.344 35.0299C24.6966 35.242 25.0874 35.1541 25.461 35.156C29.2374 35.1636 33.0119 35.1598 36.7883 35.1617C37.3583 35.1617 37.9302 35.1464 38.4354 35.4904C39.175 35.9968 39.5506 36.9312 39.3237 37.7299C39.0416 38.7217 38.2619 39.3236 37.1277 39.3522C35.5435 39.3905 33.9575 39.3905 32.3733 39.4077C28.4139 39.3924 24.4545 39.3752 20.4951 39.3637C18.5926 39.358 18.1675 39.0331 17.67 37.1891C17.5403 36.7114 17.2506 36.3579 16.734 36.4401C16.2498 36.5165 15.9962 36.8719 16 37.3974C16.0134 39.1325 17.6052 40.9115 19.3513 40.9249C24.3249 40.965 29.2984 40.9249 34.2701 40.9153C35.2843 40.9268 36.3003 40.9574 37.3145 40.9478C39.1464 40.9287 40.7115 39.6255 40.9479 37.9516C41.2357 35.9127 40.2197 34.2292 38.3343 33.6674L38.3363 33.6655Z" fill="white" stroke="white" stroke-width="0.5"/>
<path d="M30.3069 22.2182C30.8559 23.0265 31.3783 23.8539 31.9597 24.6374C32.4401 25.2832 32.9643 25.2966 33.418 24.6546C34.4569 23.1851 35.5321 21.7348 36.3766 20.1354C38.119 17.5328 39.6459 14.8155 40.5972 11.8136C41.8782 7.77018 39.8613 3.36947 35.982 1.64969C35.2557 1.34204 34.5275 1.03631 33.723 1C33.704 1 33.6849 1 33.6658 1C32.9929 1 32.32 1.00191 31.6471 1.00382C31.6299 1.00382 31.6108 1.00382 31.5937 1.00382C30.9284 1.08026 30.2802 1.21211 29.6874 1.54268C26.0997 2.87264 23.6882 7.11093 24.5232 10.7893C25.4954 15.0716 27.9069 18.6449 30.305 22.2144L30.3069 22.2182ZM28.5207 4.08413C29.1307 3.50514 29.8284 3.07328 30.6577 2.88029C30.671 2.87647 30.6844 2.87264 30.6977 2.86882C32.3085 2.35289 33.8755 2.5134 35.4101 3.13825C35.4692 3.1631 35.5283 3.18603 35.5874 3.21087C37.7282 4.47777 39.0092 6.30837 39.3428 8.80969C39.5049 10.025 39.1655 11.1276 38.75 12.2168C37.894 14.462 36.6721 16.5219 35.4902 18.6029C35.4387 18.6831 35.3872 18.7615 35.3339 18.8417C34.476 20.1583 33.6163 21.4768 32.7203 22.8545C32.1465 22.0462 31.6299 21.3182 31.1152 20.594C31.0923 20.5615 31.0694 20.529 31.0447 20.4965C29.6111 18.0143 28.0594 15.599 26.9118 12.9582C25.3581 9.37531 25.8481 6.61793 28.5207 4.08604V4.08413Z" fill="white" stroke="white" stroke-width="0.5"/>
<path d="M12.5639 15.1919C12.1217 15.1804 11.6775 15.1403 11.2372 15.1632C8.7418 15.2912 6.33794 17.5862 6.07868 20.0684C5.75842 23.1258 7.40547 25.7436 10.0857 26.4392C11.687 27.1309 13.1854 26.743 14.6494 25.9978C16.937 24.7194 18.0065 22.3901 17.5261 19.7397C17.099 17.3894 15.0421 15.5033 12.5639 15.1938V15.1919ZM14.0909 24.515C14.0337 24.5455 13.9765 24.5742 13.9193 24.6029C12.8194 25.1455 11.668 25.2506 10.4708 24.9239C8.8333 24.5474 7.48935 22.3538 7.62851 20.6378C7.7772 18.7938 9.17262 17.2193 11.0446 16.8601C11.4144 16.7893 11.79 16.753 12.1636 16.6995C12.1998 16.7072 12.2361 16.7167 12.2723 16.7263C13.6219 17.0435 14.7829 17.6301 15.4806 18.9295C16.5367 20.8958 16.0639 22.8219 14.0909 24.515Z" fill="white" stroke="white" stroke-width="0.5"/>
<path d="M33.886 13.2134C35.8419 12.5351 36.8961 11.058 36.816 9.11461C36.734 7.15789 35.5998 5.75341 33.7011 5.26423C31.8558 4.85339 30.1554 5.51455 29.1793 7.02604C28.2929 8.39804 28.3463 10.3108 29.3071 11.6541C30.3746 13.1504 32.0502 13.7198 33.8879 13.2134H33.886ZM33.4399 6.81585C33.4399 6.80438 33.438 6.79101 33.4361 6.77954C33.4571 6.79483 33.4742 6.81202 33.4971 6.82731C34.5037 7.30694 35.1804 8.05026 35.209 9.21016C35.2395 10.4178 34.5303 11.1669 33.5314 11.6981C33.5238 11.7019 33.5181 11.7057 33.5105 11.7096C31.7128 11.7898 30.7559 11.3178 30.325 10.1446C29.6769 8.37893 31.1505 6.29991 33.438 6.81585H33.4399Z" fill="white" stroke="white" stroke-width="0.5"/>
</svg>
