<svg width="20" height="21" viewBox="0 0 20 21" fill="none" xmlns="http://www.w3.org/2000/svg">
<circle cx="10" cy="10.25" r="10" fill="white"/>
<circle cx="10" cy="10.25" r="9.5" stroke="black" stroke-opacity="0.1"/>
<path d="M12.9702 5.27325C13.1705 5.07298 13.4952 5.07298 13.6954 5.27325L15.7467 7.32453C15.947 7.5248 15.947 7.8495 15.7467 8.04977L9.08004 14.7164C8.98387 14.8126 8.85343 14.8666 8.71742 14.8666H6.66614C6.38292 14.8666 6.15332 14.637 6.15332 14.3538V12.3025C6.15332 12.1665 6.20735 12.0361 6.30352 11.9399L11.4316 6.81182L12.9702 5.27325ZM11.7943 7.89957L7.17896 12.515V13.841H8.50501L13.1204 9.22561L11.7943 7.89957ZM13.8456 8.50037L14.6589 7.68715L13.3328 6.36111L12.5196 7.17433L13.8456 8.50037Z" fill="black"/>
</svg>
