<svg width="41" height="40" viewBox="0 0 41 40" fill="none" xmlns="http://www.w3.org/2000/svg">
<path d="M14.0631 0.291776C12.6542 0.461811 11.3068 0.850175 10.0127 1.40857C6.71457 2.83324 4.15361 5.10205 2.33184 8.19991C1.07201 10.343 0.360015 12.6671 0.174716 15.1301C0.0105649 17.2983 0.287507 19.4363 1.00655 21.4999C2.48089 25.7346 5.28555 28.8053 9.25236 30.8488C9.46082 30.9564 9.67331 31.055 9.91199 31.0792C10.4457 31.1335 10.8909 30.8799 11.0862 30.4111C11.2796 29.9473 11.1728 29.4955 10.765 29.1484C10.4709 28.8979 10.1285 28.7158 9.78208 28.5478C8.60885 27.9803 7.60783 27.1734 6.65012 26.3101C6.15364 25.8624 6.17881 25.7105 6.74277 25.3272C7.0751 25.1018 7.4034 24.8704 7.7458 24.6601C9.14058 23.8029 10.0812 22.5905 10.6492 21.0632C11.0288 20.045 11.481 19.054 11.8435 18.0307C12.047 17.4562 12.3884 17.1625 12.9785 17.0568C13.5868 16.9471 14.1829 16.7711 14.7811 16.6151C16.4619 16.1765 17.5244 15.1583 17.8194 13.4026C17.9413 12.6772 18.1054 11.9598 18.2494 11.2384C18.6291 9.32979 17.759 7.69886 15.9362 6.96841C14.3058 6.31544 12.6542 5.71679 11.0147 5.08696C10.624 4.93705 10.2292 4.80022 9.8425 4.63924C9.69748 4.57887 9.48097 4.54969 9.4709 4.36255C9.4709 4.36255 9.46888 4.36255 9.46787 4.36255C9.46787 4.36255 9.46888 4.36255 9.46989 4.36155C9.46989 4.35953 9.46989 4.35853 9.46989 4.35652C9.46586 4.1724 9.67332 4.10398 9.8133 4.02852C10.6723 3.57275 11.5595 3.17834 12.4991 2.9238C15.7832 2.03639 18.9826 2.25271 22.0984 3.65324C23.0984 4.10197 24.0249 4.65634 24.884 5.32944C25.314 5.66649 25.3402 5.75905 25.0934 6.2591C24.5748 7.30848 24.0733 8.36693 23.5184 9.39619C22.8839 10.5734 22.7631 11.7566 23.2515 13.0152C23.5355 13.7467 23.7591 14.5023 24.0038 15.2488C24.1005 15.5436 24.2545 15.7951 24.5154 15.9712C24.8819 16.2167 25.3794 16.2107 25.745 15.9571C26.1408 15.6825 26.3311 15.1985 26.1881 14.7216C25.9424 13.9056 25.6675 13.0977 25.3825 12.2948C25.1609 11.671 25.1901 11.1106 25.5245 10.521C25.9686 9.73626 26.3341 8.90721 26.749 8.10533C27.0119 7.59825 27.1901 7.58114 27.5265 8.04798C29.0119 10.1105 29.9424 12.3884 30.1751 14.9339C30.2143 15.3655 30.2717 15.7951 30.2808 16.2308C30.2959 16.9119 30.7853 17.411 31.3946 17.411C32.0049 17.411 32.4903 16.9119 32.5165 16.2348C32.5709 14.8172 32.3251 13.4338 31.9626 12.0755C31.1952 9.19798 29.7158 6.71386 27.5799 4.65332C25.7249 2.86343 23.5466 1.57458 21.0531 0.850175C20.0551 0.560411 19.048 0.324978 18.0128 0.218329C17.8788 0.204243 17.6895 0.231408 17.6905 0H14.7791C14.6563 0.369247 14.3048 0.262598 14.0641 0.291776H14.0631ZM14.9231 9.12957C15.7781 9.45253 16.046 9.92642 15.8829 10.839C15.7519 11.5755 15.5797 12.3049 15.4528 13.0424C15.333 13.7376 14.9332 14.1109 14.2514 14.2628C13.2615 14.4832 12.2836 14.7608 11.2937 14.9792C10.6461 15.122 10.2544 15.4772 10.0187 16.1C9.46687 17.5579 8.8576 18.9946 8.29566 20.4495C7.97239 21.2876 7.4608 21.9556 6.71356 22.4527C6.14457 22.832 5.58163 23.2193 5.02069 23.6097C4.85755 23.7234 4.76289 23.8039 4.61082 23.5574C3.51111 21.7705 2.84645 19.8387 2.63194 17.7561C2.57857 17.2429 2.47988 16.7308 2.51915 16.3666C2.64202 12.3944 4.00255 9.11447 6.72162 6.408C6.93713 6.1937 7.09725 6.17458 7.37017 6.27922C9.88379 7.23906 12.4055 8.17878 14.9221 9.13057L14.9231 9.12957Z" fill="white"/>
<path d="M18.0117 0.218329C19.047 0.324978 20.0551 0.560411 21.0521 0.850175C23.5465 1.57458 25.7238 2.86242 27.5788 4.65332C29.7148 6.71487 31.1942 9.19798 31.9615 12.0755C32.3241 13.4338 32.5688 14.8172 32.5154 16.2348C32.4892 16.9129 32.0038 17.412 31.3936 17.411C30.7843 17.411 30.2949 16.9119 30.2798 16.2308C30.2707 15.7951 30.2133 15.3655 30.174 14.9339C29.9414 12.3884 29.0109 10.1105 27.5254 8.04798C27.1891 7.58114 27.0098 7.59825 26.748 8.10533C26.3331 8.90721 25.9675 9.73626 25.5234 10.521C25.1901 11.1106 25.1599 11.671 25.3814 12.2948C25.6664 13.0977 25.9413 13.9056 26.1871 14.7216C26.3311 15.1985 26.1407 15.6825 25.744 15.9571C25.3784 16.2107 24.8809 16.2177 24.5143 15.9712C24.2525 15.7961 24.0994 15.5436 24.0027 15.2488C23.757 14.5023 23.5335 13.7467 23.2505 13.0152C22.762 11.7576 22.8829 10.5734 23.5173 9.39619C24.0722 8.36693 24.5737 7.30748 25.0924 6.2591C25.3401 5.75905 25.3129 5.66649 24.8829 5.32944C24.0239 4.65634 23.0974 4.10297 22.0974 3.65324C18.9805 2.25271 15.7811 2.0374 12.4981 2.9238C11.5585 3.17734 10.6713 3.57275 9.81225 4.02852C9.67126 4.10297 9.4638 4.1724 9.46884 4.35652C9.46884 4.35853 9.46884 4.35953 9.46884 4.36155C11.0409 3.46911 12.6421 2.9238 14.3632 2.68434C18.3118 2.13399 21.8215 3.15722 24.9746 5.53871C25.1981 5.70774 25.1921 5.83753 25.0743 6.06592C24.4297 7.32156 23.8023 8.58727 23.1699 9.84995C22.7731 10.6428 22.6724 11.4779 22.9181 12.325C23.2092 13.3291 23.5425 14.3212 23.8779 15.3112C24.1568 16.1362 24.8104 16.4874 25.5405 16.2368C26.2132 16.0054 26.5274 15.276 26.2747 14.5083C25.9997 13.6742 25.7238 12.8391 25.4328 12.0101C25.2847 11.5895 25.3119 11.1992 25.5133 10.8058C26.034 9.78757 26.5476 8.76535 27.0682 7.73508C27.324 7.92524 27.4741 8.18783 27.6443 8.43333C29.2697 10.7716 30.0602 13.3774 30.1368 16.2117C30.1589 17.0296 30.6886 17.5709 31.4298 17.5548C32.1569 17.5387 32.6514 16.9622 32.6494 16.1402C32.6443 14.5616 32.3936 13.0213 31.9344 11.5141C31.1055 8.79453 29.6564 6.43819 27.601 4.48932C25.2223 2.23359 22.3824 0.835083 19.1457 0.244488C18.6613 0.155949 18.1578 0.178084 17.6895 0C17.6875 0.231408 17.8778 0.204243 18.0117 0.218329Z" fill="white"/>
<path d="M14.5269 0.101618C11.0938 0.486964 8.04243 1.78688 5.50967 4.12611C0.789578 8.48766 -0.952638 13.8885 0.495516 20.1345C1.67076 25.2034 4.81379 28.8325 9.50065 31.1073C10.2892 31.4897 11.1754 31.0057 11.3134 30.1435C11.401 29.5992 11.113 29.089 10.4997 28.7932C9.07366 28.1061 7.79671 27.2136 6.64866 26.127C6.39991 25.8916 6.28511 25.7467 6.67887 25.5244C7.17032 25.2457 7.61846 24.8905 8.08976 24.5756C9.30831 23.7616 10.1663 22.673 10.6829 21.2986C11.1271 20.1164 11.6266 18.9554 12.0797 17.7762C12.1935 17.4804 12.3617 17.3305 12.6679 17.2631C13.3829 17.1061 14.0908 16.919 14.8028 16.7449C16.5038 16.3284 17.5823 15.3062 17.9207 13.5575C18.0848 12.7073 18.2772 11.8632 18.4222 11.01C18.678 9.50083 18.1332 8.2975 16.9438 7.37086C16.3426 6.90201 15.6085 6.70179 14.9126 6.43416C13.1241 5.74597 11.3295 5.07086 9.46944 4.36456C9.47951 4.5517 9.69703 4.58088 9.84104 4.64125C10.2267 4.80122 10.6225 4.93806 11.0133 5.08897C12.6528 5.71881 14.3043 6.31846 15.9348 6.97043C17.7586 7.70087 18.6276 9.3318 18.248 11.2404C18.105 11.9618 17.9398 12.6792 17.818 13.4046C17.5229 15.1593 16.4615 16.1785 14.7797 16.6171C14.1805 16.7731 13.5843 16.9502 12.977 17.0588C12.3869 17.1645 12.0455 17.4583 11.8421 18.0328C11.4795 19.056 11.0264 20.047 10.6477 21.0652C10.0787 22.5925 9.13811 23.8049 7.74434 24.6621C7.40295 24.8724 7.07364 25.1038 6.74131 25.3292C6.17735 25.7125 6.15218 25.8644 6.64866 26.3121C7.60637 27.1764 8.6084 27.9833 9.78062 28.5498C10.127 28.7168 10.4694 28.8999 10.7635 29.1504C11.1714 29.4975 11.2781 29.9493 11.0848 30.4131C10.8894 30.882 10.4443 31.1355 9.91053 31.0812C9.67185 31.057 9.45936 30.9584 9.2509 30.8508C5.28409 28.8073 2.47943 25.7366 1.00509 21.5019C0.287054 19.4363 0.0101124 17.2983 0.174263 15.1301C0.36057 12.6671 1.07155 10.343 2.33139 8.20091C4.15316 5.10205 6.71412 2.83324 10.0122 1.40857C11.3063 0.850175 12.6538 0.460805 14.0626 0.291776C14.3033 0.262598 14.6548 0.369247 14.7777 0C14.7333 0.130796 14.6185 0.0915573 14.5259 0.101618H14.5269Z" fill="white"/>
<path d="M39.6306 22.5193C38.838 20.9155 37.3556 20.0231 35.5228 20.0895C35.0324 20.1076 34.5661 20.2515 34.1059 20.4024C33.1995 20.6992 32.2801 20.9608 31.4009 21.329C30.9538 21.5162 30.6053 21.4125 30.2377 21.1489C29.1088 20.342 27.9557 19.5683 26.8057 18.7916C25.9769 18.2322 25.1319 18.0159 24.1611 18.4465C23.567 18.7101 22.9235 18.857 22.3102 19.0783C20.5649 19.7062 20.0795 21.6862 21.3313 23.0586C21.6012 23.3554 21.9033 23.622 22.1732 23.9188C22.3827 24.1482 22.3756 24.3273 22.0554 24.438C21.581 24.602 21.1047 24.7589 20.6284 24.9169C20.3343 25.0145 20.1107 24.9108 19.9043 24.7086C19.582 24.3927 19.2678 24.0687 18.9415 23.7558C18.4622 23.297 17.9274 23.1642 17.2839 23.3866C16.3987 23.6924 15.5125 23.9983 14.6333 24.3182C12.9405 24.934 12.4541 26.8275 13.6303 28.1918C14.7542 29.4947 15.9083 30.7715 17.0654 32.0443C17.0734 32.0533 17.0825 32.0624 17.0906 32.0714C17.2477 32.2394 18.1429 33.1751 19.1148 33.6631C19.1772 33.6822 19.2376 33.7114 19.296 33.7476C19.5246 33.8472 19.7542 33.9197 19.9778 33.9468C20.1561 33.9549 20.3333 33.9569 20.5115 33.9539C21.005 33.9166 21.5559 33.7758 22.0534 33.6128C22.0614 33.5957 22.0705 33.5786 22.0826 33.5625C22.1752 33.4649 22.2799 33.4166 22.4139 33.474C22.4179 33.478 22.4209 33.482 22.425 33.485C22.5589 33.4357 22.6868 33.3874 22.8046 33.3401C22.8781 33.2617 22.9718 33.2214 23.0856 33.2244C23.3978 33.0926 23.5962 32.995 23.5962 32.995C23.5962 32.995 24.5317 32.499 23.709 35.6331C23.6445 36.1794 23.5519 36.7237 23.4763 37.2701C23.2377 38.9835 24.8469 40.388 26.5036 39.9001C27.2891 39.6687 28.0605 39.39 28.8359 39.1254C29.6043 38.8628 30.0988 38.3365 30.3898 37.5981C31.1904 35.5607 31.9991 33.5263 32.7665 31.4768C33.4503 29.6517 33.4331 29.6477 35.263 29.0319C35.9286 28.8076 36.5973 28.5953 37.257 28.3528C38.5762 27.8668 39.3839 26.9009 39.8814 25.6272C40.2147 23.955 39.7857 22.8412 39.6336 22.5183L39.6306 22.5193ZM25.0776 20.6791C25.1934 20.6398 25.3001 20.6529 25.4079 20.7274C26.1813 21.2636 26.9577 21.7959 27.8137 22.3835C26.8883 22.6943 26.0494 22.9771 25.2095 23.2598C25.0705 23.3071 24.9577 23.2809 24.85 23.1712C24.2669 22.5847 23.6798 22.0031 23.0493 21.3763C23.7684 21.1288 24.423 20.9024 25.0786 20.6781L25.0776 20.6791ZM37.3657 25.3394C37.1452 25.7117 36.834 25.9642 36.4161 26.1031C35.0918 26.5458 33.7766 27.0156 32.4492 27.4453C31.8944 27.6254 31.553 27.9594 31.3465 28.5007C30.6617 30.3016 29.9517 32.0925 29.2508 33.8875C29.2216 33.9629 29.1743 34.0313 29.136 34.1038C29.1692 34.2255 29.1461 34.3312 29.0434 34.4117C28.7725 35.124 28.5006 35.8353 28.2297 36.5477C28.1632 36.7237 28.0736 36.8565 27.8691 36.9199C27.3153 37.093 26.7664 37.2862 26.2216 37.4844C25.9376 37.588 25.8701 37.4995 25.9134 37.2208C26.0574 36.2841 26.1904 35.3443 26.3263 34.4066C26.3706 33.9307 26.4109 33.4548 26.5408 32.992C26.5146 32.5715 26.6304 32.167 26.6858 31.7555C26.7291 31.4396 26.7775 31.1196 26.711 30.8087C26.5539 30.0712 25.8177 29.699 25.0192 29.9586C23.709 30.3841 22.3958 30.8057 21.0987 31.2695C20.298 31.5563 19.6868 31.4587 19.1057 30.7685C17.9224 29.3649 16.6696 28.0198 15.3957 26.5941C16.1137 26.3466 16.7915 26.1081 17.4732 25.8797C17.6283 25.8274 17.7119 25.9673 17.8046 26.0588C18.1742 26.422 18.5548 26.7752 18.9063 27.1545C19.3595 27.6425 19.867 27.724 20.4904 27.5127C23.7613 26.4039 27.0383 25.3133 30.3133 24.2156C31.9024 23.6834 33.4895 23.1461 35.0797 22.6199C35.9357 22.3372 36.7403 22.5585 37.2429 23.1944C37.7534 23.8403 37.7988 24.608 37.3637 25.3384L37.3657 25.3394Z" fill="white"/>
</svg>
