<svg width="176" height="176" viewBox="0 0 176 176" fill="none" xmlns="http://www.w3.org/2000/svg">
<circle cx="88" cy="88" r="88" fill="black" fill-opacity="0.07"/>
<circle cx="87.9989" cy="87.9989" r="75.4286" fill="black" fill-opacity="0.07"/>
<circle cx="87.9978" cy="87.9978" r="62.8571" fill="black" fill-opacity="0.07"/>
<mask id="mask0_61_15327" style="mask-type:luminance" maskUnits="userSpaceOnUse" x="48" y="48" width="80" height="80">
<rect x="48.7109" y="48.7148" width="78.5714" height="78.5714" rx="15" fill="white"/>
</mask>
<g mask="url(#mask0_61_15327)">
<rect x="48.7109" y="48.7148" width="78.5714" height="78.5714" rx="15" fill="black"/>
</g>
<path d="M90.1443 92.6278V87.5558C90.1443 86.9118 90.0266 86.3857 89.7866 85.9774C89.5467 85.5691 89.2267 85.266 88.8227 85.0682C88.4186 84.8703 87.9556 84.7693 87.4336 84.7693C86.958 84.7693 86.5245 84.8661 86.1372 85.0598C85.75 85.2534 85.4427 85.5101 85.2154 85.83L85.2112 85.8342C85.0218 86.1078 84.925 86.4362 84.925 86.7645V91.6134C84.925 92.1733 84.4747 92.6236 83.9148 92.6236H83.1992V83.3256H84.925V84.2937C85.1649 84.0664 85.4385 83.8728 85.7416 83.7044C86.3435 83.3761 87.0169 83.2119 87.7662 83.2119C88.5491 83.2119 89.2478 83.3803 89.8666 83.7128C90.4854 84.0453 90.9736 84.5378 91.3314 85.1818C91.6891 85.8258 91.866 86.6172 91.866 87.5558V91.6176C91.866 92.1775 91.4156 92.6278 90.8557 92.6278H90.1443Z" fill="white"/>
<path d="M100.121 92.6278V87.5558C100.121 86.9118 100.003 86.3857 99.7632 85.9774C99.5233 85.5691 99.2034 85.266 98.7993 85.0682C98.3952 84.8703 97.9322 84.7693 97.4103 84.7693C96.9346 84.7693 96.5011 84.8661 96.1139 85.0598C95.7265 85.2534 95.4193 85.5101 95.1921 85.83L95.1878 85.8342C94.9984 86.1078 94.9016 86.4362 94.9016 86.7645V91.6176C94.9016 92.1775 94.4512 92.6278 93.8913 92.6278H93.1758V83.3256H94.9016V84.2937C95.1415 84.0664 95.4151 83.8728 95.7181 83.7044C96.3201 83.3761 96.9936 83.2119 97.7428 83.2119C98.5257 83.2119 99.2244 83.3803 99.8432 83.7128C100.462 84.0453 100.95 84.5378 101.308 85.1818C101.666 85.8258 101.843 86.6172 101.843 87.5558V91.6176C101.843 92.1775 101.392 92.6278 100.832 92.6278H100.121Z" fill="white"/>
<path d="M71.2872 80H69.6035V92.6276H71.2872V80Z" fill="white"/>
<path d="M117.924 83.1984V84.9242H115.988V91.6167C115.988 92.1766 115.538 92.627 114.978 92.627H114.304V84.9242H112.41V83.1984H114.304V80.252H115.988V83.1984H117.924Z" fill="white"/>
<path d="M67.7046 85.4807C67.292 84.7651 66.7365 84.1969 66.0377 83.7802C65.3349 83.3677 64.5393 83.1572 63.6511 83.1572C62.7714 83.1572 61.9801 83.3635 61.2814 83.7802C61.0836 83.898 60.8983 84.0285 60.7257 84.1674V83.1993H59V96.8371H59.7155C60.2753 96.8371 60.7257 96.3868 60.7257 95.8269V91.0789C61.1215 91.5588 61.5971 91.9334 62.1568 92.2154C62.7167 92.4932 63.3271 92.6322 63.992 92.6322C64.8171 92.6322 65.5537 92.4259 66.2104 92.0092C66.8627 91.5925 67.3805 91.0326 67.7593 90.3171C68.1382 89.6057 68.3275 88.8018 68.3275 87.901C68.3191 87.0044 68.1129 86.1963 67.7046 85.4807ZM66.2651 89.5299C65.9999 90.0098 65.6379 90.3928 65.1875 90.6665C64.7329 90.9442 64.2194 91.0831 63.6427 91.0831C63.0787 91.0831 62.5651 90.9442 62.1063 90.6665C61.6475 90.3886 61.2898 90.0098 61.0288 89.5299C60.8773 89.2479 60.7678 88.9491 60.7047 88.6292C60.671 88.4482 60.6458 88.263 60.6416 88.0694C60.6416 88.0525 60.6416 88.0315 60.6416 88.0146C60.6416 87.981 60.6416 87.9473 60.6416 87.9094C60.6416 87.6526 60.6626 87.4085 60.7089 87.177C60.7089 87.1728 60.7089 87.1644 60.7131 87.1602C60.7762 86.8403 60.8815 86.5456 61.0331 86.2678C61.294 85.788 61.6517 85.4091 62.1105 85.1313C62.5693 84.8535 63.0829 84.7146 63.6469 84.7146C64.2236 84.7146 64.7413 84.8535 65.1917 85.1313C65.6463 85.4091 66.0041 85.788 66.2693 86.2678C66.5344 86.7477 66.6692 87.2949 66.6692 87.9052C66.6649 88.5071 66.5344 89.0459 66.2651 89.5299Z" fill="white"/>
<path d="M81.9355 92.6276V87.9343H81.9313C81.9313 87.042 81.7251 86.238 81.3169 85.5225C80.9086 84.8111 80.3529 84.2471 79.6584 83.8346C78.9639 83.4221 78.1767 83.2158 77.3012 83.2158C76.4257 83.2158 75.6387 83.4221 74.9357 83.8346C74.2328 84.2471 73.6772 84.8111 73.2689 85.5225C72.8606 86.2338 72.6543 87.0378 72.6543 87.9343C72.6543 88.8267 72.8438 89.6306 73.2184 90.3378C73.5929 91.045 74.1065 91.6047 74.7589 92.0173C75.4113 92.4298 76.1438 92.636 76.9645 92.636C77.7853 92.636 78.5177 92.4298 79.1701 92.0173C79.57 91.7647 79.9152 91.4574 80.2098 91.0954V92.6318H81.9355V92.6276ZM79.8647 89.5633C79.6036 90.0432 79.2459 90.422 78.7955 90.6997C78.3409 90.9776 77.8274 91.1164 77.2507 91.1164C76.6825 91.1164 76.1732 90.9776 75.7143 90.6997C75.2555 90.422 74.8936 90.0432 74.6284 89.5633C74.3632 89.0834 74.2286 88.5405 74.2286 87.9427C74.2286 87.3324 74.3632 86.7852 74.6284 86.3054C74.8936 85.8255 75.2555 85.4467 75.7143 85.1689C76.1732 84.8911 76.6825 84.7522 77.2507 84.7522C77.8274 84.7522 78.3451 84.8911 78.7955 85.1689C79.2501 85.4467 79.6036 85.8255 79.8647 86.3054C80.1256 86.7852 80.2561 87.3324 80.2561 87.9427C80.2561 88.5405 80.1256 89.0792 79.8647 89.5633Z" fill="white"/>
<path d="M111.957 87.7994C111.957 86.9071 111.788 86.1157 111.456 85.4296C111.123 84.7435 110.639 84.209 110.004 83.8175C109.368 83.4261 108.61 83.2324 107.726 83.2324C106.834 83.2324 106.038 83.4345 105.348 83.8343C104.658 84.2342 104.119 84.7898 103.728 85.497C103.336 86.2041 103.143 87.0207 103.143 87.9509C103.143 88.8685 103.349 89.6809 103.761 90.3881C104.174 91.0952 104.746 91.6508 105.474 92.0507C106.203 92.4505 107.04 92.6526 107.979 92.6526C108.497 92.6526 109.044 92.5558 109.616 92.3622C110.298 92.1307 110.938 91.7729 111.447 91.2552C111.435 91.2678 110.429 90.346 110.323 90.2492C110.184 90.367 109.999 90.5143 109.789 90.6532C109.785 90.6532 109.785 90.6574 109.78 90.6574C109.578 90.7837 109.338 90.8932 109.052 90.9941C108.686 91.1246 108.324 91.1878 107.975 91.1878C107.331 91.1878 106.758 91.0447 106.262 90.7627C105.765 90.4806 105.373 90.0934 105.091 89.6094C104.902 89.281 104.776 88.9275 104.713 88.5402H111.948V87.8078C111.957 87.8078 111.957 87.8036 111.957 87.7994ZM110.917 91.7055C110.913 91.7098 110.904 91.714 110.9 91.7182C110.892 91.7224 110.887 91.7266 110.879 91.7308C110.892 91.7224 110.904 91.714 110.917 91.7055ZM104.738 87.1975C104.797 86.8734 104.894 86.5703 105.028 86.2883C105.268 85.7958 105.613 85.4086 106.072 85.1266C106.531 84.8446 107.082 84.7014 107.726 84.7014C108.29 84.7014 108.774 84.8319 109.17 85.0929C109.566 85.3539 109.873 85.7074 110.088 86.1536C110.239 86.4735 110.34 86.8187 110.391 87.1975H104.738Z" fill="white"/>
</svg>
