<svg width="39" height="42" viewBox="0 0 39 42" fill="none" xmlns="http://www.w3.org/2000/svg">
<path d="M30.3336 28.777C34.2447 27.3103 34.9113 23.9771 33.8002 20.9993C33.178 19.355 22.1559 23.888 22.6448 25.1771C23.7559 28.1105 26.4224 30.2437 30.3336 28.777Z" fill="white" stroke="white"/>
<path d="M19.9781 15.8448L20.0671 15.6672L29.5336 12.1562L29.7113 12.2006C32.2 12.9561 36.2445 18.4226 36.4222 23.4893C36.4669 25.8895 35.6667 29.0448 31.6223 30.7781L34.5557 38.6002L37.578 37.4447L37.9336 38.4225L31.1334 41.0003L30.7778 40.0225L33.5778 38.9558L30.6444 31.1337C29.711 31.445 28.7778 31.5783 27.9334 31.5783C25.1333 31.5783 22.8225 30.0226 21.2224 27.0895C19.0002 23.1337 18.7336 17.8007 19.978 15.8452L19.9781 15.8448ZM22.1559 26.6002C23.1337 28.3778 24.956 30.5557 27.978 30.5557C28.8668 30.5557 29.8446 30.3781 30.8224 29.9779C33.9334 28.8224 35.4444 26.6446 35.3558 23.5336C35.2225 18.9559 31.5336 14.067 29.578 13.267L20.7781 16.556C19.9339 18.2003 20.1116 22.956 22.1561 26.6003L22.1559 26.6002Z" fill="white" stroke="white"/>
<path d="M27.8239 5.71875L23.2043 10.3383L23.9586 11.0926L28.5781 6.47302L27.8239 5.71875Z" fill="white" stroke="white"/>
<path d="M20.0215 1H18.9547V7.53326H20.0215V1Z" fill="white" stroke="white"/>
<path d="M10.927 5.62891L10.1727 6.38318L14.8239 11.0343L15.5781 10.28L10.927 5.62891Z" fill="white" stroke="white"/>
<path d="M8.64502 28.777C4.73388 27.3103 4.0673 23.9771 5.1784 20.9993C5.80059 19.355 16.8227 23.888 16.3338 25.1771C15.2227 28.1105 12.5562 30.2437 8.6451 28.777H8.64502Z" fill="white" stroke="white"/>
<path d="M1.39892 37.443L4.42095 38.5541L7.35464 30.7764C3.31016 29.0431 2.51001 25.8878 2.59898 23.5323C2.73229 18.4657 6.82108 12.9991 9.30994 12.2436L9.48758 12.1992L18.9097 15.6655L18.9987 15.7988C20.2431 17.7544 19.9321 23.1319 17.7542 27.0876C16.1543 30.021 13.7987 31.5764 11.0433 31.5764C10.1988 31.5764 9.26568 31.3987 8.3322 31.1318L5.39882 38.9538L8.19887 40.0206L7.84328 40.9983L0.999069 38.4649L1.39892 37.443ZM11.0432 30.5541C14.021 30.5541 15.8432 28.4209 16.8653 26.5986C18.8652 22.9541 19.0432 18.1987 18.1987 16.5543L9.44327 13.31C7.48766 14.1098 3.79881 18.9988 3.66548 23.5765C3.5765 26.6875 5.08784 28.8207 8.19884 30.0208C9.17629 30.3321 10.1541 30.554 11.0432 30.554V30.5541Z" fill="white" stroke="white"/>
</svg>
