<svg width="40" height="40" viewBox="0 0 40 40" fill="none" xmlns="http://www.w3.org/2000/svg">
<mask id="mask0_61_15289" style="mask-type:luminance" maskUnits="userSpaceOnUse" x="0" y="0" width="40" height="40">
<rect width="40" height="40" rx="6" fill="white"/>
</mask>
<g mask="url(#mask0_61_15289)">
<rect width="40" height="40" rx="6" fill="black"/>
<path d="M20.856 22.6783V20.0962C20.856 19.7683 20.7961 19.5005 20.6739 19.2926C20.5517 19.0848 20.3889 18.9305 20.1832 18.8298C19.9775 18.7291 19.7417 18.6776 19.476 18.6776C19.2339 18.6776 19.0132 18.7269 18.816 18.8255C18.6189 18.9241 18.4625 19.0548 18.3467 19.2176L18.3446 19.2198C18.2482 19.3591 18.1989 19.5262 18.1989 19.6933V22.1619C18.1989 22.4469 17.9696 22.6762 17.6846 22.6762H17.3203V17.9426H18.1989V18.4355C18.321 18.3198 18.4603 18.2212 18.6146 18.1355C18.921 17.9683 19.2639 17.8848 19.6453 17.8848C20.0439 17.8848 20.3996 17.9705 20.7146 18.1398C21.0296 18.3091 21.2782 18.5598 21.4603 18.8876C21.6424 19.2155 21.7325 19.6183 21.7325 20.0962V22.164C21.7325 22.4491 21.5032 22.6783 21.2182 22.6783H20.856Z" fill="white"/>
<path d="M25.9342 22.6783V20.0962C25.9342 19.7683 25.8742 19.5005 25.752 19.2926C25.6299 19.0848 25.4671 18.9305 25.2613 18.8298C25.0556 18.7291 24.8199 18.6776 24.5542 18.6776C24.312 18.6776 24.0913 18.7269 23.8942 18.8255C23.697 18.9241 23.5406 19.0548 23.4249 19.2176L23.4227 19.2198C23.3263 19.3591 23.277 19.5262 23.277 19.6933V22.164C23.277 22.4491 23.0477 22.6783 22.7627 22.6783H22.3984V17.9426H23.277V18.4355C23.3991 18.3198 23.5385 18.2212 23.6927 18.1355C23.9992 17.9683 24.342 17.8848 24.7235 17.8848C25.122 17.8848 25.4777 17.9705 25.7928 18.1398C26.1078 18.3091 26.3563 18.5598 26.5385 18.8876C26.7206 19.2155 26.8106 19.6183 26.8106 20.0962V22.164C26.8106 22.4491 26.5813 22.6783 26.2963 22.6783H25.9342Z" fill="white"/>
<path d="M11.2556 16.25H10.3984V22.6786H11.2556V16.25Z" fill="white"/>
<path d="M34.9985 17.8789V18.7575H34.0128V22.1646C34.0128 22.4496 33.7836 22.6789 33.4985 22.6789H33.1557V18.7575H32.1914V17.8789H33.1557V16.3789H34.0128V17.8789H34.9985Z" fill="white"/>
<path d="M9.43141 19.0403C9.2214 18.676 8.93856 18.3867 8.58283 18.1746C8.22502 17.9646 7.82002 17.8574 7.36784 17.8574C6.91999 17.8574 6.51713 17.9624 6.16145 18.1746C6.06072 18.2346 5.96641 18.301 5.87856 18.3717V17.8789H5V24.8217H5.36428C5.64926 24.8217 5.87856 24.5925 5.87856 24.3074V21.8903C6.08001 22.1346 6.32213 22.3253 6.60711 22.4689C6.89214 22.6103 7.20288 22.681 7.5414 22.681C7.96142 22.681 8.33644 22.576 8.67074 22.3639C9.00285 22.1517 9.26645 21.8667 9.4593 21.5024C9.65216 21.1403 9.74856 20.731 9.74856 20.2724C9.74428 19.816 9.63928 19.4046 9.43141 19.0403ZM8.69858 21.1017C8.56359 21.346 8.37929 21.541 8.15 21.6803C7.91856 21.8217 7.65715 21.8924 7.36356 21.8924C7.07645 21.8924 6.81498 21.8217 6.58141 21.6803C6.34784 21.5389 6.16572 21.346 6.03283 21.1017C5.95572 20.9581 5.89998 20.806 5.86787 20.6431C5.85071 20.551 5.83784 20.4567 5.8357 20.3581C5.8357 20.3496 5.8357 20.3389 5.8357 20.3303C5.8357 20.3131 5.8357 20.296 5.8357 20.2767C5.8357 20.146 5.84644 20.0217 5.87 19.9039C5.87 19.9017 5.87001 19.8974 5.87214 19.8953C5.90426 19.7324 5.95786 19.5824 6.03502 19.441C6.16786 19.1967 6.34998 19.0039 6.58355 18.8624C6.81712 18.721 7.07858 18.6503 7.3657 18.6503C7.65928 18.6503 7.92284 18.721 8.15213 18.8624C8.38357 19.0039 8.56573 19.1967 8.70071 19.441C8.8357 19.6853 8.90431 19.9639 8.90431 20.2746C8.90212 20.581 8.8357 20.8553 8.69858 21.1017Z" fill="white"/>
<path d="M16.6762 22.6782V20.2889H16.674C16.674 19.8346 16.569 19.4253 16.3612 19.061C16.1533 18.6989 15.8704 18.4117 15.5169 18.2017C15.1633 17.9917 14.7626 17.8867 14.3169 17.8867C13.8712 17.8867 13.4705 17.9917 13.1126 18.2017C12.7548 18.4117 12.4719 18.6989 12.264 19.061C12.0562 19.4232 11.9512 19.8324 11.9512 20.2889C11.9512 20.7432 12.0476 21.1524 12.2383 21.5125C12.429 21.8725 12.6905 22.1574 13.0226 22.3674C13.3547 22.5775 13.7276 22.6825 14.1454 22.6825C14.5633 22.6825 14.9362 22.5775 15.2683 22.3674C15.4719 22.2389 15.6476 22.0824 15.7976 21.8982V22.6803H16.6762V22.6782ZM15.6219 21.1182C15.489 21.3625 15.3069 21.5553 15.0776 21.6967C14.8462 21.8382 14.5848 21.9089 14.2912 21.9089C14.0019 21.9089 13.7426 21.8382 13.509 21.6967C13.2754 21.5553 13.0912 21.3625 12.9562 21.1182C12.8212 20.8739 12.7526 20.5974 12.7526 20.2932C12.7526 19.9824 12.8212 19.7039 12.9562 19.4596C13.0912 19.2153 13.2754 19.0224 13.509 18.881C13.7426 18.7396 14.0019 18.6689 14.2912 18.6689C14.5848 18.6689 14.8483 18.7396 15.0776 18.881C15.309 19.0224 15.489 19.2153 15.6219 19.4596C15.7548 19.7039 15.8212 19.9824 15.8212 20.2932C15.8212 20.5974 15.7548 20.8717 15.6219 21.1182Z" fill="white"/>
<path d="M31.9598 20.2205C31.9598 19.7662 31.8741 19.3634 31.7048 19.0141C31.5355 18.6648 31.2891 18.3927 30.9655 18.1934C30.6419 17.9941 30.2562 17.8955 29.8062 17.8955C29.3519 17.8955 28.9469 17.9984 28.5955 18.2019C28.2441 18.4055 27.9698 18.6884 27.7705 19.0484C27.5712 19.4084 27.4727 19.8241 27.4727 20.2977C27.4727 20.7648 27.5776 21.1784 27.7876 21.5384C27.9976 21.8984 28.2891 22.1812 28.6598 22.3848C29.0305 22.5884 29.4569 22.6912 29.9348 22.6912C30.1984 22.6912 30.4769 22.642 30.7684 22.5434C31.1155 22.4255 31.4412 22.2434 31.7005 21.9798C31.6941 21.9862 31.1819 21.517 31.1284 21.4677C31.0576 21.5276 30.9634 21.6027 30.8562 21.6734C30.8541 21.6734 30.8541 21.6755 30.8519 21.6755C30.7491 21.7398 30.6269 21.7955 30.4812 21.8469C30.2948 21.9134 30.1105 21.9455 29.9326 21.9455C29.6048 21.9455 29.3133 21.8727 29.0605 21.7291C28.8076 21.5855 28.6084 21.3884 28.4648 21.1419C28.3684 20.9748 28.3041 20.7948 28.2719 20.5977H31.9555V20.2248C31.9598 20.2248 31.9598 20.2227 31.9598 20.2205ZM31.4305 22.2091C31.4284 22.2113 31.4241 22.2134 31.4219 22.2155C31.4176 22.2177 31.4155 22.2198 31.4112 22.2219C31.4176 22.2177 31.424 22.2134 31.4305 22.2091ZM28.2848 19.9141C28.3148 19.7491 28.3641 19.5948 28.4327 19.4512C28.5548 19.2005 28.7305 19.0034 28.9641 18.8598C29.1977 18.7162 29.4784 18.6434 29.8062 18.6434C30.0934 18.6434 30.3398 18.7098 30.5412 18.8427C30.7426 18.9755 30.8991 19.1555 31.0084 19.3827C31.0855 19.5455 31.1369 19.7212 31.1626 19.9141H28.2848Z" fill="white"/>
</g>
</svg>
