<svg width="21" height="21" viewBox="0 0 21 21" fill="none" xmlns="http://www.w3.org/2000/svg">
<path fill-rule="evenodd" clip-rule="evenodd" d="M10.3711 0.5C9.85333 0.5 9.43359 0.919733 9.43359 1.4375V9.5625H1.30859C0.790827 9.5625 0.371094 9.98223 0.371094 10.5C0.371094 11.0178 0.790827 11.4375 1.30859 11.4375H9.43359V19.5625C9.43359 20.0803 9.85333 20.5 10.3711 20.5C10.8889 20.5 11.3086 20.0803 11.3086 19.5625V11.4375H19.4336C19.9514 11.4375 20.3711 11.0178 20.3711 10.5C20.3711 9.98223 19.9514 9.5625 19.4336 9.5625H11.3086V1.4375C11.3086 0.919733 10.8889 0.5 10.3711 0.5Z" fill="white"/>
</svg>
