<svg width="51" height="42" viewBox="0 0 51 42" fill="none" xmlns="http://www.w3.org/2000/svg">
<path d="M49.107 30.3466H40.9148C40.9474 29.0108 40.9898 27.7318 41.0387 26.5221L41.4886 26.627C41.7803 26.6975 42.0723 26.5134 42.1401 26.2214C42.2079 25.9294 42.0261 25.637 41.7344 25.57L41.0849 25.4188C41.0936 25.2276 41.1023 25.0405 41.111 24.853L41.9 24.7026C42.1942 24.6462 42.3874 24.3622 42.3317 24.0675C42.2753 23.7736 41.9935 23.5808 41.6966 23.6357L41.1659 23.7372C41.2398 22.3059 41.3197 21.0099 41.3974 19.8726L41.9261 19.4867C42.9626 18.7307 43.5763 17.7289 43.7504 16.509C43.9606 15.0379 43.4876 13.4946 42.9153 12.25C45.5536 14.8206 45.2109 18.2758 45.1916 18.4538L45.0552 19.6343L46.0369 18.9647C47.1315 18.2175 48.8604 16.1995 47.572 13.9074C46.4172 11.8516 44.9049 10.7855 43.5951 10.2268C44.8935 10.3029 46.9549 10.7442 49.4679 12.4208L50.4219 13.0579L50.3094 11.916C50.0701 9.47773 48.546 7.66317 46.3334 7.17915C45.0763 6.90533 43.8023 7.10681 42.7096 7.6878C43.7235 6.21492 45.179 4.80108 47.7389 3.92391L48.8096 3.5569L47.8533 2.95167C46.2501 1.93624 44.6525 1.73553 43.3553 2.38697C42.5187 2.80737 41.54 3.71141 40.9022 5.63767C40.6295 4.68741 40.1648 3.72848 39.3808 2.95282C37.9491 1.53559 35.7953 1.05419 32.9869 1.5193L31.7072 1.73177L32.7567 2.49418C35.5343 4.51361 37.0785 5.83621 38.4518 7.52192C36.9777 6.38839 34.9303 5.21384 33.0036 5.48736C30.0808 5.90473 29.2457 9.0873 29.2128 10.7117L29.1893 11.8726L30.0949 11.1466C30.121 11.1265 32.0117 9.66795 35.3279 9.57138C34.8409 9.78083 34.3872 10.06 33.9789 10.4095C32.5514 11.6302 31.9591 13.5099 32.3946 15.4388L32.6798 16.7027L33.3808 15.6123C35.9506 11.6166 38.3193 10.8924 39.5593 10.7398C39.4752 12.3475 39.1783 17.1064 38.317 24.2809L38.0894 24.3244C38.0046 24.3491 37.9182 24.3691 37.833 24.393C38.189 23.8211 38.2974 23.1385 38.0485 22.5144C37.8277 21.9596 37.374 21.5415 36.7714 21.3369C36.1995 21.1449 35.559 21.1664 34.964 21.4035C34.3694 21.6402 33.888 22.0648 33.6062 22.5984C33.3794 23.0291 33.3047 23.4904 33.3797 23.932C33.0832 23.8858 32.7715 23.9267 32.4904 24.0782L30.2104 25.3125L29.9502 24.7614C29.7862 24.4133 29.4817 24.1467 29.1151 24.03C28.7473 23.9134 28.344 23.955 28.0092 24.1452C27.6062 24.3732 27.3615 24.7716 27.3138 25.1996C27.0294 25.1647 26.754 25.1257 26.4897 25.0822L25.4326 22.6765C25.088 21.8902 24.2131 21.5058 23.3999 21.777L22.1967 22.1803L20.1067 20.9654L20.2257 20.6934C20.2973 20.5283 20.3355 20.3465 20.3355 20.1677C20.3355 19.6515 20.0299 19.1811 19.5489 18.9659C19.2186 18.8228 18.8542 18.8216 18.5248 18.9584C18.1964 19.0951 17.9434 19.3538 17.8139 19.6817L17.239 21.1093C17.1348 21.3683 17.1159 21.6406 17.1647 21.8978C15.5933 21.0899 14.4276 20.3328 13.7625 19.8677C13.486 15.9435 12.8543 13.3056 12.4126 11.8634C13.5572 12.617 15.1211 14.2601 16.0781 18.1217L16.3898 19.3791L17.0682 18.2751C18.1025 16.5897 18.148 14.6199 17.1912 13.0042C16.911 12.5319 16.5618 12.1141 16.1581 11.7536C19.2448 12.8871 20.556 14.8403 20.6295 14.954L21.2529 15.9331L21.6047 14.8275C22.0971 13.2788 22.3345 9.9975 19.7023 8.65939C17.967 7.77768 15.6524 8.22725 13.8924 8.82452C15.7346 7.67276 17.6231 6.91978 20.9014 5.90522L22.1398 5.52194L20.9976 4.90838C18.4868 3.56086 16.2951 3.32293 14.4836 4.20127C13.4534 4.70082 12.6868 5.49885 12.1157 6.3449C12.0929 4.63796 11.6063 3.24303 10.6655 2.28635C9.53193 1.13343 7.80939 0.730085 5.93461 1.17968L4.83395 1.44404L5.72892 2.13676C7.78015 3.72366 8.91562 5.56925 9.54439 7.13803C8.46458 5.97609 7.05762 5.23979 5.79785 4.98295C3.99997 4.61709 2.40967 5.15225 1.54122 6.41531L1 7.20271L1.95404 7.26444C4.31816 7.41745 6.14746 8.295 7.38484 9.13126C5.85998 9.08127 4.12163 9.47705 2.51766 10.9132C0.544086 12.6805 1.73669 15.2195 2.64378 16.3145L3.25962 17.056L3.57549 16.1444C3.62775 15.9944 4.69389 13.0698 8.27153 11.7192C7.28567 12.7273 6.26189 14.092 5.97373 15.6209C5.74459 16.8321 6.0029 17.979 6.73992 19.0285L7.2997 19.8262L7.68298 18.9308C8.6162 16.7519 9.86909 13.7394 10.5879 12.0033C10.8121 13.3141 11.0954 15.635 11.0939 18.9865L10.7485 18.9278C10.4482 18.8793 10.1725 19.0777 10.1225 19.3724C10.0725 19.6682 10.2717 19.9488 10.5671 19.9984L11.0829 20.0852C11.0826 20.1124 11.0814 20.1412 11.0807 20.1681L10.5595 20.2647C10.2649 20.3196 10.0698 20.6025 10.124 20.8972C10.1725 21.1585 10.4008 21.3415 10.6572 21.3415C10.6902 21.3415 10.7228 21.3388 10.7565 21.3324L11.0492 21.2782C11.0545 24.7585 10.1721 30.3464 10.1721 30.3464H2.41206C2.11171 30.3464 1.86894 30.5891 1.86894 30.8895C1.86894 31.1898 2.11171 31.4326 2.41206 31.4326H10.0077C9.74336 33.0752 9.42256 34.8148 9.03213 36.6566C8.97078 36.674 8.9098 36.6876 8.84807 36.7066C7.1547 37.2251 5.51059 37.5682 3.96082 37.725C3.66238 37.7553 3.44498 38.022 3.4749 38.32C3.50596 38.6185 3.77334 38.8325 4.0699 38.8059C5.69016 38.6416 7.40476 38.2848 9.16619 37.7451C12.073 36.8547 14.8772 37.7754 18.1242 38.8423C21.2246 39.8604 24.6935 41 29.1541 41C29.6942 41 30.2498 40.9833 30.8195 40.9474C31.1187 40.9288 31.3463 40.6709 31.3277 40.3713C31.3092 40.0717 31.0422 39.8475 30.7517 39.863C25.6837 40.1823 21.8467 38.9215 18.4623 37.8102C16.4826 37.1603 14.6589 36.5641 12.8463 36.3664C13.1285 34.5886 13.4928 31.4322 13.4928 31.4322H37.3706C37.0964 33.3342 36.7884 35.3442 36.4442 37.4541C34.5433 37.8559 33.6244 38.4759 33.5464 38.5301C33.301 38.7021 33.2411 39.0407 33.4135 39.2869C33.5195 39.4372 33.7043 39.5925 33.8589 39.5183C37.5754 37.7215 41.5052 38.0154 46.8143 39.1717C47.1063 39.2354 47.4014 39.0736 47.4771 38.7835C47.5533 38.493 47.379 38.1965 47.0889 38.1207C44.6559 37.486 42.5861 37.2042 40.8469 37.1329C40.837 35.1544 40.8545 33.2451 40.8904 31.4317L49.1072 31.4321C49.4076 31.4321 49.6503 31.1893 49.6503 30.889C49.65 30.589 49.4076 30.3462 49.1072 30.3462L49.107 30.3466ZM40.0096 25.1685L39.7578 25.1098L40.0146 25.0609C40.0134 25.0973 40.0119 25.1325 40.0096 25.1685ZM16.3006 23.1638C16.2317 23.3642 16.2188 23.5728 16.2483 23.7762C15.5068 22.9786 14.9458 22.242 14.5663 21.6916C15.1174 22.0276 15.7681 22.4003 16.5112 22.7862C16.4229 22.8991 16.3483 23.0237 16.3006 23.1638ZM22.2907 25.145C23.9034 25.6431 25.4627 26.1051 27.6329 26.3286L28.0298 27.1046C28.2942 27.6216 28.7438 28.0041 29.2967 28.1829C29.5167 28.2533 29.7421 28.289 29.9655 28.289C30.306 28.289 30.6431 28.2079 30.9548 28.0484L33.8101 26.5831C33.9802 26.4956 34.1282 26.3741 34.2487 26.2298C35.094 26.118 35.9371 25.9654 36.7658 25.7787C35.1471 27.1138 31.5774 29.4964 27.0186 29.1468C23.6804 28.8904 21.0114 27.6451 18.9772 26.1877L22.2907 25.145ZM42.6761 16.3541C42.5947 16.926 42.392 17.4244 42.0625 17.8589C41.9247 15.9602 41.7796 13.7662 41.677 12.1849C42.2864 13.3579 42.879 14.9319 42.6761 16.3541ZM46.6252 14.4384C47.2762 15.5969 46.7979 16.6112 46.2642 17.2718C46.1491 15.8027 45.6306 13.367 43.6096 11.4176C44.6247 11.9455 45.7385 12.8602 46.6252 14.4384ZM46.1018 8.23881C47.4917 8.54218 48.512 9.48491 48.9779 10.8412C46.4592 9.41404 44.4107 9.12316 43.1585 9.12316C42.8839 9.12316 42.6476 9.13718 42.4525 9.15687C43.5588 8.22365 44.9727 7.99301 46.1018 8.23881ZM43.8429 3.35612C44.2164 3.16827 44.6015 3.09176 44.9814 3.09176C45.4196 3.09176 45.8506 3.19402 46.251 3.34703C43.8293 4.45109 42.4469 6.06068 41.5781 7.41208C41.9587 5.32555 42.742 3.90868 43.8429 3.35612ZM34.5165 2.44298C36.2958 2.35927 37.6718 2.78952 38.6149 3.72127C39.8106 4.90221 40.1166 6.68904 40.164 7.97334C38.6641 5.87702 37.2288 4.4817 34.5166 2.44298H34.5165ZM33.1575 6.56213C33.3037 6.54092 33.4507 6.53107 33.5995 6.53107C35.2182 6.53107 36.9828 7.70174 38.2001 8.70767C34.4785 8.01117 31.805 8.95688 30.4412 9.6621C30.6874 8.51412 31.3558 6.81974 33.1575 6.56213ZM33.3601 13.7461C33.4632 12.7666 33.9165 11.8914 34.6846 11.2351C35.4557 10.5761 36.4378 10.2262 37.5069 10.1985C36.3204 10.7295 34.8747 11.7548 33.36 13.7462L33.3601 13.7461ZM40.5755 11.9691C40.6233 12.7133 40.6823 13.6207 40.7471 14.5828C40.7111 14.9232 40.346 18.4948 40.0688 23.9467L39.4363 24.0679C40.1184 18.3304 40.4365 14.1715 40.5755 11.9686V11.9691ZM34.5676 23.1056C34.7289 22.8 35.0122 22.5538 35.3667 22.4129C35.5659 22.3338 35.7723 22.2936 35.9727 22.2936C36.128 22.2936 36.2798 22.3175 36.4234 22.3663C36.7199 22.4667 36.9385 22.6621 37.0407 22.9174C37.2627 23.4745 36.8729 24.1548 36.1727 24.435C35.4701 24.7141 34.7209 24.4876 34.4986 23.9305C34.3971 23.676 34.4214 23.3825 34.5676 23.1056ZM28.5448 25.0913C28.646 25.0341 28.7388 25.0515 28.7865 25.0663C28.8338 25.0811 28.9194 25.1224 28.969 25.2258L29.3497 26.0336C29.4447 26.2355 29.6205 26.3915 29.8322 26.4608C30.0435 26.5309 30.278 26.5097 30.476 26.4044L33.0071 25.0345C33.1575 24.9515 33.3503 25.0015 33.4419 25.1474C33.5097 25.2542 33.4961 25.3587 33.4817 25.4102C33.4677 25.4628 33.4264 25.5583 33.3139 25.6166L30.4586 27.0819C30.2003 27.2137 29.906 27.2372 29.6295 27.1493C29.353 27.0596 29.1284 26.8679 28.9963 26.61L28.4244 25.4928C28.3505 25.3481 28.4039 25.1716 28.5448 25.0913ZM23.7458 22.8075C24.0215 22.7135 24.3215 22.8454 24.4382 23.1139L25.1903 24.8265C24.9086 24.7614 24.6317 24.694 24.3624 24.622L24.2257 24.2978C24.0352 23.8445 23.5394 23.6138 23.0709 23.7619L18.4166 25.2254C18.2692 25.272 18.1083 25.2057 18.0371 25.0659L17.3398 23.6907C17.303 23.6172 17.3163 23.5506 17.3284 23.5176C17.3398 23.4839 17.3697 23.4233 17.4439 23.3884C17.5178 23.3544 17.5818 23.3699 17.6144 23.3801C17.6469 23.3915 17.706 23.4225 17.7405 23.4956L17.9783 24.0024C18.1499 24.3667 18.5669 24.5436 18.9487 24.4179L20.086 24.0369C20.0996 24.0334 20.1114 24.0281 20.1246 24.024L23.7458 22.8075ZM18.2465 21.5152L18.8229 20.0839C18.8513 20.0124 18.9028 19.9779 18.9422 19.9616C18.9737 19.9468 19.0399 19.9294 19.1123 19.9605C19.1971 19.998 19.2498 20.0779 19.2498 20.168C19.2498 20.1979 19.2426 20.2309 19.2308 20.2593L19.0093 20.7664C18.8438 21.1384 18.9846 21.5713 19.3357 21.7731L20.828 22.6401L20.0239 22.9097L18.3776 21.9068C18.2424 21.8269 18.1878 21.6614 18.2465 21.5152ZM16.2566 13.5587C16.7713 14.4279 16.9187 15.4028 16.6997 16.3633C15.9085 13.989 14.8716 12.5528 13.9202 11.6672C14.9231 12.038 15.7396 12.6861 16.2566 13.5587ZM19.2104 9.6289C20.8519 10.4633 20.931 12.2812 20.786 13.4458C19.7262 12.3388 17.5 10.5742 13.7437 10.0326C15.3564 9.42096 17.65 8.8354 19.2104 9.6289ZM14.9568 5.1798C15.5181 4.90711 16.1336 4.77152 16.8009 4.77152C17.5539 4.77152 18.3727 4.94422 19.2529 5.29078C16.0257 6.34636 14.2168 7.20307 12.1201 8.70553C12.5765 7.50684 13.4408 5.91577 14.9569 5.17986L14.9568 5.1798ZM9.89115 3.04974C10.8766 4.05267 11.2338 5.72208 10.9354 7.83663C10.4404 6.17362 9.42498 4.01592 7.34301 2.08433C8.36901 2.05706 9.24919 2.39603 9.89115 3.04974ZM5.58032 6.0497C7.16955 6.37391 9.02648 7.60258 9.82755 9.58187C9.74347 9.55422 9.65863 9.52695 9.57001 9.50082C8.63603 8.58692 6.49199 6.85456 3.21288 6.31867C3.84046 5.96038 4.65891 5.86191 5.58039 6.04977L5.58032 6.0497ZM2.98137 14.863C2.54203 14.0411 2.1311 12.7193 3.24156 11.7247C4.51636 10.5829 5.90412 10.2207 7.15361 10.2207C7.72816 10.2207 8.27318 10.298 8.76359 10.4101C5.36435 11.3615 3.68887 13.5885 2.98137 14.863ZM7.13542 17.4475C6.96423 16.9305 6.9328 16.3942 7.03998 15.828C7.30434 14.4195 8.3747 13.1203 9.32944 12.2042C8.72232 13.6677 7.87773 15.6962 7.13542 17.4475ZM12.0624 15.1334C12.2715 16.2655 12.4669 17.6354 12.6044 19.2442L12.1953 19.1753C12.2018 17.6156 12.1469 16.2704 12.0624 15.1334ZM12.159 21.0758L12.7237 20.9717C12.9275 24.8848 12.7661 29.9804 11.7587 36.2978C11.2394 36.2913 10.719 36.3254 10.1933 36.4042C11.4958 30.1322 12.0241 25.0359 12.1589 21.0762L12.159 21.0758ZM13.6016 30.347C13.6016 30.347 13.9959 26.7497 13.8849 22.6325C15.59 25.0302 19.7808 29.6797 26.9354 30.2289C27.2771 30.255 27.6115 30.2675 27.9414 30.2675C33.1176 30.2675 36.8835 27.1982 38.0977 26.065C37.9265 27.419 37.7371 28.8461 37.5258 30.3463L13.6025 30.3466L13.6016 30.347ZM39.1878 26.093L39.9619 26.2729C39.8305 29.4672 39.7419 33.1512 39.7612 37.1166C38.9477 37.1242 38.2212 37.1803 37.5759 37.2647C38.2447 33.1338 38.7731 29.3903 39.1878 26.0933L39.1878 26.093ZM21.9594 32.519C22.2597 32.519 22.5025 32.7618 22.5025 33.0622C22.5025 33.3625 22.2597 33.6053 21.9594 33.6053H19.2446C18.9442 33.6053 18.7015 33.3625 18.7015 33.0622C18.7015 32.7618 18.9442 32.519 19.2446 32.519H21.9594ZM43.1349 32.519C43.4353 32.519 43.6781 32.7618 43.6781 33.0622C43.6781 33.3625 43.4353 33.6053 43.1349 33.6053H42.0491C41.7488 33.6053 41.506 33.3625 41.506 33.0622C41.506 32.7618 41.7488 32.519 42.0491 32.519H43.1349ZM33.9047 33.6049H32.2757C31.9753 33.6049 31.7326 33.3621 31.7326 33.0618C31.7326 32.7614 31.9753 32.5186 32.2757 32.5186H33.9047C34.205 32.5186 34.4478 32.7614 34.4478 33.0618C34.4478 33.3621 34.205 33.6049 33.9047 33.6049ZM7.29948 33.6049C6.99914 33.6049 6.75636 33.3621 6.75636 33.0618C6.75636 32.7614 6.99914 32.5186 7.29948 32.5186H8.38531C8.68566 32.5186 8.92843 32.7614 8.92843 33.0618C8.92843 33.3621 8.68566 33.6049 8.38531 33.6049H7.29948ZM27.3891 33.0618C27.3891 33.3621 27.1463 33.6049 26.846 33.6049H23.588C23.2877 33.6049 23.0449 33.3621 23.0449 33.0618C23.0449 32.7614 23.2877 32.5186 23.588 32.5186H26.846C27.1463 32.519 27.3891 32.7614 27.3891 33.0618ZM27.3891 35.7766C27.3891 36.0769 27.1463 36.3197 26.846 36.3197H25.7602C25.4598 36.3197 25.217 36.0769 25.217 35.7766C25.217 35.4762 25.4598 35.2335 25.7602 35.2335H26.846C27.1463 35.2338 27.3891 35.4762 27.3891 35.7766ZM32.2756 34.6907C32.2756 34.9911 32.0328 35.2339 31.7325 35.2339H29.0176C28.7173 35.2339 28.4745 34.9911 28.4745 34.6907C28.4745 34.3904 28.7173 34.1476 29.0176 34.1476H31.7325C32.0328 34.1476 32.2756 34.3904 32.2756 34.6907Z" fill="white" stroke="white" stroke-width="0.5"/>
</svg>
