<svg width="38" height="42" viewBox="0 0 38 42" fill="none" xmlns="http://www.w3.org/2000/svg">
<path d="M32.7148 17.6691C32.6391 15.0159 31.737 12.7234 30.1705 11.3008C29.9928 11.1396 29.7843 11.0271 29.5917 10.8892L33.1124 6.96122L34.5583 11.0603L36.9536 1L27.7655 5.02581L31.8763 5.84898L28.0733 10.092C26.9908 9.70579 25.7818 9.56102 24.4564 9.7375C23.3257 9.88766 21.6881 10.4506 20.4111 11.5532C19.092 10.502 17.4316 10.0058 16.2959 9.90084C13.8231 9.6735 11.7502 10.4108 10.3237 12.0366C8.5057 14.1113 7.89341 17.4426 8.68933 20.9483C9.14997 22.9847 10.7667 25.2921 12.6655 27.4317L10.8065 29.524L4.83879 29.964L4.96233 31.6244L9.2197 31.31L7.03826 33.7655L1 34.2105L1.12354 35.871L5.45174 35.5515L3.453 37.8012L4.69764 38.9058L6.76667 36.5769L7.15582 41L8.81296 40.8537L8.28681 34.866L10.5996 32.2625L10.9947 36.7532L12.6519 36.6069L12.1197 30.5513L13.8014 28.6584C16.5015 31.4669 19.4167 33.8018 20.3446 34.5223L20.8743 34.9351L21.3876 34.5047C21.576 34.347 23.1443 33.0234 25.0566 31.1402C26.5228 32.5604 27.9206 33.6764 28.4222 34.0658L28.952 34.4786L29.4671 34.0482C30.1347 33.4876 36.0159 28.4774 36.6773 24.8937C37.1143 22.5397 36.6091 20.3277 35.327 18.9784C34.8033 18.4271 33.9646 17.8364 32.7149 17.6694L32.7148 17.6691ZM20.8336 32.7909C19.0876 31.3973 16.8729 29.454 14.9155 27.4044L17.6085 24.3731L18.5396 25.1745L19.6249 23.9137L16.4569 21.1866L15.3717 22.4474L16.3471 23.2871L13.7828 26.1735C12.0485 24.2011 10.68 22.2108 10.3109 20.5806C9.64477 17.6367 10.129 14.7831 11.575 13.1332C12.6503 11.9074 14.1794 11.3753 16.1434 11.5574C17.2627 11.6606 18.8387 12.2302 19.8331 13.2699L20.4585 13.9255L21.0579 13.2456C22.0101 12.167 23.5598 11.534 24.6743 11.3863C26.4759 11.1524 27.9512 11.5335 29.0528 12.5326C30.2807 13.6471 30.9597 15.5193 31.0243 17.7088C30.3043 17.8327 29.4061 18.1536 28.6403 18.7506C27.7905 18.1398 26.7914 17.8464 26.0443 17.7776C23.9015 17.5787 22.652 18.4665 21.9697 19.2445C20.743 20.6435 20.3273 22.8739 20.8567 25.21C21.1974 26.7128 22.4698 28.4259 23.8886 29.9517C22.5961 31.2238 21.4613 32.2441 20.8337 32.7909L20.8336 32.7909ZM35.0427 24.5914C34.6236 26.8545 31.103 30.4155 28.9128 32.3307C26.6449 30.4917 22.9813 27.0587 22.4776 24.8429C22.0714 23.0509 22.3559 21.3265 23.22 20.3418C23.7611 19.7244 24.5116 19.4133 25.4571 19.4133C25.5986 19.4133 25.7431 19.4205 25.8909 19.4346C26.5504 19.4947 27.4783 19.8294 28.0613 20.4393L28.6867 21.0923L29.2862 20.4148C29.8449 19.7827 30.7582 19.4106 31.4144 19.323C32.5648 19.1686 33.4697 19.4399 34.1212 20.124C35.0233 21.0737 35.376 22.7853 35.0427 24.591L35.0427 24.5914Z" fill="white" stroke="white"/>
</svg>
