<svg width="61" height="61" viewBox="0 0 61 61" fill="none" xmlns="http://www.w3.org/2000/svg">
<path d="M17.8711 10.5C17.8711 7.73858 20.1097 5.5 22.8711 5.5H37.8711C40.6325 5.5 42.8711 7.73858 42.8711 10.5V15.5H47.8453C47.8607 15.4999 47.8762 15.4999 47.8917 15.5H52.8711C54.2518 15.5 55.3711 16.6193 55.3711 18C55.3711 19.3807 54.2518 20.5 52.8711 20.5H50.1989L48.0306 50.8562C47.8437 53.4728 45.6665 55.5 43.0433 55.5H17.6989C15.0757 55.5 12.8985 53.4728 12.7116 50.8562L10.5433 20.5H7.87109C6.49038 20.5 5.37109 19.3807 5.37109 18C5.37109 16.6193 6.49038 15.5 7.87109 15.5H12.8505C12.866 15.4999 12.8814 15.4999 12.8969 15.5H17.8711V10.5ZM22.8711 15.5H37.8711V10.5H22.8711V15.5ZM15.556 20.5L17.6989 50.5H43.0433L45.1862 20.5H15.556ZM25.3711 25.5C26.7518 25.5 27.8711 26.6193 27.8711 28V43C27.8711 44.3807 26.7518 45.5 25.3711 45.5C23.9904 45.5 22.8711 44.3807 22.8711 43V28C22.8711 26.6193 23.9904 25.5 25.3711 25.5ZM35.3711 25.5C36.7518 25.5 37.8711 26.6193 37.8711 28V43C37.8711 44.3807 36.7518 45.5 35.3711 45.5C33.9904 45.5 32.8711 44.3807 32.8711 43V28C32.8711 26.6193 33.9904 25.5 35.3711 25.5Z" fill="#FF6767"/>
</svg>
