<svg width="60" height="60" viewBox="0 0 60 60" fill="none" xmlns="http://www.w3.org/2000/svg">
<circle cx="30" cy="30" r="30" fill="white"/>
<path d="M45.6094 49.875L39.4219 43.6875C38.5469 44.3125 37.6016 44.8516 36.5859 45.3047C35.5703 45.7578 34.5156 46.1094 33.4219 46.3594V43.4531C34.1406 43.2344 34.8359 42.9922 35.5078 42.7266C36.1797 42.4609 36.8125 42.1094 37.4063 41.6719L29.6719 33.8906V45L20.2969 35.625H12.7969V24.375H20.1094L9.79688 14.0625L11.8125 12.0469L47.625 47.8125L45.6094 49.875ZM43.9219 39L41.9063 36.9844C42.5313 35.9219 42.9922 34.7969 43.2891 33.6094C43.5859 32.4219 43.7344 31.2031 43.7344 29.9531C43.7344 26.7344 42.7969 23.8516 40.9219 21.3047C39.0469 18.7578 36.5469 17.1406 33.4219 16.4531V13.5469C37.2969 14.4219 40.4531 16.3828 42.8906 19.4297C45.3281 22.4766 46.5469 25.9844 46.5469 29.9531C46.5469 31.5469 46.3281 33.1094 45.8906 34.6406C45.4531 36.1719 44.7969 37.625 43.9219 39ZM37.6406 32.7188L33.4219 28.5V22.4063C34.8906 23.0938 36.0391 24.125 36.8672 25.5C37.6953 26.875 38.1094 28.375 38.1094 30C38.1094 30.4688 38.0703 30.9297 37.9922 31.3828C37.9141 31.8359 37.7969 32.2813 37.6406 32.7188ZM29.6719 24.75L24.7969 19.875L29.6719 15V24.75Z" fill="#1F133E"/>
<path d="M33.75 46.3594V43.4531C36.7812 42.5781 39.2578 40.8984 41.1797 38.4141C43.1016 35.9297 44.0625 33.1094 44.0625 29.9531C44.0625 26.7969 43.1094 23.9688 41.2031 21.4688C39.2969 18.9688 36.8125 17.2969 33.75 16.4531V13.5469C37.625 14.4219 40.7812 16.3828 43.2188 19.4297C45.6562 22.4766 46.875 25.9844 46.875 29.9531C46.875 33.9219 45.6562 37.4297 43.2188 40.4766C40.7812 43.5234 37.625 45.4844 33.75 46.3594ZM13.125 35.625V24.375H20.625L30 15V45L20.625 35.625H13.125ZM32.8125 37.875V22.0781C34.5312 22.6094 35.8984 23.6094 36.9141 25.0781C37.9297 26.5469 38.4375 28.1875 38.4375 30C38.4375 31.7812 37.9219 33.4062 36.8906 34.875C35.8594 36.3438 34.5 37.3438 32.8125 37.875Z" fill="#1F133E"/>
</svg>
