<svg width="40" height="40" viewBox="0 0 40 40" fill="none" xmlns="http://www.w3.org/2000/svg">
<circle cx="20" cy="20" r="20" fill="white"/>
<path d="M22.5 30.9062V28.9688C24.5208 28.3854 26.1719 27.2656 27.4531 25.6094C28.7344 23.9531 29.375 22.0729 29.375 19.9688C29.375 17.8646 28.7396 15.9792 27.4688 14.3125C26.1979 12.6458 24.5417 11.5312 22.5 10.9688V9.03125C25.0833 9.61458 27.1875 10.9219 28.8125 12.9531C30.4375 14.9844 31.25 17.3229 31.25 19.9688C31.25 22.6146 30.4375 24.9531 28.8125 26.9844C27.1875 29.0156 25.0833 30.3229 22.5 30.9062ZM8.75 23.75V16.25H13.75L20 10V30L13.75 23.75H8.75ZM21.875 25.25V14.7188C23.0208 15.0729 23.9323 15.7396 24.6094 16.7188C25.2865 17.6979 25.625 18.7917 25.625 20C25.625 21.1875 25.2812 22.2708 24.5938 23.25C23.9062 24.2292 23 24.8958 21.875 25.25Z" fill="#1F133E"/>
</svg>
