<?xml version="1.0" encoding="UTF-8"?><svg id="Capa_1" xmlns="http://www.w3.org/2000/svg" viewBox="0 0 32 32"><defs><style>.cls-1{fill:#fff;}.cls-2{fill:#1f133e;}</style></defs><rect class="cls-2" width="32" height="32"/><path class="cls-1" d="m16.7,18.4v-2.46c0-.31-.06-.57-.17-.76s-.27-.34-.46-.44c-.19-.1-.42-.14-.67-.14-.23,0-.44.05-.62.14-.19.09-.33.22-.44.37h0c-.09.13-.14.29-.14.45v2.35c0,.27-.22.49-.48.49h-.34v-4.5h.83v.47c.11-.11.25-.2.39-.29.29-.16.61-.24.97-.24s.71.08,1.01.24c.3.16.53.4.7.71.17.31.26.7.26,1.15v1.97c0,.27-.22.49-.48.49h-.34Z"/><path class="cls-1" d="m21.47,18.4v-2.46c0-.31-.06-.57-.17-.76s-.27-.34-.46-.44c-.19-.1-.42-.14-.67-.14-.23,0-.44.05-.62.14s-.33.22-.44.37h0c-.09.13-.14.29-.14.45v2.35c0,.27-.22.49-.48.49h-.34v-4.5h.83v.47c.11-.11.25-.2.39-.29.29-.16.61-.24.97-.24s.71.08,1.01.24c.3.16.53.4.7.71.17.31.26.7.26,1.15v1.97c0,.27-.22.49-.48.49h-.34Z"/><path class="cls-1" d="m7.67,12.29h-.81v6.11h.81v-6.11Z"/><path class="cls-1" d="m30,13.84v.84h-.93v3.24c0,.27-.22.49-.48.49h-.32v-3.73h-.91v-.84h.91v-1.43h.81v1.43h.93Z"/><path class="cls-1" d="m5.95,14.94c-.2-.35-.46-.62-.8-.82-.34-.2-.72-.3-1.14-.3s-.8.1-1.13.3c-.09.06-.18.12-.27.19v-.47h-.83v6.6h.34c.27,0,.48-.22.48-.49v-2.3c.19.23.42.41.69.55.27.13.56.2.88.2.4,0,.75-.1,1.06-.3.31-.2.56-.47.74-.82.18-.34.27-.73.27-1.17,0-.43-.1-.83-.3-1.17Zm-.69,1.96c-.13.23-.3.42-.52.55-.22.13-.46.2-.74.2s-.52-.07-.74-.2c-.22-.13-.39-.32-.52-.55-.07-.14-.12-.28-.16-.44-.02-.09-.03-.18-.03-.27v-.08c0-.12.01-.24.03-.35,0,0,0,0,0,0,.03-.15.08-.3.15-.43.12-.23.3-.42.52-.55.22-.13.47-.2.74-.2s.52.07.74.2c.22.13.39.32.52.55s.19.5.19.79c0,.29-.06.55-.19.79Z"/><path class="cls-1" d="m12.77,18.4v-2.27h0c0-.43-.1-.82-.29-1.17-.2-.34-.46-.62-.79-.82-.33-.2-.71-.3-1.13-.3s-.8.1-1.13.3-.6.47-.8.82c-.2.34-.29.73-.29,1.17s.09.82.27,1.16c.18.34.43.61.74.81.31.2.66.3,1.06.3s.74-.1,1.06-.3c.19-.12.36-.27.5-.45v.74h.83Zm-.99-1.48c-.13.23-.3.42-.51.55-.22.13-.46.2-.74.2s-.52-.07-.74-.2c-.22-.13-.39-.32-.52-.55-.13-.23-.19-.5-.19-.78s.06-.56.19-.79c.13-.23.3-.42.52-.55.22-.13.46-.2.74-.2s.52.07.74.2c.22.13.39.32.51.55.12.23.19.5.19.79s-.06.55-.19.78Z"/><path class="cls-1" d="m27.14,16.07c0-.43-.08-.82-.24-1.15-.16-.33-.39-.59-.7-.78s-.67-.28-1.09-.28-.81.1-1.14.29c-.33.19-.59.46-.78.81-.19.34-.28.74-.28,1.19s.1.84.3,1.18c.2.34.47.61.82.81.35.19.75.29,1.2.29.25,0,.51-.05.78-.14.33-.11.63-.29.88-.54,0,0-.49-.44-.54-.49-.07.06-.16.13-.26.2,0,0,0,0,0,0-.1.06-.21.11-.35.16-.18.06-.35.09-.52.09-.31,0-.58-.07-.82-.21-.24-.14-.43-.32-.56-.56-.09-.16-.15-.33-.18-.52h3.47v-.35s0,0,0,0Zm-.5,1.89s0,0,0,0c0,0,0,0-.01,0,0,0,.01,0,.02-.01Zm-2.96-2.18c.03-.16.07-.3.14-.44.11-.24.28-.43.5-.56.22-.14.48-.21.79-.21.27,0,.5.06.69.19.19.13.34.3.44.51.07.15.12.32.15.51h-2.71Z"/></svg>