<?xml version="1.0" encoding="UTF-8"?><svg id="Capa_1" xmlns="http://www.w3.org/2000/svg" viewBox="0 0 16 16"><defs><style>.cls-1{fill:#fff;}.cls-2{fill:#1f133e;}</style></defs><rect class="cls-2" width="16" height="16"/><path class="cls-1" d="m8.4,9.77v-1.22c0-.15-.03-.28-.08-.38s-.13-.17-.23-.22c-.1-.05-.21-.07-.33-.07-.11,0-.22.02-.31.07-.09.05-.16.11-.22.19h0c-.04.07-.07.15-.07.22v1.16c0,.13-.11.24-.24.24h-.17v-2.23h.41v.23c.06-.05.12-.1.19-.14.14-.08.3-.12.48-.12s.35.04.5.12c.15.08.26.2.35.35.08.15.13.34.13.57v.98c0,.13-.11.24-.24.24h-.17Z"/><path class="cls-1" d="m10.77,9.77v-1.22c0-.15-.03-.28-.09-.38s-.13-.17-.23-.22c-.1-.05-.21-.07-.33-.07-.11,0-.22.02-.31.07s-.16.11-.22.19h0c-.04.07-.07.15-.07.22v1.17c0,.13-.11.24-.24.24h-.17v-2.23h.41v.23c.06-.05.12-.1.19-.14.14-.08.3-.12.48-.12s.35.04.5.12c.15.08.26.2.35.35.09.15.13.34.13.57v.98c0,.13-.11.24-.24.24h-.17Z"/><path class="cls-1" d="m3.92,6.74h-.4v3.03h.4v-3.03Z"/><path class="cls-1" d="m15,7.51v.41h-.46v1.61c0,.13-.11.24-.24.24h-.16v-1.85h-.45v-.41h.45v-.71h.4v.71h.46Z"/><path class="cls-1" d="m3.07,8.06c-.1-.17-.23-.31-.4-.41-.17-.1-.36-.15-.57-.15s-.4.05-.56.15c-.05.03-.09.06-.13.09v-.23h-.41v3.28h.17c.13,0,.24-.11.24-.24v-1.14c.09.12.21.21.34.27.13.07.28.1.44.1.2,0,.37-.05.53-.15.16-.1.28-.23.37-.41.09-.17.14-.36.14-.58,0-.22-.05-.41-.15-.58Zm-.34.97c-.06.12-.15.21-.26.27-.11.07-.23.1-.37.1s-.26-.03-.37-.1c-.11-.07-.19-.16-.26-.27-.04-.07-.06-.14-.08-.22,0-.04-.01-.09-.02-.13h0v-.04c0-.06,0-.12.02-.18,0,0,0,0,0,0,.01-.08.04-.15.08-.21.06-.12.15-.21.26-.27.11-.07.23-.1.37-.1s.26.03.37.1c.11.07.19.16.26.27s.1.25.1.39c0,.14-.03.27-.1.39Z"/><path class="cls-1" d="m6.45,9.77v-1.13h0c0-.21-.05-.41-.15-.58-.1-.17-.23-.31-.39-.41-.17-.1-.35-.15-.56-.15s-.4.05-.56.15-.3.23-.4.41c-.1.17-.15.36-.15.58s.05.41.13.58c.09.17.21.3.37.4.16.1.33.15.52.15s.37-.05.52-.15c.1-.06.18-.13.25-.22v.37h.41Zm-.49-.74c-.06.12-.15.21-.25.27-.11.07-.23.1-.37.1s-.26-.03-.37-.1c-.11-.07-.19-.16-.26-.27-.06-.12-.09-.25-.09-.39s.03-.28.09-.39c.06-.12.15-.21.26-.27.11-.07.23-.1.37-.1s.26.03.37.1c.11.07.19.16.25.27.06.12.09.25.09.39s-.03.27-.09.39Z"/><path class="cls-1" d="m13.58,8.61c0-.21-.04-.4-.12-.57-.08-.16-.19-.29-.35-.39s-.33-.14-.54-.14-.4.05-.57.14c-.16.1-.29.23-.39.4-.09.17-.14.37-.14.59s.05.42.15.59c.1.17.23.3.41.4.17.1.37.14.6.14.12,0,.25-.02.39-.07.16-.06.31-.14.44-.27,0,0-.24-.22-.27-.24-.03.03-.08.06-.13.1,0,0,0,0,0,0-.05.03-.11.06-.17.08-.09.03-.17.05-.26.05-.15,0-.29-.03-.41-.1-.12-.07-.21-.16-.28-.28-.05-.08-.08-.16-.09-.26h1.72v-.18s0,0,0,0Zm-.25.94s0,0,0,0c0,0,0,0,0,0,0,0,0,0,0,0Zm-1.47-1.08c.01-.08.04-.15.07-.22.06-.12.14-.21.25-.28.11-.07.24-.1.39-.1.13,0,.25.03.34.09.09.06.17.15.22.25.04.08.06.16.07.25h-1.34Z"/></svg>