<svg width="21" height="20" viewBox="0 0 21 20" fill="none" xmlns="http://www.w3.org/2000/svg">
<g id="check">
<path id="Star 1" d="M9.0108 1.31433C9.51712 0.652305 10.5141 0.652305 11.0204 1.31433C11.3994 1.80981 12.0829 1.95511 12.6307 1.65659C13.3625 1.25774 14.2733 1.66326 14.4666 2.47399C14.6112 3.08076 15.1766 3.49152 15.7983 3.44159C16.6291 3.37487 17.2962 4.1158 17.1431 4.93504C17.0284 5.54819 17.3778 6.15339 17.9661 6.36067C18.7522 6.63763 19.0603 7.58585 18.5872 8.27196C18.233 8.78547 18.3061 9.48046 18.7592 9.90912C19.3647 10.4819 19.2605 11.4734 18.5492 11.9078C18.0168 12.2328 17.8008 12.8975 18.0405 13.4734C18.3606 14.2429 17.8621 15.1063 17.0356 15.2138C16.4171 15.2942 15.9495 15.8135 15.9341 16.4371C15.9136 17.2703 15.107 17.8563 14.3083 17.6184C13.7105 17.4402 13.0721 17.7245 12.8044 18.2879C12.4468 19.0407 11.4716 19.248 10.8387 18.7057C10.365 18.2999 9.66621 18.2999 9.19254 18.7057C8.55964 19.248 7.58442 19.0407 7.22681 18.2879C6.95916 17.7245 6.32075 17.4402 5.72295 17.6184C4.9242 17.8563 4.1176 17.2703 4.09711 16.4371C4.08178 15.8135 3.61417 15.2942 2.9956 15.2138C2.16911 15.1063 1.67061 14.2429 1.99078 13.4734C2.23041 12.8975 2.01446 12.2328 1.48209 11.9078C0.77076 11.4734 0.666544 10.4819 1.27202 9.90912C1.72517 9.48046 1.79822 8.78547 1.44409 8.27196C0.970928 7.58585 1.27902 6.63763 2.06511 6.36068C2.65343 6.15339 3.00285 5.54819 2.8882 4.93504C2.735 4.1158 3.40214 3.37487 4.23291 3.44159C4.85468 3.49152 5.42005 3.08076 5.5647 2.47399C5.75797 1.66326 6.66879 1.25774 7.4006 1.65659C7.94831 1.95511 8.63186 1.80981 9.0108 1.31433Z" fill="black"/>
<path id="Vector" d="M6.01562 11.1222L7.6231 13.189C7.67735 13.2595 7.74685 13.3167 7.82639 13.3565C7.90594 13.3963 7.99346 13.4175 8.08238 13.4186C8.16988 13.4196 8.2565 13.4011 8.33595 13.3645C8.41539 13.3278 8.48567 13.2739 8.54166 13.2067L13.6703 7.00049" stroke="#D4DDE0" stroke-width="2" stroke-linecap="round" stroke-linejoin="round"/>
</g>
</svg>
