<svg xmlns="http://www.w3.org/2000/svg" width="106" height="31" viewBox="0 0 106 31" fill="none">
  <path d="M55.7112 22.5864V13.5143C55.7112 12.3624 55.5012 11.4213 55.0735 10.691C54.6457 9.96074 54.0754 9.41866 53.3551 9.06481C52.6347 8.71097 51.8093 8.53027 50.8788 8.53027C50.0309 8.53027 49.2581 8.70344 48.5676 9.04976C47.8773 9.39607 47.3296 9.85534 46.9243 10.4275L46.9168 10.435C46.5793 10.9244 46.4065 11.5117 46.4065 12.0989V20.772C46.4065 21.7734 45.6038 22.5788 44.6057 22.5788H43.3301V5.9479H46.4065V7.67952C46.8343 7.27297 47.3221 6.92666 47.8623 6.62549C48.9353 6.03826 50.1359 5.74463 51.4716 5.74463C52.8673 5.74463 54.113 6.04579 55.2161 6.64055C56.3191 7.23533 57.1894 8.11619 57.8273 9.26809C58.4651 10.42 58.7803 11.8354 58.7803 13.5143V20.7795C58.7803 21.7809 57.9774 22.5864 56.9793 22.5864H55.7112Z" fill="white"/>
  <path d="M73.4965 22.5864V13.5143C73.4965 12.3624 73.2864 11.4213 72.8586 10.691C72.4309 9.96074 71.8607 9.41866 71.1403 9.06481C70.4199 8.71097 69.5945 8.53027 68.6641 8.53027C67.8161 8.53027 67.0433 8.70344 66.353 9.04976C65.6625 9.39607 65.1148 9.85534 64.7097 10.4275L64.702 10.435C64.3644 10.9244 64.1919 11.5117 64.1919 12.0989V20.7795C64.1919 21.7809 63.3889 22.5864 62.3908 22.5864H61.1152V5.9479H64.1919V7.67952C64.6195 7.27297 65.1073 6.92666 65.6475 6.62549C66.7207 6.03826 67.9212 5.74463 69.2569 5.74463C70.6525 5.74463 71.8981 6.04579 73.0012 6.64055C74.1043 7.23533 74.9748 8.11619 75.6125 9.26809C76.2504 10.42 76.5655 11.8354 76.5655 13.5143V20.7795C76.5655 21.7809 75.7626 22.5864 74.7647 22.5864H73.4965Z" fill="white"/>
  <path d="M22.0952 0H19.0938V22.5863H22.0952V0Z" fill="white"/>
  <path d="M105.236 5.72178V8.80858H101.784V20.7792C101.784 21.7807 100.982 22.5863 99.9834 22.5863H98.7829V8.80858H95.4062V5.72178H98.7829V0.45166H101.784V5.72178H105.236Z" fill="white"/>
  <path d="M15.709 9.80236C14.9737 8.52246 13.9832 7.50608 12.7376 6.76074C11.4846 6.02293 10.0664 5.64648 8.48296 5.64648C6.9147 5.64648 5.50398 6.0154 4.25849 6.76074C3.90577 6.97155 3.57551 7.20494 3.26788 7.45338V5.72177H0.191406V30.1149H1.46702C2.46494 30.1149 3.26788 29.3094 3.26788 28.308V19.8155C3.97332 20.6739 4.82117 21.344 5.8191 21.8484C6.8172 22.3452 7.90531 22.5938 9.09074 22.5938C10.5615 22.5938 11.8747 22.2249 13.0454 21.4795C14.2083 20.7342 15.1314 19.7327 15.8067 18.4529C16.482 17.1805 16.8196 15.7425 16.8196 14.1314C16.8046 12.5278 16.4369 11.0822 15.709 9.80236ZM13.1429 17.045C12.6702 17.9033 12.0248 18.5884 11.2219 19.0779C10.4114 19.5746 9.49603 19.823 8.46799 19.823C7.46258 19.823 6.547 19.5746 5.72909 19.0779C4.91118 18.5809 4.27347 17.9033 3.8081 17.045C3.53808 16.5406 3.34292 16.0061 3.23045 15.4339C3.17039 15.1101 3.12529 14.7789 3.11781 14.4325C3.11781 14.4024 3.11781 14.3648 3.11781 14.3347C3.11781 14.2744 3.11781 14.2142 3.11781 14.1465C3.11781 13.6872 3.15541 13.2505 3.23794 12.8364C3.23794 12.8289 3.23794 12.8139 3.24542 12.8063C3.35789 12.2342 3.54557 11.7071 3.81577 11.2102C4.28095 10.352 4.91867 9.67438 5.73658 9.17747C6.55449 8.68058 7.47006 8.43212 8.47547 8.43212C9.50352 8.43212 10.4264 8.68058 11.2293 9.17747C12.0398 9.67438 12.6777 10.352 13.1503 11.2102C13.623 12.0685 13.8633 13.0472 13.8633 14.1389C13.8556 15.2155 13.623 16.1792 13.1429 17.045Z" fill="white"/>
  <path d="M41.0789 22.5863V14.1917H41.0714C41.0714 12.5956 40.7037 11.1576 39.976 9.87772C39.2481 8.60536 38.2575 7.5965 37.0195 6.85869C35.7813 6.12087 34.3781 5.75195 32.8173 5.75195C31.2565 5.75195 29.8534 6.12087 28.6003 6.85869C27.3471 7.5965 26.3567 8.60536 25.6288 9.87772C24.9009 11.1501 24.5332 12.5881 24.5332 14.1917C24.5332 15.7878 24.871 17.2258 25.5388 18.4907C26.2064 19.7555 27.122 20.7568 28.285 21.4946C29.4481 22.2324 30.7539 22.6014 32.217 22.6014C33.6803 22.6014 34.9858 22.2324 36.149 21.4946C36.8619 21.0429 37.4772 20.4932 38.0024 19.8458V22.5938H41.0789V22.5863ZM37.3872 17.1053C36.9218 17.9637 36.2841 18.6412 35.4811 19.138C34.6707 19.635 33.7553 19.8834 32.7273 19.8834C31.7144 19.8834 30.8063 19.635 29.9884 19.138C29.1705 18.6412 28.5253 17.9637 28.0524 17.1053C27.5797 16.247 27.3397 15.2758 27.3397 14.2067C27.3397 13.1151 27.5797 12.1363 28.0524 11.2781C28.5253 10.4198 29.1705 9.7422 29.9884 9.24529C30.8063 8.74841 31.7144 8.49995 32.7273 8.49995C33.7553 8.49995 34.6782 8.74841 35.4811 9.24529C36.2916 9.7422 36.9218 10.4198 37.3872 11.2781C37.8523 12.1363 38.0849 13.1151 38.0849 14.2067C38.0849 15.2758 37.8523 16.2395 37.3872 17.1053Z" fill="white"/>
  <path d="M94.5956 13.9509C94.5956 12.3548 94.2955 10.9394 93.7027 9.71225C93.1099 8.48505 92.2469 7.5289 91.1138 6.82872C89.9808 6.12856 88.6302 5.78223 87.0542 5.78223C85.4635 5.78223 84.0453 6.14362 82.8146 6.85885C81.5841 7.57407 80.6236 8.56786 79.9258 9.8327C79.2279 11.0975 78.8828 12.5581 78.8828 14.222C78.8828 15.8632 79.2503 17.3163 79.9857 18.5811C80.7211 19.846 81.7417 20.8397 83.0397 21.555C84.338 22.2702 85.8312 22.6316 87.5045 22.6316C88.4275 22.6316 89.403 22.4585 90.4235 22.1121C91.6391 21.6981 92.7796 21.0581 93.6877 20.1321C93.6651 20.1546 91.8717 18.5059 91.6842 18.3327C91.4364 18.5434 91.1064 18.807 90.7312 19.0554C90.7237 19.0554 90.7237 19.0629 90.7162 19.0629C90.356 19.2888 89.9282 19.4846 89.418 19.6652C88.7651 19.8986 88.1199 20.0116 87.497 20.0116C86.349 20.0116 85.3284 19.7557 84.443 19.2512C83.5575 18.7467 82.8597 18.0541 82.3569 17.1883C82.0193 16.601 81.7942 15.9686 81.6816 15.276H94.5805V13.966C94.5956 13.966 94.5956 13.9585 94.5956 13.9509ZM92.7422 20.9375C92.7347 20.9452 92.7197 20.9527 92.7121 20.9602C92.6971 20.9678 92.6896 20.9753 92.6746 20.9828C92.6971 20.9678 92.7195 20.9527 92.7422 20.9375ZM81.7267 12.8743C81.8317 12.2946 82.0044 11.7525 82.2445 11.2481C82.6722 10.3672 83.2875 9.6746 84.1054 9.17017C84.9233 8.66575 85.9062 8.40976 87.0542 8.40976C88.0598 8.40976 88.9227 8.64315 89.6281 9.10994C90.3334 9.57673 90.8812 10.2091 91.2639 11.0072C91.5341 11.5794 91.7141 12.1967 91.8041 12.8743H81.7267Z" fill="white"/>
</svg>