<svg width="100" height="100" viewBox="0 0 100 100" fill="none" xmlns="http://www.w3.org/2000/svg">
<path d="M72.9154 83.3327V70.8327H60.4154V64.5827H72.9154V52.0827H79.1654V64.5827H91.6654V70.8327H79.1654V83.3327H72.9154ZM46.8737 70.8327H29.1654C23.4015 70.8327 18.4883 68.8014 14.4258 64.7389C10.3633 60.6764 8.33203 55.7632 8.33203 49.9993C8.33203 44.2355 10.3633 39.3223 14.4258 35.2598C18.4883 31.1973 23.4015 29.166 29.1654 29.166H46.8737V35.416H29.1654C25.1145 35.416 21.6712 36.8315 18.8355 39.6624C15.9998 42.4932 14.582 45.9307 14.582 49.9749C14.582 54.019 15.9998 57.4646 18.8355 60.3118C21.6712 63.1591 25.1145 64.5827 29.1654 64.5827H46.8737V70.8327ZM33.8529 53.1243V46.8743H66.1445V53.1243H33.8529ZM91.6654 49.9993H85.4154C85.4154 45.9716 83.9975 42.5341 81.1619 39.6868C78.3262 36.8396 74.8829 35.416 70.832 35.416H53.1237V29.166H70.832C76.5959 29.166 81.5091 31.1973 85.5716 35.2598C89.6341 39.3223 91.6654 44.2355 91.6654 49.9993Z" fill="white"/>
</svg>
