<svg width="100" height="100" viewBox="0 0 100 100" fill="none" xmlns="http://www.w3.org/2000/svg">
<path d="M64.3001 89L35.8084 78.925L16.4167 86.6167C15.189 87.2667 13.9792 87.2306 12.7876 86.5083C11.5959 85.7861 11.0001 84.7028 11.0001 83.2583V22.8083C11.0001 21.8694 11.2709 21.0389 11.8126 20.3167C12.3542 19.5944 13.0584 19.0528 13.9251 18.6917L35.8084 11L64.3001 20.9667L83.5834 13.275C84.8112 12.6972 86.0209 12.7514 87.2126 13.4375C88.4042 14.1236 89.0001 15.1889 89.0001 16.6333V77.8417C89.0001 78.6361 88.7292 79.3222 88.1876 79.9C87.6459 80.4778 86.9778 80.9111 86.1834 81.2L64.3001 89ZM60.6167 80.875V26.1667L39.3834 19.0167V73.725L60.6167 80.875ZM67.1167 80.875L82.5001 75.7833V20.3167L67.1167 26.1667V80.875ZM17.5001 79.575L32.8834 73.725V19.0167L17.5001 24.1083V79.575Z" fill="white"/>
</svg>
