<svg width="100" height="100" viewBox="0 0 100 100" fill="none" xmlns="http://www.w3.org/2000/svg">
<g id="attach_money_FILL0_wght400_GRAD0_opsz48 1">
<path id="Vector" d="M46.9792 87.5V78.75C43.0209 78.0556 39.7743 76.5451 37.2396 74.2188C34.7049 71.8924 32.882 68.9583 31.7709 65.4167L37.6042 63.0208C38.7848 66.3542 40.4862 68.8368 42.7084 70.4688C44.9306 72.1007 47.6042 72.9167 50.7292 72.9167C54.0625 72.9167 56.8056 72.0833 58.9584 70.4167C61.1112 68.75 62.1875 66.4583 62.1875 63.5417C62.1875 60.4861 61.2327 58.125 59.323 56.4583C57.4132 54.7917 53.8195 53.0903 48.5417 51.3542C43.5417 49.7569 39.8091 47.6389 37.3438 45C34.8785 42.3611 33.6459 39.0625 33.6459 35.1042C33.6459 31.2847 34.8785 28.0903 37.3438 25.5208C39.8091 22.9514 43.0209 21.4931 46.9792 21.1458V12.5H53.2292V21.1458C56.3542 21.4931 59.0452 22.5174 61.3021 24.2188C63.5591 25.9201 65.2778 28.0903 66.4584 30.7292L60.625 33.2292C59.6528 31.0069 58.3507 29.3924 56.7188 28.3854C55.0868 27.3785 52.9514 26.875 50.3125 26.875C47.1181 26.875 44.5834 27.6042 42.7084 29.0625C40.8334 30.5208 39.8959 32.5 39.8959 35C39.8959 37.6389 40.9375 39.7743 43.0209 41.4062C45.1042 43.0382 48.9584 44.7222 54.5834 46.4583C59.3056 47.9167 62.7952 50.0174 65.0521 52.7604C67.3091 55.5035 68.4375 58.9583 68.4375 63.125C68.4375 67.5 67.1528 71.0243 64.5834 73.6979C62.0139 76.3715 58.2292 78.0903 53.2292 78.8542V87.5H46.9792Z" fill="white"/>
</g>
</svg>
