<svg xmlns="http://www.w3.org/2000/svg" width="101" height="100" viewBox="0 0 101 100" fill="none">
  <g clip-path="url(#clip0_14138_4315)">
    <path d="M29.6289 58.3333C36.5456 58.3333 42.1289 52.7499 42.1289 45.8333C42.1289 38.9166 36.5456 33.3333 29.6289 33.3333C22.7122 33.3333 17.1289 38.9166 17.1289 45.8333C17.1289 52.7499 22.7122 58.3333 29.6289 58.3333ZM29.6289 41.6666C31.9206 41.6666 33.7956 43.5416 33.7956 45.8333C33.7956 48.1249 31.9206 49.9999 29.6289 49.9999C27.3372 49.9999 25.4622 48.1249 25.4622 45.8333C25.4622 43.5416 27.3372 41.6666 29.6289 41.6666ZM79.6289 29.1666H46.2956V62.4999H12.9622V20.8333H4.62891V83.3332H12.9622V70.8333H87.9622V83.3332H96.2956V45.8333C96.2956 36.6249 88.8372 29.1666 79.6289 29.1666ZM87.9622 62.4999H54.6289V37.4999H79.6289C84.2122 37.4999 87.9622 41.2499 87.9622 45.8333V62.4999Z" fill="white"/>
  </g>
  <defs>
    <clipPath id="clip0_14138_4315">
      <rect width="100" height="100" fill="white" transform="translate(0.460938)"/>
    </clipPath>
  </defs>
</svg>