<svg xmlns="http://www.w3.org/2000/svg" width="100" height="100" viewBox="0 0 100 100" fill="none">
  <path d="M86.8579 12.9875C78.4809 4.6125 67.3455 0 55.4996 0C34.7371 0 16.7559 14.4625 12.2351 34.5771L5.03092 41.7833C4.35175 42.4604 4.04967 43.4292 4.21842 44.3729C4.38925 45.3167 5.01008 46.1187 5.88092 46.5187L11.4017 49.05C12.1392 56.0292 14.5184 62.7104 18.3559 68.5792L17.5309 69.5437L12.4747 69.0667C11.6059 68.9833 10.7455 69.2937 10.1288 69.9125L0.858004 79.1833C0.149671 79.8917 -0.148246 80.9146 0.0705042 81.8917C0.287171 82.8687 0.991337 83.6687 1.933 84.0104L12.2559 87.7438L15.9913 98.0687C16.333 99.0125 17.1309 99.7146 18.1101 99.9333C18.3205 99.9771 18.5351 100 18.7455 100C19.5142 100 20.2622 99.6958 20.8184 99.1417L30.0892 89.8708C30.7059 89.2542 31.0163 88.3938 30.9351 87.5229L30.458 82.4667L31.458 81.6125C37.308 85.3917 43.9517 87.7333 50.8851 88.4521L53.483 94.1187C53.883 94.9896 54.683 95.6125 55.6267 95.7812C55.7996 95.8125 55.9725 95.8271 56.1455 95.8271C56.9163 95.8271 57.6621 95.5229 58.2163 94.9687L65.6684 87.5167C75.0434 85.3125 83.5454 80.0333 89.7163 72.5542C96.2475 64.6396 99.8434 54.6229 99.8434 44.3458C99.8454 32.5 95.2329 21.3646 86.8579 12.9875ZM93.3517 37.3687H85.5788C83.2246 37.3687 81.3079 35.4479 81.3079 33.0854C81.3079 30.725 83.2225 28.8021 85.5788 28.8021H90.7059C91.9038 31.5104 92.7996 34.3792 93.3517 37.3687ZM28.1559 17.2667H34.7059C37.0601 17.2667 38.9767 19.1875 38.9767 21.55C38.9767 23.9125 37.0601 25.8333 34.7059 25.8333C34.6913 25.8333 34.6746 25.8333 34.6601 25.8333C29.2392 25.8771 24.8205 30.2083 24.6247 35.5979L18.358 34.2229C20.1351 27.6792 23.5726 21.8854 28.1559 17.2667ZM32.3392 52.2021L12.1538 42.9479L15.5059 39.5958L38.7476 44.7L32.3392 52.2021ZM17.7705 51.9687L28.3851 56.8333L22.3497 63.9042C20.1601 60.2042 18.6163 56.1729 17.7705 51.9687ZM24.4788 81.5042L24.9705 86.7021L19.9351 91.7396L17.3017 84.4583C17.0059 83.6396 16.3601 82.9958 15.5434 82.7L8.26217 80.0667L13.2997 75.0312L18.4976 75.5229C19.4497 75.6125 20.3809 75.2333 21.0017 74.5083L50.3767 40.1062C52.3205 37.8312 55.2538 36.6729 58.2246 37.0042L62.5205 37.4854L62.9996 41.7792C63.3309 44.75 62.1725 47.6854 59.8975 49.6271L25.4955 79.0021C24.7684 79.6208 24.3892 80.5542 24.4788 81.5042ZM36.1413 77.6146L43.1663 71.6167L47.9705 82.0937C43.8059 81.2667 39.8121 79.7542 36.1413 77.6146ZM57.0517 87.8458L47.7955 67.6604L55.2996 61.2521L60.4038 84.4937L57.0517 87.8458ZM85.1996 68.825C80.1517 74.9437 73.31 79.3646 65.7371 81.4542L60.3538 56.9396L63.7017 54.0812C67.4559 50.875 69.3704 46.0333 68.8225 41.1271L68.083 34.5062C67.9309 33.1458 66.858 32.0729 65.4975 31.9208L58.8746 31.1812C53.9684 30.6354 49.1267 32.5479 45.9205 36.3021L43.0621 39.65L30.5809 36.9104C30.5121 36.6083 30.4767 36.2958 30.4767 35.9792C30.4767 33.6167 32.3934 31.6958 34.7476 31.6958C34.7621 31.6958 34.7788 31.6958 34.7934 31.6958C40.3392 31.65 44.8392 27.1187 44.8392 21.5542C44.8392 16.2438 40.7413 11.8771 35.5455 11.4479C41.4059 7.88958 48.258 5.8625 55.5017 5.8625C68.808 5.8625 80.5579 12.6521 87.4725 22.9479H85.5788C79.9934 22.9479 75.4496 27.4979 75.4496 33.0917C75.4496 38.6833 79.9934 43.2333 85.5788 43.2333H93.9704C93.9809 43.6042 93.9871 43.9771 93.9871 44.35C93.985 53.2646 90.8642 61.9583 85.1996 68.825Z" fill="white"/>
</svg>