<svg xmlns="http://www.w3.org/2000/svg" width="101" height="100" viewBox="0 0 101 100" fill="none">
  <path d="M41.8289 19.5487C42.0346 19.8377 42.3069 20.073 42.6227 20.2348C42.9384 20.3965 43.2885 20.4799 43.6432 20.478C44.102 20.4815 44.5504 20.3423 44.9266 20.0797C45.1659 19.9121 45.3696 19.6986 45.526 19.4518C45.6824 19.205 45.7883 18.9296 45.8377 18.6416C45.887 18.3536 45.8789 18.0587 45.8136 17.7739C45.7484 17.489 45.6274 17.22 45.4576 16.9822L39.7711 8.97268C39.6026 8.73442 39.3888 8.53169 39.1419 8.37606C38.895 8.22043 38.6199 8.11495 38.3322 8.06564C38.0446 8.01633 37.75 8.02416 37.4654 8.08868C37.1808 8.1532 36.9117 8.27314 36.6734 8.44167C36.4351 8.61019 36.2324 8.82399 36.0768 9.07086C35.9211 9.31774 35.8156 9.59285 35.7663 9.88048C35.717 10.1681 35.7248 10.4627 35.7894 10.7473C35.8539 11.0319 35.9738 11.301 36.1424 11.5393L41.8289 19.5487Z" fill="white" stroke="white"/>
  <path d="M54.1718 19.5044H54.7028C55.2053 19.5203 55.6982 19.3646 56.1004 19.063C56.5026 18.7613 56.7901 18.3318 56.9155 17.8449L59.4379 7.75566C59.5091 7.47382 59.5241 7.18072 59.482 6.89309C59.4399 6.60546 59.3416 6.32894 59.1926 6.07931C59.0436 5.82968 58.847 5.61184 58.6138 5.43821C58.3807 5.26459 58.1156 5.13859 57.8337 5.0674C57.5519 4.99621 57.2588 4.98124 56.9711 5.02332C56.6835 5.06541 56.407 5.16374 56.1573 5.3127C55.9077 5.46165 55.6898 5.65832 55.5162 5.89146C55.3426 6.12461 55.2166 6.38967 55.1454 6.67151L52.5566 16.8272C52.4162 17.3963 52.5074 17.998 52.8103 18.4999C53.1131 19.0019 53.6028 19.3631 54.1718 19.5044Z" fill="white" stroke="white"/>
  <path d="M64.042 24.903C64.3866 24.9078 64.7275 24.832 65.0377 24.6817L73.8883 20.2566C74.1511 20.1273 74.3855 19.9471 74.5781 19.7264C74.7707 19.5057 74.9176 19.249 75.0102 18.9712C75.1029 18.6933 75.1394 18.3998 75.1177 18.1078C75.096 17.8157 75.0166 17.5308 74.884 17.2697C74.7527 17.0059 74.5702 16.771 74.3469 16.5788C74.1237 16.3866 73.8644 16.2408 73.5841 16.1502C73.3038 16.0595 73.0082 16.0257 72.7147 16.0508C72.4212 16.0758 72.1356 16.1592 71.8748 16.2961L63.0242 20.7213C62.5832 20.9471 62.2308 21.3145 62.0234 21.7645C61.8161 22.2144 61.7657 22.721 61.8805 23.203C61.9952 23.6849 62.2685 24.1144 62.6564 24.4227C63.0443 24.7309 63.5244 24.9001 64.0199 24.903H64.042Z" fill="white" stroke="white"/>
  <path d="M90.549 86.4565C90.3984 85.8908 90.0297 85.4079 89.5238 85.1135C89.0178 84.819 88.4158 84.7371 87.8495 84.8856L79.2866 87.0981L75.7906 74.044C79.77 72.4232 83.0239 69.4102 84.9455 65.5672C86.8671 61.7241 87.3252 57.3133 86.2343 53.1574L81.0788 33.9302C81.0044 33.6477 80.8747 33.3828 80.6974 33.1507C80.52 32.9185 80.2984 32.7238 80.0454 32.5778C79.7924 32.4317 79.5129 32.3372 79.2232 32.2997C78.9334 32.2622 78.6391 32.2825 78.3573 32.3593L51.9604 39.528L52.6242 37.0278C52.7734 36.4646 52.6945 35.8652 52.4045 35.3599C52.1145 34.8545 51.6369 34.4839 51.0753 34.3285L21.1381 26.2969C20.8548 26.2204 20.5591 26.2011 20.2682 26.24C19.9773 26.2789 19.697 26.3753 19.4438 26.5235C19.1905 26.6718 18.9692 26.869 18.7929 27.1035C18.6165 27.3381 18.4886 27.6055 18.4166 27.8899L13.2611 47.095C12.1642 51.254 12.6193 55.6701 14.5413 59.518C16.4633 63.366 19.7207 66.3824 23.7048 68.0037L20.2088 80.9915L11.6459 78.7789C11.0934 78.6686 10.5197 78.7732 10.0417 79.0713C9.56364 79.3695 9.21736 79.8387 9.07343 80.3834C8.9295 80.928 8.99876 81.5071 9.26708 82.0024C9.53541 82.4978 9.98258 82.8721 10.5174 83.0491L31.8916 88.7797C32.0819 88.8132 32.2766 88.8132 32.4669 88.7797C33.0537 88.856 33.6468 88.696 34.1157 88.335C34.5846 87.974 34.8909 87.4416 34.9672 86.8548C35.0435 86.2679 34.8835 85.6749 34.5225 85.206C34.1615 84.7371 33.629 84.4308 33.0422 84.3546L24.4792 82.142L27.9531 69.1764C32.2319 69.7842 36.5852 68.8058 40.1923 66.4256C43.7994 64.0454 46.4112 60.4279 47.5351 56.255L48.9954 50.8121L51.9604 62.4059C52.9699 66.1745 55.1963 69.5039 58.2933 71.8767C61.3904 74.2494 65.1847 75.5325 69.0863 75.5264C69.8854 75.5292 70.6838 75.4775 71.4759 75.3715L74.9498 88.3372L66.3868 90.5497C65.8 90.626 65.2675 90.9323 64.9065 91.4012C64.5455 91.87 64.3855 92.4631 64.4618 93.0499C64.5381 93.6367 64.8444 94.1692 65.3133 94.5302C65.7822 94.8912 66.3753 95.0511 66.9621 94.9749C67.1524 95.0083 67.3471 95.0083 67.5374 94.9749L88.9116 89.2443C89.2074 89.178 89.4865 89.0516 89.7314 88.873C89.9764 88.6943 90.182 88.4672 90.3355 88.2058C90.4891 87.9444 90.5872 87.6543 90.6239 87.3533C90.6607 87.0524 90.6351 86.7471 90.549 86.4565ZM22.1117 31.1424L47.7563 38.0235L45.3888 46.8737L18.7706 43.6434L22.1117 31.1424ZM26.9353 64.5079C25.2494 64.0584 23.6687 63.2811 22.2835 62.2203C20.8983 61.1596 19.7358 59.8362 18.8624 58.3258C17.9891 56.8155 17.422 55.1478 17.1936 53.4181C16.9652 51.6885 17.0801 49.9308 17.5315 48.2455V47.9579L44.0833 51.1661L43.1098 55.1266C42.1963 58.5075 39.9839 61.3905 36.9543 63.1477C33.9248 64.9048 30.3237 65.3937 26.9353 64.5079ZM80.7248 49.7943L54.173 53.0025L51.8055 44.1523L77.4501 37.2712L80.7248 49.7943ZM56.3857 61.2775L55.3236 57.317L81.8754 54.1088V54.3965C82.3268 56.0817 82.4417 57.8394 82.2133 59.5691C81.9849 61.2987 81.4179 62.9664 80.5445 64.4768C79.6711 65.9871 78.5086 67.3105 77.1234 68.3713C75.7382 69.432 74.1575 70.2094 72.4716 70.6588C69.0957 71.5182 65.5172 71.0163 62.5079 69.2613C59.4987 67.5064 57.2998 64.6389 56.3857 61.2775Z" fill="white" stroke="white"/>
</svg>