<svg width="29" height="29" viewBox="0 0 29 29" fill="none" xmlns="http://www.w3.org/2000/svg">
<path d="M21.618 3.53968C21.2679 2.25483 20.1638 1.32632 18.7781 1.22668C17.1551 1.10999 14.7556 1 11.4762 1C8.21717 1 5.8272 1.10863 4.20479 1.2245C2.58117 1.34046 1.34046 2.58117 1.2245 4.20479C1.10862 5.82717 1 8.21721 1 11.4762C1 14.7557 1.10999 17.1552 1.22668 18.778C1.32632 20.1638 2.25476 21.2678 3.53952 21.618" stroke="#FFFFFF" stroke-width="2" stroke-linecap="round" stroke-linejoin="round"/>
<path d="M6.93837 9.91765C7.05431 8.29403 8.29501 7.05333 9.91863 6.9374C11.541 6.82153 13.9311 6.71289 17.1901 6.71289C20.449 6.71289 22.8391 6.82153 24.4614 6.9374C26.0851 7.05333 27.3258 8.29403 27.4417 9.91765C27.5576 11.5401 27.6662 13.9301 27.6662 17.1891C27.6662 20.4481 27.5576 22.8381 27.4417 24.4605C27.3258 26.0841 26.0851 27.3248 24.4614 27.4408C22.8391 27.5566 20.449 27.6653 17.1901 27.6653C13.9311 27.6653 11.541 27.5566 9.91863 27.4408C8.29501 27.3248 7.05431 26.0841 6.93837 24.4605C6.8225 22.8381 6.71387 20.4481 6.71387 17.1891C6.71387 13.9301 6.8225 11.5401 6.93837 9.91765Z" stroke="#FFFFFF" stroke-width="2" stroke-linecap="round" stroke-linejoin="round"/>
<path d="M27.5676 22.1976C26.1362 20.8556 25.1041 19.9617 24.3879 19.3758C23.5383 18.6809 22.4183 18.5799 21.5038 19.1899C20.7991 19.6599 19.8311 20.3775 18.5674 21.4621C16.6879 19.6648 15.393 18.5355 14.5429 17.8402C13.6932 17.1452 12.5732 17.0443 11.6587 17.6542C10.6302 18.3402 9.04077 19.5536 6.79004 21.6656" stroke="#FFFFFF" stroke-width="2" stroke-linecap="round" stroke-linejoin="round"/>
<path d="M21.3178 14.9677C22.3698 14.9677 23.2226 14.1149 23.2226 13.063C23.2226 12.011 22.3698 11.1582 21.3178 11.1582C20.2659 11.1582 19.4131 12.011 19.4131 13.063C19.4131 14.1149 20.2659 14.9677 21.3178 14.9677Z" stroke="#FFFFFF" stroke-width="2" stroke-linecap="round" stroke-linejoin="round"/>
</svg>
