<svg width="33" height="28" viewBox="0 0 33 28" fill="none" xmlns="http://www.w3.org/2000/svg">
<path d="M10.7665 18.4114C10.3351 14.8264 14.2036 8.02603 21.0779 8.28601C20.7964 7.05105 20.2572 5.89174 19.4969 4.88622C18.7365 3.88072 17.7727 3.05239 16.6703 2.45709C15.2254 1.65305 13.629 1.16904 11.9864 1.03696C10.3437 0.904876 8.69221 1.12775 7.14063 1.69086C4.19752 2.72678 1.60332 5.30308 1.09468 8.49984C0.937268 9.48914 0.976446 10.5004 1.20991 11.4741C1.78016 13.6124 3.12283 15.4541 4.97053 16.6326C4.63355 17.6314 4.29659 18.6166 3.98656 19.6291C5.11879 19.0271 6.23755 18.4114 7.36978 17.7956C8.46905 18.1571 9.61188 18.3642 10.7665 18.4114Z" stroke="#FFFFFF" stroke-width="2" stroke-linecap="round" stroke-linejoin="round"/>
<path d="M27.2266 12.5502C25.8609 11.8545 24.3538 11.4922 22.8258 11.4922C21.2976 11.4922 19.7907 11.8545 18.4249 12.5502C17.4644 13.0237 16.6178 13.7054 15.9447 14.5469C15.2717 15.3885 14.7886 16.3697 14.5295 17.4212C14.1865 19.0118 14.4669 20.6754 15.3112 22.0597C15.9522 23.067 16.7946 23.9262 17.7838 24.5815C18.773 25.2368 19.887 25.6736 21.0532 25.8635C22.7218 26.1655 24.4376 26.0528 26.0539 25.5352C27.0244 25.9184 27.8871 26.5341 28.8306 26.9992C28.5879 26.1692 28.3274 25.3483 28.0488 24.5364C29.1346 23.8017 30.0239 22.8049 30.6368 21.6356C31.066 20.7935 31.3023 19.864 31.3279 18.9162C31.4019 16.1808 29.682 13.7648 27.2266 12.5502Z" stroke="#FFFFFF" stroke-width="2" stroke-linecap="round" stroke-linejoin="round"/>
<path d="M8.27936 6.99859C8.09325 6.99859 7.94238 6.84544 7.94238 6.65652C7.94238 6.4676 8.09325 6.31445 8.27936 6.31445" stroke="#FFFFFF" stroke-width="2"/>
<path d="M8.28125 6.99859C8.46735 6.99859 8.61821 6.84544 8.61821 6.65652C8.61821 6.4676 8.46735 6.31445 8.28125 6.31445" stroke="#FFFFFF" stroke-width="2"/>
<path d="M13.8731 6.99859C13.687 6.99859 13.5361 6.84544 13.5361 6.65652C13.5361 6.4676 13.687 6.31445 13.8731 6.31445" stroke="#FFFFFF" stroke-width="2"/>
<path d="M13.8768 6.99859C14.0628 6.99859 14.2137 6.84544 14.2137 6.65652C14.2137 6.4676 14.0628 6.31445 13.8768 6.31445" stroke="#FFFFFF" stroke-width="2"/>
<path d="M20.6319 16.7739C20.4459 16.7739 20.2949 16.6208 20.2949 16.4318C20.2949 16.243 20.4459 16.0898 20.6319 16.0898" stroke="#FFFFFF" stroke-width="2"/>
<path d="M20.6318 16.7739C20.8179 16.7739 20.9687 16.6208 20.9687 16.4318C20.9687 16.243 20.8179 16.0898 20.6318 16.0898" stroke="#FFFFFF" stroke-width="2"/>
<path d="M25.5206 16.7739C25.3345 16.7739 25.1836 16.6208 25.1836 16.4318C25.1836 16.243 25.3345 16.0898 25.5206 16.0898" stroke="#FFFFFF" stroke-width="2"/>
<path d="M25.5205 16.7739C25.7066 16.7739 25.8575 16.6208 25.8575 16.4318C25.8575 16.243 25.7066 16.0898 25.5205 16.0898" stroke="#FFFFFF" stroke-width="2"/>
<circle cx="26.9955" cy="6.41545" r="3.99943" fill="#7440F5" stroke="black" stroke-width="1.5"/>
</svg>
