<svg width="12" height="12" viewBox="3 3 11 11"   xmlns="http://www.w3.org/2000/svg">
<path d="M4.29194 4.02925C4.55229 3.7689 4.9744 3.7689 5.23475 4.02925L8.76335 7.55784L12.2919 4.02925C12.5523 3.7689 12.9744 3.7689 13.2347 4.02925C13.4951 4.2896 13.4951 4.71171 13.2347 4.97206L9.70615 8.50065L13.2347 12.0292C13.4951 12.2896 13.4951 12.7117 13.2347 12.9721C12.9744 13.2324 12.5523 13.2324 12.2919 12.9721L8.76335 9.44346L5.23475 12.9721C4.9744 13.2324 4.55229 13.2324 4.29194 12.9721C4.03159 12.7117 4.03159 12.2896 4.29194 12.0292L7.82054 8.50065L4.29194 4.97206C4.03159 4.71171 4.03159 4.2896 4.29194 4.02925Z" fill="#f00"  />
</svg>
