<svg width="33" height="33" viewBox="0 0 33 33" fill="none" xmlns="http://www.w3.org/2000/svg">
<path d="M11.166 2V7.89036" stroke="#B3B9BF" stroke-width="2.5" stroke-linecap="round"/>
<path d="M21.8192 2V7.89036" stroke="#B3B9BF" stroke-width="2.5" stroke-linecap="round"/>
<path d="M2.46969 24.6793C2.85284 28.0181 5.63117 30.6694 9.06679 30.8311C11.4414 30.9427 13.8672 31.0007 16.5 31.0007C19.1328 31.0007 21.5585 30.9427 23.9332 30.8311C27.3687 30.6694 30.1472 28.0181 30.5303 24.6793C30.7884 22.4305 31 20.1252 31 17.7767C31 15.4283 30.7884 13.123 30.5303 10.8744C30.1472 7.53531 27.3687 4.88414 23.9332 4.72252C21.5586 4.6108 19.1328 4.55273 16.5 4.55273C13.8672 4.55273 11.4414 4.6108 9.06679 4.72252C5.63117 4.88414 2.85284 7.53531 2.46969 10.8744C2.21168 13.123 2 15.4283 2 17.7767C2 20.1252 2.21168 22.4305 2.46969 24.6793Z" stroke="#B3B9BF" stroke-width="2.5"/>
<path d="M9.37598 14.2891H10.5634" stroke="#B3B9BF" stroke-width="2.5" stroke-linecap="round" stroke-linejoin="round"/>
<path d="M9.37598 21.2539H10.5634" stroke="#B3B9BF" stroke-width="2.5" stroke-linecap="round" stroke-linejoin="round"/>
<path d="M15.9053 14.2891H17.0927" stroke="#B3B9BF" stroke-width="2.5" stroke-linecap="round" stroke-linejoin="round"/>
<path d="M22.4365 14.2891H23.6239" stroke="#B3B9BF" stroke-width="2.5" stroke-linecap="round" stroke-linejoin="round"/>
<path d="M15.9053 21.2539H17.0927" stroke="#B3B9BF" stroke-width="2.5" stroke-linecap="round" stroke-linejoin="round"/>
</svg>
