<svg width="30" height="29" viewBox="0 0 30 29" fill="none" xmlns="http://www.w3.org/2000/svg">
<path d="M3.75293 6.06844C7.60306 4.06836 12.5024 2.22435 17.0731 1.09961C18.4101 0.770599 19.7919 1.26542 20.4873 2.45377C20.984 3.30242 21.5902 4.46596 22.2312 5.98723" stroke="#FFFFFF" stroke-width="2" stroke-linecap="round" stroke-linejoin="round"/>
<path d="M17.812 18.7154C17.8729 20.0888 18.932 21.1126 20.3057 21.1676C21.0052 21.1957 21.8755 21.216 22.9307 21.216C23.986 21.216 24.8563 21.1957 25.5558 21.1677C26.9295 21.1126 27.9885 20.0888 28.0494 18.7154C28.0742 18.1561 28.091 17.4871 28.091 16.7008C28.091 15.9144 28.0742 15.2454 28.0494 14.6861C27.9885 13.3127 26.9295 12.2889 25.5558 12.2338C24.8563 12.2058 23.986 12.1855 22.9307 12.1855C21.8755 12.1855 21.0052 12.2058 20.3057 12.2338C18.932 12.2889 17.8729 13.3127 17.812 14.6861C17.7873 15.2454 17.7705 15.9144 17.7705 16.7008C17.7705 17.4871 17.7873 18.1561 17.812 18.7154Z" stroke="#FFFFFF" stroke-width="2" stroke-linecap="round" stroke-linejoin="round"/>
<path d="M25.4297 12.228C25.3793 10.9277 25.3109 9.85489 25.2409 8.995C25.1069 7.34946 23.8292 6.11127 22.1821 5.99729C20.2862 5.86615 17.36 5.73438 13.2556 5.73438C9.15111 5.73438 6.22493 5.86615 4.32896 5.99729C2.68193 6.11127 1.40418 7.34946 1.2702 8.995C1.13184 10.6943 1 13.2252 1 16.6999C1 20.1745 1.13184 22.7054 1.2702 24.4047C1.40418 26.0503 2.68193 27.2885 4.32896 27.4025C6.22493 27.5336 9.15111 27.6654 13.2556 27.6654C17.3599 27.6654 20.2862 27.5336 22.1821 27.4025C23.8292 27.2885 25.1069 26.0503 25.2409 24.4047C25.3109 23.5449 25.3793 22.472 25.4297 21.1717" stroke="#FFFFFF" stroke-width="2" stroke-linecap="round" stroke-linejoin="round"/>
<path d="M22.2861 16.0566V17.3467" stroke="#FFFFFF" stroke-width="2" stroke-linecap="round" stroke-linejoin="round"/>
</svg>
