<svg width="32" height="34" viewBox="0 0 32 34" fill="none" xmlns="http://www.w3.org/2000/svg">
<path d="M23.7342 3.17478C21.3161 1.7447 18.6477 1 15.9422 1C13.2364 1 10.5683 1.7447 8.14992 3.17478C6.44931 4.14803 4.95031 5.54929 3.75864 7.27911C2.56696 9.00894 1.71163 11.0258 1.25279 13.1873C0.645571 16.4568 1.14204 19.8763 2.63696 22.7218C3.77182 24.7923 5.26339 26.5583 7.01482 27.9053C8.76625 29.2523 10.7387 30.1502 12.8037 30.5406C15.7581 31.1613 18.7961 30.9296 21.6579 29.8657C23.3763 30.6533 24.9038 31.919 26.5742 32.875C26.1446 31.1689 25.6834 29.4815 25.19 27.8127C27.1126 26.3024 28.6871 24.2536 29.7724 21.85C30.5323 20.119 30.9506 18.2084 30.9959 16.2602C31.1271 10.6376 28.0818 5.67134 23.7342 3.17478Z" fill="black" fill-opacity="0.7" stroke="white" stroke-width="2" stroke-linecap="round" stroke-linejoin="round"/>
<path d="M16 24.25C20.4183 24.25 24 20.6683 24 16.25C24 11.8317 20.4183 8.25 16 8.25C11.5817 8.25 8 11.8317 8 16.25C8 20.6683 11.5817 24.25 16 24.25Z" fill="black" fill-opacity="0.7" stroke="white" stroke-width="1.75" stroke-linecap="round" stroke-linejoin="round"/>
<path d="M11.9385 17.4824C12.5539 19.6978 15.0154 21.0517 17.2308 20.4363C18.5846 19.944 19.6923 18.8363 20.0616 17.4824" fill="black" fill-opacity="0.7"/>
<path d="M11.9385 17.4824C12.5539 19.6978 15.0154 21.0517 17.2308 20.4363C18.5846 19.944 19.6923 18.8363 20.0616 17.4824" stroke="white" stroke-width="1.75" stroke-linecap="round" stroke-linejoin="round"/>
<path d="M13.2921 14.3419C13.1221 14.3419 12.9844 14.2042 12.9844 14.0343C12.9844 13.8643 13.1221 13.7266 13.2921 13.7266" fill="black" fill-opacity="0.7"/>
<path d="M13.2921 14.3419C13.1221 14.3419 12.9844 14.2042 12.9844 14.0343C12.9844 13.8643 13.1221 13.7266 13.2921 13.7266" stroke="white" stroke-width="1.75" stroke-linecap="round" stroke-linejoin="round"/>
<path d="M13.292 14.3419C13.4619 14.3419 13.5997 14.2042 13.5997 14.0343C13.5997 13.8643 13.4619 13.7266 13.292 13.7266" fill="black" fill-opacity="0.7"/>
<path d="M13.292 14.3419C13.4619 14.3419 13.5997 14.2042 13.5997 14.0343C13.5997 13.8643 13.4619 13.7266 13.292 13.7266" stroke="white" stroke-width="1.75" stroke-linecap="round" stroke-linejoin="round"/>
<path d="M18.7071 14.3419C18.5372 14.3419 18.3994 14.2042 18.3994 14.0343C18.3994 13.8643 18.5372 13.7266 18.7071 13.7266" fill="black" fill-opacity="0.7"/>
<path d="M18.7071 14.3419C18.5372 14.3419 18.3994 14.2042 18.3994 14.0343C18.3994 13.8643 18.5372 13.7266 18.7071 13.7266" stroke="white" stroke-width="1.75" stroke-linecap="round" stroke-linejoin="round"/>
<path d="M18.707 14.3419C18.877 14.3419 19.0147 14.2042 19.0147 14.0343C19.0147 13.8643 18.877 13.7266 18.707 13.7266" fill="black" fill-opacity="0.7"/>
<path d="M18.707 14.3419C18.877 14.3419 19.0147 14.2042 19.0147 14.0343C19.0147 13.8643 18.877 13.7266 18.707 13.7266" stroke="white" stroke-width="1.75" stroke-linecap="round" stroke-linejoin="round"/>
</svg>
