<svg width="29" height="29" viewBox="0 0 29 29" fill="none" xmlns="http://www.w3.org/2000/svg">
<path d="M4.70312 6.18518C4.70313 7.56038 5.24942 8.87925 6.22183 9.85166C7.19424 10.8241 8.51311 11.3704 9.88831 11.3704C11.2635 11.3704 12.5824 10.8241 13.5548 9.85166C14.5272 8.87925 15.0735 7.56038 15.0735 6.18518C15.0735 4.80999 14.5272 3.49112 13.5548 2.51871C12.5824 1.54629 11.2635 1 9.88831 1C8.51311 1 7.19424 1.54629 6.22183 2.51871C5.24942 3.49112 4.70313 4.80999 4.70312 6.18518Z" stroke="#FFFFFF" stroke-width="2" stroke-linecap="round" stroke-linejoin="round"/>
<path d="M18.7778 27.6663V24.7033C18.7778 22.3459 17.8413 20.0849 16.1743 18.4179C14.5073 16.751 12.2464 15.8145 9.88889 15.8145C7.53141 15.8145 5.27048 16.751 3.60349 18.4179C1.9365 20.0849 1 22.3459 1 24.7033V27.6663H18.7778Z" stroke="#FFFFFF" stroke-width="2" stroke-linecap="round" stroke-linejoin="round"/>
<path d="M22.0173 2.13477C22.6777 2.66345 23.1989 3.34562 23.5353 4.12184C23.8718 4.89806 24.0133 5.74478 23.9475 6.58822C23.8818 7.43166 23.6108 8.24623 23.1582 8.96095C22.7055 9.67568 22.085 10.2689 21.3506 10.6888" stroke="#FFFFFF" stroke-width="2" stroke-linecap="round" stroke-linejoin="round"/>
<path d="M24.7037 27.6667H27.6666V24.7038C27.667 23.1687 27.2699 21.6596 26.5139 20.3236C25.7579 18.9876 24.6687 17.8701 23.3525 17.0801" stroke="#FFFFFF" stroke-width="2" stroke-linecap="round" stroke-linejoin="round"/>
</svg>
