<svg width="22" height="22" viewBox="0 0 22 22" fill="none" xmlns="http://www.w3.org/2000/svg">
<path d="M7.92331 7.78607C9.83499 7.78607 11.3847 6.23635 11.3847 4.32468C11.3847 2.413 9.83499 0.863281 7.92331 0.863281C6.01163 0.863281 4.46191 2.413 4.46191 4.32468C4.46191 6.23635 6.01163 7.78607 7.92331 7.78607Z" stroke="#7440F5" stroke-width="1.31684" stroke-linecap="round" stroke-linejoin="round"/>
<path d="M7.15359 19.3257H1V17.0181C1.01225 15.8455 1.32149 14.6951 1.89884 13.6745C2.4762 12.6538 3.30283 11.7961 4.30152 11.1816C5.30021 10.567 6.43837 10.2156 7.6097 10.1601C8.78103 10.1047 9.94731 10.347 10.9996 10.8645" stroke="#7440F5" stroke-width="1.31684" stroke-linecap="round" stroke-linejoin="round"/>
<path d="M16.3848 11.6328V20.8632" stroke="#7440F5" stroke-width="1.31684" stroke-linecap="round" stroke-linejoin="round"/>
<path d="M11.7695 16.248H20.9999" stroke="#7440F5" stroke-width="1.31684" stroke-linecap="round" stroke-linejoin="round"/>
</svg>
