<svg width="29" height="29" viewBox="0 0 29 29" fill="none" xmlns="http://www.w3.org/2000/svg">
<path d="M27.6667 14.3333C27.6667 16.9704 26.8847 19.5483 25.4196 21.741C23.9546 23.9336 21.8722 25.6426 19.4358 26.6517C16.9994 27.6609 14.3185 27.9249 11.7321 27.4105C9.14573 26.8961 6.76995 25.6262 4.90525 23.7615C3.04055 21.8967 1.77067 19.521 1.2562 16.9346C0.741732 14.3482 1.00578 11.6672 2.01495 9.23089C3.02412 6.79454 4.73309 4.71216 6.92574 3.24708C9.1184 1.78199 11.6963 1 14.3333 1" stroke="white" stroke-width="2" stroke-miterlimit="10" stroke-linecap="round"/>
<path d="M4.83496 15.8419C5.16134 15.6194 5.50226 15.4191 5.85541 15.2422" stroke="white" stroke-width="2" stroke-miterlimit="10" stroke-linecap="round"/>
<path d="M8.12109 14.4611C12.965 13.5354 15.8331 17.9455 20.3558 18.6862" stroke="white" stroke-width="2" stroke-miterlimit="10" stroke-linecap="round" stroke-dasharray="3.38 3.38"/>
<path d="M21.5518 18.7887C21.9482 18.7921 22.3443 18.7667 22.7369 18.7129" stroke="white" stroke-width="2" stroke-miterlimit="10" stroke-linecap="round"/>
<path d="M22.3333 1C23.7479 1 25.1044 1.56191 26.1046 2.5621C27.1048 3.56229 27.6667 4.91885 27.6667 6.33334C27.6667 8.61008 24.4809 12.9431 23.0338 14.7932C22.9507 14.8996 22.8444 14.9857 22.723 15.0448C22.6017 15.1041 22.4683 15.1348 22.3333 15.1348C22.1983 15.1348 22.065 15.1041 21.9436 15.0448C21.8223 14.9857 21.716 14.8996 21.6329 14.7932C20.1858 12.9419 17 8.61008 17 6.33334C17 4.91885 17.5619 3.56229 18.5621 2.5621C19.5623 1.56191 20.9188 1 22.3333 1Z" stroke="white" stroke-width="2" stroke-linecap="round" stroke-linejoin="round"/>
<path d="M22.3341 6.77756C22.0886 6.77756 21.8896 6.57858 21.8896 6.33312C21.8896 6.08765 22.0886 5.88867 22.3341 5.88867" stroke="white" stroke-width="2"/>
<path d="M22.333 6.77756C22.5785 6.77756 22.7775 6.57858 22.7775 6.33312C22.7775 6.08765 22.5785 5.88867 22.333 5.88867" stroke="white" stroke-width="2"/>
</svg>
