<svg width="30" height="30" viewBox="0 0 30 30" fill="none" xmlns="http://www.w3.org/2000/svg">
<path d="M6.5997 1C8.08483 1 9.50915 1.58997 10.5593 2.64012C11.6094 3.69026 12.1994 5.11457 12.1994 6.5997C12.1994 8.99015 8.85452 13.5384 7.33513 15.4821C7.24784 15.5938 7.13625 15.6842 7.00882 15.7463C6.88139 15.8085 6.74148 15.8407 6.5997 15.8407C6.45793 15.8407 6.31801 15.8085 6.19059 15.7463C6.06315 15.6842 5.95157 15.5938 5.86428 15.4821C4.34489 13.5396 1 8.99015 1 6.5997C1 5.11457 1.58997 3.69026 2.64012 2.64012C3.69026 1.58997 5.11458 1 6.5997 1Z" stroke="white" stroke-width="2" stroke-linecap="round" stroke-linejoin="round"/>
<path d="M23.4005 14.1582C24.8857 14.1582 26.31 14.7482 27.3601 15.7983C28.4102 16.8484 29.0002 18.2727 29.0002 19.7579C29.0002 22.1484 25.6553 26.6966 24.1359 28.6403C24.0487 28.752 23.9371 28.8424 23.8096 28.9045C23.6822 28.9667 23.5422 28.9989 23.4005 28.9989C23.2588 28.9989 23.1188 28.9667 22.9913 28.9045C22.8639 28.8424 22.7523 28.752 22.6651 28.6403C21.1457 26.6966 17.8008 22.1484 17.8008 19.7579C17.8008 18.2727 18.3907 16.8484 19.4409 15.7983C20.491 14.7482 21.9153 14.1582 23.4005 14.1582Z" stroke="white" stroke-width="2" stroke-linecap="round" stroke-linejoin="round"/>
<path d="M6.59961 19.666V23.3992" stroke="white" stroke-width="2" stroke-linecap="round" stroke-linejoin="round"/>
<path d="M6.59961 27.1328C6.59961 27.6278 6.79627 28.1027 7.14631 28.4527C7.49636 28.8028 7.97114 28.9994 8.46618 28.9994H10.3327" stroke="white" stroke-width="2" stroke-linecap="round" stroke-linejoin="round"/>
<path d="M14.0664 29H15.933" stroke="white" stroke-width="2" stroke-linecap="round" stroke-linejoin="round"/>
<path d="M6.59945 7.0661C6.34173 7.0661 6.13281 6.85718 6.13281 6.59945C6.13281 6.34173 6.34173 6.13281 6.59945 6.13281" stroke="white" stroke-width="2"/>
<path d="M6.59961 7.0661C6.85733 7.0661 7.06625 6.85718 7.06625 6.59945C7.06625 6.34173 6.85733 6.13281 6.59961 6.13281" stroke="white" stroke-width="2"/>
<path d="M23.4002 20.2282C23.1425 20.2282 22.9336 20.0193 22.9336 19.7616C22.9336 19.5039 23.1425 19.2949 23.4002 19.2949" stroke="white" stroke-width="2"/>
<path d="M23.4004 20.2282C23.6581 20.2282 23.867 20.0193 23.867 19.7616C23.867 19.5039 23.6581 19.2949 23.4004 19.2949" stroke="white" stroke-width="2"/>
</svg>
