<svg width="18" height="23" viewBox="0 0 18 23" fill="none" xmlns="http://www.w3.org/2000/svg">
<path d="M16.482 8.86133C16.482 13.0113 8.98475 21.3613 8.98475 21.3613C8.98475 21.3613 1.48755 13.0113 1.48755 8.86133C1.48755 6.8722 2.27743 4.96455 3.68343 3.55803C5.08943 2.1515 6.99637 1.36133 8.98475 1.36133C10.9731 1.36133 12.8801 2.1515 14.2861 3.55803C15.6921 4.96455 16.482 6.8722 16.482 8.86133Z" stroke="white" stroke-width="2" stroke-linecap="round" stroke-linejoin="round"/>
<path d="M8.9893 11.3652C10.3695 11.3652 11.4884 10.2459 11.4884 8.86523C11.4884 7.48452 10.3695 6.36523 8.9893 6.36523C7.6091 6.36523 6.49023 7.48452 6.49023 8.86523C6.49023 10.2459 7.6091 11.3652 8.9893 11.3652Z" stroke="white" stroke-width="2" stroke-linecap="round" stroke-linejoin="round"/>
</svg>
