<svg width="22" height="23" viewBox="0 0 22 23" fill="none" xmlns="http://www.w3.org/2000/svg">
<path d="M2.81201 17.5472C4.65241 20.0067 7.58871 21.5984 10.8968 21.5984C16.4701 21.5984 20.9881 17.0804 20.9881 11.5071C20.9881 6.67676 17.5943 2.63903 13.061 1.64844" stroke="white" stroke-width="1.44179" stroke-linecap="round" stroke-linejoin="round"/>
<path d="M0.805664 11.5068C0.805664 12.6168 0.984862 13.6849 1.3159 14.6838" stroke="white" stroke-width="1.44179" stroke-linecap="round" stroke-linejoin="round"/>
<path d="M1.4458 7.9623C1.8455 6.89722 2.4201 5.91766 3.13459 5.05859" stroke="white" stroke-width="1.44179" stroke-linecap="round" stroke-linejoin="round"/>
<path d="M5.84961 2.76718C6.90048 2.15902 8.07119 1.73494 9.31764 1.53906" stroke="white" stroke-width="1.44179" stroke-linecap="round" stroke-linejoin="round"/>
<path d="M14.8957 15.808C14.8957 13.9468 13.327 12.5352 10.8971 12.5352C8.46708 12.5352 6.89844 13.9468 6.89844 15.808" stroke="white" stroke-width="1.44179" stroke-linecap="round"/>
<path d="M10.8969 12.535C12.6764 12.535 14.119 11.0924 14.119 9.31292C14.119 7.5334 12.6764 6.09082 10.8969 6.09082C9.11739 6.09082 7.6748 7.5334 7.6748 9.31292C7.6748 11.0924 9.11739 12.535 10.8969 12.535Z" stroke="white" stroke-width="1.44179" stroke-linecap="round" stroke-linejoin="round"/>
</svg>
