<svg width="32" height="32" viewBox="0 0 32 32" fill="none" xmlns="http://www.w3.org/2000/svg">
<path d="M27.4942 11.0429C26.9881 5.36274 22.0468 1 16.1197 1C10.1926 1 5.25133 5.36274 4.74515 11.0429L4.38653 15.0671C4.22644 16.8635 3.63014 18.5988 2.64564 20.1332L1.54444 21.8494C0.438657 23.5728 1.04182 25.3531 3.12895 25.6201C5.51545 25.9254 9.50064 26.1991 16.1197 26.1991C22.7387 26.1991 26.724 25.9254 29.1104 25.6201C31.1976 25.3531 31.8007 23.5728 30.6949 21.8494L29.5937 20.1332C28.6093 18.5988 28.013 16.8635 27.8529 15.0671L27.4942 11.0429Z" stroke="white" stroke-width="1.5" stroke-linecap="round" stroke-linejoin="round"/>
<path d="M27.4942 11.0429C26.9881 5.36274 22.0468 1 16.1197 1C10.1926 1 5.25133 5.36274 4.74515 11.0429L4.38653 15.0671C4.22644 16.8635 3.63015 18.5988 2.64564 20.1332L1.54444 21.8494C0.438657 23.5728 1.04182 25.3531 3.12895 25.6201C5.51544 25.9254 9.50066 26.1991 16.1197 26.1991C22.7388 26.1991 26.7239 25.9254 29.1104 25.6201C31.1976 25.3531 31.8008 23.5728 30.6949 21.8494L29.5938 20.1332C28.6093 18.5988 28.013 16.8635 27.8529 15.0671L27.4942 11.0429Z" stroke="white" stroke-width="1.5" stroke-linecap="round" stroke-linejoin="round"/>
<path d="M27.4942 11.0429C26.9881 5.36274 22.0468 1 16.1197 1C10.1926 1 5.25133 5.36274 4.74515 11.0429L4.38653 15.0671C4.22644 16.8635 3.63014 18.5988 2.64564 20.1332L1.54444 21.8494C0.438657 23.5728 1.04182 25.3531 3.12895 25.6201C5.51545 25.9254 9.50064 26.1991 16.1197 26.1991C22.7387 26.1991 26.724 25.9254 29.1104 25.6201C31.1976 25.3531 31.8007 23.5728 30.6949 21.8494L29.5937 20.1332C28.6093 18.5988 28.013 16.8635 27.8529 15.0671L27.4942 11.0429Z" stroke="white" stroke-width="1.5" stroke-linecap="round" stroke-linejoin="round"/>
<path d="M27.4942 11.0429C26.9881 5.36274 22.0468 1 16.1197 1C10.1926 1 5.25133 5.36274 4.74515 11.0429L4.38653 15.0671C4.22644 16.8635 3.63015 18.5988 2.64564 20.1332L1.54444 21.8494C0.438657 23.5728 1.04182 25.3531 3.12895 25.6201C5.51544 25.9254 9.50066 26.1991 16.1197 26.1991C22.7388 26.1991 26.7239 25.9254 29.1104 25.6201C31.1976 25.3531 31.8008 23.5728 30.6949 21.8494L29.5938 20.1332C28.6093 18.5988 28.013 16.8635 27.8529 15.0671L27.4942 11.0429Z" stroke="white" stroke-width="1.5" stroke-linecap="round" stroke-linejoin="round"/>
<path d="M10.1633 26.1133C10.4907 28.9969 13.0308 31.2409 16.116 31.2409C19.2011 31.2409 21.7414 28.9969 22.0687 26.1133" stroke="white" stroke-width="1.5" stroke-linecap="round" stroke-linejoin="round"/>
</svg>
