<svg width="37" height="38" viewBox="0 0 37 38" fill="none" xmlns="http://www.w3.org/2000/svg">
<path d="M25.728 1.39536C26.4766 0.646858 27.6901 0.646858 28.4386 1.39536L36.1053 9.06203C36.8538 9.81054 36.8538 11.0241 36.1053 11.7726L11.1886 36.6893C10.8292 37.0487 10.3417 37.2507 9.83333 37.2507H2.16667C1.10812 37.2507 0.25 36.3925 0.25 35.334V27.6673C0.25 27.159 0.451934 26.6715 0.811379 26.312L19.9776 7.14576L25.728 1.39536ZM21.3333 11.2112L4.08333 28.4612V33.4173H9.03942L26.2894 16.1673L21.3333 11.2112ZM29 13.4567L32.0394 10.4173L27.0833 5.46123L24.0439 8.50065L29 13.4567Z" fill="white"/>
</svg>
