<svg width="33" height="26" viewBox="0 0 33 26" fill="none" xmlns="http://www.w3.org/2000/svg">
<path d="M25.7895 2.02311L7.91569 11.0563L5.14334 8.96461L2.17144 10.2737C1.94179 10.3885 1.74411 10.5583 1.596 10.7681C1.44789 10.9778 1.35397 11.2209 1.32258 11.4758C1.2912 11.7306 1.32334 11.9892 1.41614 12.2286C1.50893 12.468 1.65951 12.6808 1.85444 12.8479L7.50812 17.6595C7.97008 18.0558 8.53848 18.3074 9.14245 18.3829C9.74643 18.4584 10.3593 18.3545 10.9046 18.0841L16.0276 15.5367V23.4434C16.0239 23.7068 16.0881 23.9666 16.2139 24.198C16.3397 24.4294 16.5229 24.6245 16.7459 24.7647C16.9689 24.9048 17.2242 24.9852 17.4872 24.9982C17.7503 25.0112 18.0123 24.9563 18.248 24.8388L20.91 23.5184C21.1139 23.417 21.2931 23.272 21.435 23.0938C21.5768 22.9155 21.6778 22.7083 21.7308 22.4867L24.3772 11.3945L29.2468 8.97876C29.7035 8.75175 30.1111 8.43701 30.4461 8.0525C30.7812 7.668 31.0373 7.22126 31.1997 6.73779C31.3621 6.25432 31.4277 5.7436 31.3928 5.23478C31.3578 4.72595 31.223 4.229 30.996 3.77228C30.769 3.31557 30.4542 2.90804 30.0697 2.57296C29.6852 2.23789 29.2385 1.98183 28.755 1.8194C28.2716 1.65698 27.7608 1.59137 27.252 1.62632C26.7432 1.66127 26.2462 1.7961 25.7895 2.02311V2.02311Z" stroke="white" stroke-width="2" stroke-linecap="round" stroke-linejoin="round"/>
<path d="M21.1521 4.36073L14.8401 1.16369C14.6243 1.05604 14.3864 1 14.1452 1C13.904 1 13.6661 1.05604 13.4503 1.16369L10.8335 2.45581C10.5972 2.57426 10.3949 2.75094 10.2457 2.9692C10.0966 3.18746 10.0054 3.44011 9.98094 3.70333C9.95645 3.96656 9.99938 4.23169 10.1057 4.47372C10.212 4.71576 10.3783 4.92673 10.5887 5.08675L14.2301 7.85356" stroke="white" stroke-width="2" stroke-linecap="round" stroke-linejoin="round"/>
</svg>
