<svg width="23" height="25" viewBox="0 0 23 25" fill="none" xmlns="http://www.w3.org/2000/svg">
<path fill-rule="evenodd" clip-rule="evenodd" d="M12.4624 1.2099C12.2669 1.01059 12.0003 0.898438 11.7221 0.898438C11.444 0.898438 11.1774 1.01059 10.9818 1.2099L5.43367 6.86389C5.02935 7.27593 5.03302 7.94026 5.44187 8.34773C5.85073 8.7552 6.50994 8.7515 6.91426 8.33946L10.668 4.51416L10.668 16.9242C10.668 17.5037 11.1341 17.9735 11.7091 17.9735C12.2841 17.9735 12.7503 17.5037 12.7503 16.9242V4.48764L16.53 8.33946C16.9343 8.7515 17.5935 8.7552 18.0024 8.34773C18.4113 7.94026 18.4149 7.27593 18.0106 6.86389L12.4624 1.2099ZM2.81277 13.7303C3.36679 13.7065 3.80866 13.2463 3.80866 12.6821C3.80866 12.1026 3.34252 11.6328 2.76751 11.6328C2.33861 11.6328 1.87845 11.7424 1.49315 11.9965C1.10877 12.25 0.730469 12.7086 0.730469 13.3389V23.1918C0.730469 23.8221 1.10877 24.2807 1.49315 24.5342C1.87845 24.7884 2.33861 24.8979 2.76751 24.8979H20.6934C21.1223 24.8979 21.5825 24.7884 21.9678 24.5342C22.3522 24.2807 22.7305 23.8221 22.7305 23.1918V13.3389C22.7305 12.7086 22.3522 12.2501 21.9678 11.9965C21.5825 11.7424 21.1223 11.6328 20.6934 11.6328C20.1184 11.6328 19.6523 12.1026 19.6523 12.6821C19.6523 13.2463 20.0942 13.7065 20.6482 13.7303V22.7994H2.81277V13.7303Z" fill="white"/>
</svg>
