<svg width="30" height="31" viewBox="0 0 30 31" fill="none" xmlns="http://www.w3.org/2000/svg">
<circle cx="15" cy="15.8105" r="15" fill="white" fill-opacity="0.2"/>
<path fill-rule="evenodd" clip-rule="evenodd" d="M15.4093 9.40701C15.3013 9.29779 15.154 9.23633 15.0004 9.23633C14.8468 9.23633 14.6996 9.29779 14.5916 9.40701L11.5275 12.5055C11.3042 12.7313 11.3062 13.0953 11.532 13.3186C11.7578 13.5419 12.1219 13.5399 12.3452 13.3141L14.4121 11.224L14.4121 18.0223C14.4121 18.3399 14.6695 18.5973 14.9871 18.5973C15.3047 18.5973 15.5621 18.3399 15.5621 18.0223V11.197L17.6557 13.3141C17.879 13.5399 18.243 13.5419 18.4688 13.3186C18.6946 13.0953 18.6967 12.7313 18.4734 12.5055L15.4093 9.40701ZM10.0758 16.2667C10.3817 16.2536 10.6258 16.0014 10.6258 15.6922C10.6258 15.3746 10.3683 15.1172 10.0508 15.1172C9.81391 15.1172 9.55978 15.1772 9.34699 15.3165C9.1347 15.4554 8.92578 15.7067 8.92578 16.0522V21.4516C8.92578 21.797 9.1347 22.0484 9.34699 22.1873C9.55978 22.3266 9.81391 22.3866 10.0508 22.3866H19.9508C20.1876 22.3866 20.4418 22.3266 20.6546 22.1873C20.8669 22.0484 21.0758 21.797 21.0758 21.4516V16.0522C21.0758 15.7067 20.8669 15.4554 20.6546 15.3165C20.4418 15.1772 20.1876 15.1172 19.9508 15.1172C19.6332 15.1172 19.3758 15.3746 19.3758 15.6922C19.3758 16.0014 19.6198 16.2536 19.9258 16.2667V21.2366H10.0758V16.2667Z" fill="white"/>
</svg>
