<svg width="28" height="23" viewBox="0 0 28 23" fill="none" xmlns="http://www.w3.org/2000/svg">
<path d="M3.26978 7.97186C3.26978 6.25554 3.34658 4.91115 3.44194 3.90339C3.57976 2.4469 4.76226 1.41952 6.22357 1.3498C7.95559 1.26718 10.072 1.18262 13.8964 1.18262C17.7208 1.18262 19.8372 1.26718 21.5693 1.3498C23.0306 1.41952 24.2131 2.4469 24.3509 3.90339C24.4463 4.91115 24.5231 6.25554 24.5231 7.97186" stroke="white" stroke-width="2" stroke-linecap="round" stroke-linejoin="round"/>
<path d="M9.17114 7.67938C9.17114 7.2196 9.18342 6.82122 9.20226 6.48058C9.25627 5.50258 10.0399 4.81031 11.0187 4.77447C11.7246 4.74862 12.6743 4.72754 13.8941 4.72754C15.1139 4.72754 16.0636 4.74862 16.7695 4.77447C17.7483 4.81031 18.5319 5.50258 18.5859 6.48058C18.6048 6.82122 18.617 7.2196 18.617 7.67938" stroke="white" stroke-width="2" stroke-linecap="round" stroke-linejoin="round"/>
<path d="M4.82759 10.1353C3.1333 10.1793 1.67011 11.2149 1.5448 12.9051C1.51683 13.2824 1.5 13.7026 1.5 14.1677C1.5 16.9228 1.5 18.3003 1.5 18.3003C1.5 18.3003 5.63258 18.3003 13.8977 18.3003C22.1629 18.3003 26.2955 18.3003 26.2955 18.3003C26.2955 18.3003 26.2955 16.9228 26.2955 14.1677C26.2955 13.7026 26.2787 13.2824 26.2507 12.9051C26.1254 11.2149 24.6622 10.1793 22.9679 10.1353C21.0512 10.0855 18.0787 10.0352 13.8977 10.0352C9.71675 10.0352 6.7443 10.0855 4.82759 10.1353Z" stroke="white" stroke-width="2" stroke-linecap="round" stroke-linejoin="round"/>
<path d="M1.5 18.3008V18.8911C1.5 19.569 1.50834 20.1134 1.51927 20.5359C1.53759 21.2441 2.01882 21.8217 2.72707 21.8399C2.80566 21.8419 2.88858 21.843 2.97592 21.843C3.06327 21.843 3.14618 21.8419 3.22477 21.8399C3.93303 21.8217 4.41425 21.2441 4.43257 20.5359C4.44351 20.1134 4.45184 19.569 4.45184 18.8911V18.3008" stroke="white" stroke-width="2" stroke-linecap="round" stroke-linejoin="round"/>
<path d="M23.3457 18.3008V18.8911C23.3457 19.569 23.354 20.1134 23.3649 20.5359C23.3833 21.2441 23.8645 21.8217 24.5728 21.8399C24.6514 21.8419 24.7342 21.843 24.8216 21.843C24.909 21.843 24.9919 21.8419 25.0705 21.8399C25.7787 21.8217 26.2599 21.2441 26.2783 20.5359C26.2892 20.1134 26.2975 19.569 26.2975 18.8911V18.3008" stroke="white" stroke-width="2" stroke-linecap="round" stroke-linejoin="round"/>
</svg>
