<svg width="30" height="22" viewBox="0 0 30 22" fill="none" xmlns="http://www.w3.org/2000/svg">
<path d="M27.152 1H2.848C1.82738 1 1 1.81145 1 2.81242V19.1876C1 20.1886 1.82738 21 2.848 21H27.152C28.1726 21 29 20.1886 29 19.1876V2.81242C29 1.81145 28.1726 1 27.152 1Z" stroke="white" stroke-width="2" stroke-linecap="round" stroke-linejoin="round"/>
<path d="M20.0818 8.63281H24.3611" stroke="white" stroke-width="2" stroke-linecap="round" stroke-linejoin="round"/>
<path d="M20.0818 12.793H24.3611" stroke="white" stroke-width="2" stroke-linecap="round" stroke-linejoin="round"/>
<path d="M7.47705 9.32732C7.47705 11.2415 9.05929 12.7933 11.0111 12.7933C11.5045 12.7933 11.9743 12.6941 12.4009 12.515C13.6617 11.9855 14.5451 10.7576 14.5451 9.32732C14.5451 7.4131 12.9629 5.86133 11.0111 5.86133C9.05929 5.86133 7.47705 7.4131 7.47705 9.32732Z" stroke="white" stroke-width="2" stroke-linecap="round" stroke-linejoin="round"/>
<path d="M5.63892 16.2252C6.20047 15.1777 6.9897 14.3119 7.93074 13.7112C8.87177 13.1104 9.93297 12.7949 11.0123 12.7949C12.0917 12.7949 13.1529 13.1104 14.0939 13.7112C15.0349 14.3119 15.8242 15.1777 16.3857 16.2252" stroke="white" stroke-width="2" stroke-linecap="round" stroke-linejoin="round"/>
</svg>
