<svg width="32" height="32" viewBox="0 0 32 32" fill="none" xmlns="http://www.w3.org/2000/svg">
<path d="M15.9995 18.3017C19.1856 18.3017 21.7685 15.7188 21.7685 12.5327C21.7685 9.34654 19.1856 6.76367 15.9995 6.76367C12.8133 6.76367 10.2305 9.34654 10.2305 12.5327C10.2305 15.7188 12.8133 18.3017 15.9995 18.3017Z" stroke="white" stroke-width="2" stroke-linecap="round" stroke-linejoin="round"/>
<path d="M23.6376 24.65C21.5291 22.7876 18.8127 21.7598 15.9995 21.7598C13.1862 21.7598 10.4699 22.7876 8.36133 24.65" stroke="white" stroke-width="2" stroke-linecap="round" stroke-linejoin="round"/>
<path d="M30.999 24.0781V28.6933C30.999 29.3053 30.7558 29.8923 30.3231 30.325C29.8903 30.7578 29.3034 31.0009 28.6914 31.0009H24.0762" stroke="white" stroke-width="2" stroke-linecap="round" stroke-linejoin="round"/>
<path d="M24.0762 1H28.6914C29.3034 1 29.8903 1.24312 30.3231 1.67588C30.7558 2.10864 30.999 2.69558 30.999 3.3076V7.92279" stroke="white" stroke-width="2" stroke-linecap="round" stroke-linejoin="round"/>
<path d="M1 7.92279V3.3076C1 2.69558 1.24312 2.10864 1.67588 1.67588C2.10864 1.24312 2.69558 1 3.3076 1H7.92279" stroke="white" stroke-width="2" stroke-linecap="round" stroke-linejoin="round"/>
<path d="M7.92279 31.0009H3.3076C2.69558 31.0009 2.10864 30.7578 1.67588 30.325C1.24312 29.8923 1 29.3053 1 28.6933V24.0781" stroke="white" stroke-width="2" stroke-linecap="round" stroke-linejoin="round"/>
</svg>
