<svg width="101" height="101" viewBox="0 0 101 101" fill="none" xmlns="http://www.w3.org/2000/svg">
<path d="M50.4281 96.2848C42.6503 96.2848 35.1503 93.9932 27.9281 89.4098C20.7058 84.8265 15.0114 79.5834 10.8447 73.6807V87.9515H4.59473V62.9515H29.5947V69.2015H15.3239C18.8656 74.5487 23.9176 79.3577 30.4801 83.6286C37.0426 87.8994 43.692 90.0348 50.4281 90.0348C55.8447 90.0348 60.9663 88.9932 65.7926 86.9098C70.619 84.8265 74.8204 81.9966 78.3968 78.4202C81.9732 74.8439 84.8031 70.6425 86.8864 65.8161C88.9697 60.9897 90.0114 55.8682 90.0114 50.4515H96.2614C96.2614 56.7709 95.0635 62.7084 92.6676 68.264C90.2718 73.8196 86.9906 78.6807 82.8239 82.8473C78.6572 87.014 73.7961 90.2952 68.2406 92.6911C62.685 95.0869 56.7475 96.2848 50.4281 96.2848ZM47.4072 80.3473V74.7223C44.2822 73.889 41.6607 72.5522 39.5426 70.7119C37.4246 68.8716 35.6364 66.3543 34.1781 63.1598L39.4906 61.389C40.3239 64.0279 41.7996 66.1112 43.9176 67.639C46.0357 69.1668 48.4489 69.9307 51.1572 69.9307C53.935 69.9307 56.244 69.2536 58.0843 67.8994C59.9246 66.5452 60.8447 64.7571 60.8447 62.5348C60.8447 60.2432 59.9767 58.3161 58.2406 56.7536C56.5045 55.1911 53.31 53.4376 48.6572 51.4932C44.4906 49.7571 41.3656 47.8821 39.2822 45.8682C37.1989 43.8543 36.1572 41.1459 36.1572 37.7432C36.1572 34.6876 37.1989 32.0834 39.2822 29.9307C41.3656 27.7779 44.1433 26.4584 47.6156 25.9723V20.6598H53.3447V25.9723C55.9836 26.2501 58.2753 27.0834 60.2197 28.4723C62.1642 29.8612 63.7267 31.7709 64.9072 34.2015L59.9072 36.5973C58.8656 34.6529 57.5808 33.1946 56.0531 32.2223C54.5253 31.2501 52.7197 30.764 50.6364 30.764C47.9281 30.764 45.7926 31.389 44.2301 32.639C42.6676 33.889 41.8864 35.5904 41.8864 37.7432C41.8864 39.9654 42.7892 41.7362 44.5947 43.0557C46.4003 44.3751 49.317 45.8682 53.3447 47.5348C58.1364 49.5487 61.5392 51.6668 63.5531 53.889C65.567 56.1112 66.5739 58.9932 66.5739 62.5348C66.5739 64.2709 66.2614 65.8682 65.6364 67.3265C65.0114 68.7848 64.126 70.0348 62.9801 71.0765C61.8343 72.1182 60.4281 72.9689 58.7614 73.6286C57.0947 74.2883 55.2197 74.7223 53.1364 74.9307V80.3473H47.4072ZM4.59473 50.4515C4.59473 44.1321 5.79264 38.1946 8.18848 32.639C10.5843 27.0834 13.8656 22.2223 18.0322 18.0557C22.1989 13.889 27.06 10.6077 32.6156 8.21191C38.1711 5.81608 44.1086 4.61816 50.4281 4.61816C58.2058 4.61816 65.7058 6.90983 72.9281 11.4932C80.1503 16.0765 85.8447 21.3196 90.0114 27.2223V12.9515H96.2614V37.9515H71.2614V31.7015H85.5322C81.9906 26.3543 76.9558 21.5452 70.4281 17.2744C63.9003 13.0036 57.2336 10.8682 50.4281 10.8682C45.0114 10.8682 39.8899 11.9098 35.0635 13.9932C30.2371 16.0765 26.0357 18.9064 22.4593 22.4827C18.8829 26.0591 16.0531 30.2605 13.9697 35.0869C11.8864 39.9133 10.8447 45.0348 10.8447 50.4515H4.59473Z" fill="#1F133E"/>
</svg>
