<svg width="101" height="101" viewBox="0 0 101 101" fill="none" xmlns="http://www.w3.org/2000/svg">
<g clip-path="url(#clip0_13070_31097)">
<path d="M35.7023 93.1367C32.369 93.1367 29.4176 92.1471 26.8481 90.168C24.2787 88.1888 22.4731 85.6367 21.4315 82.5117C20.3204 84.3173 18.9662 85.7235 17.369 86.7305C15.7718 87.7374 13.862 88.2409 11.6398 88.2409C8.37592 88.2409 5.66759 87.0951 3.51481 84.8034C1.36203 82.5117 0.285645 79.8034 0.285645 76.6784C0.285645 73.2756 1.34467 70.5846 3.46273 68.6055C5.58078 66.6263 8.27176 65.602 11.5356 65.5326C10.2856 64.1437 9.31342 62.5291 8.61898 60.6888C7.92453 58.8485 7.57731 56.9909 7.57731 55.1159C7.57731 52.477 8.2544 50.0117 9.60856 47.7201C10.9627 45.4284 12.8898 43.5881 15.3898 42.1992C15.737 43.102 16.1711 44.0742 16.6919 45.1159C17.2127 46.1576 17.7509 47.0603 18.3065 47.8242C16.9176 48.727 15.8238 49.8381 15.0252 51.1576C14.2266 52.477 13.8273 53.8659 13.8273 55.3242C13.8273 59.4909 15.5113 62.1124 18.8794 63.1888C22.2475 64.2652 25.494 65.1159 28.619 65.7409L29.7648 67.7201C28.9315 70.1506 28.2544 72.1471 27.7336 73.7096C27.2127 75.2721 26.9523 76.7131 26.9523 78.0326C26.9523 80.3937 27.8377 82.4596 29.6086 84.2305C31.3794 86.0013 33.4454 86.8867 35.8065 86.8867C38.6537 86.8867 40.9975 85.6888 42.8377 83.293C44.678 80.8971 46.1711 78.0499 47.3169 74.7513C48.4627 71.4527 49.3481 68.1194 49.9731 64.7513C50.5981 61.3833 51.119 58.7617 51.5356 56.8867L57.5773 58.5534C56.9523 61.5395 56.2231 65.0117 55.3898 68.9701C54.5565 72.9284 53.3586 76.6957 51.7961 80.2721C50.2336 83.8485 48.185 86.8867 45.6502 89.3867C43.1155 91.8867 39.7995 93.1367 35.7023 93.1367ZM11.744 81.9909C13.2023 81.9909 14.435 81.4874 15.4419 80.4805C16.4488 79.4735 16.9523 78.2409 16.9523 76.7826C16.9523 75.3242 16.4488 74.0916 15.4419 73.0846C14.435 72.0777 13.2023 71.5742 11.744 71.5742C10.2856 71.5742 9.05301 72.0777 8.04606 73.0846C7.03912 74.0916 6.53565 75.3242 6.53565 76.7826C6.53565 78.2409 7.03912 79.4735 8.04606 80.4805C9.05301 81.4874 10.2856 81.9909 11.744 81.9909ZM42.994 62.1992C39.869 59.4214 37.0218 56.8346 34.4523 54.4388C31.8829 52.043 29.678 49.6992 27.8377 47.4076C25.9975 45.1159 24.5738 42.8589 23.5669 40.6367C22.56 38.4145 22.0565 36.0534 22.0565 33.5534C22.0565 29.3867 23.5148 25.8451 26.4315 22.9284C29.3481 20.0117 32.8898 18.5534 37.0565 18.5534C37.6815 18.5534 38.2718 18.5707 38.8273 18.6055C39.3829 18.6402 39.9384 18.727 40.494 18.8659C39.869 17.6853 39.4176 16.6784 39.1398 15.8451C38.862 15.0117 38.7231 14.1784 38.7231 13.3451C38.7231 10.1506 39.8343 7.44227 42.0565 5.22005C44.2787 2.99783 46.987 1.88672 50.1815 1.88672C53.3759 1.88672 56.0843 2.99783 58.3065 5.22005C60.5287 7.44227 61.6398 10.1506 61.6398 13.3451C61.6398 14.1089 61.5183 14.9249 61.2752 15.793C61.0322 16.661 60.5634 17.6853 59.869 18.8659C60.4245 18.727 60.9801 18.6402 61.5356 18.6055C62.0912 18.5707 62.6815 18.5534 63.3065 18.5534C67.2648 18.5534 70.6155 19.8207 73.3586 22.3555C76.1016 24.8902 77.6815 28.0326 78.0981 31.7826C77.1259 31.7131 76.0843 31.6957 74.9731 31.7305C73.862 31.7652 72.8204 31.852 71.8481 31.9909C71.5009 29.9076 70.5634 28.1888 69.0356 26.8346C67.5079 25.4805 65.5981 24.8034 63.3065 24.8034C60.737 24.8034 58.7058 25.5152 57.2127 26.9388C55.7197 28.3624 53.7231 30.5326 51.2231 33.4492H49.0356C46.4662 30.3937 44.435 28.1888 42.9419 26.8346C41.4488 25.4805 39.487 24.8034 37.0565 24.8034C34.5565 24.8034 32.4731 25.6367 30.8065 27.3034C29.1398 28.9701 28.3065 31.0534 28.3065 33.5534C28.3065 35.2201 28.7579 36.9214 29.6606 38.6576C30.5634 40.3937 31.8481 42.2513 33.5148 44.2305C35.1815 46.2096 37.1954 48.293 39.5565 50.4805C41.9176 52.668 44.5565 55.0812 47.4731 57.7201L42.994 62.1992ZM50.1815 18.5534C51.6398 18.5534 52.8725 18.0499 53.8794 17.043C54.8863 16.036 55.3898 14.8034 55.3898 13.3451C55.3898 11.8867 54.8863 10.6541 53.8794 9.64714C52.8725 8.64019 51.6398 8.13672 50.1815 8.13672C48.7231 8.13672 47.4905 8.64019 46.4836 9.64714C45.4766 10.6541 44.9731 11.8867 44.9731 13.3451C44.9731 14.8034 45.4766 16.036 46.4836 17.043C47.4905 18.0499 48.7231 18.5534 50.1815 18.5534ZM64.5565 93.2409C63.0287 93.2409 61.5183 92.9978 60.0252 92.5117C58.5322 92.0256 57.0912 91.2964 55.7023 90.3242C56.2579 89.4909 56.8134 88.5534 57.369 87.5117C57.9245 86.4701 58.3759 85.4978 58.7231 84.5951C59.6954 85.3589 60.685 85.9319 61.6919 86.3138C62.6988 86.6957 63.7231 86.8867 64.7648 86.8867C67.1954 86.8867 69.2613 86.0013 70.9627 84.2305C72.6641 82.4596 73.5148 80.3937 73.5148 78.0326C73.5148 76.6437 73.237 75.168 72.6815 73.6055C72.1259 72.043 71.4662 70.0812 70.7023 67.7201L71.8481 65.7409C75.0426 65.1853 78.3065 64.3694 81.6398 63.293C84.9732 62.2166 86.6398 59.5951 86.6398 55.4284C86.6398 52.3728 85.5287 50.0985 83.3065 48.6055C81.0843 47.1124 78.619 46.3659 75.9106 46.3659C72.994 46.3659 69.5391 46.9214 65.5461 48.0326C61.553 49.1437 56.9176 50.5673 51.6398 52.3034L50.0773 46.2617C55.3551 44.5256 60.112 43.0673 64.3481 41.8867C68.5843 40.7062 72.4384 40.1159 75.9106 40.1159C80.3551 40.1159 84.2961 41.4527 87.7336 44.1263C91.1711 46.7999 92.8898 50.5326 92.8898 55.3242C92.8898 57.1992 92.5426 59.0395 91.8482 60.8451C91.1537 62.6506 90.1815 64.2478 88.9315 65.6367C92.1259 65.7062 94.7995 66.7478 96.9523 68.7617C99.1051 70.7756 100.181 73.4492 100.181 76.7826C100.181 79.9076 99.1051 82.6159 96.9523 84.9076C94.7995 87.1992 92.0912 88.3451 88.8273 88.3451C86.6745 88.3451 84.7648 87.8416 83.0982 86.8346C81.4315 85.8277 80.0773 84.4214 79.0356 82.6159C77.9245 85.7409 76.0843 88.293 73.5148 90.2721C70.9454 92.2513 67.9593 93.2409 64.5565 93.2409ZM88.8273 82.0951C90.2162 82.0951 91.4141 81.5916 92.4211 80.5846C93.428 79.5777 93.9315 78.3451 93.9315 76.8867C93.9315 75.4978 93.4107 74.2652 92.369 73.1888C91.3273 72.1124 90.112 71.5742 88.7232 71.5742C87.3343 71.5742 86.119 72.0951 85.0773 73.1367C84.0357 74.1784 83.5148 75.3937 83.5148 76.7826C83.5148 78.1714 84.053 79.4041 85.1294 80.4805C86.2058 81.5569 87.4384 82.0951 88.8273 82.0951Z" fill="#1F133E"/>
</g>
<defs>
<clipPath id="clip0_13070_31097">
<rect width="100" height="100" fill="white" transform="translate(0.181152 0.115967)"/>
</clipPath>
</defs>
</svg>
