<svg width="101" height="101" viewBox="0 0 101 101" fill="none" xmlns="http://www.w3.org/2000/svg">
<path d="M18.1606 74.2832C25.4531 84.0968 37.0879 90.4482 50.196 90.4482C72.2796 90.4482 90.1821 72.4204 90.1821 50.182C90.1821 30.9079 76.7344 14.7966 58.7717 10.844" stroke="#1F133E" stroke-width="6" stroke-linecap="round" stroke-linejoin="round"/>
<path d="M10.1812 50.2441C10.1812 54.6723 10.8917 58.9334 12.2042 62.9184" stroke="#1F133E" stroke-width="6" stroke-linecap="round" stroke-linejoin="round"/>
<path d="M12.7231 36.116C14.3069 31.8669 16.5837 27.9589 19.4149 24.5317" stroke="#1F133E" stroke-width="6" stroke-linecap="round" stroke-linejoin="round"/>
<path d="M30.1606 15.3475C34.3246 12.9214 38.9635 11.2297 43.9025 10.4482" stroke="#1F133E" stroke-width="6" stroke-linecap="round" stroke-linejoin="round"/>
<path d="M66.0229 67.3905C66.0229 59.9653 59.8073 54.3337 50.1787 54.3337C40.5501 54.3337 34.3345 59.9653 34.3345 67.3905" stroke="#1F133E" stroke-width="6" stroke-linecap="round"/>
<path d="M50.1555 54.3346C57.2067 54.3346 62.9228 48.5784 62.9228 41.4779C62.9228 34.3773 57.2067 28.6211 50.1555 28.6211C43.1043 28.6211 37.3882 34.3773 37.3882 41.4779C37.3882 48.5784 43.1043 54.3346 50.1555 54.3346Z" stroke="#1F133E" stroke-width="6" stroke-linecap="round" stroke-linejoin="round"/>
</svg>
