<svg width="16" height="17" viewBox="0 0 16 17" fill="none" xmlns="http://www.w3.org/2000/svg">
<path d="M8 2.1C4.46538 2.1 1.6 4.96538 1.6 8.5C1.6 12.0346 4.46538 14.9 8 14.9C11.5346 14.9 14.4 12.0346 14.4 8.5C14.4 4.96538 11.5346 2.1 8 2.1ZM0 8.5C0 4.08172 3.58172 0.5 8 0.5C12.4183 0.5 16 4.08172 16 8.5C16 12.9183 12.4183 16.5 8 16.5C3.58172 16.5 0 12.9183 0 8.5Z" fill="#FF4D42"/>
<path d="M8 6.9C8.44183 6.9 8.8 7.25817 8.8 7.7V12.5C8.8 12.9418 8.44183 13.3 8 13.3C7.55817 13.3 7.2 12.9418 7.2 12.5V7.7C7.2 7.25817 7.55817 6.9 8 6.9Z" fill="#FF4D42"/>
<path d="M9.2 4.9C9.2 5.56274 8.66274 6.1 8 6.1C7.33726 6.1 6.8 5.56274 6.8 4.9C6.8 4.23726 7.33726 3.7 8 3.7C8.66274 3.7 9.2 4.23726 9.2 4.9Z" fill="#FF4D42"/>
</svg>
