<svg width="50" height="50" viewBox="0 0 50 50" fill="none" xmlns="http://www.w3.org/2000/svg">
<path d="M22.7954 13.541C21.7964 13.541 20.8693 14.052 20.3662 14.8801L20.255 15.0631C19.4714 16.3527 18.0716 17.1401 16.5625 17.1401C14.33 17.1401 12.5 18.8965 12.5 21.0391V32.4361C12.5 34.5787 14.33 36.3351 16.5625 36.3351H33.4375C35.67 36.3351 37.5 34.5787 37.5 32.4361V21.0391C37.5 18.8965 35.67 17.1401 33.4375 17.1401C31.9284 17.1401 30.5286 16.3527 29.745 15.0631L29.6338 14.8801C29.1307 14.052 28.2036 13.541 27.2046 13.541H22.7954ZM22.7954 15.3406H27.2046C27.5393 15.3406 27.8457 15.5101 28.0139 15.7869L29.6594 18.4933C29.742 18.629 29.8601 18.7417 30.0021 18.82C30.1441 18.8983 30.305 18.9395 30.4688 18.9396H33.4375C34.6563 18.9396 35.625 19.8693 35.625 21.0391V32.4361C35.625 33.6059 34.6563 34.5356 33.4375 34.5356H16.5625C15.3437 34.5356 14.375 33.6059 14.375 32.4361V21.0391C14.375 19.8693 15.3437 18.9396 16.5625 18.9396H19.5312C19.695 18.9395 19.8559 18.8983 19.9979 18.82C20.1399 18.7417 20.258 18.629 20.3406 18.4933L21.9861 15.7869C22.1543 15.5101 22.4607 15.3406 22.7954 15.3406ZM25 20.7392C21.9045 20.7392 19.375 23.1669 19.375 26.1378C19.375 29.1087 21.9045 31.5364 25 31.5364C28.0955 31.5364 30.625 29.1087 30.625 26.1378C30.625 23.1669 28.0955 20.7392 25 20.7392ZM25 22.5387C27.0822 22.5387 28.75 24.1394 28.75 26.1378C28.75 28.1361 27.0822 29.7368 25 29.7368C22.9178 29.7368 21.25 28.1361 21.25 26.1378C21.25 24.1394 22.9178 22.5387 25 22.5387Z" fill="white"/>
<path fill-rule="evenodd" clip-rule="evenodd" d="M25 47.9167C37.6565 47.9167 47.9167 37.6565 47.9167 25C47.9167 12.3435 37.6565 2.08333 25 2.08333C12.3435 2.08333 2.08333 12.3435 2.08333 25C2.08333 37.6565 12.3435 47.9167 25 47.9167ZM25 50C38.8071 50 50 38.8071 50 25C50 11.1929 38.8071 0 25 0C11.1929 0 0 11.1929 0 25C0 38.8071 11.1929 50 25 50Z" fill="white"/>
</svg>
