<svg width="100" height="101" viewBox="0 0 100 101" fill="none" xmlns="http://www.w3.org/2000/svg">
<g id="king_bed_FILL0_wght400_GRAD0_opsz48 1">
<path id="Vector" d="M18.3301 79.4954H15.1735L13.1217 71.1621H8.33008V48.8704C8.33008 47.0719 8.92036 45.5459 10.1009 44.2924C11.2815 43.0389 12.7745 42.4121 14.5801 42.4121H17.2884V27.4121C17.2884 25.6934 17.9004 24.222 19.1243 22.998C20.3483 21.7741 21.8197 21.1621 23.5384 21.1621H76.3509C78.0697 21.1621 79.541 21.7741 80.765 22.998C81.9889 24.222 82.6009 25.6934 82.6009 27.4121V42.4121H85.4134C87.1322 42.4121 88.6035 43.0241 89.8275 44.248C91.0514 45.472 91.6634 46.9434 91.6634 48.6621V71.1621H86.8717L84.811 79.4954H81.6408L79.5801 71.1621H20.5176L18.3301 79.4954ZM53.1217 42.4121H76.3509V27.4121H53.1217V42.4121ZM23.5384 42.4121H46.8717V27.4121H23.5384V42.4121ZM14.5801 64.9121H85.4134V48.6621H14.5801V64.9121Z" fill="#1F133E"/>
</g>
</svg>
