<svg width="91" height="91" viewBox="0 0 91 91" fill="none" xmlns="http://www.w3.org/2000/svg">
<g id="sensor_occupied_FILL0_wght400_GRAD0_opsz48 1">
<path id="Vector" d="M45.3633 42.0854C42.2383 42.0854 39.582 40.9917 37.3945 38.8042C35.207 36.6167 34.1133 33.9604 34.1133 30.8354C34.1133 27.7104 35.207 25.0542 37.3945 22.8667C39.582 20.6792 42.2383 19.5854 45.3633 19.5854C48.4883 19.5854 51.1445 20.6792 53.332 22.8667C55.5195 25.0542 56.6133 27.7104 56.6133 30.8354C56.6133 33.9604 55.5195 36.6167 53.332 38.8042C51.1445 40.9917 48.4883 42.0854 45.3633 42.0854ZM45.3633 36.4604C46.9258 36.4604 48.2539 35.9136 49.3477 34.8198C50.4414 33.7261 50.9883 32.3979 50.9883 30.8354C50.9883 29.2729 50.4414 27.9448 49.3477 26.8511C48.2539 25.7573 46.9258 25.2104 45.3633 25.2104C43.8008 25.2104 42.4727 25.7573 41.3789 26.8511C40.2852 27.9448 39.7383 29.2729 39.7383 30.8354C39.7383 32.3979 40.2852 33.7261 41.3789 34.8198C42.4727 35.9136 43.8008 36.4604 45.3633 36.4604ZM22.8633 64.5854V57.4604C22.8633 55.8354 23.3008 54.4292 24.1758 53.2417C25.0508 52.0542 26.4883 50.9292 28.4883 49.8667C31.1133 48.4917 33.832 47.4761 36.6445 46.8198C39.457 46.1636 42.3633 45.8354 45.3633 45.8354C48.3633 45.8354 51.2695 46.1636 54.082 46.8198C56.8945 47.4761 59.6133 48.4917 62.2383 49.8667C64.2383 50.9292 65.6758 52.0542 66.5508 53.2417C67.4258 54.4292 67.8633 55.8354 67.8633 57.4604V64.5854H22.8633ZM45.3633 51.4604C42.3633 51.4604 39.457 51.8667 36.6445 52.6792C33.832 53.4917 31.1133 54.7104 28.4883 56.3354V58.9604H62.2383V56.3354C59.6133 54.7104 56.8945 53.4917 54.082 52.6792C51.2695 51.8667 48.3633 51.4604 45.3633 51.4604ZM81.6445 30.6479C79.6445 25.8979 76.8008 21.6792 73.1133 17.9917C69.4258 14.3042 65.2383 11.4604 60.5508 9.46045L62.707 4.3042C68.1445 6.5542 72.957 9.77295 77.1445 13.9604C81.332 18.1479 84.582 22.9917 86.8945 28.4917L81.6445 30.6479ZM9.08203 30.6479L3.83203 28.4917C6.14453 22.9917 9.37891 18.1636 13.5352 14.0073C17.6914 9.85107 22.5195 6.6167 28.0195 4.3042L30.1758 9.5542C25.2383 11.6167 21.0039 14.4136 17.4727 17.9448C13.9414 21.4761 11.1445 25.7104 9.08203 30.6479ZM28.0195 87.3667C22.582 85.1167 17.7695 81.8979 13.582 77.7104C9.39453 73.5229 6.14453 68.6792 3.83203 63.1792L9.08203 60.9292C11.1445 65.8042 13.957 70.0386 17.5195 73.6323C21.082 77.2261 25.332 80.0542 30.2695 82.1167L28.0195 87.3667ZM62.707 87.3667L60.5508 82.1167C65.3008 80.1167 69.5039 77.2886 73.1601 73.6323C76.8164 69.9761 79.6445 65.7729 81.6445 61.0229L86.8945 63.1792C84.6445 68.6167 81.4258 73.4292 77.2383 77.6167C73.0508 81.8042 68.207 85.0542 62.707 87.3667ZM45.3633 58.9604H62.2383H28.4883H45.3633Z" fill="#1F133E"/>
</g>
</svg>
