<svg width="101" height="101" viewBox="0 0 101 101" fill="none" xmlns="http://www.w3.org/2000/svg">
<g id="mic_FILL1_wght400_GRAD0_opsz48 1">
<path id="Vector" d="M50.0378 56.2682C47.0517 56.2682 44.5517 55.1947 42.5378 53.0477C40.5239 50.9008 39.5169 48.2937 39.5169 45.2266V19.0807C39.5169 16.1872 40.5392 13.7277 42.5837 11.7023C44.6282 9.6768 47.1109 8.66406 50.0316 8.66406C52.9524 8.66406 55.4371 9.6768 57.4857 11.7023C59.5343 13.7277 60.5586 16.1872 60.5586 19.0807V45.2266C60.5586 48.2937 59.5517 50.9008 57.5378 53.0477C55.5239 55.1947 53.0239 56.2682 50.0378 56.2682ZM46.9128 87.8307V73.6641C39.5517 72.9002 33.3711 69.8099 28.3711 64.3932C23.3711 58.9766 20.8711 52.5877 20.8711 45.2266H27.1211C27.1211 51.546 29.3533 56.8585 33.8178 61.1641C38.2822 65.4696 43.6815 67.6224 50.0157 67.6224C56.3498 67.6224 61.7565 65.4696 66.2357 61.1641C70.7149 56.8585 72.9544 51.546 72.9544 45.2266H79.2044C79.2044 52.5877 76.7044 58.9766 71.7044 64.3932C66.7044 69.8099 60.5239 72.9002 53.1628 73.6641V87.8307H46.9128Z" fill="#1F133E"/>
</g>
</svg>
