<svg width="174" height="49" viewBox="0 0 174 49" fill="none" xmlns="http://www.w3.org/2000/svg">
<path d="M91.9582 36.7499V21.9888C91.9582 20.1146 91.6105 18.5833 90.902 17.3951C90.1935 16.2068 89.2488 15.3248 88.0559 14.749C86.8626 14.1733 85.4955 13.8793 83.9542 13.8793C82.5499 13.8793 81.2699 14.1611 80.1262 14.7245C78.9829 15.288 78.0757 16.0353 77.4044 16.9663L77.392 16.9785C76.8329 17.7748 76.5468 18.7303 76.5468 19.6858V33.7978C76.5468 35.4272 75.2172 36.7377 73.564 36.7377H71.4512V9.67752H76.5468V12.495C77.2553 11.8335 78.0633 11.27 78.9581 10.78C80.7352 9.82454 82.7238 9.34677 84.9361 9.34677C87.2479 9.34677 89.3111 9.83679 91.1382 10.8045C92.9652 11.7723 94.4067 13.2055 95.4633 15.0798C96.5195 16.954 97.0418 19.257 97.0418 21.9888V33.81C97.0418 35.4394 95.7118 36.7499 94.0587 36.7499H91.9582Z" fill="black"/>
<path d="M121.416 36.7499V21.9888C121.416 20.1146 121.068 18.5833 120.359 17.3951C119.651 16.2068 118.706 15.3248 117.513 14.749C116.32 14.1733 114.953 13.8793 113.412 13.8793C112.007 13.8793 110.727 14.1611 109.584 14.7245C108.44 15.288 107.533 16.0353 106.862 16.9663L106.849 16.9785C106.29 17.7748 106.004 18.7303 106.004 19.6858V33.81C106.004 35.4394 104.674 36.7499 103.021 36.7499H100.908V9.67752H106.004V12.495C106.712 11.8335 107.52 11.27 108.415 10.78C110.193 9.82454 112.181 9.34677 114.393 9.34677C116.705 9.34677 118.768 9.83679 120.595 10.8045C122.422 11.7723 123.864 13.2055 124.92 15.0798C125.977 16.954 126.499 19.257 126.499 21.9888V33.81C126.499 35.4394 125.169 36.7499 123.516 36.7499H121.416Z" fill="black"/>
<path d="M36.2799 0H31.3086V36.7502H36.2799V0Z" fill="black"/>
<path d="M173.988 9.30999V14.3325H168.271V33.81C168.271 35.4394 166.941 36.7502 165.288 36.7502H163.3V14.3325H157.707V9.30999H163.3V0.734985H168.271V9.30999H173.988Z" fill="black"/>
<path d="M25.7022 15.9496C24.4841 13.867 22.8437 12.2133 20.7804 11.0005C18.7051 9.80005 16.3561 9.18753 13.7335 9.18753C11.1359 9.18753 8.79933 9.7878 6.7364 11.0005C6.15218 11.3436 5.60516 11.7233 5.09562 12.1275V9.31003H0V49H2.11282C3.7657 49 5.09562 47.6895 5.09562 46.0601V32.242C6.26407 33.6386 7.66838 34.7289 9.32126 35.5497C10.9744 36.358 12.7767 36.7625 14.7401 36.7625C17.1762 36.7625 19.3513 36.1622 21.2903 34.9494C23.2165 33.7367 24.7454 32.1073 25.864 30.0248C26.9825 27.9546 27.5416 25.6148 27.5416 22.9933C27.5168 20.3841 26.9078 18.032 25.7022 15.9496ZM21.4517 27.7341C20.6688 29.1306 19.5999 30.2453 18.27 31.0417C16.9277 31.85 15.4114 32.2542 13.7087 32.2542C12.0434 32.2542 10.5269 31.85 9.17218 31.0417C7.81746 30.2331 6.7612 29.1306 5.99041 27.7341C5.54316 26.9133 5.21991 26.0436 5.03363 25.1126C4.93415 24.5858 4.85946 24.0468 4.84706 23.4833C4.84706 23.4343 4.84706 23.3731 4.84706 23.3241C4.84706 23.2261 4.84706 23.1281 4.84706 23.0178C4.84706 22.2706 4.90935 21.5601 5.04603 20.8863C5.04603 20.8741 5.04603 20.8496 5.05843 20.8373C5.24471 19.9063 5.55556 19.0488 6.0031 18.2403C6.7736 16.8438 7.82986 15.7413 9.18458 14.9328C10.5393 14.1243 12.0558 13.72 13.7211 13.72C15.4238 13.72 16.9524 14.1243 18.2824 14.9328C19.6247 15.7413 20.6812 16.8438 21.4641 18.2403C22.247 19.6368 22.645 21.2293 22.645 23.0056C22.6323 24.7573 22.247 26.3253 21.4517 27.7341Z" fill="black"/>
<path d="M67.7233 36.7502V23.0912H67.7109C67.7109 20.4942 67.1019 18.1545 65.8966 16.072C64.6909 14.0017 63.0501 12.3602 60.9996 11.1597C58.9488 9.95922 56.6246 9.35895 54.0394 9.35895C51.4543 9.35895 49.1304 9.95922 47.0548 11.1597C44.9791 12.3602 43.3387 14.0017 42.133 16.072C40.9274 18.1422 40.3184 20.482 40.3184 23.0912C40.3184 25.6883 40.8778 28.028 41.9839 30.0861C43.0898 32.1441 44.6063 33.7733 46.5325 34.9738C48.4591 36.1743 50.6218 36.7746 53.0452 36.7746C55.4688 36.7746 57.6313 36.1743 59.5578 34.9738C60.7386 34.2388 61.7577 33.3444 62.6277 32.2911V36.7624H67.7233V36.7502ZM61.6086 27.832C60.8378 29.2286 59.7816 30.3311 58.4517 31.1394C57.1093 31.948 55.5931 32.3522 53.8904 32.3522C52.2127 32.3522 50.7086 31.948 49.3539 31.1394C47.9991 30.3311 46.9305 29.2286 46.1473 27.832C45.3644 26.4355 44.9667 24.8552 44.9667 23.1157C44.9667 21.3395 45.3644 19.747 46.1473 18.3505C46.9305 16.954 47.9991 15.8515 49.3539 15.043C50.7086 14.2345 52.2127 13.8302 53.8904 13.8302C55.5931 13.8302 57.1217 14.2345 58.4517 15.043C59.794 15.8515 60.8378 16.954 61.6086 18.3505C62.3791 19.747 62.7644 21.3395 62.7644 23.1157C62.7644 24.8552 62.3791 26.4232 61.6086 27.832Z" fill="black"/>
<path d="M156.365 22.6994C156.365 20.1024 155.868 17.7994 154.886 15.8026C153.904 13.8058 152.475 12.2501 150.598 11.1108C148.722 9.9716 146.485 9.40808 143.874 9.40808C141.24 9.40808 138.891 9.9961 136.852 11.1599C134.814 12.3236 133.223 13.9406 132.067 15.9986C130.911 18.0566 130.34 20.4331 130.34 23.1404C130.34 25.8109 130.949 28.1751 132.167 30.2332C133.385 32.2912 135.075 33.9081 137.225 35.072C139.375 36.2356 141.849 36.8236 144.62 36.8236C146.149 36.8236 147.765 36.542 149.455 35.9784C151.468 35.3048 153.357 34.2634 154.861 32.7568C154.824 32.7934 151.854 30.1107 151.543 29.829C151.133 30.1718 150.586 30.6007 149.965 31.0048C149.952 31.0048 149.952 31.017 149.94 31.017C149.343 31.3845 148.635 31.7032 147.789 31.997C146.708 32.3767 145.639 32.5606 144.608 32.5606C142.706 32.5606 141.016 32.1443 139.549 31.3234C138.083 30.5026 136.927 29.3757 136.094 27.9669C135.535 27.0114 135.162 25.9824 134.976 24.8554H156.34V22.7239C156.365 22.7239 156.365 22.7116 156.365 22.6994ZM153.295 34.0673C153.283 34.0798 153.258 34.092 153.245 34.1042C153.221 34.1164 153.208 34.1287 153.183 34.1409C153.221 34.1164 153.258 34.092 153.295 34.0673ZM135.05 20.9476C135.224 20.0044 135.51 19.1224 135.908 18.3016C136.616 16.8683 137.635 15.7414 138.99 14.9206C140.345 14.0999 141.973 13.6833 143.874 13.6833C145.54 13.6833 146.969 14.0631 148.137 14.8226C149.306 15.5821 150.213 16.6111 150.847 17.9096C151.294 18.8406 151.593 19.8451 151.742 20.9476H135.05Z" fill="black"/>
</svg>
