<svg width="33" height="32" viewBox="0 0 33 32" fill="none" xmlns="http://www.w3.org/2000/svg">
<path d="M16.5056 15.6665C17.148 15.6665 17.697 15.4377 18.1526 14.9802C18.6082 14.5227 18.8359 13.9727 18.8359 13.3302C18.8359 12.6877 18.6072 12.1387 18.1496 11.6832C17.6921 11.2276 17.1421 10.9998 16.4996 10.9998C15.8572 10.9998 15.3082 11.2286 14.8526 11.6861C14.397 12.1436 14.1693 12.6936 14.1693 13.3361C14.1693 13.9786 14.398 14.5276 14.8556 14.9832C15.3131 15.4387 15.8631 15.6665 16.5056 15.6665ZM16.5026 26.6998C19.4582 24.011 21.6415 21.5721 23.0526 19.3832C24.4637 17.1943 25.1693 15.2665 25.1693 13.5998C25.1693 10.9823 24.3327 8.839 22.6595 7.17C20.9864 5.501 18.9341 4.6665 16.5026 4.6665C14.0711 4.6665 12.0188 5.501 10.3457 7.17C8.67251 8.839 7.83594 10.9823 7.83594 13.5998C7.83594 15.2665 8.55816 17.1943 10.0026 19.3832C11.447 21.5721 13.6137 24.011 16.5026 26.6998ZM16.5026 29.3332C12.9248 26.2887 10.2526 23.461 8.48594 20.8498C6.71927 18.2387 5.83594 15.8221 5.83594 13.5998C5.83594 10.2665 6.90816 7.61095 9.0526 5.63317C11.197 3.65539 13.6804 2.6665 16.5026 2.6665C19.3248 2.6665 21.8082 3.65539 23.9526 5.63317C26.097 7.61095 27.1693 10.2665 27.1693 13.5998C27.1693 15.8221 26.2859 18.2387 24.5193 20.8498C22.7526 23.461 20.0804 26.2887 16.5026 29.3332Z" fill="#404243" stroke="#404243" stroke-width="1.33333"/>
</svg>
