<svg xmlns="http://www.w3.org/2000/svg" width="100" height="100" viewBox="0 0 100 100" fill="none">
  <path d="M31 6C25.4946 6 21 10.4946 21 16V84C21 89.5054 25.4946 94 31 94H59C64.5054 94 69 89.5054 69 84V59H73C76.2696 59 79 56.3408 79 53V37C79 33.6593 76.2698 31 73 31H69V16C69 10.4946 64.5054 6 59 6H31ZM31 10H59C62.3586 10 65 12.6414 65 16V19H25V16C25 12.6414 27.6414 10 31 10ZM25 23H65V31H39C35.7302 31 33 33.6594 33 37V53C33 56.3407 35.7303 59 39 59H40V67C40.0032 67.3932 40.1222 67.7768 40.3422 68.1027C40.5622 68.4286 40.8734 68.6825 41.2369 68.8325C41.6003 68.9826 42 69.0222 42.3858 68.9464C42.7717 68.8706 43.1266 68.6827 43.4062 68.4062L52.8125 59H65V77H25V23ZM39 35H73C73.874 35 75 36.0635 75 37V53C75 53.9368 73.8742 55 73 55H52C51.4756 54.9959 50.9706 55.1979 50.5938 55.5625L44 62.1562V57C43.9999 56.4696 43.7892 55.9609 43.4142 55.5858C43.0391 55.2108 42.5304 55.0001 42 55H39C38.1257 55 37 53.9369 37 53V37C37 36.0634 38.1258 35 39 35ZM45 42C43.3431 42 42 43.3432 42 45C42 46.6569 43.3431 48 45 48C46.6568 48 48 46.6569 48 45C48 43.3432 46.6568 42 45 42ZM56 42C54.3431 42 53 43.3432 53 45C53 46.6569 54.3431 48 56 48C57.6568 48 59 46.6569 59 45C59 43.3432 57.6568 42 56 42ZM67 42C65.3431 42 64 43.3432 64 45C64 46.6569 65.3431 48 67 48C68.6569 48 70 46.6569 70 45C70 43.3432 68.6569 42 67 42ZM25 81H65V84C65 87.3586 62.3586 90 59 90H31C27.6414 90 25 87.3586 25 84V81Z" fill="white"/>
</svg>