<svg xmlns="http://www.w3.org/2000/svg" width="20" height="20" viewBox="0 0 20 20" fill="none">
  <path d="M15.5 16.3333V13.3333H12.5V11.8333H15.5V8.83333H17V11.8333H20V13.3333H17V16.3333H15.5ZM9.25 13.3333H5C3.61667 13.3333 2.4375 12.8458 1.4625 11.8708C0.4875 10.8958 0 9.71666 0 8.33333C0 6.95 0.4875 5.77083 1.4625 4.79583C2.4375 3.82083 3.61667 3.33333 5 3.33333H9.25V4.83333H5C4.02778 4.83333 3.20139 5.17304 2.52082 5.85245C1.84027 6.53185 1.5 7.35685 1.5 8.32745C1.5 9.29804 1.84027 10.125 2.52082 10.8083C3.20139 11.4917 4.02778 11.8333 5 11.8333H9.25V13.3333ZM6.125 9.08333V7.58333H13.875V9.08333H6.125ZM20 8.33333H18.5C18.5 7.36666 18.1597 6.54166 17.4792 5.85833C16.7986 5.175 15.9722 4.83333 15 4.83333H10.75V3.33333H15C16.3833 3.33333 17.5625 3.82083 18.5375 4.79583C19.5125 5.77083 20 6.95 20 8.33333Z" fill="white"/>
</svg>