<svg xmlns="http://www.w3.org/2000/svg" width="100" height="100" viewBox="0 0 100 100" fill="none">
  <path d="M71.3333 21.1111H64.2222V17.5556C64.2222 16.6126 63.8476 15.7082 63.1808 15.0414C62.514 14.3746 61.6097 14 60.6667 14C59.7237 14 58.8193 14.3746 58.1525 15.0414C57.4857 15.7082 57.1111 16.6126 57.1111 17.5556V21.1111H42.8889V17.5556C42.8889 16.6126 42.5143 15.7082 41.8475 15.0414C41.1807 14.3746 40.2763 14 39.3333 14C38.3903 14 37.486 14.3746 36.8192 15.0414C36.1524 15.7082 35.7778 16.6126 35.7778 17.5556V21.1111H28.6667C25.8386 21.1142 23.1273 22.239 21.1276 24.2387C19.1279 26.2384 18.0031 28.9498 18 31.7778V74.4445C18.0031 77.2725 19.1279 79.9838 21.1276 81.9835C23.1273 83.9832 25.8386 85.108 28.6667 85.1111H71.3333C74.1614 85.108 76.8727 83.9832 78.8724 81.9835C80.8721 79.9838 81.9969 77.2725 82 74.4445V31.7778C81.9969 28.9498 80.8721 26.2384 78.8724 24.2387C76.8727 22.239 74.1614 21.1142 71.3333 21.1111ZM74.8889 74.4445C74.8879 75.3872 74.513 76.291 73.8465 76.9576C73.1799 77.6242 72.276 77.9991 71.3333 78H28.6667C27.7241 77.9988 26.8204 77.6238 26.1539 76.9573C25.4873 76.2907 25.1123 75.3871 25.1111 74.4445V31.7778C25.1123 30.8352 25.4873 29.9315 26.1539 29.265C26.8204 28.5984 27.7241 28.2234 28.6667 28.2222H35.7778V31.7778C35.7778 32.7208 36.1524 33.6251 36.8192 34.2919C37.486 34.9587 38.3903 35.3333 39.3333 35.3333C40.2763 35.3333 41.1807 34.9587 41.8475 34.2919C42.5143 33.6251 42.8889 32.7208 42.8889 31.7778V28.2222H57.1111V31.7778C57.1111 32.7208 57.4857 33.6251 58.1525 34.2919C58.8193 34.9587 59.7237 35.3333 60.6667 35.3333C61.6097 35.3333 62.514 34.9587 63.1808 34.2919C63.8476 33.6251 64.2222 32.7208 64.2222 31.7778V28.2222H71.3333C72.276 28.2232 73.1799 28.5981 73.8465 29.2647C74.513 29.9313 74.8879 30.8351 74.8889 31.7778V74.4445ZM62.5695 44.3125C62.8997 44.6426 63.1617 45.0345 63.3404 45.4658C63.5191 45.8972 63.6111 46.3595 63.6111 46.8264C63.6111 47.2933 63.5191 47.7556 63.3404 48.187C63.1617 48.6183 62.8997 49.0102 62.5695 49.3403L50 61.9097C49.6699 62.24 49.278 62.5019 48.8467 62.6807C48.4154 62.8594 47.953 62.9514 47.4861 62.9514C47.0192 62.9514 46.5569 62.8594 46.1255 62.6807C45.6942 62.5019 45.3023 62.24 44.9722 61.9097L37.4288 54.3681C37.0987 54.0379 36.8368 53.646 36.6582 53.2147C36.4795 52.7834 36.3875 52.3211 36.3875 51.8542C36.3875 51.3873 36.4795 50.925 36.6582 50.4937C36.8368 50.0623 37.0987 49.6704 37.4288 49.3403C37.7589 49.0102 38.1509 48.7483 38.5822 48.5696C39.0135 48.3909 39.4758 48.299 39.9427 48.299C40.4096 48.299 40.8719 48.3909 41.3032 48.5696C41.7346 48.7483 42.1265 49.0101 42.4566 49.3403L47.4862 54.3681L57.5418 44.3125C57.8718 43.9823 58.2637 43.7203 58.6951 43.5416C59.1264 43.3629 59.5887 43.2709 60.0556 43.2709C60.5225 43.2709 60.9848 43.3629 61.4162 43.5416C61.8475 43.7203 62.2394 43.9823 62.5695 44.3125Z" fill="white"/>
</svg>