<svg width="22" height="23" viewBox="0 0 22 23" fill="none" xmlns="http://www.w3.org/2000/svg">
<path d="M7.29052 1V5.13869" stroke="#666666" stroke-width="1.5" stroke-linecap="round"/>
<path d="M14.6038 1V5.13869" stroke="#666666" stroke-width="1.5" stroke-linecap="round"/>
<path d="M1.32238 16.9421C1.58535 19.288 3.49227 21.1509 5.85032 21.2645C7.48017 21.3429 9.14513 21.3836 10.9521 21.3836C12.7591 21.3836 14.4241 21.3429 16.0539 21.2645C18.4119 21.1509 20.319 19.288 20.5819 16.9421C20.759 15.3621 20.9043 13.7423 20.9043 12.0922C20.9043 10.4422 20.759 8.82241 20.5819 7.24249C20.319 4.8964 18.4119 3.03363 16.0539 2.92008C14.4241 2.84158 12.7591 2.80078 10.9521 2.80078C9.14513 2.80078 7.48017 2.84158 5.85032 2.92008C3.49227 3.03363 1.58535 4.8964 1.32238 7.24249C1.14529 8.82241 1 10.4422 1 12.0922C1 13.7423 1.14529 15.3621 1.32238 16.9421Z" stroke="#666666" stroke-width="1.5"/>
<path d="M6.06238 9.63672H6.87734" stroke="#666666" stroke-width="1.5" stroke-linecap="round" stroke-linejoin="round"/>
<path d="M6.06238 14.5312H6.87734" stroke="#666666" stroke-width="1.5" stroke-linecap="round" stroke-linejoin="round"/>
<path d="M10.5436 9.63672H11.3585" stroke="#666666" stroke-width="1.5" stroke-linecap="round" stroke-linejoin="round"/>
<path d="M15.0269 9.63672H15.8418" stroke="#666666" stroke-width="1.5" stroke-linecap="round" stroke-linejoin="round"/>
<path d="M10.5436 14.5312H11.3585" stroke="#666666" stroke-width="1.5" stroke-linecap="round" stroke-linejoin="round"/>
</svg>
