<svg width="26" height="19" viewBox="0 0 26 19" fill="none" xmlns="http://www.w3.org/2000/svg">
<path d="M10.883 2.88542H24.7482M10.883 2.88542C10.883 3.32744 10.6583 3.75137 10.2582 4.06393C9.85819 4.37649 9.31563 4.55208 8.7499 4.55208C8.18416 4.55208 7.6416 4.37649 7.24157 4.06393C6.84153 3.75137 6.6168 3.32744 6.6168 2.88542M10.883 2.88542C10.883 2.44339 10.6583 2.01947 10.2582 1.70691C9.85819 1.39434 9.31563 1.21875 8.7499 1.21875C8.18416 1.21875 7.6416 1.39434 7.24157 1.70691C6.84153 2.01947 6.6168 2.44339 6.6168 2.88542M6.6168 2.88542H1.28404M10.883 16.2187H24.7482M10.883 16.2187C10.883 16.6608 10.6583 17.0847 10.2582 17.3973C9.85819 17.7098 9.31563 17.8854 8.7499 17.8854C8.18416 17.8854 7.6416 17.7098 7.24157 17.3973C6.84153 17.0847 6.6168 16.6608 6.6168 16.2187M10.883 16.2187C10.883 15.7767 10.6583 15.3528 10.2582 15.0402C9.85819 14.7277 9.31563 14.5521 8.7499 14.5521C8.18416 14.5521 7.6416 14.7277 7.24157 15.0402C6.84153 15.3528 6.6168 15.7767 6.6168 16.2187M6.6168 16.2187H1.28404M19.4154 9.55208H24.7482M19.4154 9.55208C19.4154 9.99411 19.1907 10.418 18.7906 10.7306C18.3906 11.0432 17.848 11.2187 17.2823 11.2187C16.7166 11.2187 16.174 11.0432 15.774 10.7306C15.3739 10.418 15.1492 9.99411 15.1492 9.55208M19.4154 9.55208C19.4154 9.11006 19.1907 8.68613 18.7906 8.37357C18.3906 8.06101 17.848 7.88542 17.2823 7.88542C16.7166 7.88542 16.174 8.06101 15.774 8.37357C15.3739 8.68613 15.1492 9.11006 15.1492 9.55208M15.1492 9.55208H1.28404" stroke="white" stroke-width="2" stroke-linecap="round" stroke-linejoin="round"/>
</svg>
