<svg width="27" height="24" viewBox="0 0 27 24" fill="none" xmlns="http://www.w3.org/2000/svg">
<path d="M2.73883 5.80578C4.25144 5.80578 5.47765 4.57956 5.47765 3.06695C5.47765 1.55434 4.25144 0.328125 2.73883 0.328125C1.22621 0.328125 0 1.55434 0 3.06695C0 4.57956 1.22621 5.80578 2.73883 5.80578Z" fill="white"/>
<path d="M9.31184 4.16762H25.197C25.4876 4.16762 25.7662 4.0522 25.9717 3.84675C26.1771 3.6413 26.2926 3.36265 26.2926 3.07209C26.2926 2.78154 26.1771 2.50289 25.9717 2.29744C25.7662 2.09198 25.4876 1.97656 25.197 1.97656H9.31184C9.02129 1.97656 8.74263 2.09198 8.53718 2.29744C8.33173 2.50289 8.21631 2.78154 8.21631 3.07209C8.21631 3.36265 8.33173 3.6413 8.53718 3.84675C8.74263 4.0522 9.02129 4.16762 9.31184 4.16762Z" fill="white"/>
<path d="M2.73883 14.5714C4.25144 14.5714 5.47765 13.3452 5.47765 11.8326C5.47765 10.32 4.25144 9.09375 2.73883 9.09375C1.22621 9.09375 0 10.32 0 11.8326C0 13.3452 1.22621 14.5714 2.73883 14.5714Z" fill="white"/>
<path d="M25.197 10.7422H9.31184C9.02129 10.7422 8.74263 10.8576 8.53718 11.0631C8.33173 11.2685 8.21631 11.5472 8.21631 11.8377C8.21631 12.1283 8.33173 12.4069 8.53718 12.6124C8.74263 12.8178 9.02129 12.9332 9.31184 12.9332H25.197C25.4876 12.9332 25.7662 12.8178 25.9717 12.6124C26.1771 12.4069 26.2926 12.1283 26.2926 11.8377C26.2926 11.5472 26.1771 11.2685 25.9717 11.0631C25.7662 10.8576 25.4876 10.7422 25.197 10.7422Z" fill="white"/>
<path d="M2.73883 23.3292C4.25144 23.3292 5.47765 22.103 5.47765 20.5904C5.47765 19.0778 4.25144 17.8516 2.73883 17.8516C1.22621 17.8516 0 19.0778 0 20.5904C0 22.103 1.22621 23.3292 2.73883 23.3292Z" fill="white"/>
<path d="M25.197 19.5H9.31184C9.02129 19.5 8.74263 19.6154 8.53718 19.8209C8.33173 20.0263 8.21631 20.305 8.21631 20.5955C8.21631 20.8861 8.33173 21.1647 8.53718 21.3702C8.74263 21.5756 9.02129 21.6911 9.31184 21.6911H25.197C25.4876 21.6911 25.7662 21.5756 25.9717 21.3702C26.1771 21.1647 26.2926 20.8861 26.2926 20.5955C26.2926 20.305 26.1771 20.0263 25.9717 19.8209C25.7662 19.6154 25.4876 19.5 25.197 19.5Z" fill="white"/>
</svg>
