<svg width="29" height="23" viewBox="0 0 29 23" fill="none" xmlns="http://www.w3.org/2000/svg">
<path d="M10.236 5.71388V14.8805M18.7684 8.21388V17.3805M19.4837 21.2672L26.4163 18.5594C26.9581 18.3483 27.3008 17.915 27.3008 17.4417V3.56944C27.3008 2.64055 26.0494 2.0361 24.9857 2.45166L19.4837 4.60055C19.0329 4.77721 18.5025 4.77721 18.0531 4.60055L10.9513 1.82721C10.7292 1.74047 10.4843 1.69531 10.236 1.69531C9.98769 1.69531 9.74279 1.74047 9.52069 1.82721L2.58811 4.53499C2.04488 4.74721 1.70358 5.18055 1.70358 5.65277V19.525C1.70358 20.4539 2.955 21.0583 4.01871 20.6428L9.52069 18.4939C9.97148 18.3172 10.5019 18.3172 10.9513 18.4939L18.0531 21.2683C18.5039 21.4439 19.0343 21.4439 19.4837 21.2683V21.2672Z" stroke="white" stroke-width="2" stroke-linecap="round" stroke-linejoin="round"/>
</svg>
