<svg width="27" height="29" viewBox="0 0 27 29" fill="none" xmlns="http://www.w3.org/2000/svg">
<path d="M25.7991 14.4918C25.7797 16.6357 25.1651 18.7323 24.0235 20.5496C22.8818 22.3669 21.2575 23.8338 19.3307 24.7878L13.3996 28.0002L7.46844 24.9114C5.52279 23.9479 3.88612 22.4618 2.74316 20.6206C1.60019 18.7795 0.996432 16.6567 1.00002 14.4918V3.28968C1.00002 2.74354 1.21775 2.21977 1.60531 1.8336C1.99287 1.44742 2.51851 1.23047 3.06661 1.23047H23.7325C24.2806 1.23047 24.8062 1.44742 25.1938 1.8336C25.5814 2.21977 25.7991 2.74354 25.7991 3.28968V14.4918Z" stroke="white" stroke-opacity="0.5" stroke-width="1.86567" stroke-linecap="round" stroke-linejoin="round"/>
<path d="M7.10433 6.79423C7.44395 6.43838 7.99459 6.43838 8.33421 6.79423L12.9372 11.6172L17.5403 6.79423C17.8799 6.43838 18.4305 6.43838 18.7701 6.79423C19.1098 7.15008 19.1098 7.72703 18.7701 8.08287L14.1671 12.9058L18.7701 17.7287C19.1098 18.0846 19.1098 18.6615 18.7701 19.0174C18.4305 19.3732 17.8799 19.3732 17.5403 19.0174L12.9372 14.1944L8.33421 19.0174C7.99459 19.3732 7.44395 19.3732 7.10433 19.0174C6.7647 18.6615 6.7647 18.0846 7.10433 17.7287L11.7074 12.9058L7.10433 8.08287C6.7647 7.72703 6.7647 7.15008 7.10433 6.79423Z" fill="white" fill-opacity="0.5"/>
</svg>
