<svg width="29" height="24" viewBox="0 0 29 24" fill="none" xmlns="http://www.w3.org/2000/svg">
<path d="M3.875 11.2821V8.59565C3.875 8.12066 4.06369 7.66512 4.39956 7.32925C4.73543 6.99338 5.19097 6.80469 5.66596 6.80469H12.8298C13.3048 6.80469 13.7603 6.99338 14.0962 7.32925C14.4321 7.66512 14.6208 8.12066 14.6208 8.59565V11.2821" stroke="white" stroke-opacity="0.7" stroke-width="1.86567" stroke-linecap="round" stroke-linejoin="round"/>
<path d="M14.6328 11.2821V8.59565C14.6328 8.12066 14.8215 7.66512 15.1574 7.32925C15.4932 6.99338 15.9488 6.80469 16.4238 6.80469H23.5876C24.0626 6.80469 24.5181 6.99338 24.854 7.32925C25.1899 7.66512 25.3786 8.12066 25.3786 8.59565V11.2821" stroke="white" stroke-opacity="0.7" stroke-width="1.86567" stroke-linecap="round" stroke-linejoin="round"/>
<path d="M3.58326 11.2812H25.6718C26.3051 11.2812 26.9125 11.5328 27.3603 11.9807C27.8081 12.4285 28.0597 13.0359 28.0597 13.6692V19.3406H1.19531V13.6692C1.19531 13.0359 1.4469 12.4285 1.89473 11.9807C2.34255 11.5328 2.94994 11.2812 3.58326 11.2812V11.2812Z" stroke="white" stroke-opacity="0.7" stroke-width="1.86567" stroke-linecap="round" stroke-linejoin="round"/>
<path d="M1.19531 19.3281V22.9107" stroke="white" stroke-opacity="0.7" stroke-width="1.86567" stroke-linecap="round" stroke-linejoin="round"/>
<path d="M28.0625 19.3281V22.9107" stroke="white" stroke-opacity="0.7" stroke-width="1.86567" stroke-linecap="round" stroke-linejoin="round"/>
<path d="M25.3665 11.28V3.22065C25.3665 2.74566 25.1778 2.29012 24.842 1.95425C24.5061 1.61838 24.0506 1.42969 23.5756 1.42969H5.66596C5.19097 1.42969 4.73543 1.61838 4.39956 1.95425C4.06369 2.29012 3.875 2.74566 3.875 3.22065V11.28" stroke="white" stroke-opacity="0.7" stroke-width="1.86567" stroke-linecap="round" stroke-linejoin="round"/>
</svg>
