<svg width="18" height="17" viewBox="0 0 18 17" fill="none" xmlns="http://www.w3.org/2000/svg">
<path d="M9.02069 0.988281C9.33985 0.988281 9.63162 1.16662 9.77435 1.44894L11.9474 5.74711L16.7256 6.43446C17.0429 6.48011 17.3066 6.69997 17.4057 7.00161C17.5048 7.30325 17.4221 7.63437 17.1925 7.85578L13.7149 11.2091L14.4972 15.937C14.5489 16.2495 14.4171 16.564 14.157 16.7486C13.8969 16.9332 13.5535 16.9561 13.2707 16.8077L9.02069 14.5775L4.77068 16.8077C4.48788 16.9561 4.14446 16.9332 3.88437 16.7486C3.62429 16.564 3.49247 16.2495 3.54417 15.937L4.32646 11.2091L0.848853 7.85578C0.619233 7.63437 0.536605 7.30325 0.635703 7.00161C0.734801 6.69997 0.998443 6.48011 1.3158 6.43446L6.09398 5.74711L8.26702 1.44894C8.40976 1.16662 8.70153 0.988281 9.02069 0.988281Z" fill="#FF8A00"/>
</svg>
