<svg width="23" height="22" viewBox="0 0 23 22" fill="none" xmlns="http://www.w3.org/2000/svg">
<path d="M11.0691 1.48533C11.3776 0.797841 12.3537 0.797842 12.6622 1.48533L14.5349 5.65774C14.9158 6.50641 15.7182 7.0894 16.643 7.1894L21.1899 7.68106C21.9391 7.76207 22.2407 8.69035 21.6822 9.19625L18.2927 12.2666C17.6033 12.8911 17.2968 13.8344 17.4875 14.7449L18.425 19.2212C18.5794 19.9587 17.7898 20.5324 17.1361 20.1576L13.1686 17.8828C12.3616 17.4201 11.3697 17.4201 10.5627 17.8828L6.59525 20.1576C5.94153 20.5324 5.15189 19.9587 5.30636 19.2211L6.24383 14.7449C6.43451 13.8344 6.12801 12.8911 5.43859 12.2666L2.04907 9.19625C1.49058 8.69035 1.7922 7.76207 2.54138 7.68106L7.08827 7.1894C8.0131 7.0894 8.81552 6.50641 9.19642 5.65774L11.0691 1.48533Z" stroke="white" stroke-width="1.74627"/>
</svg>
