<svg width="26" height="25" viewBox="0 0 26 25" fill="none" xmlns="http://www.w3.org/2000/svg">
<path d="M9.26425 10.6769C11.8005 10.6769 13.8566 8.62086 13.8566 6.08456C13.8566 3.54827 11.8005 1.49219 9.26425 1.49219C6.72796 1.49219 4.67188 3.54827 4.67188 6.08456C4.67188 8.62086 6.72796 10.6769 9.26425 10.6769Z" stroke="white" stroke-opacity="0.7" stroke-width="1.86567" stroke-linecap="round" stroke-linejoin="round"/>
<path d="M1 23.5378H9.26628H17.5326V22.5419C17.5179 21.1416 17.1487 19.7682 16.4593 18.5493C15.7699 17.3307 14.7828 16.3065 13.5903 15.5727C12.3978 14.8388 11.0388 14.4192 9.64013 14.353C9.51544 14.3471 9.39079 14.344 9.26628 14.3438C9.14177 14.344 9.01711 14.3471 8.89242 14.353C7.49379 14.4192 6.13474 14.8388 4.94222 15.5727C3.74973 16.3065 2.76268 17.3307 2.07328 18.5493C1.38388 19.7682 1.01462 21.1416 1 22.5419V23.5378Z" stroke="white" stroke-opacity="0.7" stroke-width="1.86567" stroke-linecap="round" stroke-linejoin="round"/>
<path d="M16.6172 10.6769C19.1535 10.6769 21.2096 8.62086 21.2096 6.08456C21.2096 3.54827 19.1535 1.49219 16.6172 1.49219" stroke="white" stroke-opacity="0.7" stroke-width="1.86567" stroke-linecap="round" stroke-linejoin="round"/>
<path d="M21.2007 23.5345H24.8746V22.5387C24.8599 21.1384 24.4907 19.7649 23.8013 18.5461C23.1119 17.3274 22.1249 16.3033 20.9324 15.5694C20.1616 15.095 19.321 14.752 18.4453 14.5508" stroke="white" stroke-opacity="0.7" stroke-width="1.86567" stroke-linecap="round" stroke-linejoin="round"/>
</svg>
