<svg width="17" height="22" viewBox="0 0 17 22" fill="none" xmlns="http://www.w3.org/2000/svg">
<path d="M8.50285 9.33333C10.804 9.33333 12.6695 7.46785 12.6695 5.16667C12.6695 2.86548 10.804 1 8.50285 1C6.20166 1 4.33618 2.86548 4.33618 5.16667C4.33618 7.46785 6.20166 9.33333 8.50285 9.33333Z" stroke="#666666" stroke-width="1.25" stroke-linecap="round" stroke-linejoin="round"/>
<path d="M1 21.0019H8.5H16V20.0984C15.9867 18.8279 15.6517 17.5817 15.0262 16.4759C14.4007 15.3702 13.5052 14.441 12.4232 13.7752C11.3412 13.1094 10.1082 12.7286 8.8392 12.6686C8.72607 12.6632 8.61297 12.6604 8.5 12.6602C8.38703 12.6604 8.27393 12.6632 8.1608 12.6686C6.89182 12.7286 5.65875 13.1094 4.57678 13.7752C3.49483 14.441 2.59928 15.3702 1.97378 16.4759C1.3483 17.5817 1.01327 18.8279 1 20.0984V21.0019Z" stroke="#666666" stroke-width="1.25" stroke-linecap="round" stroke-linejoin="round"/>
</svg>
